<svg xmlns="http://www.w3.org/2000/svg" version="1.1" width="962.7mm" height="262.7mm" viewBox = " 0 0 3411.144537 930.8275369999999" >
<!-- Front--> 
<g transform="translate(22.5000185, 22.5000185) " > 
<polygon style="stroke:#000000; fill:none; stroke-width:0.90000074" points="11.338592, 0 35.433099999999996, 0 35.433099999999996, 11.338592 47.65751949999999, 11.338592 47.65751949999999, 71.22053100000001 43.228381999999996, 71.22053100000001 43.228381999999996, 80.07880600000001 47.65751949999999, 80.07880600000001 47.65751949999999, 88.937081 58.641780499999996, 88.937081 58.641780499999996, 80.07880600000001 63.07091799999999, 80.07880600000001 63.07091799999999, 71.22053100000001 58.641780499999996, 71.22053100000001 58.641780499999996, 11.338592 70.86619999999999, 11.338592 70.86619999999999, 0 99.21267999999999, 0 99.21267999999999, 11.338592 127.55915999999999, 11.338592 127.55915999999999, 0 155.90564, 0 155.90564, 11.338592 184.25212, 11.338592 184.25212, 0 212.59859999999998, 0 212.59859999999998, 11.338592 240.94508, 11.338592 240.94508, 0 269.29156, 0 269.29156, 11.338592 297.63804, 11.338592 297.63804, 0 325.98452, 0 325.98452, 11.338592 354.33099999999996, 11.338592 354.33099999999996, 0 382.67748, 0 382.67748, 11.338592 411.02396, 11.338592 411.02396, 0 439.37044, 0 439.37044, 11.338592 467.71692, 11.338592 467.71692, 0 496.0634, 0 496.0634, 11.338592 524.4098799999999, 11.338592 524.4098799999999, 0 552.75636, 0 552.75636, 11.338592 581.10284, 11.338592 581.10284, 0 609.44932, 0 609.44932, 11.338592 637.7957999999999, 11.338592 637.7957999999999, 0 666.14228, 0 666.14228, 11.338592 694.48876, 11.338592 694.48876, 0 722.8352399999999, 0 722.8352399999999, 11.338592 751.18172, 11.338592 751.18172, 0 779.5282, 0 779.5282, 11.338592 807.8746799999999, 11.338592 807.8746799999999, 0 836.22116, 0 836.22116, 11.338592 864.56764, 11.338592 864.56764, 0 892.9141199999999, 0 892.9141199999999, 11.338592 921.2606000000001, 11.338592 921.2606000000001, 0 949.60708, 0 949.60708, 11.338592 977.9535599999999, 11.338592 977.9535599999999, 0 1006.3000400000001, 0 1006.3000400000001, 11.338592 1034.64652, 11.338592 1034.64652, 0 1062.993, 0 1062.993, 11.338592 1091.3394799999999, 11.338592 1091.3394799999999, 0 1119.68596, 0 1119.68596, 11.338592 1148.03244, 11.338592 1148.03244, 0 1176.3789199999999, 0 1176.3789199999999, 11.338592 1204.7253999999998, 11.338592 1204.7253999999998, 0 1233.07188, 0 1233.07188, 11.338592 1261.41836, 11.338592 1261.41836, 0 1289.7648399999998, 0 1289.7648399999998, 11.338592 1318.11132, 11.338592 1318.11132, 0 1346.4578, 0 1346.4578, 11.338592 1358.6822195, 11.338592 1358.6822195, 71.22053100000001 1354.253082, 71.22053100000001 1354.253082, 80.07880600000001 1358.6822195, 80.07880600000001 1358.6822195, 88.937081 1369.6664805, 88.937081 1369.6664805, 80.07880600000001 1374.095618, 80.07880600000001 1374.095618, 71.22053100000001 1369.6664805, 71.22053100000001 1369.6664805, 11.338592 1381.8908999999999, 11.338592 1381.8908999999999, 0 1405.985408, 0 1405.985408, 38.97641 1417.324, 38.97641 1417.324, 51.9094915 1404.213753, 51.9094915 1404.213753, 65.0197385 1417.324, 65.0197385 1417.324, 77.95282 1405.985408, 77.95282 1405.985408, 106.2993 1417.324, 106.2993 1417.324, 134.64578 1405.985408, 134.64578 1405.985408, 162.99226 1417.324, 162.99226 1417.324, 191.33874 1405.985408, 191.33874 1405.985408, 219.68522 1417.324, 219.68522 1417.324, 248.0317 1405.985408, 248.0317 1405.985408, 276.37818000000004 1417.324, 276.37818000000004 1417.324, 289.31126150000006 1404.213753, 289.31126150000006 1404.213753, 302.4215085 1417.324, 302.4215085 1417.324, 315.35459000000003 1405.985408, 315.35459000000003 1405.985408, 354.331 1381.8908999999999, 354.331 1381.8908999999999, 342.992408 1369.6664805, 342.992408 1369.6664805, 283.110469 1374.095618, 283.110469 1374.095618, 274.25219400000003 1369.6664805, 274.25219400000003 1369.6664805, 265.393919 1358.6822195, 265.393919 1358.6822195, 274.25219400000003 1354.253082, 274.25219400000003 1354.253082, 283.110469 1358.6822195, 283.110469 1358.6822195, 342.992408 1346.4578, 342.992408 1346.4578, 354.331 1318.11132, 354.331 1318.11132, 342.992408 1289.7648399999998, 342.992408 1289.7648399999998, 354.331 1261.41836, 354.331 1261.41836, 342.992408 1233.07188, 342.992408 1233.07188, 354.331 1204.7253999999998, 354.331 1204.7253999999998, 342.992408 1176.3789199999999, 342.992408 1176.3789199999999, 354.331 1148.03244, 354.331 1148.03244, 342.992408 1119.68596, 342.992408 1119.68596, 354.331 1091.3394799999999, 354.331 1091.3394799999999, 342.992408 1062.993, 342.992408 1062.993, 354.331 1034.64652, 354.331 1034.64652, 342.992408 1006.3000400000001, 342.992408 1006.3000400000001, 354.331 977.9535599999999, 354.331 977.9535599999999, 342.992408 949.60708, 342.992408 949.60708, 354.331 921.2606000000001, 354.331 921.2606000000001, 342.992408 892.9141199999999, 342.992408 892.9141199999999, 354.331 864.56764, 354.331 864.56764, 342.992408 836.22116, 342.992408 836.22116, 354.331 807.8746799999999, 354.331 807.8746799999999, 342.992408 779.5282, 342.992408 779.5282, 354.331 751.18172, 354.331 751.18172, 342.992408 722.8352399999999, 342.992408 722.8352399999999, 354.331 694.48876, 354.331 694.48876, 342.992408 666.14228, 342.992408 666.14228, 354.331 637.7957999999999, 354.331 637.7957999999999, 342.992408 609.44932, 342.992408 609.44932, 354.331 581.10284, 354.331 581.10284, 342.992408 552.75636, 342.992408 552.75636, 354.331 524.4098799999999, 354.331 524.4098799999999, 342.992408 496.0634, 342.992408 496.0634, 354.331 467.71692, 354.331 467.71692, 342.992408 439.37044, 342.992408 439.37044, 354.331 411.02396, 354.331 411.02396, 342.992408 382.67748, 342.992408 382.67748, 354.331 354.33099999999996, 354.331 354.33099999999996, 342.992408 325.98452, 342.992408 325.98452, 354.331 297.63804, 354.331 297.63804, 342.992408 269.29156, 342.992408 269.29156, 354.331 240.94508, 354.331 240.94508, 342.992408 212.59859999999998, 342.992408 212.59859999999998, 354.331 184.25212, 354.331 184.25212, 342.992408 155.90564, 342.992408 155.90564, 354.331 127.55915999999999, 354.331 127.55915999999999, 342.992408 99.21267999999999, 342.992408 99.21267999999999, 354.331 70.86619999999999, 354.331 70.86619999999999, 342.992408 58.641780499999996, 342.992408 58.641780499999996, 283.110469 63.07091799999999, 283.110469 63.07091799999999, 274.25219400000003 58.641780499999996, 274.25219400000003 58.641780499999996, 265.393919 47.65751949999999, 265.393919 47.65751949999999, 274.25219400000003 43.228381999999996, 274.25219400000003 43.228381999999996, 283.110469 47.65751949999999, 283.110469 47.65751949999999, 342.992408 35.433099999999996, 342.992408 35.433099999999996, 354.331 11.338592, 354.331 11.338592, 315.35459000000003 0, 315.35459000000003 0, 302.4215085 13.110247000000001, 302.4215085 13.110247000000001, 289.31126150000006 0, 289.31126150000006 0, 276.37818000000004 11.338592, 276.37818000000004 11.338592, 248.0317 0, 248.0317 0, 219.68522 11.338592, 219.68522 11.338592, 191.33874 0, 191.33874 0, 162.99226 11.338592, 162.99226 11.338592, 134.64578 0, 134.64578 0, 106.2993 11.338592, 106.2993 11.338592, 77.95282 0, 77.95282 0, 65.0197385 13.110247000000001, 65.0197385 13.110247000000001, 51.9094915 0, 51.9094915 0, 38.97641 11.338592, 38.97641 "/> 
</g>
<!-- Back--> 
<g transform="translate(1439.8240185, 22.5000185) " > 
<polygon style="stroke:#000000; fill:none; stroke-width:0.90000074" points="11.338592, 0 35.433099999999996, 0 35.433099999999996, 11.338592 47.65751949999999, 11.338592 47.65751949999999, 71.22053100000001 43.228381999999996, 71.22053100000001 43.228381999999996, 80.07880600000001 47.65751949999999, 80.07880600000001 47.65751949999999, 88.937081 58.641780499999996, 88.937081 58.641780499999996, 80.07880600000001 63.07091799999999, 80.07880600000001 63.07091799999999, 71.22053100000001 58.641780499999996, 71.22053100000001 58.641780499999996, 11.338592 70.86619999999999, 11.338592 70.86619999999999, 0 99.21267999999999, 0 99.21267999999999, 11.338592 127.55915999999999, 11.338592 127.55915999999999, 0 155.90564, 0 155.90564, 11.338592 184.25212, 11.338592 184.25212, 0 212.59859999999998, 0 212.59859999999998, 11.338592 240.94508, 11.338592 240.94508, 0 269.29156, 0 269.29156, 11.338592 297.63804, 11.338592 297.63804, 0 325.98452, 0 325.98452, 11.338592 354.33099999999996, 11.338592 354.33099999999996, 0 382.67748, 0 382.67748, 11.338592 411.02396, 11.338592 411.02396, 0 439.37044, 0 439.37044, 11.338592 467.71692, 11.338592 467.71692, 0 496.0634, 0 496.0634, 11.338592 524.4098799999999, 11.338592 524.4098799999999, 0 552.75636, 0 552.75636, 11.338592 581.10284, 11.338592 581.10284, 0 609.44932, 0 609.44932, 11.338592 637.7957999999999, 11.338592 637.7957999999999, 0 666.14228, 0 666.14228, 11.338592 694.48876, 11.338592 694.48876, 0 722.8352399999999, 0 722.8352399999999, 11.338592 751.18172, 11.338592 751.18172, 0 779.5282, 0 779.5282, 11.338592 807.8746799999999, 11.338592 807.8746799999999, 0 836.22116, 0 836.22116, 11.338592 864.56764, 11.338592 864.56764, 0 892.9141199999999, 0 892.9141199999999, 11.338592 921.2606000000001, 11.338592 921.2606000000001, 0 949.60708, 0 949.60708, 11.338592 977.9535599999999, 11.338592 977.9535599999999, 0 1006.3000400000001, 0 1006.3000400000001, 11.338592 1034.64652, 11.338592 1034.64652, 0 1062.993, 0 1062.993, 11.338592 1091.3394799999999, 11.338592 1091.3394799999999, 0 1119.68596, 0 1119.68596, 11.338592 1148.03244, 11.338592 1148.03244, 0 1176.3789199999999, 0 1176.3789199999999, 11.338592 1204.7253999999998, 11.338592 1204.7253999999998, 0 1233.07188, 0 1233.07188, 11.338592 1261.41836, 11.338592 1261.41836, 0 1289.7648399999998, 0 1289.7648399999998, 11.338592 1318.11132, 11.338592 1318.11132, 0 1346.4578, 0 1346.4578, 11.338592 1358.6822195, 11.338592 1358.6822195, 71.22053100000001 1354.253082, 71.22053100000001 1354.253082, 80.07880600000001 1358.6822195, 80.07880600000001 1358.6822195, 88.937081 1369.6664805, 88.937081 1369.6664805, 80.07880600000001 1374.095618, 80.07880600000001 1374.095618, 71.22053100000001 1369.6664805, 71.22053100000001 1369.6664805, 11.338592 1381.8908999999999, 11.338592 1381.8908999999999, 0 1405.985408, 0 1405.985408, 38.97641 1417.324, 38.97641 1417.324, 51.9094915 1404.213753, 51.9094915 1404.213753, 65.0197385 1417.324, 65.0197385 1417.324, 77.95282 1405.985408, 77.95282 1405.985408, 106.2993 1417.324, 106.2993 1417.324, 134.64578 1405.985408, 134.64578 1405.985408, 162.99226 1417.324, 162.99226 1417.324, 191.33874 1405.985408, 191.33874 1405.985408, 219.68522 1417.324, 219.68522 1417.324, 248.0317 1405.985408, 248.0317 1405.985408, 276.37818000000004 1417.324, 276.37818000000004 1417.324, 289.31126150000006 1404.213753, 289.31126150000006 1404.213753, 302.4215085 1417.324, 302.4215085 1417.324, 315.35459000000003 1405.985408, 315.35459000000003 1405.985408, 354.331 1381.8908999999999, 354.331 1381.8908999999999, 342.992408 1369.6664805, 342.992408 1369.6664805, 283.110469 1374.095618, 283.110469 1374.095618, 274.25219400000003 1369.6664805, 274.25219400000003 1369.6664805, 265.393919 1358.6822195, 265.393919 1358.6822195, 274.25219400000003 1354.253082, 274.25219400000003 1354.253082, 283.110469 1358.6822195, 283.110469 1358.6822195, 342.992408 1346.4578, 342.992408 1346.4578, 354.331 1318.11132, 354.331 1318.11132, 342.992408 1289.7648399999998, 342.992408 1289.7648399999998, 354.331 1261.41836, 354.331 1261.41836, 342.992408 1233.07188, 342.992408 1233.07188, 354.331 1204.7253999999998, 354.331 1204.7253999999998, 342.992408 1176.3789199999999, 342.992408 1176.3789199999999, 354.331 1148.03244, 354.331 1148.03244, 342.992408 1119.68596, 342.992408 1119.68596, 354.331 1091.3394799999999, 354.331 1091.3394799999999, 342.992408 1062.993, 342.992408 1062.993, 354.331 1034.64652, 354.331 1034.64652, 342.992408 1006.3000400000001, 342.992408 1006.3000400000001, 354.331 977.9535599999999, 354.331 977.9535599999999, 342.992408 949.60708, 342.992408 949.60708, 354.331 921.2606000000001, 354.331 921.2606000000001, 342.992408 892.9141199999999, 342.992408 892.9141199999999, 354.331 864.56764, 354.331 864.56764, 342.992408 836.22116, 342.992408 836.22116, 354.331 807.8746799999999, 354.331 807.8746799999999, 342.992408 779.5282, 342.992408 779.5282, 354.331 751.18172, 354.331 751.18172, 342.992408 722.8352399999999, 342.992408 722.8352399999999, 354.331 694.48876, 354.331 694.48876, 342.992408 666.14228, 342.992408 666.14228, 354.331 637.7957999999999, 354.331 637.7957999999999, 342.992408 609.44932, 342.992408 609.44932, 354.331 581.10284, 354.331 581.10284, 342.992408 552.75636, 342.992408 552.75636, 354.331 524.4098799999999, 354.331 524.4098799999999, 342.992408 496.0634, 342.992408 496.0634, 354.331 467.71692, 354.331 467.71692, 342.992408 439.37044, 342.992408 439.37044, 354.331 411.02396, 354.331 411.02396, 342.992408 382.67748, 342.992408 382.67748, 354.331 354.33099999999996, 354.331 354.33099999999996, 342.992408 325.98452, 342.992408 325.98452, 354.331 297.63804, 354.331 297.63804, 342.992408 269.29156, 342.992408 269.29156, 354.331 240.94508, 354.331 240.94508, 342.992408 212.59859999999998, 342.992408 212.59859999999998, 354.331 184.25212, 354.331 184.25212, 342.992408 155.90564, 342.992408 155.90564, 354.331 127.55915999999999, 354.331 127.55915999999999, 342.992408 99.21267999999999, 342.992408 99.21267999999999, 354.331 70.86619999999999, 354.331 70.86619999999999, 342.992408 58.641780499999996, 342.992408 58.641780499999996, 283.110469 63.07091799999999, 283.110469 63.07091799999999, 274.25219400000003 58.641780499999996, 274.25219400000003 58.641780499999996, 265.393919 47.65751949999999, 265.393919 47.65751949999999, 274.25219400000003 43.228381999999996, 274.25219400000003 43.228381999999996, 283.110469 47.65751949999999, 283.110469 47.65751949999999, 342.992408 35.433099999999996, 342.992408 35.433099999999996, 354.331 11.338592, 354.331 11.338592, 315.35459000000003 0, 315.35459000000003 0, 302.4215085 13.110247000000001, 302.4215085 13.110247000000001, 289.31126150000006 0, 289.31126150000006 0, 276.37818000000004 11.338592, 276.37818000000004 11.338592, 248.0317 0, 248.0317 0, 219.68522 11.338592, 219.68522 11.338592, 191.33874 0, 191.33874 0, 162.99226 11.338592, 162.99226 11.338592, 134.64578 0, 134.64578 0, 106.2993 11.338592, 106.2993 11.338592, 77.95282 0, 77.95282 0, 65.0197385 13.110247000000001, 65.0197385 13.110247000000001, 51.9094915 0, 51.9094915 0, 38.97641 11.338592, 38.97641 "/> 
</g>
<!-- Left--> 
<g transform="translate(2857.1480185, 22.5000185) " > 
<polygon style="stroke:#000000; fill:none; stroke-width:0.90000074" points="0, 11.338592 40.748065, 11.338592 40.748065, 0 54.566973999999995, 0 54.566973999999995, 13.110247000000001 67.677221, 13.110247000000001 67.677221, 0 81.49613, 0 81.49613, 11.338592 109.84261, 11.338592 109.84261, 0 138.18909, 0 138.18909, 11.338592 166.53557, 11.338592 166.53557, 0 194.88205, 0 194.88205, 11.338592 223.22852999999998, 11.338592 223.22852999999998, 0 251.57501, 0 251.57501, 11.338592 279.92149, 11.338592 279.92149, 0 308.26797, 0 308.26797, 11.338592 336.61445, 11.338592 336.61445, 0 364.96092999999996, 0 364.96092999999996, 11.338592 393.30741, 11.338592 393.30741, 0 421.65389, 0 421.65389, 11.338592 450.00037, 11.338592 450.00037, 0 463.819279, 0 463.819279, 13.110247000000001 476.92952599999995, 13.110247000000001 476.92952599999995, 0 490.748435, 0 490.748435, 11.338592 531.4965, 11.338592 531.4965, 38.97641 520.157908, 38.97641 520.157908, 52.9724845 460.27596900000003, 52.9724845 460.27596900000003, 48.543347000000004 451.417694, 48.543347000000004 451.417694, 52.9724845 442.55941900000005, 52.9724845 442.55941900000005, 63.956745500000004 451.417694, 63.956745500000004 451.417694, 68.385883 460.27596900000003, 68.385883 460.27596900000003, 63.956745500000004 520.157908, 63.956745500000004 520.157908, 77.95282 531.4965, 77.95282 531.4965, 106.2993 520.157908, 106.2993 520.157908, 134.64578 531.4965, 134.64578 531.4965, 162.99226 520.157908, 162.99226 520.157908, 191.33874 531.4965, 191.33874 531.4965, 219.68522 520.157908, 219.68522 520.157908, 248.0317 531.4965, 248.0317 531.4965, 276.37818000000004 520.157908, 276.37818000000004 520.157908, 290.37425450000006 460.27596900000003, 290.37425450000006 460.27596900000003, 285.94511700000004 451.417694, 285.94511700000004 451.417694, 290.37425450000006 442.55941900000005, 290.37425450000006 442.55941900000005, 301.3585155 451.417694, 301.3585155 451.417694, 305.78765300000003 460.27596900000003, 305.78765300000003 460.27596900000003, 301.3585155 520.157908, 301.3585155 520.157908, 315.35459000000003 531.4965, 315.35459000000003 531.4965, 342.992408 490.748435, 342.992408 490.748435, 354.331 476.92952599999995, 354.331 476.92952599999995, 341.220753 463.819279, 341.220753 463.819279, 354.331 450.00037, 354.331 450.00037, 342.992408 421.65389, 342.992408 421.65389, 354.331 393.30741, 354.331 393.30741, 342.992408 364.96092999999996, 342.992408 364.96092999999996, 354.331 336.61445, 354.331 336.61445, 342.992408 308.26797, 342.992408 308.26797, 354.331 279.92149, 354.331 279.92149, 342.992408 251.57501, 342.992408 251.57501, 354.331 223.22852999999998, 354.331 223.22852999999998, 342.992408 194.88205, 342.992408 194.88205, 354.331 166.53557, 354.331 166.53557, 342.992408 138.18909, 342.992408 138.18909, 354.331 109.84261, 354.331 109.84261, 342.992408 81.49613, 342.992408 81.49613, 354.331 67.677221, 354.331 67.677221, 341.220753 54.566973999999995, 341.220753 54.566973999999995, 354.331 40.748065, 354.331 40.748065, 342.992408 0, 342.992408 0, 315.35459000000003 11.338592, 315.35459000000003 11.338592, 301.3585155 71.22053100000001, 301.3585155 71.22053100000001, 305.78765300000003 80.07880600000001, 305.78765300000003 80.07880600000001, 301.3585155 88.937081, 301.3585155 88.937081, 290.37425450000006 80.07880600000001, 290.37425450000006 80.07880600000001, 285.94511700000004 71.22053100000001, 285.94511700000004 71.22053100000001, 290.37425450000006 11.338592, 290.37425450000006 11.338592, 276.37818000000004 0, 276.37818000000004 0, 248.0317 11.338592, 248.0317 11.338592, 219.68522 0, 219.68522 0, 191.33874 11.338592, 191.33874 11.338592, 162.99226 0, 162.99226 0, 134.64578 11.338592, 134.64578 11.338592, 106.2993 0, 106.2993 0, 77.95282 11.338592, 77.95282 11.338592, 63.956745500000004 71.22053100000001, 63.956745500000004 71.22053100000001, 68.385883 80.07880600000001, 68.385883 80.07880600000001, 63.956745500000004 88.937081, 63.956745500000004 88.937081, 52.9724845 80.07880600000001, 52.9724845 80.07880600000001, 48.543347000000004 71.22053100000001, 48.543347000000004 71.22053100000001, 52.9724845 11.338592, 52.9724845 11.338592, 38.97641 0, 38.97641 "/> 
</g>
<!-- Right--> 
<g transform="translate(2857.1480185, 376.83101849999997) " > 
<polygon style="stroke:#000000; fill:none; stroke-width:0.90000074" points="0, 11.338592 40.748065, 11.338592 40.748065, 0 54.566973999999995, 0 54.566973999999995, 13.110247000000001 67.677221, 13.110247000000001 67.677221, 0 81.49613, 0 81.49613, 11.338592 109.84261, 11.338592 109.84261, 0 138.18909, 0 138.18909, 11.338592 166.53557, 11.338592 166.53557, 0 194.88205, 0 194.88205, 11.338592 223.22852999999998, 11.338592 223.22852999999998, 0 251.57501, 0 251.57501, 11.338592 279.92149, 11.338592 279.92149, 0 308.26797, 0 308.26797, 11.338592 336.61445, 11.338592 336.61445, 0 364.96092999999996, 0 364.96092999999996, 11.338592 393.30741, 11.338592 393.30741, 0 421.65389, 0 421.65389, 11.338592 450.00037, 11.338592 450.00037, 0 463.819279, 0 463.819279, 13.110247000000001 476.92952599999995, 13.110247000000001 476.92952599999995, 0 490.748435, 0 490.748435, 11.338592 531.4965, 11.338592 531.4965, 38.97641 520.157908, 38.97641 520.157908, 52.9724845 460.27596900000003, 52.9724845 460.27596900000003, 48.543347000000004 451.417694, 48.543347000000004 451.417694, 52.9724845 442.55941900000005, 52.9724845 442.55941900000005, 63.956745500000004 451.417694, 63.956745500000004 451.417694, 68.385883 460.27596900000003, 68.385883 460.27596900000003, 63.956745500000004 520.157908, 63.956745500000004 520.157908, 77.95282 531.4965, 77.95282 531.4965, 106.2993 520.157908, 106.2993 520.157908, 134.64578 531.4965, 134.64578 531.4965, 162.99226 520.157908, 162.99226 520.157908, 191.33874 531.4965, 191.33874 531.4965, 219.68522 520.157908, 219.68522 520.157908, 248.0317 531.4965, 248.0317 531.4965, 276.37818000000004 520.157908, 276.37818000000004 520.157908, 290.37425450000006 460.27596900000003, 290.37425450000006 460.27596900000003, 285.94511700000004 451.417694, 285.94511700000004 451.417694, 290.37425450000006 442.55941900000005, 290.37425450000006 442.55941900000005, 301.3585155 451.417694, 301.3585155 451.417694, 305.78765300000003 460.27596900000003, 305.78765300000003 460.27596900000003, 301.3585155 520.157908, 301.3585155 520.157908, 315.35459000000003 531.4965, 315.35459000000003 531.4965, 342.992408 490.748435, 342.992408 490.748435, 354.331 476.92952599999995, 354.331 476.92952599999995, 341.220753 463.819279, 341.220753 463.819279, 354.331 450.00037, 354.331 450.00037, 342.992408 421.65389, 342.992408 421.65389, 354.331 393.30741, 354.331 393.30741, 342.992408 364.96092999999996, 342.992408 364.96092999999996, 354.331 336.61445, 354.331 336.61445, 342.992408 308.26797, 342.992408 308.26797, 354.331 279.92149, 354.331 279.92149, 342.992408 251.57501, 342.992408 251.57501, 354.331 223.22852999999998, 354.331 223.22852999999998, 342.992408 194.88205, 342.992408 194.88205, 354.331 166.53557, 354.331 166.53557, 342.992408 138.18909, 342.992408 138.18909, 354.331 109.84261, 354.331 109.84261, 342.992408 81.49613, 342.992408 81.49613, 354.331 67.677221, 354.331 67.677221, 341.220753 54.566973999999995, 341.220753 54.566973999999995, 354.331 40.748065, 354.331 40.748065, 342.992408 0, 342.992408 0, 315.35459000000003 11.338592, 315.35459000000003 11.338592, 301.3585155 71.22053100000001, 301.3585155 71.22053100000001, 305.78765300000003 80.07880600000001, 305.78765300000003 80.07880600000001, 301.3585155 88.937081, 301.3585155 88.937081, 290.37425450000006 80.07880600000001, 290.37425450000006 80.07880600000001, 285.94511700000004 71.22053100000001, 285.94511700000004 71.22053100000001, 290.37425450000006 11.338592, 290.37425450000006 11.338592, 276.37818000000004 0, 276.37818000000004 0, 248.0317 11.338592, 248.0317 11.338592, 219.68522 0, 219.68522 0, 191.33874 11.338592, 191.33874 11.338592, 162.99226 0, 162.99226 0, 134.64578 11.338592, 134.64578 11.338592, 106.2993 0, 106.2993 0, 77.95282 11.338592, 77.95282 11.338592, 63.956745500000004 71.22053100000001, 63.956745500000004 71.22053100000001, 68.385883 80.07880600000001, 68.385883 80.07880600000001, 63.956745500000004 88.937081, 63.956745500000004 88.937081, 52.9724845 80.07880600000001, 52.9724845 80.07880600000001, 48.543347000000004 71.22053100000001, 48.543347000000004 71.22053100000001, 52.9724845 11.338592, 52.9724845 11.338592, 38.97641 0, 38.97641 "/> 
</g>
<!-- Top--> 
<g transform="translate(22.5000185, 376.83101849999997) " > 
<polygon style="stroke:#000000; fill:none; stroke-width:0.90000074" points="0, 11.338592 35.433099999999996, 11.338592 35.433099999999996, 0 46.59452649999999, 0 46.59452649999999, 13.110247000000001 59.704773499999995, 13.110247000000001 59.704773499999995, 0 70.86619999999999, 0 70.86619999999999, 11.338592 99.21267999999999, 11.338592 99.21267999999999, 0 127.55915999999999, 0 127.55915999999999, 11.338592 155.90564, 11.338592 155.90564, 0 184.25212, 0 184.25212, 11.338592 212.59859999999998, 11.338592 212.59859999999998, 0 240.94508, 0 240.94508, 11.338592 269.29156, 11.338592 269.29156, 0 297.63804, 0 297.63804, 11.338592 325.98452, 11.338592 325.98452, 0 354.33099999999996, 0 354.33099999999996, 11.338592 382.67748, 11.338592 382.67748, 0 411.02396, 0 411.02396, 11.338592 439.37044, 11.338592 439.37044, 0 467.71692, 0 467.71692, 11.338592 496.0634, 11.338592 496.0634, 0 524.4098799999999, 0 524.4098799999999, 11.338592 552.75636, 11.338592 552.75636, 0 581.10284, 0 581.10284, 11.338592 609.44932, 11.338592 609.44932, 0 637.7957999999999, 0 637.7957999999999, 11.338592 666.14228, 11.338592 666.14228, 0 694.48876, 0 694.48876, 11.338592 722.8352399999999, 11.338592 722.8352399999999, 0 751.18172, 0 751.18172, 11.338592 779.5282, 11.338592 779.5282, 0 807.8746799999999, 0 807.8746799999999, 11.338592 836.22116, 11.338592 836.22116, 0 864.56764, 0 864.56764, 11.338592 892.9141199999999, 11.338592 892.9141199999999, 0 921.2606000000001, 0 921.2606000000001, 11.338592 949.60708, 11.338592 949.60708, 0 977.9535599999999, 0 977.9535599999999, 11.338592 1006.3000400000001, 11.338592 1006.3000400000001, 0 1034.64652, 0 1034.64652, 11.338592 1062.993, 11.338592 1062.993, 0 1091.3394799999999, 0 1091.3394799999999, 11.338592 1119.68596, 11.338592 1119.68596, 0 1148.03244, 0 1148.03244, 11.338592 1176.3789199999999, 11.338592 1176.3789199999999, 0 1204.7253999999998, 0 1204.7253999999998, 11.338592 1233.07188, 11.338592 1233.07188, 0 1261.41836, 0 1261.41836, 11.338592 1289.7648399999998, 11.338592 1289.7648399999998, 0 1318.11132, 0 1318.11132, 11.338592 1346.4578, 11.338592 1346.4578, 0 1357.6192265, 0 1357.6192265, 13.110247000000001 1370.7294735, 13.110247000000001 1370.7294735, 0 1381.8908999999999, 0 1381.8908999999999, 11.338592 1417.324, 11.338592 1417.324, 40.748065 1405.985408, 40.748065 1405.985408, 55.62996699999999 1346.103469, 55.62996699999999 1346.103469, 51.2008295 1337.245194, 51.2008295 1337.245194, 55.62996699999999 1328.386919, 55.62996699999999 1328.386919, 66.614228 1337.245194, 66.614228 1337.245194, 71.0433655 1346.103469, 71.0433655 1346.103469, 66.614228 1405.985408, 66.614228 1405.985408, 81.49613 1417.324, 81.49613 1417.324, 109.84261 1405.985408, 109.84261 1405.985408, 138.18909 1417.324, 138.18909 1417.324, 166.53557 1405.985408, 166.53557 1405.985408, 194.88205 1417.324, 194.88205 1417.324, 223.22852999999998 1405.985408, 223.22852999999998 1405.985408, 251.57501 1417.324, 251.57501 1417.324, 279.92149 1405.985408, 279.92149 1405.985408, 308.26797 1417.324, 308.26797 1417.324, 336.61445 1405.985408, 336.61445 1405.985408, 364.96092999999996 1417.324, 364.96092999999996 1417.324, 393.30741 1405.985408, 393.30741 1405.985408, 421.65389 1417.324, 421.65389 1417.324, 450.00037 1405.985408, 450.00037 1405.985408, 464.882272 1346.103469, 464.882272 1346.103469, 460.4531345 1337.245194, 460.4531345 1337.245194, 464.882272 1328.386919, 464.882272 1328.386919, 475.86653299999995 1337.245194, 475.86653299999995 1337.245194, 480.29567049999997 1346.103469, 480.29567049999997 1346.103469, 475.86653299999995 1405.985408, 475.86653299999995 1405.985408, 490.748435 1417.324, 490.748435 1417.324, 520.157908 1381.8908999999999, 520.157908 1381.8908999999999, 531.4965 1370.7294735, 531.4965 1370.7294735, 518.386253 1357.6192265, 518.386253 1357.6192265, 531.4965 1346.4578, 531.4965 1346.4578, 520.157908 1318.11132, 520.157908 1318.11132, 531.4965 1289.7648399999998, 531.4965 1289.7648399999998, 520.157908 1261.41836, 520.157908 1261.41836, 531.4965 1233.07188, 531.4965 1233.07188, 520.157908 1204.7253999999998, 520.157908 1204.7253999999998, 531.4965 1176.3789199999999, 531.4965 1176.3789199999999, 520.157908 1148.03244, 520.157908 1148.03244, 531.4965 1119.68596, 531.4965 1119.68596, 520.157908 1091.3394799999999, 520.157908 1091.3394799999999, 531.4965 1062.993, 531.4965 1062.993, 520.157908 1034.64652, 520.157908 1034.64652, 531.4965 1006.3000400000001, 531.4965 1006.3000400000001, 520.157908 977.9535599999999, 520.157908 977.9535599999999, 531.4965 949.60708, 531.4965 949.60708, 520.157908 921.2606000000001, 520.157908 921.2606000000001, 531.4965 892.9141199999999, 531.4965 892.9141199999999, 520.157908 864.56764, 520.157908 864.56764, 531.4965 836.22116, 531.4965 836.22116, 520.157908 807.8746799999999, 520.157908 807.8746799999999, 531.4965 779.5282, 531.4965 779.5282, 520.157908 751.18172, 520.157908 751.18172, 531.4965 722.8352399999999, 531.4965 722.8352399999999, 520.157908 694.48876, 520.157908 694.48876, 531.4965 666.14228, 531.4965 666.14228, 520.157908 637.7957999999999, 520.157908 637.7957999999999, 531.4965 609.44932, 531.4965 609.44932, 520.157908 581.10284, 520.157908 581.10284, 531.4965 552.75636, 531.4965 552.75636, 520.157908 524.4098799999999, 520.157908 524.4098799999999, 531.4965 496.0634, 531.4965 496.0634, 520.157908 467.71692, 520.157908 467.71692, 531.4965 439.37044, 531.4965 439.37044, 520.157908 411.02396, 520.157908 411.02396, 531.4965 382.67748, 531.4965 382.67748, 520.157908 354.33099999999996, 520.157908 354.33099999999996, 531.4965 325.98452, 531.4965 325.98452, 520.157908 297.63804, 520.157908 297.63804, 531.4965 269.29156, 531.4965 269.29156, 520.157908 240.94508, 520.157908 240.94508, 531.4965 212.59859999999998, 531.4965 212.59859999999998, 520.157908 184.25212, 520.157908 184.25212, 531.4965 155.90564, 531.4965 155.90564, 520.157908 127.55915999999999, 520.157908 127.55915999999999, 531.4965 99.21267999999999, 531.4965 99.21267999999999, 520.157908 70.86619999999999, 520.157908 70.86619999999999, 531.4965 59.704773499999995, 531.4965 59.704773499999995, 518.386253 46.59452649999999, 518.386253 46.59452649999999, 531.4965 35.433099999999996, 531.4965 35.433099999999996, 520.157908 0, 520.157908 0, 490.748435 11.338592, 490.748435 11.338592, 475.86653299999995 71.22053100000001, 475.86653299999995 71.22053100000001, 480.29567049999997 80.07880600000001, 480.29567049999997 80.07880600000001, 475.86653299999995 88.937081, 475.86653299999995 88.937081, 464.882272 80.07880600000001, 464.882272 80.07880600000001, 460.4531345 71.22053100000001, 460.4531345 71.22053100000001, 464.882272 11.338592, 464.882272 11.338592, 450.00037 0, 450.00037 0, 421.65389 11.338592, 421.65389 11.338592, 393.30741 0, 393.30741 0, 364.96092999999996 11.338592, 364.96092999999996 11.338592, 336.61445 0, 336.61445 0, 308.26797 11.338592, 308.26797 11.338592, 279.92149 0, 279.92149 0, 251.57501 11.338592, 251.57501 11.338592, 223.22852999999998 0, 223.22852999999998 0, 194.88205 11.338592, 194.88205 11.338592, 166.53557 0, 166.53557 0, 138.18909 11.338592, 138.18909 11.338592, 109.84261 0, 109.84261 0, 81.49613 11.338592, 81.49613 11.338592, 66.614228 71.22053100000001, 66.614228 71.22053100000001, 71.0433655 80.07880600000001, 71.0433655 80.07880600000001, 66.614228 88.937081, 66.614228 88.937081, 55.62996699999999 80.07880600000001, 55.62996699999999 80.07880600000001, 51.2008295 71.22053100000001, 51.2008295 71.22053100000001, 55.62996699999999 11.338592, 55.62996699999999 11.338592, 40.748065 0, 40.748065 "/> 
</g>
<!-- Bottom--> 
<g transform="translate(1439.8240185, 376.83101849999997) " > 
<polygon style="stroke:#000000; fill:none; stroke-width:0.90000074" points="0, 11.338592 35.433099999999996, 11.338592 35.433099999999996, 0 46.59452649999999, 0 46.59452649999999, 13.110247000000001 59.704773499999995, 13.110247000000001 59.704773499999995, 0 70.86619999999999, 0 70.86619999999999, 11.338592 99.21267999999999, 11.338592 99.21267999999999, 0 127.55915999999999, 0 127.55915999999999, 11.338592 155.90564, 11.338592 155.90564, 0 184.25212, 0 184.25212, 11.338592 212.59859999999998, 11.338592 212.59859999999998, 0 240.94508, 0 240.94508, 11.338592 269.29156, 11.338592 269.29156, 0 297.63804, 0 297.63804, 11.338592 325.98452, 11.338592 325.98452, 0 354.33099999999996, 0 354.33099999999996, 11.338592 382.67748, 11.338592 382.67748, 0 411.02396, 0 411.02396, 11.338592 439.37044, 11.338592 439.37044, 0 467.71692, 0 467.71692, 11.338592 496.0634, 11.338592 496.0634, 0 524.4098799999999, 0 524.4098799999999, 11.338592 552.75636, 11.338592 552.75636, 0 581.10284, 0 581.10284, 11.338592 609.44932, 11.338592 609.44932, 0 637.7957999999999, 0 637.7957999999999, 11.338592 666.14228, 11.338592 666.14228, 0 694.48876, 0 694.48876, 11.338592 722.8352399999999, 11.338592 722.8352399999999, 0 751.18172, 0 751.18172, 11.338592 779.5282, 11.338592 779.5282, 0 807.8746799999999, 0 807.8746799999999, 11.338592 836.22116, 11.338592 836.22116, 0 864.56764, 0 864.56764, 11.338592 892.9141199999999, 11.338592 892.9141199999999, 0 921.2606000000001, 0 921.2606000000001, 11.338592 949.60708, 11.338592 949.60708, 0 977.9535599999999, 0 977.9535599999999, 11.338592 1006.3000400000001, 11.338592 1006.3000400000001, 0 1034.64652, 0 1034.64652, 11.338592 1062.993, 11.338592 1062.993, 0 1091.3394799999999, 0 1091.3394799999999, 11.338592 1119.68596, 11.338592 1119.68596, 0 1148.03244, 0 1148.03244, 11.338592 1176.3789199999999, 11.338592 1176.3789199999999, 0 1204.7253999999998, 0 1204.7253999999998, 11.338592 1233.07188, 11.338592 1233.07188, 0 1261.41836, 0 1261.41836, 11.338592 1289.7648399999998, 11.338592 1289.7648399999998, 0 1318.11132, 0 1318.11132, 11.338592 1346.4578, 11.338592 1346.4578, 0 1357.6192265, 0 1357.6192265, 13.110247000000001 1370.7294735, 13.110247000000001 1370.7294735, 0 1381.8908999999999, 0 1381.8908999999999, 11.338592 1417.324, 11.338592 1417.324, 40.748065 1405.985408, 40.748065 1405.985408, 55.62996699999999 1346.103469, 55.62996699999999 1346.103469, 51.2008295 1337.245194, 51.2008295 1337.245194, 55.62996699999999 1328.386919, 55.62996699999999 1328.386919, 66.614228 1337.245194, 66.614228 1337.245194, 71.0433655 1346.103469, 71.0433655 1346.103469, 66.614228 1405.985408, 66.614228 1405.985408, 81.49613 1417.324, 81.49613 1417.324, 109.84261 1405.985408, 109.84261 1405.985408, 138.18909 1417.324, 138.18909 1417.324, 166.53557 1405.985408, 166.53557 1405.985408, 194.88205 1417.324, 194.88205 1417.324, 223.22852999999998 1405.985408, 223.22852999999998 1405.985408, 251.57501 1417.324, 251.57501 1417.324, 279.92149 1405.985408, 279.92149 1405.985408, 308.26797 1417.324, 308.26797 1417.324, 336.61445 1405.985408, 336.61445 1405.985408, 364.96092999999996 1417.324, 364.96092999999996 1417.324, 393.30741 1405.985408, 393.30741 1405.985408, 421.65389 1417.324, 421.65389 1417.324, 450.00037 1405.985408, 450.00037 1405.985408, 464.882272 1346.103469, 464.882272 1346.103469, 460.4531345 1337.245194, 460.4531345 1337.245194, 464.882272 1328.386919, 464.882272 1328.386919, 475.86653299999995 1337.245194, 475.86653299999995 1337.245194, 480.29567049999997 1346.103469, 480.29567049999997 1346.103469, 475.86653299999995 1405.985408, 475.86653299999995 1405.985408, 490.748435 1417.324, 490.748435 1417.324, 520.157908 1381.8908999999999, 520.157908 1381.8908999999999, 531.4965 1370.7294735, 531.4965 1370.7294735, 518.386253 1357.6192265, 518.386253 1357.6192265, 531.4965 1346.4578, 531.4965 1346.4578, 520.157908 1318.11132, 520.157908 1318.11132, 531.4965 1289.7648399999998, 531.4965 1289.7648399999998, 520.157908 1261.41836, 520.157908 1261.41836, 531.4965 1233.07188, 531.4965 1233.07188, 520.157908 1204.7253999999998, 520.157908 1204.7253999999998, 531.4965 1176.3789199999999, 531.4965 1176.3789199999999, 520.157908 1148.03244, 520.157908 1148.03244, 531.4965 1119.68596, 531.4965 1119.68596, 520.157908 1091.3394799999999, 520.157908 1091.3394799999999, 531.4965 1062.993, 531.4965 1062.993, 520.157908 1034.64652, 520.157908 1034.64652, 531.4965 1006.3000400000001, 531.4965 1006.3000400000001, 520.157908 977.9535599999999, 520.157908 977.9535599999999, 531.4965 949.60708, 531.4965 949.60708, 520.157908 921.2606000000001, 520.157908 921.2606000000001, 531.4965 892.9141199999999, 531.4965 892.9141199999999, 520.157908 864.56764, 520.157908 864.56764, 531.4965 836.22116, 531.4965 836.22116, 520.157908 807.8746799999999, 520.157908 807.8746799999999, 531.4965 779.5282, 531.4965 779.5282, 520.157908 751.18172, 520.157908 751.18172, 531.4965 722.8352399999999, 531.4965 722.8352399999999, 520.157908 694.48876, 520.157908 694.48876, 531.4965 666.14228, 531.4965 666.14228, 520.157908 637.7957999999999, 520.157908 637.7957999999999, 531.4965 609.44932, 531.4965 609.44932, 520.157908 581.10284, 520.157908 581.10284, 531.4965 552.75636, 531.4965 552.75636, 520.157908 524.4098799999999, 520.157908 524.4098799999999, 531.4965 496.0634, 531.4965 496.0634, 520.157908 467.71692, 520.157908 467.71692, 531.4965 439.37044, 531.4965 439.37044, 520.157908 411.02396, 520.157908 411.02396, 531.4965 382.67748, 531.4965 382.67748, 520.157908 354.33099999999996, 520.157908 354.33099999999996, 531.4965 325.98452, 531.4965 325.98452, 520.157908 297.63804, 520.157908 297.63804, 531.4965 269.29156, 531.4965 269.29156, 520.157908 240.94508, 520.157908 240.94508, 531.4965 212.59859999999998, 531.4965 212.59859999999998, 520.157908 184.25212, 520.157908 184.25212, 531.4965 155.90564, 531.4965 155.90564, 520.157908 127.55915999999999, 520.157908 127.55915999999999, 531.4965 99.21267999999999, 531.4965 99.21267999999999, 520.157908 70.86619999999999, 520.157908 70.86619999999999, 531.4965 59.704773499999995, 531.4965 59.704773499999995, 518.386253 46.59452649999999, 518.386253 46.59452649999999, 531.4965 35.433099999999996, 531.4965 35.433099999999996, 520.157908 0, 520.157908 0, 490.748435 11.338592, 490.748435 11.338592, 475.86653299999995 71.22053100000001, 475.86653299999995 71.22053100000001, 480.29567049999997 80.07880600000001, 480.29567049999997 80.07880600000001, 475.86653299999995 88.937081, 475.86653299999995 88.937081, 464.882272 80.07880600000001, 464.882272 80.07880600000001, 460.4531345 71.22053100000001, 460.4531345 71.22053100000001, 464.882272 11.338592, 464.882272 11.338592, 450.00037 0, 450.00037 0, 421.65389 11.338592, 421.65389 11.338592, 393.30741 0, 393.30741 0, 364.96092999999996 11.338592, 364.96092999999996 11.338592, 336.61445 0, 336.61445 0, 308.26797 11.338592, 308.26797 11.338592, 279.92149 0, 279.92149 0, 251.57501 11.338592, 251.57501 11.338592, 223.22852999999998 0, 223.22852999999998 0, 194.88205 11.338592, 194.88205 11.338592, 166.53557 0, 166.53557 0, 138.18909 11.338592, 138.18909 11.338592, 109.84261 0, 109.84261 0, 81.49613 11.338592, 81.49613 11.338592, 66.614228 71.22053100000001, 66.614228 71.22053100000001, 71.0433655 80.07880600000001, 71.0433655 80.07880600000001, 66.614228 88.937081, 66.614228 88.937081, 55.62996699999999 80.07880600000001, 55.62996699999999 80.07880600000001, 51.2008295 71.22053100000001, 51.2008295 71.22053100000001, 55.62996699999999 11.338592, 55.62996699999999 11.338592, 40.748065 0, 40.748065 "/> 
</g></svg>