%TF.GenerationSoftware,Altium Limited,Altium Designer,18.0.12 (696)*%
G04 Layer_Color=8388736*
%FSLAX26Y26*%
%MOIN*%
%TF.FileFunction,Other,Top_Assembly*%
%TF.Part,Single*%
G01*
G75*
%TA.AperFunction,NonConductor*%
%ADD25C,0.008000*%
%ADD26C,0.006000*%
%ADD27C,0.002000*%
G36*
X1771400Y2584720D02*
Y2599490D01*
X2076520D01*
Y2584720D01*
X1771400D01*
D02*
G37*
D25*
X1271260Y1186220D02*
G03*
X1271260Y1186220I-68900J0D01*
G01*
X2731580Y1208230D02*
G03*
X2731580Y1208230I-68900J0D01*
G01*
X1266290Y2878000D02*
G03*
X1266290Y2878000I-68900J0D01*
G01*
X2717580Y2884370D02*
G03*
X2717580Y2884370I-68900J0D01*
G01*
X1770420Y2584720D02*
Y2702840D01*
X2077500D01*
Y2584720D02*
Y2702840D01*
X1770420Y2584720D02*
X2077500D01*
D26*
X1337360Y1186220D02*
G03*
X1337360Y1186220I-135000J0D01*
G01*
X2797680Y1208230D02*
G03*
X2797680Y1208230I-135000J0D01*
G01*
X1332390Y2878000D02*
G03*
X1332390Y2878000I-135000J0D01*
G01*
X2783680Y2884370D02*
G03*
X2783680Y2884370I-135000J0D01*
G01*
D27*
X1776320Y2697910D02*
X1786160Y2688070D01*
X2061760D02*
X2071600Y2697910D01*
X2061760Y2658540D02*
Y2688070D01*
X1786160D02*
X2061760D01*
X1786160Y2658540D02*
Y2688070D01*
X2061760Y2658540D02*
X2076520D01*
X1771400D02*
X1786160D01*
X2061760Y2594570D02*
Y2633940D01*
X2076520D01*
X1786160Y2594570D02*
Y2633940D01*
X1771400D02*
X1786160D01*
%TF.MD5,064a982fe47d2694e58378214c9a196e*%
M02*
