M48
;Layer_Color=9474304
;FILE_FORMAT=4:4
METRIC,LZ
;TYPE=PLATED
T1F00S00C0.5001
T2F00S00C0.8999
T3F00S00C1.5999
;TYPE=NON_PLATED
T4F00S00C2.5499
T5F00S00C3.3000
%
T01
X00463685Y00676021
X00476186
X00488686
X00501185
X00513687
T02
X00470901Y003199
X004913
X00511701
X00532099
X00521899Y003453
X005015
X00481099
X004607
T03
X0041515Y003199
X00577649
T04
X00422001Y003683
X00570799
T05
X00305399Y003013
X00676321Y0030689
X00672765Y0073263
X00304137Y00731012
M30
