%TF.GenerationSoftware,Altium Limited,Altium Designer,18.0.12 (696)*%
G04 Layer_Color=65535*
%FSLAX26Y26*%
%MOIN*%
%TF.FileFunction,Legend,Top*%
%TF.Part,Single*%
G01*
G75*
G36*
X1667956Y1109001D02*
X1668429Y1108872D01*
X1668644Y1108786D01*
X1668816Y1108657D01*
X1668859D01*
X1668902Y1108571D01*
X1669074Y1108399D01*
X1669203Y1108055D01*
X1669289Y1107840D01*
Y1107625D01*
Y1107582D01*
Y1107539D01*
X1669246Y1107238D01*
X1669074Y1106937D01*
X1668988Y1106765D01*
X1668816Y1106593D01*
X1668730Y1106550D01*
X1668644Y1106507D01*
X1668472Y1106421D01*
X1668300Y1106378D01*
X1668042Y1106292D01*
X1667741Y1106249D01*
X1666322D01*
X1653852Y1089995D01*
X1667139Y1072795D01*
X1668558D01*
X1668773Y1072752D01*
X1669246Y1072623D01*
X1669461Y1072537D01*
X1669633Y1072408D01*
X1669676D01*
X1669719Y1072322D01*
X1669891Y1072150D01*
X1670020Y1071806D01*
X1670106Y1071591D01*
Y1071376D01*
Y1071333D01*
Y1071290D01*
X1670063Y1071032D01*
X1669891Y1070688D01*
X1669805Y1070559D01*
X1669633Y1070387D01*
X1669547Y1070344D01*
X1669461Y1070258D01*
X1669289Y1070215D01*
X1669117Y1070129D01*
X1668859Y1070043D01*
X1668558Y1070000D01*
X1659055D01*
X1658883Y1070043D01*
X1658668D01*
X1658195Y1070172D01*
X1657980Y1070258D01*
X1657808Y1070387D01*
X1657722Y1070473D01*
X1657593Y1070645D01*
X1657464Y1070989D01*
X1657378Y1071376D01*
Y1071419D01*
Y1071505D01*
X1657421Y1071763D01*
X1657550Y1072064D01*
X1657765Y1072408D01*
X1657808D01*
X1657851Y1072451D01*
X1657937Y1072537D01*
X1658109Y1072623D01*
X1658281Y1072666D01*
X1658539Y1072752D01*
X1658840Y1072795D01*
X1663613D01*
X1652089Y1087716D01*
X1640651Y1072795D01*
X1645467D01*
X1645682Y1072752D01*
X1646155Y1072623D01*
X1646370Y1072537D01*
X1646542Y1072408D01*
X1646585D01*
X1646628Y1072322D01*
X1646800Y1072150D01*
X1646929Y1071806D01*
X1647015Y1071591D01*
Y1071376D01*
Y1071333D01*
Y1071290D01*
X1646972Y1071032D01*
X1646800Y1070688D01*
X1646714Y1070559D01*
X1646542Y1070387D01*
X1646456Y1070344D01*
X1646370Y1070258D01*
X1646198Y1070215D01*
X1646026Y1070129D01*
X1645768Y1070043D01*
X1645467Y1070000D01*
X1636007D01*
X1635835Y1070043D01*
X1635620D01*
X1635147Y1070172D01*
X1634932Y1070258D01*
X1634760Y1070387D01*
X1634674Y1070473D01*
X1634545Y1070645D01*
X1634416Y1070989D01*
X1634330Y1071376D01*
Y1071419D01*
Y1071462D01*
X1634373Y1071677D01*
X1634459Y1071935D01*
X1634588Y1072193D01*
X1634631Y1072236D01*
X1634760Y1072408D01*
X1634932Y1072537D01*
X1635147Y1072666D01*
X1635233Y1072709D01*
X1635362D01*
X1635534Y1072752D01*
X1635792D01*
X1636179Y1072795D01*
X1637211D01*
X1650369Y1089952D01*
X1637813Y1106249D01*
X1636437D01*
X1636222Y1106292D01*
X1635749Y1106378D01*
X1635534Y1106464D01*
X1635362Y1106593D01*
X1635276Y1106679D01*
X1635147Y1106851D01*
X1635018Y1107195D01*
X1634932Y1107625D01*
Y1107668D01*
Y1107754D01*
X1634975Y1108012D01*
X1635104Y1108313D01*
X1635362Y1108657D01*
X1635405D01*
X1635448Y1108700D01*
X1635534Y1108786D01*
X1635706Y1108872D01*
X1635878Y1108915D01*
X1636136Y1109001D01*
X1636437Y1109044D01*
X1644779D01*
X1644994Y1109001D01*
X1645510Y1108872D01*
X1645725Y1108786D01*
X1645897Y1108657D01*
X1645940D01*
X1645983Y1108571D01*
X1646155Y1108399D01*
X1646284Y1108055D01*
X1646370Y1107840D01*
Y1107625D01*
Y1107582D01*
Y1107539D01*
X1646327Y1107238D01*
X1646155Y1106937D01*
X1646069Y1106765D01*
X1645897Y1106593D01*
X1645811Y1106550D01*
X1645725Y1106507D01*
X1645553Y1106421D01*
X1645338Y1106378D01*
X1645080Y1106292D01*
X1644779Y1106249D01*
X1641339D01*
X1652132Y1092231D01*
X1662882Y1106249D01*
X1659399D01*
X1659184Y1106292D01*
X1658711Y1106378D01*
X1658453Y1106464D01*
X1658281Y1106593D01*
X1658195Y1106679D01*
X1658066Y1106851D01*
X1657937Y1107195D01*
X1657851Y1107625D01*
Y1107668D01*
Y1107754D01*
X1657894Y1108012D01*
X1658023Y1108313D01*
X1658281Y1108657D01*
X1658324D01*
X1658367Y1108700D01*
X1658453Y1108786D01*
X1658625Y1108872D01*
X1658840Y1108915D01*
X1659098Y1109001D01*
X1659399Y1109044D01*
X1667741D01*
X1667956Y1109001D01*
D02*
G37*
G36*
X1693197Y1112828D02*
X1693541D01*
X1694014Y1112742D01*
X1694530Y1112699D01*
X1695132Y1112570D01*
X1695777Y1112398D01*
X1696422Y1112226D01*
X1697153Y1111968D01*
X1697927Y1111667D01*
X1698658Y1111323D01*
X1699432Y1110893D01*
X1700206Y1110420D01*
X1700937Y1109861D01*
X1701668Y1109216D01*
X1701711Y1109173D01*
X1701840Y1109044D01*
X1702012Y1108829D01*
X1702270Y1108571D01*
X1702528Y1108227D01*
X1702872Y1107797D01*
X1703216Y1107324D01*
X1703560Y1106808D01*
X1703904Y1106249D01*
X1704248Y1105604D01*
X1704592Y1104916D01*
X1704850Y1104185D01*
X1705108Y1103411D01*
X1705280Y1102637D01*
X1705409Y1101820D01*
X1705452Y1100960D01*
Y1100874D01*
Y1100616D01*
X1705409Y1100272D01*
X1705366Y1099799D01*
X1705280Y1099240D01*
X1705194Y1098638D01*
X1705022Y1098036D01*
X1704807Y1097391D01*
X1704764Y1097305D01*
X1704678Y1097133D01*
X1704506Y1096789D01*
X1704291Y1096359D01*
X1703990Y1095843D01*
X1703646Y1095241D01*
X1703173Y1094553D01*
X1702657Y1093865D01*
X1702571Y1093779D01*
X1702485Y1093650D01*
X1702356Y1093521D01*
X1702184Y1093306D01*
X1701969Y1093048D01*
X1701711Y1092790D01*
X1701410Y1092446D01*
X1701066Y1092059D01*
X1700679Y1091629D01*
X1700206Y1091156D01*
X1699733Y1090640D01*
X1699174Y1090081D01*
X1698572Y1089479D01*
X1697927Y1088791D01*
X1697196Y1088103D01*
X1697153Y1088060D01*
X1697067Y1087974D01*
X1696938Y1087845D01*
X1696766Y1087673D01*
X1696508Y1087458D01*
X1696250Y1087157D01*
X1695562Y1086512D01*
X1694745Y1085695D01*
X1693756Y1084749D01*
X1692681Y1083717D01*
X1691520Y1082556D01*
X1690273Y1081395D01*
X1688940Y1080148D01*
X1686274Y1077611D01*
X1684941Y1076364D01*
X1683608Y1075160D01*
X1682361Y1074042D01*
X1681157Y1072967D01*
Y1072795D01*
X1702700D01*
Y1073913D01*
Y1073956D01*
Y1074085D01*
X1702743Y1074257D01*
Y1074472D01*
X1702872Y1074945D01*
X1702958Y1075160D01*
X1703087Y1075332D01*
X1703173Y1075418D01*
X1703345Y1075547D01*
X1703689Y1075676D01*
X1704119Y1075762D01*
X1704205D01*
X1704463Y1075719D01*
X1704764Y1075590D01*
X1705065Y1075332D01*
X1705151Y1075246D01*
X1705194Y1075160D01*
X1705280Y1074988D01*
X1705366Y1074816D01*
X1705409Y1074558D01*
X1705495Y1074257D01*
Y1073913D01*
Y1070000D01*
X1678405D01*
Y1074128D01*
X1678448Y1074171D01*
X1678491Y1074214D01*
X1678620Y1074343D01*
X1678792Y1074472D01*
X1679007Y1074644D01*
X1679265Y1074902D01*
X1679867Y1075461D01*
X1680641Y1076149D01*
X1681544Y1076966D01*
X1682533Y1077912D01*
X1683694Y1078987D01*
X1684898Y1080105D01*
X1686188Y1081352D01*
X1687564Y1082642D01*
X1688983Y1083975D01*
X1690488Y1085394D01*
X1691950Y1086813D01*
X1695003Y1089780D01*
X1695046Y1089823D01*
X1695175Y1089952D01*
X1695347Y1090124D01*
X1695605Y1090382D01*
X1695906Y1090683D01*
X1696293Y1091027D01*
X1697067Y1091844D01*
X1697927Y1092747D01*
X1698787Y1093607D01*
X1699561Y1094467D01*
X1699862Y1094854D01*
X1700163Y1095198D01*
X1700206Y1095284D01*
X1700378Y1095499D01*
X1700636Y1095843D01*
X1700937Y1096230D01*
X1701281Y1096703D01*
X1701582Y1097219D01*
X1701883Y1097735D01*
X1702098Y1098251D01*
X1702141Y1098294D01*
X1702184Y1098466D01*
X1702270Y1098724D01*
X1702399Y1099068D01*
X1702485Y1099498D01*
X1702571Y1099928D01*
X1702614Y1100401D01*
X1702657Y1100917D01*
Y1100960D01*
Y1101089D01*
Y1101261D01*
X1702614Y1101519D01*
X1702571Y1101820D01*
X1702485Y1102207D01*
X1702399Y1102637D01*
X1702313Y1103067D01*
X1701926Y1104056D01*
X1701711Y1104572D01*
X1701410Y1105131D01*
X1701109Y1105690D01*
X1700679Y1106206D01*
X1700249Y1106765D01*
X1699733Y1107281D01*
X1699690Y1107324D01*
X1699604Y1107410D01*
X1699432Y1107539D01*
X1699217Y1107711D01*
X1698959Y1107926D01*
X1698615Y1108184D01*
X1698228Y1108399D01*
X1697798Y1108700D01*
X1697282Y1108958D01*
X1696766Y1109173D01*
X1696164Y1109431D01*
X1695562Y1109646D01*
X1694917Y1109818D01*
X1694229Y1109947D01*
X1693498Y1110033D01*
X1692724Y1110076D01*
X1692380D01*
X1692122Y1110033D01*
X1691778D01*
X1691434Y1109947D01*
X1691004Y1109904D01*
X1690531Y1109818D01*
X1689542Y1109560D01*
X1688424Y1109173D01*
X1687865Y1108915D01*
X1687306Y1108657D01*
X1686790Y1108313D01*
X1686231Y1107926D01*
X1686188Y1107883D01*
X1686102Y1107840D01*
X1685973Y1107711D01*
X1685758Y1107539D01*
X1685285Y1107109D01*
X1684726Y1106507D01*
X1684081Y1105733D01*
X1683479Y1104830D01*
X1682963Y1103841D01*
X1682748Y1103282D01*
X1682576Y1102723D01*
Y1102680D01*
X1682533Y1102594D01*
X1682490Y1102465D01*
X1682447Y1102293D01*
X1682275Y1101906D01*
X1682189Y1101777D01*
X1682060Y1101648D01*
X1681974Y1101605D01*
X1681802Y1101519D01*
X1681501Y1101390D01*
X1681114Y1101347D01*
X1681028D01*
X1680770Y1101390D01*
X1680469Y1101476D01*
X1680168Y1101691D01*
X1680125Y1101777D01*
X1679996Y1101949D01*
X1679824Y1102250D01*
X1679781Y1102637D01*
Y1102723D01*
X1679824Y1102938D01*
X1679867Y1103282D01*
X1679996Y1103755D01*
X1680211Y1104400D01*
X1680512Y1105131D01*
X1680942Y1105991D01*
X1681501Y1106937D01*
X1681544Y1106980D01*
X1681587Y1107066D01*
X1681673Y1107195D01*
X1681845Y1107410D01*
X1682232Y1107883D01*
X1682748Y1108528D01*
X1683436Y1109216D01*
X1684296Y1109947D01*
X1685242Y1110635D01*
X1686317Y1111280D01*
X1686360D01*
X1686446Y1111366D01*
X1686618Y1111409D01*
X1686833Y1111538D01*
X1687134Y1111667D01*
X1687478Y1111796D01*
X1687865Y1111925D01*
X1688295Y1112097D01*
X1689241Y1112355D01*
X1690316Y1112613D01*
X1691477Y1112785D01*
X1692681Y1112871D01*
X1692896D01*
X1693197Y1112828D01*
D02*
G37*
G36*
X2012777Y2742049D02*
Y2742006D01*
Y2741877D01*
Y2741705D01*
X2012734Y2741490D01*
X2012605Y2741017D01*
X2012519Y2740759D01*
X2012390Y2740587D01*
X2012304Y2740544D01*
X2012132Y2740415D01*
X2011788Y2740243D01*
X2011358Y2740200D01*
X2011272D01*
X2010971Y2740243D01*
X2010670Y2740372D01*
X2010326Y2740587D01*
Y2740630D01*
X2010283Y2740673D01*
X2010240Y2740759D01*
X2010154Y2740931D01*
X2010111Y2741146D01*
X2010025Y2741404D01*
X2009982Y2741705D01*
Y2742049D01*
Y2748929D01*
X1989858D01*
Y2734309D01*
X1999920D01*
Y2737491D01*
Y2737534D01*
Y2737663D01*
X1999963Y2737835D01*
Y2738050D01*
X2000092Y2738523D01*
X2000178Y2738738D01*
X2000307Y2738910D01*
X2000393Y2738996D01*
X2000565Y2739125D01*
X2000909Y2739254D01*
X2001296Y2739340D01*
X2001382D01*
X2001640Y2739297D01*
X2001984Y2739168D01*
X2002285Y2738910D01*
X2002371Y2738824D01*
X2002414Y2738738D01*
X2002500Y2738566D01*
X2002586Y2738394D01*
X2002629Y2738136D01*
X2002715Y2737835D01*
Y2737491D01*
Y2728332D01*
Y2728289D01*
Y2728160D01*
Y2727988D01*
X2002672Y2727773D01*
X2002543Y2727300D01*
X2002414Y2727042D01*
X2002285Y2726870D01*
X2002199Y2726827D01*
X2002027Y2726698D01*
X2001726Y2726526D01*
X2001296Y2726483D01*
X2001210D01*
X2000952Y2726526D01*
X2000608Y2726655D01*
X2000307Y2726870D01*
Y2726913D01*
X2000264Y2726956D01*
X2000178Y2727042D01*
X2000135Y2727214D01*
X2000049Y2727429D01*
X1999963Y2727687D01*
X1999920Y2727988D01*
Y2728332D01*
Y2731514D01*
X1989858D01*
Y2715475D01*
X2011444D01*
Y2723774D01*
Y2723817D01*
Y2723946D01*
Y2724118D01*
X2011487Y2724333D01*
X2011573Y2724806D01*
X2011659Y2725021D01*
X2011788Y2725193D01*
X2011874Y2725279D01*
X2012046Y2725408D01*
X2012390Y2725537D01*
X2012820Y2725623D01*
X2012949D01*
X2013207Y2725580D01*
X2013508Y2725451D01*
X2013852Y2725193D01*
X2013895Y2725107D01*
X2013981Y2725021D01*
X2014067Y2724849D01*
X2014110Y2724677D01*
X2014196Y2724419D01*
X2014239Y2724118D01*
Y2723774D01*
Y2712680D01*
X1983107D01*
X1982935Y2712723D01*
X1982720D01*
X1982247Y2712852D01*
X1981989Y2712938D01*
X1981817Y2713067D01*
X1981774Y2713153D01*
X1981645Y2713325D01*
X1981473Y2713669D01*
X1981430Y2714056D01*
Y2714099D01*
Y2714185D01*
X1981473Y2714443D01*
X1981602Y2714744D01*
X1981817Y2715088D01*
X1981860D01*
X1981903Y2715131D01*
X1981989Y2715217D01*
X1982161Y2715303D01*
X1982376Y2715346D01*
X1982634Y2715432D01*
X1982935Y2715475D01*
X1987063D01*
Y2748929D01*
X1982935D01*
X1982720Y2748972D01*
X1982247Y2749058D01*
X1981989Y2749144D01*
X1981817Y2749273D01*
X1981774Y2749359D01*
X1981645Y2749531D01*
X1981473Y2749875D01*
X1981430Y2750305D01*
Y2750348D01*
Y2750434D01*
X1981473Y2750692D01*
X1981602Y2750993D01*
X1981817Y2751337D01*
X1981860D01*
X1981903Y2751380D01*
X1981989Y2751466D01*
X1982161Y2751552D01*
X1982376Y2751595D01*
X1982634Y2751681D01*
X1982935Y2751724D01*
X2012777D01*
Y2742049D01*
D02*
G37*
G36*
X1876983Y2752584D02*
X1877456Y2752541D01*
X1878058Y2752498D01*
X1878746Y2752369D01*
X1879563Y2752240D01*
X1880423Y2752025D01*
X1881326Y2751767D01*
X1882272Y2751466D01*
X1883261Y2751079D01*
X1884293Y2750649D01*
X1885325Y2750090D01*
X1886314Y2749445D01*
X1887346Y2748714D01*
X1888292Y2747897D01*
Y2749832D01*
Y2749875D01*
Y2750004D01*
Y2750176D01*
X1888335Y2750391D01*
X1888421Y2750864D01*
X1888507Y2751079D01*
X1888636Y2751251D01*
Y2751294D01*
X1888722Y2751337D01*
X1888894Y2751509D01*
X1889238Y2751638D01*
X1889453Y2751724D01*
X1889797D01*
X1890055Y2751681D01*
X1890356Y2751509D01*
X1890528Y2751423D01*
X1890700Y2751251D01*
X1890743Y2751165D01*
X1890829Y2751079D01*
X1890915Y2750907D01*
X1890958Y2750735D01*
X1891044Y2750477D01*
X1891087Y2750176D01*
Y2749832D01*
Y2742092D01*
Y2742049D01*
Y2741920D01*
Y2741748D01*
X1891044Y2741533D01*
X1890915Y2741060D01*
X1890829Y2740802D01*
X1890700Y2740630D01*
X1890614Y2740544D01*
X1890442Y2740415D01*
X1890098Y2740286D01*
X1889668Y2740200D01*
X1889582D01*
X1889324Y2740243D01*
X1889023Y2740372D01*
X1888722Y2740587D01*
X1888679Y2740673D01*
X1888507Y2740888D01*
X1888464Y2741060D01*
X1888378Y2741275D01*
X1888335Y2741576D01*
X1888292Y2741877D01*
Y2741920D01*
Y2742006D01*
X1888249Y2742135D01*
X1888206Y2742350D01*
X1888163Y2742608D01*
X1888077Y2742866D01*
X1887862Y2743554D01*
X1887475Y2744328D01*
X1887217Y2744758D01*
X1886916Y2745145D01*
X1886572Y2745575D01*
X1886185Y2746005D01*
X1885755Y2746435D01*
X1885239Y2746865D01*
X1885196Y2746908D01*
X1885067Y2746994D01*
X1884852Y2747123D01*
X1884551Y2747338D01*
X1884207Y2747553D01*
X1883734Y2747811D01*
X1883261Y2748069D01*
X1882702Y2748370D01*
X1882057Y2748628D01*
X1881369Y2748886D01*
X1880638Y2749144D01*
X1879864Y2749359D01*
X1879047Y2749574D01*
X1878187Y2749703D01*
X1877284Y2749789D01*
X1876381Y2749832D01*
X1875822D01*
X1875564Y2749789D01*
X1875220Y2749746D01*
X1874833Y2749703D01*
X1874403Y2749660D01*
X1873457Y2749488D01*
X1872425Y2749230D01*
X1871350Y2748843D01*
X1870275Y2748370D01*
X1870232D01*
X1870189Y2748327D01*
X1869931Y2748198D01*
X1869544Y2747983D01*
X1869028Y2747682D01*
X1868512Y2747295D01*
X1867953Y2746865D01*
X1867394Y2746392D01*
X1866878Y2745833D01*
X1866835Y2745790D01*
X1866792Y2745704D01*
X1866663Y2745575D01*
X1866534Y2745360D01*
X1866319Y2745145D01*
X1866104Y2744844D01*
X1865631Y2744113D01*
X1865072Y2743296D01*
X1864470Y2742307D01*
X1863868Y2741232D01*
X1863352Y2740071D01*
Y2740028D01*
X1863309Y2739985D01*
X1863266Y2739856D01*
X1863223Y2739641D01*
X1863137Y2739426D01*
X1863051Y2739168D01*
X1862922Y2738523D01*
X1862750Y2737749D01*
X1862578Y2736846D01*
X1862492Y2735857D01*
X1862449Y2734782D01*
Y2729880D01*
Y2729794D01*
Y2729622D01*
X1862492Y2729278D01*
X1862535Y2728848D01*
X1862578Y2728289D01*
X1862707Y2727644D01*
X1862836Y2726956D01*
X1863008Y2726182D01*
X1863266Y2725322D01*
X1863567Y2724462D01*
X1863911Y2723559D01*
X1864341Y2722656D01*
X1864857Y2721710D01*
X1865459Y2720807D01*
X1866190Y2719904D01*
X1866964Y2719001D01*
X1867007Y2718958D01*
X1867179Y2718786D01*
X1867437Y2718571D01*
X1867781Y2718270D01*
X1868211Y2717926D01*
X1868727Y2717539D01*
X1869329Y2717152D01*
X1870017Y2716722D01*
X1870748Y2716292D01*
X1871565Y2715862D01*
X1872425Y2715475D01*
X1873371Y2715131D01*
X1874317Y2714830D01*
X1875349Y2714615D01*
X1876424Y2714443D01*
X1877542Y2714400D01*
X1877886D01*
X1878144Y2714443D01*
X1878488D01*
X1878832Y2714486D01*
X1879262Y2714529D01*
X1879692Y2714615D01*
X1880724Y2714787D01*
X1881799Y2715045D01*
X1882917Y2715432D01*
X1883992Y2715948D01*
X1884035D01*
X1884121Y2716034D01*
X1884293Y2716120D01*
X1884465Y2716249D01*
X1884723Y2716421D01*
X1885067Y2716593D01*
X1885755Y2717109D01*
X1886615Y2717754D01*
X1887561Y2718571D01*
X1888550Y2719517D01*
X1889539Y2720635D01*
X1889582Y2720678D01*
X1889625Y2720764D01*
X1889926Y2721022D01*
X1890313Y2721237D01*
X1890528Y2721323D01*
X1890786Y2721366D01*
X1890872D01*
X1891130Y2721323D01*
X1891474Y2721194D01*
X1891775Y2720979D01*
X1891818Y2720936D01*
X1891990Y2720721D01*
X1892119Y2720420D01*
X1892162Y2720033D01*
Y2719990D01*
Y2719904D01*
X1892076Y2719732D01*
X1891990Y2719474D01*
X1891818Y2719130D01*
X1891560Y2718743D01*
X1891173Y2718270D01*
X1890700Y2717711D01*
X1890657Y2717668D01*
X1890571Y2717582D01*
X1890442Y2717410D01*
X1890227Y2717195D01*
X1889969Y2716937D01*
X1889668Y2716679D01*
X1889281Y2716335D01*
X1888894Y2715991D01*
X1887991Y2715260D01*
X1886916Y2714486D01*
X1885755Y2713755D01*
X1884508Y2713110D01*
X1884465D01*
X1884336Y2713067D01*
X1884164Y2712981D01*
X1883906Y2712895D01*
X1883605Y2712766D01*
X1883261Y2712637D01*
X1882831Y2712508D01*
X1882358Y2712379D01*
X1881326Y2712078D01*
X1880165Y2711863D01*
X1878918Y2711691D01*
X1877628Y2711605D01*
X1877112D01*
X1876811Y2711648D01*
X1876510D01*
X1876123Y2711691D01*
X1875693Y2711734D01*
X1874790Y2711906D01*
X1873715Y2712078D01*
X1872597Y2712379D01*
X1871436Y2712766D01*
X1871393D01*
X1871350Y2712809D01*
X1871221Y2712852D01*
X1871049Y2712938D01*
X1870576Y2713110D01*
X1870017Y2713368D01*
X1869415Y2713669D01*
X1868727Y2714013D01*
X1868082Y2714400D01*
X1867437Y2714830D01*
X1867351Y2714873D01*
X1867179Y2715045D01*
X1866835Y2715346D01*
X1866362Y2715776D01*
X1865803Y2716335D01*
X1865158Y2717066D01*
X1864384Y2717883D01*
X1863567Y2718872D01*
X1863524Y2718915D01*
X1863481Y2719001D01*
X1863352Y2719173D01*
X1863180Y2719345D01*
X1863008Y2719603D01*
X1862793Y2719904D01*
X1862320Y2720635D01*
X1861804Y2721452D01*
X1861288Y2722312D01*
X1860858Y2723258D01*
X1860471Y2724161D01*
Y2724204D01*
X1860428Y2724290D01*
X1860385Y2724419D01*
X1860342Y2724591D01*
X1860299Y2724806D01*
X1860213Y2725107D01*
X1860084Y2725752D01*
X1859912Y2726526D01*
X1859783Y2727429D01*
X1859697Y2728418D01*
X1859654Y2729493D01*
Y2735212D01*
Y2735255D01*
Y2735384D01*
Y2735642D01*
X1859697Y2735943D01*
X1859740Y2736287D01*
X1859783Y2736760D01*
X1859826Y2737233D01*
X1859912Y2737835D01*
X1860041Y2738437D01*
X1860170Y2739082D01*
X1860600Y2740501D01*
X1860815Y2741275D01*
X1861116Y2742049D01*
X1861460Y2742823D01*
X1861847Y2743640D01*
X1861890Y2743683D01*
X1861933Y2743812D01*
X1862062Y2744070D01*
X1862277Y2744371D01*
X1862492Y2744715D01*
X1862750Y2745145D01*
X1863094Y2745618D01*
X1863438Y2746091D01*
X1863868Y2746650D01*
X1864298Y2747166D01*
X1865330Y2748284D01*
X1866534Y2749359D01*
X1867222Y2749832D01*
X1867910Y2750305D01*
X1867953Y2750348D01*
X1868082Y2750391D01*
X1868297Y2750520D01*
X1868598Y2750649D01*
X1868942Y2750864D01*
X1869372Y2751036D01*
X1869845Y2751251D01*
X1870404Y2751466D01*
X1871006Y2751681D01*
X1871651Y2751896D01*
X1872339Y2752111D01*
X1873070Y2752283D01*
X1874661Y2752541D01*
X1875478Y2752584D01*
X1876295Y2752627D01*
X1876596D01*
X1876983Y2752584D01*
D02*
G37*
G36*
X1807667Y2742049D02*
Y2742006D01*
Y2741877D01*
Y2741705D01*
X1807624Y2741490D01*
X1807495Y2741017D01*
X1807409Y2740759D01*
X1807280Y2740587D01*
X1807194Y2740544D01*
X1807022Y2740415D01*
X1806678Y2740243D01*
X1806248Y2740200D01*
X1806162D01*
X1805861Y2740243D01*
X1805560Y2740372D01*
X1805216Y2740587D01*
Y2740630D01*
X1805173Y2740673D01*
X1805130Y2740759D01*
X1805044Y2740931D01*
X1805001Y2741146D01*
X1804915Y2741404D01*
X1804872Y2741705D01*
Y2742049D01*
Y2748929D01*
X1784748D01*
Y2734309D01*
X1794810D01*
Y2737491D01*
Y2737534D01*
Y2737663D01*
X1794853Y2737835D01*
Y2738050D01*
X1794982Y2738523D01*
X1795068Y2738738D01*
X1795197Y2738910D01*
X1795283Y2738996D01*
X1795455Y2739125D01*
X1795799Y2739254D01*
X1796186Y2739340D01*
X1796272D01*
X1796530Y2739297D01*
X1796874Y2739168D01*
X1797175Y2738910D01*
X1797261Y2738824D01*
X1797304Y2738738D01*
X1797390Y2738566D01*
X1797476Y2738394D01*
X1797519Y2738136D01*
X1797605Y2737835D01*
Y2737491D01*
Y2728332D01*
Y2728289D01*
Y2728160D01*
Y2727988D01*
X1797562Y2727773D01*
X1797433Y2727300D01*
X1797304Y2727042D01*
X1797175Y2726870D01*
X1797089Y2726827D01*
X1796917Y2726698D01*
X1796616Y2726526D01*
X1796186Y2726483D01*
X1796100D01*
X1795842Y2726526D01*
X1795498Y2726655D01*
X1795197Y2726870D01*
Y2726913D01*
X1795154Y2726956D01*
X1795068Y2727042D01*
X1795025Y2727214D01*
X1794939Y2727429D01*
X1794853Y2727687D01*
X1794810Y2727988D01*
Y2728332D01*
Y2731514D01*
X1784748D01*
Y2715475D01*
X1806334D01*
Y2723774D01*
Y2723817D01*
Y2723946D01*
Y2724118D01*
X1806377Y2724333D01*
X1806463Y2724806D01*
X1806549Y2725021D01*
X1806678Y2725193D01*
X1806764Y2725279D01*
X1806936Y2725408D01*
X1807280Y2725537D01*
X1807710Y2725623D01*
X1807839D01*
X1808097Y2725580D01*
X1808398Y2725451D01*
X1808742Y2725193D01*
X1808785Y2725107D01*
X1808871Y2725021D01*
X1808957Y2724849D01*
X1809000Y2724677D01*
X1809086Y2724419D01*
X1809129Y2724118D01*
Y2723774D01*
Y2712680D01*
X1777997D01*
X1777825Y2712723D01*
X1777610D01*
X1777137Y2712852D01*
X1776879Y2712938D01*
X1776707Y2713067D01*
X1776664Y2713153D01*
X1776535Y2713325D01*
X1776363Y2713669D01*
X1776320Y2714056D01*
Y2714099D01*
Y2714185D01*
X1776363Y2714443D01*
X1776492Y2714744D01*
X1776707Y2715088D01*
X1776750D01*
X1776793Y2715131D01*
X1776879Y2715217D01*
X1777051Y2715303D01*
X1777266Y2715346D01*
X1777524Y2715432D01*
X1777825Y2715475D01*
X1781953D01*
Y2748929D01*
X1777825D01*
X1777610Y2748972D01*
X1777137Y2749058D01*
X1776879Y2749144D01*
X1776707Y2749273D01*
X1776664Y2749359D01*
X1776535Y2749531D01*
X1776363Y2749875D01*
X1776320Y2750305D01*
Y2750348D01*
Y2750434D01*
X1776363Y2750692D01*
X1776492Y2750993D01*
X1776707Y2751337D01*
X1776750D01*
X1776793Y2751380D01*
X1776879Y2751466D01*
X1777051Y2751552D01*
X1777266Y2751595D01*
X1777524Y2751681D01*
X1777825Y2751724D01*
X1807667D01*
Y2742049D01*
D02*
G37*
G36*
X1851570Y2751681D02*
X1852043Y2751552D01*
X1852258Y2751466D01*
X1852430Y2751337D01*
X1852473D01*
X1852516Y2751251D01*
X1852688Y2751079D01*
X1852817Y2750735D01*
X1852903Y2750520D01*
Y2750305D01*
Y2750262D01*
Y2750219D01*
X1852860Y2749918D01*
X1852688Y2749617D01*
X1852602Y2749445D01*
X1852430Y2749273D01*
X1852344Y2749230D01*
X1852258Y2749187D01*
X1852086Y2749101D01*
X1851914Y2749058D01*
X1851656Y2748972D01*
X1851355Y2748929D01*
X1848646D01*
Y2712680D01*
X1844991D01*
X1824394Y2747639D01*
Y2715475D01*
X1829898D01*
X1830113Y2715432D01*
X1830586Y2715303D01*
X1830801Y2715217D01*
X1830973Y2715088D01*
X1831016D01*
X1831059Y2715002D01*
X1831231Y2714830D01*
X1831360Y2714486D01*
X1831446Y2714271D01*
Y2714056D01*
Y2714013D01*
Y2713970D01*
X1831403Y2713712D01*
X1831231Y2713368D01*
X1831145Y2713239D01*
X1830973Y2713067D01*
X1830887Y2713024D01*
X1830801Y2712938D01*
X1830629Y2712895D01*
X1830457Y2712809D01*
X1830199Y2712723D01*
X1829898Y2712680D01*
X1819062D01*
X1818890Y2712723D01*
X1818675D01*
X1818202Y2712852D01*
X1817944Y2712938D01*
X1817772Y2713067D01*
X1817686Y2713153D01*
X1817557Y2713325D01*
X1817428Y2713669D01*
X1817342Y2714056D01*
Y2714099D01*
Y2714185D01*
X1817385Y2714443D01*
X1817514Y2714744D01*
X1817772Y2715088D01*
X1817815D01*
X1817858Y2715131D01*
X1817944Y2715217D01*
X1818116Y2715303D01*
X1818331Y2715346D01*
X1818589Y2715432D01*
X1818890Y2715475D01*
X1821599D01*
Y2748929D01*
X1817514D01*
X1817299Y2748972D01*
X1816826Y2749058D01*
X1816568Y2749144D01*
X1816396Y2749273D01*
X1816310Y2749359D01*
X1816181Y2749531D01*
X1816052Y2749875D01*
X1815966Y2750305D01*
Y2750348D01*
Y2750434D01*
X1816009Y2750692D01*
X1816138Y2750993D01*
X1816396Y2751337D01*
X1816439D01*
X1816482Y2751380D01*
X1816568Y2751466D01*
X1816740Y2751552D01*
X1816955Y2751595D01*
X1817213Y2751681D01*
X1817514Y2751724D01*
X1825211D01*
X1845851Y2716722D01*
Y2748929D01*
X1840347D01*
X1840132Y2748972D01*
X1839659Y2749058D01*
X1839401Y2749144D01*
X1839229Y2749273D01*
X1839143Y2749359D01*
X1839014Y2749531D01*
X1838885Y2749875D01*
X1838799Y2750305D01*
Y2750348D01*
Y2750434D01*
X1838842Y2750692D01*
X1838971Y2750993D01*
X1839186Y2751337D01*
X1839229D01*
X1839272Y2751380D01*
X1839401Y2751466D01*
X1839530Y2751552D01*
X1839745Y2751595D01*
X1840003Y2751681D01*
X1840304Y2751724D01*
X1851355D01*
X1851570Y2751681D01*
D02*
G37*
G36*
X2042103D02*
X2042576Y2751638D01*
X2043092Y2751552D01*
X2043694Y2751423D01*
X2044296Y2751294D01*
X2044984Y2751122D01*
X2045715Y2750907D01*
X2046446Y2750649D01*
X2047177Y2750305D01*
X2047908Y2749918D01*
X2048639Y2749488D01*
X2049370Y2748972D01*
X2050058Y2748370D01*
X2050101Y2748327D01*
X2050230Y2748241D01*
X2050402Y2748026D01*
X2050617Y2747768D01*
X2050918Y2747467D01*
X2051219Y2747123D01*
X2051520Y2746693D01*
X2051864Y2746177D01*
X2052208Y2745661D01*
X2052509Y2745102D01*
X2053111Y2743812D01*
X2053326Y2743124D01*
X2053498Y2742393D01*
X2053627Y2741662D01*
X2053670Y2740888D01*
Y2740845D01*
Y2740759D01*
Y2740587D01*
X2053627Y2740372D01*
X2053584Y2740114D01*
X2053541Y2739813D01*
X2053412Y2739039D01*
X2053111Y2738179D01*
X2052724Y2737233D01*
X2052466Y2736717D01*
X2052165Y2736244D01*
X2051821Y2735728D01*
X2051434Y2735212D01*
X2051391Y2735169D01*
X2051348Y2735083D01*
X2051176Y2734954D01*
X2051004Y2734782D01*
X2050746Y2734567D01*
X2050445Y2734309D01*
X2050101Y2734008D01*
X2049671Y2733664D01*
X2049198Y2733363D01*
X2048639Y2732976D01*
X2048037Y2732632D01*
X2047349Y2732245D01*
X2046618Y2731901D01*
X2045801Y2731514D01*
X2044941Y2731170D01*
X2043995Y2730826D01*
X2044038Y2730783D01*
X2044124Y2730740D01*
X2044296Y2730611D01*
X2044511Y2730439D01*
X2044769Y2730267D01*
X2045070Y2730009D01*
X2045758Y2729450D01*
X2046575Y2728762D01*
X2047435Y2727945D01*
X2048295Y2727042D01*
X2049112Y2726096D01*
X2049155Y2726053D01*
X2049198Y2725967D01*
X2049327Y2725795D01*
X2049542Y2725580D01*
X2049757Y2725236D01*
X2050058Y2724849D01*
X2050402Y2724376D01*
X2050789Y2723817D01*
X2051219Y2723129D01*
X2051735Y2722355D01*
X2052294Y2721495D01*
X2052939Y2720549D01*
X2053584Y2719431D01*
X2054358Y2718227D01*
X2055132Y2716937D01*
X2055992Y2715475D01*
X2058443D01*
X2058658Y2715432D01*
X2059131Y2715303D01*
X2059346Y2715217D01*
X2059518Y2715088D01*
X2059561D01*
X2059604Y2715002D01*
X2059776Y2714830D01*
X2059905Y2714486D01*
X2059991Y2714271D01*
Y2714056D01*
Y2714013D01*
Y2713970D01*
X2059948Y2713712D01*
X2059776Y2713368D01*
X2059690Y2713239D01*
X2059518Y2713067D01*
X2059432Y2713024D01*
X2059346Y2712938D01*
X2059174Y2712895D01*
X2059002Y2712809D01*
X2058744Y2712723D01*
X2058443Y2712680D01*
X2054358D01*
Y2712723D01*
X2054315Y2712766D01*
X2054229Y2712895D01*
X2054143Y2713067D01*
X2054014Y2713282D01*
X2053842Y2713540D01*
X2053498Y2714185D01*
X2053068Y2714916D01*
X2052552Y2715776D01*
X2051993Y2716722D01*
X2051391Y2717711D01*
X2050101Y2719818D01*
X2049456Y2720850D01*
X2048768Y2721839D01*
X2048123Y2722785D01*
X2047478Y2723688D01*
X2046876Y2724462D01*
X2046317Y2725107D01*
X2046274Y2725150D01*
X2046188Y2725236D01*
X2046016Y2725408D01*
X2045801Y2725623D01*
X2045543Y2725881D01*
X2045242Y2726225D01*
X2044855Y2726569D01*
X2044425Y2726913D01*
X2043995Y2727300D01*
X2043479Y2727730D01*
X2042361Y2728547D01*
X2041114Y2729364D01*
X2039781Y2730095D01*
X2030880D01*
Y2715475D01*
X2036384D01*
X2036599Y2715432D01*
X2037072Y2715303D01*
X2037287Y2715217D01*
X2037459Y2715088D01*
X2037502D01*
X2037545Y2715002D01*
X2037717Y2714830D01*
X2037846Y2714486D01*
X2037932Y2714271D01*
Y2714056D01*
Y2714013D01*
Y2713970D01*
X2037889Y2713712D01*
X2037717Y2713368D01*
X2037631Y2713239D01*
X2037459Y2713067D01*
X2037373Y2713024D01*
X2037287Y2712938D01*
X2037115Y2712895D01*
X2036943Y2712809D01*
X2036685Y2712723D01*
X2036384Y2712680D01*
X2024172D01*
X2024000Y2712723D01*
X2023785D01*
X2023312Y2712852D01*
X2023054Y2712938D01*
X2022882Y2713067D01*
X2022796Y2713153D01*
X2022667Y2713325D01*
X2022538Y2713669D01*
X2022452Y2714056D01*
Y2714099D01*
Y2714185D01*
X2022495Y2714443D01*
X2022624Y2714744D01*
X2022882Y2715088D01*
X2022925D01*
X2022968Y2715131D01*
X2023054Y2715217D01*
X2023226Y2715303D01*
X2023441Y2715346D01*
X2023699Y2715432D01*
X2024000Y2715475D01*
X2028085D01*
Y2748929D01*
X2024000D01*
X2023785Y2748972D01*
X2023312Y2749058D01*
X2023054Y2749144D01*
X2022882Y2749273D01*
X2022796Y2749359D01*
X2022667Y2749531D01*
X2022538Y2749875D01*
X2022452Y2750305D01*
Y2750348D01*
Y2750434D01*
X2022495Y2750692D01*
X2022624Y2750993D01*
X2022882Y2751337D01*
X2022925D01*
X2022968Y2751380D01*
X2023054Y2751466D01*
X2023226Y2751552D01*
X2023441Y2751595D01*
X2023699Y2751681D01*
X2024000Y2751724D01*
X2041759D01*
X2042103Y2751681D01*
D02*
G37*
G36*
X1960274D02*
X1960575D01*
X1960962Y2751638D01*
X1961349Y2751595D01*
X1961822Y2751552D01*
X1962811Y2751337D01*
X1963886Y2751079D01*
X1965004Y2750735D01*
X1966122Y2750219D01*
X1966165D01*
X1966251Y2750133D01*
X1966423Y2750090D01*
X1966595Y2749961D01*
X1966853Y2749832D01*
X1967111Y2749660D01*
X1967799Y2749273D01*
X1968487Y2748757D01*
X1969261Y2748198D01*
X1969949Y2747596D01*
X1970594Y2746908D01*
X1970637Y2746865D01*
X1970723Y2746779D01*
X1970852Y2746607D01*
X1971024Y2746349D01*
X1971239Y2746048D01*
X1971497Y2745704D01*
X1971798Y2745317D01*
X1972099Y2744887D01*
X1972744Y2743855D01*
X1973389Y2742737D01*
X1974034Y2741490D01*
X1974593Y2740200D01*
Y2740157D01*
X1974636Y2740071D01*
X1974679Y2739942D01*
X1974765Y2739727D01*
X1974808Y2739512D01*
X1974894Y2739211D01*
X1974980Y2738867D01*
X1975109Y2738480D01*
X1975281Y2737577D01*
X1975410Y2736545D01*
X1975539Y2735384D01*
X1975582Y2734137D01*
Y2730224D01*
Y2730181D01*
Y2730052D01*
Y2729794D01*
X1975539Y2729493D01*
Y2729106D01*
X1975496Y2728633D01*
X1975410Y2728117D01*
X1975324Y2727558D01*
X1975238Y2726956D01*
X1975109Y2726311D01*
X1974765Y2724892D01*
X1974292Y2723387D01*
X1973991Y2722656D01*
X1973647Y2721882D01*
Y2721839D01*
X1973561Y2721710D01*
X1973432Y2721495D01*
X1973303Y2721194D01*
X1973088Y2720850D01*
X1972830Y2720463D01*
X1972529Y2719990D01*
X1972142Y2719517D01*
X1971755Y2718958D01*
X1971282Y2718399D01*
X1970766Y2717840D01*
X1970164Y2717238D01*
X1969562Y2716636D01*
X1968874Y2716034D01*
X1968143Y2715432D01*
X1967326Y2714873D01*
X1967283Y2714830D01*
X1967197Y2714787D01*
X1966982Y2714658D01*
X1966724Y2714529D01*
X1966423Y2714357D01*
X1966036Y2714185D01*
X1965606Y2713970D01*
X1965133Y2713798D01*
X1964574Y2713583D01*
X1964015Y2713368D01*
X1963370Y2713196D01*
X1962682Y2713024D01*
X1961263Y2712766D01*
X1960489Y2712723D01*
X1959672Y2712680D01*
X1944450D01*
X1944278Y2712723D01*
X1944063D01*
X1943590Y2712852D01*
X1943332Y2712938D01*
X1943160Y2713067D01*
X1943074Y2713153D01*
X1942945Y2713325D01*
X1942816Y2713669D01*
X1942730Y2714056D01*
Y2714099D01*
Y2714185D01*
X1942773Y2714443D01*
X1942902Y2714744D01*
X1943160Y2715088D01*
X1943203D01*
X1943246Y2715131D01*
X1943332Y2715217D01*
X1943504Y2715303D01*
X1943719Y2715346D01*
X1943977Y2715432D01*
X1944278Y2715475D01*
X1946987D01*
Y2748929D01*
X1944278D01*
X1944063Y2748972D01*
X1943590Y2749058D01*
X1943332Y2749144D01*
X1943160Y2749273D01*
X1943074Y2749359D01*
X1942945Y2749531D01*
X1942816Y2749875D01*
X1942730Y2750305D01*
Y2750348D01*
Y2750434D01*
X1942773Y2750692D01*
X1942902Y2750993D01*
X1943160Y2751337D01*
X1943203D01*
X1943246Y2751380D01*
X1943332Y2751466D01*
X1943504Y2751552D01*
X1943719Y2751595D01*
X1943977Y2751681D01*
X1944278Y2751724D01*
X1960016D01*
X1960274Y2751681D01*
D02*
G37*
G36*
X1917833Y2752584D02*
X1918220Y2752541D01*
X1918693Y2752498D01*
X1919252Y2752412D01*
X1919854Y2752283D01*
X1920456Y2752154D01*
X1921144Y2751982D01*
X1921832Y2751767D01*
X1922563Y2751466D01*
X1923337Y2751165D01*
X1924068Y2750821D01*
X1924842Y2750391D01*
X1925573Y2749918D01*
X1925616Y2749875D01*
X1925745Y2749789D01*
X1925960Y2749660D01*
X1926218Y2749445D01*
X1926562Y2749144D01*
X1926949Y2748843D01*
X1927379Y2748456D01*
X1927852Y2747983D01*
X1928368Y2747467D01*
X1928884Y2746951D01*
X1929400Y2746306D01*
X1929916Y2745661D01*
X1930432Y2744930D01*
X1930948Y2744156D01*
X1931421Y2743339D01*
X1931851Y2742479D01*
X1931894Y2742436D01*
X1931937Y2742264D01*
X1932066Y2742006D01*
X1932195Y2741662D01*
X1932410Y2741232D01*
X1932582Y2740673D01*
X1932797Y2740071D01*
X1933012Y2739426D01*
X1933227Y2738652D01*
X1933442Y2737878D01*
X1933657Y2737018D01*
X1933829Y2736115D01*
X1933958Y2735169D01*
X1934087Y2734180D01*
X1934130Y2733148D01*
X1934173Y2732116D01*
Y2732073D01*
Y2731858D01*
Y2731557D01*
X1934130Y2731170D01*
X1934087Y2730654D01*
X1934044Y2730095D01*
X1934001Y2729407D01*
X1933872Y2728719D01*
X1933786Y2727945D01*
X1933614Y2727085D01*
X1933227Y2725365D01*
X1932969Y2724462D01*
X1932668Y2723516D01*
X1932281Y2722613D01*
X1931894Y2721710D01*
X1931851Y2721667D01*
X1931808Y2721495D01*
X1931679Y2721237D01*
X1931464Y2720936D01*
X1931249Y2720506D01*
X1930948Y2720076D01*
X1930647Y2719560D01*
X1930260Y2719001D01*
X1929830Y2718399D01*
X1929357Y2717797D01*
X1928841Y2717195D01*
X1928282Y2716550D01*
X1927680Y2715948D01*
X1927035Y2715346D01*
X1926347Y2714787D01*
X1925616Y2714271D01*
X1925573Y2714228D01*
X1925444Y2714142D01*
X1925229Y2714013D01*
X1924928Y2713841D01*
X1924541Y2713669D01*
X1924111Y2713411D01*
X1923595Y2713196D01*
X1923036Y2712938D01*
X1922434Y2712680D01*
X1921789Y2712465D01*
X1921058Y2712207D01*
X1920327Y2712035D01*
X1919553Y2711863D01*
X1918736Y2711734D01*
X1917919Y2711648D01*
X1917059Y2711605D01*
X1916758D01*
X1916414Y2711648D01*
X1915898Y2711691D01*
X1915339Y2711777D01*
X1914651Y2711906D01*
X1913877Y2712078D01*
X1913017Y2712336D01*
X1912114Y2712637D01*
X1911168Y2713024D01*
X1910179Y2713454D01*
X1909147Y2714013D01*
X1908115Y2714658D01*
X1907083Y2715432D01*
X1906094Y2716335D01*
X1905105Y2717324D01*
X1905062Y2717410D01*
X1904890Y2717582D01*
X1904632Y2717926D01*
X1904288Y2718356D01*
X1903901Y2718958D01*
X1903471Y2719646D01*
X1903041Y2720420D01*
X1902568Y2721323D01*
X1902052Y2722355D01*
X1901622Y2723473D01*
X1901192Y2724677D01*
X1900805Y2726010D01*
X1900461Y2727386D01*
X1900203Y2728891D01*
X1900031Y2730482D01*
X1899988Y2732116D01*
Y2732159D01*
Y2732202D01*
Y2732331D01*
Y2732503D01*
Y2732718D01*
X1900031Y2732976D01*
X1900074Y2733621D01*
X1900160Y2734395D01*
X1900246Y2735255D01*
X1900418Y2736287D01*
X1900633Y2737362D01*
X1900891Y2738480D01*
X1901235Y2739684D01*
X1901665Y2740931D01*
X1902138Y2742135D01*
X1902740Y2743382D01*
X1903428Y2744586D01*
X1904202Y2745747D01*
X1905105Y2746865D01*
X1905148Y2746951D01*
X1905320Y2747123D01*
X1905621Y2747381D01*
X1906008Y2747768D01*
X1906524Y2748198D01*
X1907083Y2748671D01*
X1907771Y2749230D01*
X1908545Y2749746D01*
X1909362Y2750305D01*
X1910308Y2750821D01*
X1911297Y2751294D01*
X1912329Y2751724D01*
X1913447Y2752111D01*
X1914608Y2752369D01*
X1915812Y2752584D01*
X1917059Y2752627D01*
X1917489D01*
X1917833Y2752584D01*
D02*
G37*
%LPC*%
G36*
X2041157Y2748929D02*
X2030880D01*
Y2732890D01*
X2038835D01*
X2039136Y2732933D01*
X2039437D01*
X2039824Y2732976D01*
X2040254Y2733019D01*
X2040727Y2733062D01*
X2041759Y2733234D01*
X2042877Y2733449D01*
X2044038Y2733793D01*
X2045156Y2734223D01*
X2045199D01*
X2045285Y2734266D01*
X2045457Y2734352D01*
X2045629Y2734481D01*
X2045887Y2734610D01*
X2046188Y2734739D01*
X2046833Y2735126D01*
X2047521Y2735556D01*
X2048252Y2736115D01*
X2048940Y2736717D01*
X2049499Y2737362D01*
X2049542Y2737448D01*
X2049714Y2737663D01*
X2049929Y2738050D01*
X2050187Y2738480D01*
X2050445Y2739039D01*
X2050660Y2739684D01*
X2050832Y2740329D01*
X2050875Y2741017D01*
Y2741060D01*
Y2741146D01*
Y2741275D01*
X2050832Y2741490D01*
X2050789Y2741748D01*
X2050746Y2742049D01*
X2050531Y2742737D01*
X2050187Y2743554D01*
X2049972Y2743984D01*
X2049671Y2744457D01*
X2049370Y2744930D01*
X2048983Y2745403D01*
X2048553Y2745876D01*
X2048037Y2746349D01*
X2047994Y2746392D01*
X2047908Y2746478D01*
X2047736Y2746607D01*
X2047521Y2746736D01*
X2047263Y2746951D01*
X2046919Y2747166D01*
X2046532Y2747381D01*
X2046102Y2747639D01*
X2045629Y2747897D01*
X2045113Y2748112D01*
X2043952Y2748542D01*
X2043307Y2748671D01*
X2042619Y2748800D01*
X2041888Y2748886D01*
X2041157Y2748929D01*
D02*
G37*
G36*
X1959930D02*
X1949782D01*
Y2715475D01*
X1960274D01*
X1960532Y2715518D01*
X1960833Y2715561D01*
X1961220Y2715604D01*
X1961650Y2715647D01*
X1962080Y2715776D01*
X1963112Y2716034D01*
X1964230Y2716421D01*
X1964789Y2716679D01*
X1965391Y2717023D01*
X1965993Y2717367D01*
X1966552Y2717754D01*
X1966595Y2717797D01*
X1966681Y2717840D01*
X1966853Y2717969D01*
X1967068Y2718141D01*
X1967326Y2718399D01*
X1967627Y2718657D01*
X1968315Y2719302D01*
X1969046Y2720119D01*
X1969820Y2721022D01*
X1970551Y2722097D01*
X1971196Y2723258D01*
Y2723301D01*
X1971282Y2723387D01*
X1971325Y2723602D01*
X1971454Y2723817D01*
X1971583Y2724118D01*
X1971712Y2724462D01*
X1971841Y2724849D01*
X1972013Y2725279D01*
X1972271Y2726268D01*
X1972529Y2727343D01*
X1972701Y2728461D01*
X1972787Y2729622D01*
Y2734739D01*
Y2734782D01*
Y2734868D01*
Y2734997D01*
Y2735169D01*
X1972744Y2735642D01*
X1972701Y2736287D01*
X1972572Y2737018D01*
X1972443Y2737749D01*
X1972228Y2738566D01*
X1971927Y2739340D01*
Y2739383D01*
X1971884Y2739469D01*
X1971798Y2739641D01*
X1971712Y2739856D01*
X1971583Y2740114D01*
X1971411Y2740415D01*
X1971067Y2741189D01*
X1970551Y2742049D01*
X1969992Y2742995D01*
X1969304Y2744027D01*
X1968530Y2745016D01*
X1968487Y2745102D01*
X1968315Y2745274D01*
X1968014Y2745532D01*
X1967627Y2745919D01*
X1967111Y2746306D01*
X1966509Y2746779D01*
X1965778Y2747209D01*
X1964961Y2747682D01*
X1964918D01*
X1964875Y2747725D01*
X1964746Y2747811D01*
X1964574Y2747897D01*
X1964359Y2747983D01*
X1964101Y2748069D01*
X1963456Y2748327D01*
X1962725Y2748542D01*
X1961865Y2748757D01*
X1960919Y2748886D01*
X1959930Y2748929D01*
D02*
G37*
G36*
X1917059Y2749832D02*
X1916801D01*
X1916500Y2749789D01*
X1916070Y2749746D01*
X1915554Y2749660D01*
X1914995Y2749574D01*
X1914307Y2749402D01*
X1913576Y2749187D01*
X1912802Y2748886D01*
X1911985Y2748542D01*
X1911168Y2748155D01*
X1910308Y2747639D01*
X1909448Y2747037D01*
X1908588Y2746349D01*
X1907771Y2745532D01*
X1906954Y2744629D01*
X1906911Y2744586D01*
X1906782Y2744414D01*
X1906567Y2744113D01*
X1906309Y2743683D01*
X1906008Y2743210D01*
X1905621Y2742608D01*
X1905277Y2741920D01*
X1904890Y2741103D01*
X1904460Y2740243D01*
X1904116Y2739297D01*
X1903772Y2738265D01*
X1903428Y2737147D01*
X1903170Y2735986D01*
X1902955Y2734739D01*
X1902826Y2733449D01*
X1902783Y2732116D01*
Y2732030D01*
Y2731772D01*
X1902826Y2731342D01*
X1902869Y2730826D01*
X1902912Y2730138D01*
X1902998Y2729364D01*
X1903170Y2728504D01*
X1903342Y2727601D01*
X1903557Y2726612D01*
X1903858Y2725580D01*
X1904202Y2724505D01*
X1904632Y2723430D01*
X1905148Y2722355D01*
X1905707Y2721323D01*
X1906395Y2720291D01*
X1907169Y2719345D01*
X1907212Y2719302D01*
X1907384Y2719130D01*
X1907599Y2718872D01*
X1907943Y2718571D01*
X1908373Y2718184D01*
X1908846Y2717797D01*
X1909405Y2717324D01*
X1910050Y2716894D01*
X1910738Y2716421D01*
X1911512Y2715948D01*
X1912329Y2715561D01*
X1913189Y2715174D01*
X1914092Y2714873D01*
X1915038Y2714615D01*
X1916027Y2714443D01*
X1917059Y2714400D01*
X1917360D01*
X1917661Y2714443D01*
X1918091Y2714486D01*
X1918650Y2714572D01*
X1919252Y2714701D01*
X1919983Y2714873D01*
X1920714Y2715088D01*
X1921531Y2715346D01*
X1922348Y2715733D01*
X1923208Y2716163D01*
X1924068Y2716679D01*
X1924928Y2717324D01*
X1925745Y2718012D01*
X1926562Y2718872D01*
X1927336Y2719818D01*
X1927379Y2719861D01*
X1927508Y2720076D01*
X1927723Y2720377D01*
X1927981Y2720764D01*
X1928282Y2721280D01*
X1928626Y2721882D01*
X1928970Y2722613D01*
X1929357Y2723387D01*
X1929701Y2724247D01*
X1930088Y2725193D01*
X1930432Y2726225D01*
X1930733Y2727300D01*
X1930991Y2728418D01*
X1931206Y2729622D01*
X1931335Y2730826D01*
X1931378Y2732116D01*
Y2732202D01*
Y2732417D01*
X1931335Y2732804D01*
X1931292Y2733277D01*
X1931249Y2733879D01*
X1931163Y2734567D01*
X1931034Y2735341D01*
X1930862Y2736201D01*
X1930647Y2737147D01*
X1930389Y2738093D01*
X1930045Y2739125D01*
X1929658Y2740157D01*
X1929185Y2741232D01*
X1928669Y2742307D01*
X1928024Y2743339D01*
X1927336Y2744371D01*
X1927293Y2744414D01*
X1927164Y2744586D01*
X1926949Y2744887D01*
X1926605Y2745231D01*
X1926218Y2745618D01*
X1925745Y2746091D01*
X1925186Y2746607D01*
X1924584Y2747123D01*
X1923853Y2747596D01*
X1923079Y2748112D01*
X1922262Y2748585D01*
X1921316Y2748972D01*
X1920370Y2749316D01*
X1919338Y2749617D01*
X1918220Y2749789D01*
X1917059Y2749832D01*
D02*
G37*
%LPD*%
%TF.MD5,1e918e9573f55742babe12fcd2fa8be1*%
M02*
