%TF.GenerationSoftware,Altium Limited,Altium Designer,18.0.12 (696)*%
G04 Layer_Color=2752767*
%FSLAX26Y26*%
%MOIN*%
%TF.FileFunction,Drawing*%
%TF.Part,Single*%
G01*
G75*
%TA.AperFunction,NonConductor*%
%ADD35C,0.005000*%
%ADD36C,0.006667*%
D35*
X1182360Y1166220D02*
Y1206220D01*
X1222360D01*
Y1166220D01*
X1182360D01*
X2642680Y1188230D02*
Y1228230D01*
X2682680D01*
Y1188230D01*
X2642680D01*
X1177390Y2858000D02*
Y2898000D01*
X1217390D01*
Y2858000D01*
X1177390D01*
X2628680Y2864370D02*
Y2904370D01*
X2668680D01*
Y2864370D01*
X2628680D01*
X2274210Y1239450D02*
X2254210Y1279450D01*
X2294210D01*
X2274210Y1239450D01*
X1634450D02*
X1614450Y1279450D01*
X1654450D01*
X1634450Y1239450D01*
X2094880D02*
X2104880Y1249450D01*
X2114880D01*
X2104880Y1259450D01*
X2114880Y1269450D01*
X2104880D01*
X2094880Y1279450D01*
X2084880Y1269450D01*
X2074880D01*
X2084880Y1259450D01*
X2074880Y1249450D01*
X2084880D01*
X2094880Y1239450D01*
X2054720Y1339450D02*
X2064720Y1349450D01*
X2074720D01*
X2064720Y1359450D01*
X2074720Y1369450D01*
X2064720D01*
X2054720Y1379450D01*
X2044720Y1369450D01*
X2034720D01*
X2044720Y1359450D01*
X2034720Y1349450D01*
X2044720D01*
X2054720Y1339450D01*
X2014570Y1239450D02*
X2024570Y1249450D01*
X2034570D01*
X2024570Y1259450D01*
X2034570Y1269450D01*
X2024570D01*
X2014570Y1279450D01*
X2004570Y1269450D01*
X1994570D01*
X2004570Y1259450D01*
X1994570Y1249450D01*
X2004570D01*
X2014570Y1239450D01*
X1974410Y1339450D02*
X1984410Y1349450D01*
X1994410D01*
X1984410Y1359450D01*
X1994410Y1369450D01*
X1984410D01*
X1974410Y1379450D01*
X1964410Y1369450D01*
X1954410D01*
X1964410Y1359450D01*
X1954410Y1349450D01*
X1964410D01*
X1974410Y1339450D01*
X1934250Y1239450D02*
X1944250Y1249450D01*
X1954250D01*
X1944250Y1259450D01*
X1954250Y1269450D01*
X1944250D01*
X1934250Y1279450D01*
X1924250Y1269450D01*
X1914250D01*
X1924250Y1259450D01*
X1914250Y1249450D01*
X1924250D01*
X1934250Y1239450D01*
X1894090Y1339450D02*
X1904090Y1349450D01*
X1914090D01*
X1904090Y1359450D01*
X1914090Y1369450D01*
X1904090D01*
X1894090Y1379450D01*
X1884090Y1369450D01*
X1874090D01*
X1884090Y1359450D01*
X1874090Y1349450D01*
X1884090D01*
X1894090Y1339450D01*
X1853940Y1239450D02*
X1863940Y1249450D01*
X1873940D01*
X1863940Y1259450D01*
X1873940Y1269450D01*
X1863940D01*
X1853940Y1279450D01*
X1843940Y1269450D01*
X1833940D01*
X1843940Y1259450D01*
X1833940Y1249450D01*
X1843940D01*
X1853940Y1239450D01*
X1813780Y1339450D02*
X1823780Y1349450D01*
X1833780D01*
X1823780Y1359450D01*
X1833780Y1369450D01*
X1823780D01*
X1813780Y1379450D01*
X1803780Y1369450D01*
X1793780D01*
X1803780Y1359450D01*
X1793780Y1349450D01*
X1803780D01*
X1813780Y1339450D01*
X1805530Y2641500D02*
X1815530Y2661500D01*
X1805530Y2681500D01*
X1825530Y2671500D01*
X1845530Y2681500D01*
X1835530Y2661500D01*
X1845530Y2641500D01*
X1825530Y2651500D01*
X1805530Y2641500D01*
X1854750D02*
X1864750Y2661500D01*
X1854750Y2681500D01*
X1874750Y2671500D01*
X1894750Y2681500D01*
X1884750Y2661500D01*
X1894750Y2641500D01*
X1874750Y2651500D01*
X1854750Y2641500D01*
X1903960D02*
X1913960Y2661500D01*
X1903960Y2681500D01*
X1923960Y2671500D01*
X1943960Y2681500D01*
X1933960Y2661500D01*
X1943960Y2641500D01*
X1923960Y2651500D01*
X1903960Y2641500D01*
X1953170D02*
X1963170Y2661500D01*
X1953170Y2681500D01*
X1973170Y2671500D01*
X1993170Y2681500D01*
X1983170Y2661500D01*
X1993170Y2641500D01*
X1973170Y2651500D01*
X1953170Y2641500D01*
X2002390D02*
X2012390Y2661500D01*
X2002390Y2681500D01*
X2022390Y2671500D01*
X2042390Y2681500D01*
X2032390Y2661500D01*
X2042390Y2641500D01*
X2022390Y2651500D01*
X2002390Y2641500D01*
D36*
X2267240Y1450000D02*
G03*
X2267240Y1450000I-20000J0D01*
G01*
X1681420D02*
G03*
X1681420Y1450000I-20000J0D01*
G01*
%TF.MD5,4361231a1371088682bed5f5f0288299*%
M02*
