G04*
G04 #@! TF.GenerationSoftware,Altium Limited,Altium Designer,18.0.12 (696)*
G04*
G04 Layer_Physical_Order=1*
G04 Layer_Color=255*
%FSLAX44Y44*%
%MOMM*%
G71*
G01*
G75*
%ADD10C,0.8128*%
%ADD11C,0.0000*%
%ADD12C,3.3000*%
%ADD13C,2.5499*%
%ADD14C,2.1844*%
%ADD15C,1.4224*%
%ADD16O,1.0081X2.0163*%
D10*
X395399Y341300D02*
X456700D01*
X395026Y607360D02*
X463685Y676021D01*
X395026Y357127D02*
Y607360D01*
Y357127D02*
X395399Y356753D01*
Y341300D02*
Y356753D01*
X456700Y341300D02*
X460700Y345300D01*
Y330101D02*
Y345300D01*
Y330101D02*
X470901Y319900D01*
X476186Y660514D02*
X595945Y540756D01*
X555475Y399275D02*
X593377D01*
X476186Y660514D02*
Y676021D01*
X593377Y399275D02*
X595945Y401843D01*
Y540756D01*
X501500Y345300D02*
X555475Y399275D01*
X488686Y673171D02*
Y676021D01*
X486814Y671299D02*
X488686Y673171D01*
X486814Y669887D02*
Y671299D01*
Y669887D02*
X615399Y541299D01*
Y301300D02*
Y541299D01*
X550700Y301300D02*
X615399D01*
X532099Y319900D02*
X550700Y301300D01*
X521899Y330101D02*
Y345300D01*
Y330101D02*
X532099Y319900D01*
X501185Y676021D02*
Y705513D01*
X485399Y721299D02*
X501185Y705513D01*
X465399Y721299D02*
X485399D01*
X375399Y631299D02*
X465399Y721299D01*
X375399Y301300D02*
Y631299D01*
Y301300D02*
X385399Y291300D01*
X485399D01*
X491300Y297200D01*
Y319900D01*
X513687Y676021D02*
X515399Y677733D01*
Y751299D01*
X445399D02*
X515399D01*
X355399Y661299D02*
X445399Y751299D01*
X355399Y281300D02*
Y661299D01*
Y281300D02*
X365399Y271300D01*
X495399D01*
X511701Y287599D01*
Y319900D01*
X503999Y322400D02*
X506499Y319900D01*
X503999Y322400D02*
Y325161D01*
X496560Y332600D02*
X503999Y325161D01*
X493799Y332600D02*
X496560D01*
X481099Y345300D02*
X493799Y332600D01*
X506499Y319900D02*
X511701D01*
D11*
X411079Y413499D02*
X581721D01*
X254000Y254000D02*
Y787301D01*
X728200D01*
Y254000D02*
Y787301D01*
X254000Y254000D02*
X728200D01*
D12*
X305399Y301300D02*
D03*
X676321Y306890D02*
D03*
X304137Y731012D02*
D03*
X672765Y732630D02*
D03*
D13*
X570799Y368300D02*
D03*
X422001D02*
D03*
D14*
X577649Y319900D02*
D03*
X415150D02*
D03*
D15*
X532099D02*
D03*
X521899Y345300D02*
D03*
X511701Y319900D02*
D03*
X501500Y345300D02*
D03*
X491300Y319900D02*
D03*
X481099Y345300D02*
D03*
X470901Y319900D02*
D03*
X460700Y345300D02*
D03*
D16*
X463685Y676021D02*
D03*
X476186D02*
D03*
X488686D02*
D03*
X501185D02*
D03*
X513687D02*
D03*
M02*
