G04 EAGLE Gerber X2 export*
%TF.Part,Single*%
%TF.FileFunction,Copper,L1,Top,Mixed*%
%TF.FilePolarity,Positive*%
%TF.GenerationSoftware,Autodesk,EAGLE,8.7.0*%
%TF.CreationDate,2018-04-05T02:47:59Z*%
G75*
%MOIN*%
%FSLAX34Y34*%
%LPD*%
%AMOC8*
5,1,8,0,0,1.08239X$1,22.5*%
G01*
%ADD10C,0.039685*%
%ADD11C,0.056000*%
%ADD12C,0.094488*%
%ADD13C,0.032000*%


D10*
X16074Y16917D02*
X16074Y17313D01*
X15582Y17313D02*
X15582Y16917D01*
X15090Y16917D02*
X15090Y17313D01*
X14598Y17313D02*
X14598Y16917D01*
X14106Y16917D02*
X14106Y17313D01*
D11*
X13988Y4094D03*
X14390Y3094D03*
X14791Y4094D03*
X15193Y3094D03*
X15594Y4094D03*
X15996Y3094D03*
X16398Y4094D03*
X16799Y3094D03*
D12*
X12195Y3094D03*
X18593Y3094D03*
D13*
X15996Y3094D02*
X15791Y3094D01*
X15291Y3594D02*
X14791Y4094D01*
X15291Y3594D02*
X15400Y3594D01*
X15693Y3302D01*
X15693Y3193D01*
X15791Y3094D01*
X15996Y3094D02*
X15996Y1823D01*
X15354Y1181D01*
X10236Y1181D01*
X9843Y1575D01*
X9843Y16535D01*
X13386Y20079D01*
X16142Y20079D01*
X16142Y17182D01*
X16074Y17115D01*
X15193Y3094D02*
X15193Y2201D01*
X14961Y1969D01*
X11024Y1969D01*
X10630Y2362D01*
X10630Y15354D01*
X14173Y18898D01*
X14961Y18898D01*
X15582Y18276D01*
X15582Y17115D01*
X16398Y3496D02*
X16799Y3094D01*
X16398Y3496D02*
X16398Y4094D01*
X16799Y3094D02*
X17531Y2362D01*
X20079Y2362D01*
X20079Y11811D01*
X15016Y16873D01*
X15016Y16929D01*
X15090Y17003D01*
X15090Y17115D01*
X17720Y6220D02*
X15594Y4094D01*
X19313Y6321D02*
X19313Y11790D01*
X19313Y6321D02*
X19212Y6220D01*
X14598Y16504D02*
X14598Y17115D01*
X17720Y6220D02*
X19212Y6220D01*
X19313Y11790D02*
X14598Y16504D01*
X13988Y3496D02*
X14390Y3094D01*
X13988Y3496D02*
X13988Y4094D01*
X13831Y3937D01*
X11417Y3937D02*
X11417Y4545D01*
X11403Y4560D01*
X11403Y14412D01*
X14106Y17115D01*
X13831Y3937D02*
X11417Y3937D01*
M02*
