G04 EAGLE Gerber X2 export*
%TF.Part,Single*%
%TF.FileFunction,Profile,NP*%
%TF.FilePolarity,Positive*%
%TF.GenerationSoftware,Autodesk,EAGLE,8.7.0*%
%TF.CreationDate,2018-04-05T02:47:59Z*%
G75*
%MOIN*%
%FSLAX34Y34*%
%LPD*%
%AMOC8*
5,1,8,0,0,1.08239X$1,22.5*%
G01*
%ADD10C,0.010000*%


D10*
X5850Y500D02*
X24520Y500D01*
X24520Y21496D01*
X5850Y21496D01*
X5850Y500D01*
X12967Y4980D02*
X12963Y4941D01*
X12957Y4902D01*
X12948Y4864D01*
X12936Y4826D01*
X12921Y4790D01*
X12903Y4755D01*
X12882Y4721D01*
X12859Y4689D01*
X12833Y4659D01*
X12806Y4631D01*
X12776Y4605D01*
X12744Y4582D01*
X12710Y4562D01*
X12675Y4544D01*
X12638Y4529D01*
X12601Y4517D01*
X12563Y4507D01*
X12524Y4501D01*
X12484Y4498D01*
X12445Y4498D01*
X12406Y4501D01*
X12367Y4507D01*
X12328Y4517D01*
X12291Y4529D01*
X12254Y4544D01*
X12219Y4562D01*
X12185Y4582D01*
X12154Y4605D01*
X12124Y4631D01*
X12096Y4659D01*
X12070Y4689D01*
X12047Y4721D01*
X12026Y4755D01*
X12008Y4790D01*
X11993Y4826D01*
X11981Y4864D01*
X11972Y4902D01*
X11966Y4941D01*
X11963Y4980D01*
X11963Y5020D01*
X11966Y5059D01*
X11972Y5098D01*
X11981Y5136D01*
X11993Y5174D01*
X12008Y5210D01*
X12026Y5245D01*
X12047Y5279D01*
X12070Y5311D01*
X12096Y5341D01*
X12124Y5369D01*
X12154Y5395D01*
X12185Y5418D01*
X12219Y5438D01*
X12254Y5456D01*
X12291Y5471D01*
X12328Y5483D01*
X12367Y5493D01*
X12406Y5499D01*
X12445Y5502D01*
X12484Y5502D01*
X12524Y5499D01*
X12563Y5493D01*
X12601Y5483D01*
X12638Y5471D01*
X12675Y5456D01*
X12710Y5438D01*
X12744Y5418D01*
X12776Y5395D01*
X12806Y5369D01*
X12833Y5341D01*
X12859Y5311D01*
X12882Y5279D01*
X12903Y5245D01*
X12921Y5210D01*
X12936Y5174D01*
X12948Y5136D01*
X12957Y5098D01*
X12963Y5059D01*
X12967Y5020D01*
X12967Y4980D01*
X18825Y4980D02*
X18822Y4941D01*
X18816Y4902D01*
X18806Y4864D01*
X18794Y4826D01*
X18779Y4790D01*
X18761Y4755D01*
X18741Y4721D01*
X18717Y4689D01*
X18692Y4659D01*
X18664Y4631D01*
X18634Y4605D01*
X18602Y4582D01*
X18568Y4562D01*
X18533Y4544D01*
X18497Y4529D01*
X18459Y4517D01*
X18421Y4507D01*
X18382Y4501D01*
X18343Y4498D01*
X18303Y4498D01*
X18264Y4501D01*
X18225Y4507D01*
X18186Y4517D01*
X18149Y4529D01*
X18113Y4544D01*
X18077Y4562D01*
X18044Y4582D01*
X18012Y4605D01*
X17982Y4631D01*
X17954Y4659D01*
X17928Y4689D01*
X17905Y4721D01*
X17885Y4755D01*
X17867Y4790D01*
X17852Y4826D01*
X17839Y4864D01*
X17830Y4902D01*
X17824Y4941D01*
X17821Y4980D01*
X17821Y5020D01*
X17824Y5059D01*
X17830Y5098D01*
X17839Y5136D01*
X17852Y5174D01*
X17867Y5210D01*
X17885Y5245D01*
X17905Y5279D01*
X17928Y5311D01*
X17954Y5341D01*
X17982Y5369D01*
X18012Y5395D01*
X18044Y5418D01*
X18077Y5438D01*
X18113Y5456D01*
X18149Y5471D01*
X18186Y5483D01*
X18225Y5493D01*
X18264Y5499D01*
X18303Y5502D01*
X18343Y5502D01*
X18382Y5499D01*
X18421Y5493D01*
X18459Y5483D01*
X18497Y5471D01*
X18533Y5456D01*
X18568Y5438D01*
X18602Y5418D01*
X18634Y5395D01*
X18664Y5369D01*
X18692Y5341D01*
X18717Y5311D01*
X18741Y5279D01*
X18761Y5245D01*
X18779Y5210D01*
X18794Y5174D01*
X18806Y5136D01*
X18816Y5098D01*
X18822Y5059D01*
X18825Y5020D01*
X18825Y4980D01*
X22987Y19322D02*
X22984Y19280D01*
X22979Y19238D01*
X22970Y19196D01*
X22959Y19155D01*
X22946Y19115D01*
X22929Y19075D01*
X22910Y19037D01*
X22889Y19000D01*
X22866Y18965D01*
X22840Y18931D01*
X22812Y18899D01*
X22782Y18869D01*
X22750Y18841D01*
X22716Y18815D01*
X22680Y18792D01*
X22644Y18770D01*
X22605Y18752D01*
X22566Y18735D01*
X22526Y18722D01*
X22485Y18711D01*
X22443Y18702D01*
X22401Y18697D01*
X22359Y18694D01*
X22316Y18694D01*
X22274Y18697D01*
X22231Y18702D01*
X22190Y18711D01*
X22149Y18722D01*
X22108Y18735D01*
X22069Y18752D01*
X22031Y18770D01*
X21994Y18792D01*
X21959Y18815D01*
X21925Y18841D01*
X21893Y18869D01*
X21863Y18899D01*
X21835Y18931D01*
X21809Y18965D01*
X21785Y19000D01*
X21764Y19037D01*
X21745Y19075D01*
X21729Y19115D01*
X21715Y19155D01*
X21704Y19196D01*
X21696Y19238D01*
X21690Y19280D01*
X21688Y19322D01*
X21688Y19365D01*
X21690Y19407D01*
X21696Y19450D01*
X21704Y19491D01*
X21715Y19532D01*
X21729Y19573D01*
X21745Y19612D01*
X21764Y19650D01*
X21785Y19687D01*
X21809Y19722D01*
X21835Y19756D01*
X21863Y19788D01*
X21893Y19818D01*
X21925Y19846D01*
X21959Y19872D01*
X21994Y19896D01*
X22031Y19917D01*
X22069Y19936D01*
X22108Y19952D01*
X22149Y19966D01*
X22190Y19977D01*
X22231Y19985D01*
X22274Y19991D01*
X22316Y19993D01*
X22359Y19993D01*
X22401Y19991D01*
X22443Y19985D01*
X22485Y19977D01*
X22526Y19966D01*
X22566Y19952D01*
X22605Y19936D01*
X22644Y19917D01*
X22680Y19896D01*
X22716Y19872D01*
X22750Y19846D01*
X22782Y19818D01*
X22812Y19788D01*
X22840Y19756D01*
X22866Y19722D01*
X22889Y19687D01*
X22910Y19650D01*
X22929Y19612D01*
X22946Y19573D01*
X22959Y19532D01*
X22970Y19491D01*
X22979Y19450D01*
X22984Y19407D01*
X22987Y19365D01*
X22987Y19322D01*
X8474Y19259D02*
X8471Y19216D01*
X8466Y19174D01*
X8457Y19132D01*
X8446Y19091D01*
X8433Y19051D01*
X8416Y19012D01*
X8397Y18974D01*
X8376Y18937D01*
X8353Y18901D01*
X8327Y18868D01*
X8299Y18836D01*
X8269Y18806D01*
X8237Y18778D01*
X8203Y18752D01*
X8167Y18728D01*
X8131Y18707D01*
X8092Y18688D01*
X8053Y18672D01*
X8013Y18658D01*
X7972Y18647D01*
X7930Y18639D01*
X7888Y18633D01*
X7846Y18630D01*
X7803Y18630D01*
X7761Y18633D01*
X7718Y18639D01*
X7677Y18647D01*
X7636Y18658D01*
X7595Y18672D01*
X7556Y18688D01*
X7518Y18707D01*
X7481Y18728D01*
X7446Y18752D01*
X7412Y18778D01*
X7380Y18806D01*
X7350Y18836D01*
X7322Y18868D01*
X7296Y18901D01*
X7272Y18937D01*
X7251Y18974D01*
X7232Y19012D01*
X7216Y19051D01*
X7202Y19091D01*
X7191Y19132D01*
X7183Y19174D01*
X7177Y19216D01*
X7175Y19259D01*
X7175Y19301D01*
X7177Y19344D01*
X7183Y19386D01*
X7191Y19428D01*
X7202Y19469D01*
X7216Y19509D01*
X7232Y19548D01*
X7251Y19586D01*
X7272Y19623D01*
X7296Y19659D01*
X7322Y19692D01*
X7350Y19724D01*
X7380Y19754D01*
X7412Y19782D01*
X7446Y19808D01*
X7481Y19832D01*
X7518Y19853D01*
X7556Y19872D01*
X7595Y19888D01*
X7636Y19902D01*
X7677Y19913D01*
X7718Y19921D01*
X7761Y19927D01*
X7803Y19930D01*
X7846Y19930D01*
X7888Y19927D01*
X7930Y19921D01*
X7972Y19913D01*
X8013Y19902D01*
X8053Y19888D01*
X8092Y19872D01*
X8131Y19853D01*
X8167Y19832D01*
X8203Y19808D01*
X8237Y19782D01*
X8269Y19754D01*
X8299Y19724D01*
X8327Y19692D01*
X8353Y19659D01*
X8376Y19623D01*
X8397Y19586D01*
X8416Y19548D01*
X8433Y19509D01*
X8446Y19469D01*
X8457Y19428D01*
X8466Y19386D01*
X8471Y19344D01*
X8474Y19301D01*
X8474Y19259D01*
X23127Y2561D02*
X23124Y2519D01*
X23119Y2476D01*
X23110Y2435D01*
X23099Y2394D01*
X23086Y2353D01*
X23069Y2314D01*
X23050Y2276D01*
X23029Y2239D01*
X23006Y2204D01*
X22980Y2170D01*
X22952Y2138D01*
X22922Y2108D01*
X22890Y2080D01*
X22856Y2054D01*
X22820Y2030D01*
X22784Y2009D01*
X22745Y1990D01*
X22706Y1974D01*
X22666Y1960D01*
X22625Y1949D01*
X22583Y1941D01*
X22541Y1935D01*
X22499Y1933D01*
X22456Y1933D01*
X22414Y1935D01*
X22371Y1941D01*
X22330Y1949D01*
X22289Y1960D01*
X22248Y1974D01*
X22209Y1990D01*
X22171Y2009D01*
X22134Y2030D01*
X22099Y2054D01*
X22065Y2080D01*
X22033Y2108D01*
X22003Y2138D01*
X21975Y2170D01*
X21949Y2204D01*
X21925Y2239D01*
X21904Y2276D01*
X21885Y2314D01*
X21869Y2353D01*
X21855Y2394D01*
X21844Y2435D01*
X21836Y2476D01*
X21830Y2519D01*
X21828Y2561D01*
X21828Y2604D01*
X21830Y2646D01*
X21836Y2688D01*
X21844Y2730D01*
X21855Y2771D01*
X21869Y2811D01*
X21885Y2851D01*
X21904Y2889D01*
X21925Y2926D01*
X21949Y2961D01*
X21975Y2995D01*
X22003Y3027D01*
X22033Y3057D01*
X22065Y3085D01*
X22099Y3111D01*
X22134Y3134D01*
X22171Y3155D01*
X22209Y3174D01*
X22248Y3191D01*
X22289Y3204D01*
X22330Y3215D01*
X22371Y3224D01*
X22414Y3229D01*
X22456Y3232D01*
X22499Y3232D01*
X22541Y3229D01*
X22583Y3224D01*
X22625Y3215D01*
X22666Y3204D01*
X22706Y3191D01*
X22745Y3174D01*
X22784Y3155D01*
X22820Y3134D01*
X22856Y3111D01*
X22890Y3085D01*
X22922Y3057D01*
X22952Y3027D01*
X22980Y2995D01*
X23006Y2961D01*
X23029Y2926D01*
X23050Y2889D01*
X23069Y2851D01*
X23086Y2811D01*
X23099Y2771D01*
X23110Y2730D01*
X23119Y2688D01*
X23124Y2646D01*
X23127Y2604D01*
X23127Y2561D01*
X8524Y2341D02*
X8521Y2298D01*
X8515Y2256D01*
X8507Y2215D01*
X8496Y2174D01*
X8482Y2133D01*
X8466Y2094D01*
X8447Y2056D01*
X8426Y2019D01*
X8402Y1984D01*
X8376Y1950D01*
X8348Y1918D01*
X8318Y1888D01*
X8286Y1860D01*
X8253Y1834D01*
X8217Y1810D01*
X8180Y1789D01*
X8142Y1770D01*
X8103Y1754D01*
X8063Y1740D01*
X8022Y1729D01*
X7980Y1721D01*
X7938Y1715D01*
X7895Y1713D01*
X7853Y1713D01*
X7810Y1715D01*
X7768Y1721D01*
X7726Y1729D01*
X7685Y1740D01*
X7645Y1754D01*
X7606Y1770D01*
X7568Y1789D01*
X7531Y1810D01*
X7495Y1834D01*
X7462Y1860D01*
X7430Y1888D01*
X7400Y1918D01*
X7372Y1950D01*
X7346Y1984D01*
X7322Y2019D01*
X7301Y2056D01*
X7282Y2094D01*
X7266Y2133D01*
X7252Y2174D01*
X7241Y2215D01*
X7233Y2256D01*
X7227Y2298D01*
X7224Y2341D01*
X7224Y2383D01*
X7227Y2426D01*
X7233Y2468D01*
X7241Y2510D01*
X7252Y2551D01*
X7266Y2591D01*
X7282Y2630D01*
X7301Y2669D01*
X7322Y2705D01*
X7346Y2741D01*
X7372Y2775D01*
X7400Y2807D01*
X7430Y2837D01*
X7462Y2865D01*
X7495Y2891D01*
X7531Y2914D01*
X7568Y2935D01*
X7606Y2954D01*
X7645Y2971D01*
X7685Y2984D01*
X7726Y2995D01*
X7768Y3003D01*
X7810Y3009D01*
X7853Y3012D01*
X7895Y3012D01*
X7938Y3009D01*
X7980Y3003D01*
X8022Y2995D01*
X8063Y2984D01*
X8103Y2971D01*
X8142Y2954D01*
X8180Y2935D01*
X8217Y2914D01*
X8253Y2891D01*
X8286Y2865D01*
X8318Y2837D01*
X8348Y2807D01*
X8376Y2775D01*
X8402Y2741D01*
X8426Y2705D01*
X8447Y2669D01*
X8466Y2630D01*
X8482Y2591D01*
X8496Y2551D01*
X8507Y2510D01*
X8515Y2468D01*
X8521Y2426D01*
X8524Y2383D01*
X8524Y2341D01*
M02*
