M48
;GenerationSoftware,Autodesk,EAGLE,8.7.0*%
;CreationDate,2018-04-17T07:11:35Z*%
FMAT,2
ICI,OFF
METRIC,TZ,000.000
T5C0.500
T4C0.900
T3C1.600
T2C2.550
T1C3.300
%
G90
M71
T1
X53007Y40006
X26001Y39971
X52981Y7067
X26000Y7000
T2
X46921Y10541
X32041Y10541
T3
X47606Y15381
X31356Y15381
T4
X43051Y12841
X42031Y15381
X41011Y12841
X39991Y15381
X38971Y12841
X37951Y15381
X36931Y12841
X35911Y15381
T5
X36829Y39572
X38079Y39572
X39329Y39572
X40579Y39572
X41829Y39572
M30