G04 EAGLE Gerber X2 export*
%TF.Part,Single*%
%TF.FileFunction,Legend,Top,1*%
%TF.FilePolarity,Positive*%
%TF.GenerationSoftware,Autodesk,EAGLE,8.7.0*%
%TF.CreationDate,2018-04-17T07:11:35Z*%
G75*
%MOMM*%
%FSLAX34Y34*%
%LPD*%
%AMOC8*
5,1,8,0,0,1.08239X$1,22.5*%
G01*
%ADD10C,0.203200*%
%ADD11C,0.050800*%
%ADD12R,7.750000X0.375000*%
%ADD13C,0.101600*%
%ADD14C,0.152400*%


D10*
X432286Y415220D02*
X354286Y415220D01*
X354286Y385220D01*
X432286Y385220D01*
X432286Y415220D01*
D11*
X432036Y402720D02*
X428286Y402720D01*
X428286Y412720D01*
X358286Y402720D02*
X354536Y402720D01*
X358286Y402720D02*
X358286Y412720D01*
X428286Y396470D02*
X432036Y396470D01*
X358286Y396470D02*
X354536Y396470D01*
X428286Y396470D02*
X428286Y388970D01*
X358286Y388970D01*
X358286Y396470D01*
X358286Y388970D02*
X355786Y386470D01*
X428286Y388970D02*
X430786Y386470D01*
D12*
X393286Y413345D03*
D13*
X372668Y365448D02*
X367475Y365448D01*
X367475Y377132D01*
X372668Y377132D01*
X371370Y371939D02*
X367475Y371939D01*
X377358Y377132D02*
X377358Y365448D01*
X383849Y365448D02*
X377358Y377132D01*
X383849Y377132D02*
X383849Y365448D01*
X391733Y365448D02*
X394329Y365448D01*
X391733Y365448D02*
X391634Y365450D01*
X391534Y365456D01*
X391435Y365465D01*
X391337Y365478D01*
X391239Y365495D01*
X391141Y365516D01*
X391045Y365541D01*
X390950Y365569D01*
X390856Y365601D01*
X390763Y365636D01*
X390671Y365675D01*
X390581Y365718D01*
X390493Y365763D01*
X390406Y365813D01*
X390322Y365865D01*
X390239Y365921D01*
X390159Y365979D01*
X390081Y366041D01*
X390006Y366106D01*
X389933Y366174D01*
X389863Y366244D01*
X389795Y366317D01*
X389730Y366392D01*
X389668Y366470D01*
X389610Y366550D01*
X389554Y366633D01*
X389502Y366717D01*
X389452Y366804D01*
X389407Y366892D01*
X389364Y366982D01*
X389325Y367074D01*
X389290Y367167D01*
X389258Y367261D01*
X389230Y367356D01*
X389205Y367452D01*
X389184Y367550D01*
X389167Y367648D01*
X389154Y367746D01*
X389145Y367845D01*
X389139Y367945D01*
X389137Y368044D01*
X389136Y368044D02*
X389136Y374536D01*
X389137Y374536D02*
X389139Y374635D01*
X389145Y374735D01*
X389154Y374834D01*
X389167Y374932D01*
X389184Y375030D01*
X389205Y375128D01*
X389230Y375224D01*
X389258Y375319D01*
X389290Y375413D01*
X389325Y375506D01*
X389364Y375598D01*
X389407Y375688D01*
X389452Y375776D01*
X389502Y375863D01*
X389554Y375947D01*
X389610Y376030D01*
X389668Y376110D01*
X389730Y376188D01*
X389795Y376263D01*
X389863Y376336D01*
X389933Y376406D01*
X390006Y376474D01*
X390081Y376539D01*
X390159Y376601D01*
X390239Y376659D01*
X390322Y376715D01*
X390406Y376767D01*
X390493Y376817D01*
X390581Y376862D01*
X390671Y376905D01*
X390763Y376944D01*
X390855Y376979D01*
X390950Y377011D01*
X391045Y377039D01*
X391141Y377064D01*
X391239Y377085D01*
X391337Y377102D01*
X391435Y377115D01*
X391534Y377124D01*
X391634Y377130D01*
X391733Y377132D01*
X394329Y377132D01*
X398694Y373886D02*
X398694Y368694D01*
X398694Y373886D02*
X398696Y373999D01*
X398702Y374112D01*
X398712Y374225D01*
X398726Y374338D01*
X398743Y374450D01*
X398765Y374561D01*
X398790Y374671D01*
X398820Y374781D01*
X398853Y374889D01*
X398890Y374996D01*
X398930Y375102D01*
X398975Y375206D01*
X399023Y375309D01*
X399074Y375410D01*
X399129Y375509D01*
X399187Y375606D01*
X399249Y375701D01*
X399314Y375794D01*
X399382Y375884D01*
X399453Y375972D01*
X399528Y376058D01*
X399605Y376141D01*
X399685Y376221D01*
X399768Y376298D01*
X399854Y376373D01*
X399942Y376444D01*
X400032Y376512D01*
X400125Y376577D01*
X400220Y376639D01*
X400317Y376697D01*
X400416Y376752D01*
X400517Y376803D01*
X400620Y376851D01*
X400724Y376896D01*
X400830Y376936D01*
X400937Y376973D01*
X401045Y377006D01*
X401155Y377036D01*
X401265Y377061D01*
X401376Y377083D01*
X401488Y377100D01*
X401601Y377114D01*
X401714Y377124D01*
X401827Y377130D01*
X401940Y377132D01*
X402053Y377130D01*
X402166Y377124D01*
X402279Y377114D01*
X402392Y377100D01*
X402504Y377083D01*
X402615Y377061D01*
X402725Y377036D01*
X402835Y377006D01*
X402943Y376973D01*
X403050Y376936D01*
X403156Y376896D01*
X403260Y376851D01*
X403363Y376803D01*
X403464Y376752D01*
X403563Y376697D01*
X403660Y376639D01*
X403755Y376577D01*
X403848Y376512D01*
X403938Y376444D01*
X404026Y376373D01*
X404112Y376298D01*
X404195Y376221D01*
X404275Y376141D01*
X404352Y376058D01*
X404427Y375972D01*
X404498Y375884D01*
X404566Y375794D01*
X404631Y375701D01*
X404693Y375606D01*
X404751Y375509D01*
X404806Y375410D01*
X404857Y375309D01*
X404905Y375206D01*
X404950Y375102D01*
X404990Y374996D01*
X405027Y374889D01*
X405060Y374781D01*
X405090Y374671D01*
X405115Y374561D01*
X405137Y374450D01*
X405154Y374338D01*
X405168Y374225D01*
X405178Y374112D01*
X405184Y373999D01*
X405186Y373886D01*
X405185Y373886D02*
X405185Y368694D01*
X405186Y368694D02*
X405184Y368581D01*
X405178Y368468D01*
X405168Y368355D01*
X405154Y368242D01*
X405137Y368130D01*
X405115Y368019D01*
X405090Y367909D01*
X405060Y367799D01*
X405027Y367691D01*
X404990Y367584D01*
X404950Y367478D01*
X404905Y367374D01*
X404857Y367271D01*
X404806Y367170D01*
X404751Y367071D01*
X404693Y366974D01*
X404631Y366879D01*
X404566Y366786D01*
X404498Y366696D01*
X404427Y366608D01*
X404352Y366522D01*
X404275Y366439D01*
X404195Y366359D01*
X404112Y366282D01*
X404026Y366207D01*
X403938Y366136D01*
X403848Y366068D01*
X403755Y366003D01*
X403660Y365941D01*
X403563Y365883D01*
X403464Y365828D01*
X403363Y365777D01*
X403260Y365729D01*
X403156Y365684D01*
X403050Y365644D01*
X402943Y365607D01*
X402835Y365574D01*
X402725Y365544D01*
X402615Y365519D01*
X402504Y365497D01*
X402392Y365480D01*
X402279Y365466D01*
X402166Y365456D01*
X402053Y365450D01*
X401940Y365448D01*
X401827Y365450D01*
X401714Y365456D01*
X401601Y365466D01*
X401488Y365480D01*
X401376Y365497D01*
X401265Y365519D01*
X401155Y365544D01*
X401045Y365574D01*
X400937Y365607D01*
X400830Y365644D01*
X400724Y365684D01*
X400620Y365729D01*
X400517Y365777D01*
X400416Y365828D01*
X400317Y365883D01*
X400220Y365941D01*
X400125Y366003D01*
X400032Y366068D01*
X399942Y366136D01*
X399854Y366207D01*
X399768Y366282D01*
X399685Y366359D01*
X399605Y366439D01*
X399528Y366522D01*
X399453Y366608D01*
X399382Y366696D01*
X399314Y366786D01*
X399249Y366879D01*
X399187Y366974D01*
X399129Y367071D01*
X399074Y367170D01*
X399023Y367271D01*
X398975Y367374D01*
X398930Y367478D01*
X398890Y367584D01*
X398853Y367691D01*
X398820Y367799D01*
X398790Y367909D01*
X398765Y368019D01*
X398743Y368130D01*
X398726Y368242D01*
X398712Y368355D01*
X398702Y368468D01*
X398696Y368581D01*
X398694Y368694D01*
X410505Y365448D02*
X410505Y377132D01*
X413751Y377132D01*
X413864Y377130D01*
X413977Y377124D01*
X414090Y377114D01*
X414203Y377100D01*
X414315Y377083D01*
X414426Y377061D01*
X414536Y377036D01*
X414646Y377006D01*
X414754Y376973D01*
X414861Y376936D01*
X414967Y376896D01*
X415071Y376851D01*
X415174Y376803D01*
X415275Y376752D01*
X415374Y376697D01*
X415471Y376639D01*
X415566Y376577D01*
X415659Y376512D01*
X415749Y376444D01*
X415837Y376373D01*
X415923Y376298D01*
X416006Y376221D01*
X416086Y376141D01*
X416163Y376058D01*
X416238Y375972D01*
X416309Y375884D01*
X416377Y375794D01*
X416442Y375701D01*
X416504Y375606D01*
X416562Y375509D01*
X416617Y375410D01*
X416668Y375309D01*
X416716Y375206D01*
X416761Y375102D01*
X416801Y374996D01*
X416838Y374889D01*
X416871Y374781D01*
X416901Y374671D01*
X416926Y374561D01*
X416948Y374450D01*
X416965Y374338D01*
X416979Y374225D01*
X416989Y374112D01*
X416995Y373999D01*
X416997Y373886D01*
X416996Y373886D02*
X416996Y368694D01*
X416997Y368694D02*
X416995Y368581D01*
X416989Y368468D01*
X416979Y368355D01*
X416965Y368242D01*
X416948Y368130D01*
X416926Y368019D01*
X416901Y367909D01*
X416871Y367799D01*
X416838Y367691D01*
X416801Y367584D01*
X416761Y367478D01*
X416716Y367374D01*
X416668Y367271D01*
X416617Y367170D01*
X416562Y367071D01*
X416504Y366974D01*
X416442Y366879D01*
X416377Y366786D01*
X416309Y366696D01*
X416238Y366608D01*
X416163Y366522D01*
X416086Y366439D01*
X416006Y366359D01*
X415923Y366282D01*
X415837Y366207D01*
X415749Y366136D01*
X415659Y366068D01*
X415566Y366003D01*
X415471Y365941D01*
X415374Y365883D01*
X415275Y365828D01*
X415174Y365777D01*
X415071Y365729D01*
X414967Y365684D01*
X414861Y365644D01*
X414754Y365607D01*
X414646Y365574D01*
X414536Y365544D01*
X414426Y365519D01*
X414315Y365497D01*
X414203Y365480D01*
X414090Y365466D01*
X413977Y365456D01*
X413864Y365450D01*
X413751Y365448D01*
X410505Y365448D01*
X422720Y365448D02*
X427913Y365448D01*
X422720Y365448D02*
X422720Y377132D01*
X427913Y377132D01*
X426615Y371939D02*
X422720Y371939D01*
X432677Y377132D02*
X432677Y365448D01*
X432677Y377132D02*
X435922Y377132D01*
X436035Y377130D01*
X436148Y377124D01*
X436261Y377114D01*
X436374Y377100D01*
X436486Y377083D01*
X436597Y377061D01*
X436707Y377036D01*
X436817Y377006D01*
X436925Y376973D01*
X437032Y376936D01*
X437138Y376896D01*
X437242Y376851D01*
X437345Y376803D01*
X437446Y376752D01*
X437545Y376697D01*
X437642Y376639D01*
X437737Y376577D01*
X437830Y376512D01*
X437920Y376444D01*
X438008Y376373D01*
X438094Y376298D01*
X438177Y376221D01*
X438257Y376141D01*
X438334Y376058D01*
X438409Y375972D01*
X438480Y375884D01*
X438548Y375794D01*
X438613Y375701D01*
X438675Y375606D01*
X438733Y375509D01*
X438788Y375410D01*
X438839Y375309D01*
X438887Y375206D01*
X438932Y375102D01*
X438972Y374996D01*
X439009Y374889D01*
X439042Y374781D01*
X439072Y374671D01*
X439097Y374561D01*
X439119Y374450D01*
X439136Y374338D01*
X439150Y374225D01*
X439160Y374112D01*
X439166Y373999D01*
X439168Y373886D01*
X439166Y373773D01*
X439160Y373660D01*
X439150Y373547D01*
X439136Y373434D01*
X439119Y373322D01*
X439097Y373211D01*
X439072Y373101D01*
X439042Y372991D01*
X439009Y372883D01*
X438972Y372776D01*
X438932Y372670D01*
X438887Y372566D01*
X438839Y372463D01*
X438788Y372362D01*
X438733Y372263D01*
X438675Y372166D01*
X438613Y372071D01*
X438548Y371978D01*
X438480Y371888D01*
X438409Y371800D01*
X438334Y371714D01*
X438257Y371631D01*
X438177Y371551D01*
X438094Y371474D01*
X438008Y371399D01*
X437920Y371328D01*
X437830Y371260D01*
X437737Y371195D01*
X437642Y371133D01*
X437545Y371075D01*
X437446Y371020D01*
X437345Y370969D01*
X437242Y370921D01*
X437138Y370876D01*
X437032Y370836D01*
X436925Y370799D01*
X436817Y370766D01*
X436707Y370736D01*
X436597Y370711D01*
X436486Y370689D01*
X436374Y370672D01*
X436261Y370658D01*
X436148Y370648D01*
X436035Y370642D01*
X435922Y370640D01*
X435922Y370641D02*
X432677Y370641D01*
X436572Y370641D02*
X439168Y365448D01*
X364801Y111422D02*
X357012Y99738D01*
X364801Y99738D02*
X357012Y111422D01*
X372661Y111422D02*
X372768Y111420D01*
X372874Y111414D01*
X372980Y111404D01*
X373086Y111391D01*
X373192Y111373D01*
X373296Y111352D01*
X373400Y111327D01*
X373503Y111298D01*
X373604Y111266D01*
X373704Y111229D01*
X373803Y111189D01*
X373901Y111146D01*
X373997Y111099D01*
X374091Y111048D01*
X374183Y110994D01*
X374273Y110937D01*
X374361Y110877D01*
X374446Y110813D01*
X374529Y110746D01*
X374610Y110676D01*
X374688Y110604D01*
X374764Y110528D01*
X374836Y110450D01*
X374906Y110369D01*
X374973Y110286D01*
X375037Y110201D01*
X375097Y110113D01*
X375154Y110023D01*
X375208Y109931D01*
X375259Y109837D01*
X375306Y109741D01*
X375349Y109643D01*
X375389Y109544D01*
X375426Y109444D01*
X375458Y109343D01*
X375487Y109240D01*
X375512Y109136D01*
X375533Y109032D01*
X375551Y108926D01*
X375564Y108820D01*
X375574Y108714D01*
X375580Y108608D01*
X375582Y108501D01*
X372661Y111422D02*
X372540Y111420D01*
X372419Y111414D01*
X372299Y111404D01*
X372178Y111391D01*
X372059Y111373D01*
X371939Y111352D01*
X371821Y111327D01*
X371704Y111298D01*
X371587Y111265D01*
X371472Y111229D01*
X371358Y111188D01*
X371245Y111145D01*
X371133Y111097D01*
X371024Y111046D01*
X370916Y110991D01*
X370809Y110933D01*
X370705Y110872D01*
X370603Y110807D01*
X370503Y110739D01*
X370405Y110668D01*
X370309Y110594D01*
X370216Y110517D01*
X370126Y110436D01*
X370038Y110353D01*
X369953Y110267D01*
X369870Y110178D01*
X369791Y110087D01*
X369714Y109993D01*
X369641Y109897D01*
X369571Y109799D01*
X369504Y109698D01*
X369440Y109595D01*
X369380Y109490D01*
X369323Y109383D01*
X369269Y109275D01*
X369219Y109165D01*
X369173Y109053D01*
X369130Y108940D01*
X369091Y108825D01*
X374609Y106229D02*
X374688Y106306D01*
X374764Y106387D01*
X374837Y106470D01*
X374907Y106555D01*
X374974Y106643D01*
X375038Y106733D01*
X375098Y106825D01*
X375155Y106920D01*
X375209Y107016D01*
X375260Y107114D01*
X375307Y107214D01*
X375351Y107316D01*
X375391Y107419D01*
X375427Y107523D01*
X375459Y107629D01*
X375488Y107735D01*
X375513Y107843D01*
X375535Y107951D01*
X375552Y108061D01*
X375566Y108170D01*
X375575Y108280D01*
X375581Y108391D01*
X375583Y108501D01*
X374608Y106229D02*
X369091Y99738D01*
X375582Y99738D01*
D14*
X495776Y400060D02*
X495786Y400902D01*
X495817Y401743D01*
X495869Y402583D01*
X495941Y403421D01*
X496034Y404257D01*
X496147Y405091D01*
X496281Y405922D01*
X496435Y406750D01*
X496609Y407573D01*
X496804Y408392D01*
X497018Y409206D01*
X497253Y410014D01*
X497507Y410816D01*
X497780Y411612D01*
X498074Y412401D01*
X498386Y413182D01*
X498718Y413956D01*
X499068Y414721D01*
X499437Y415477D01*
X499825Y416224D01*
X500231Y416961D01*
X500654Y417689D01*
X501096Y418405D01*
X501555Y419111D01*
X502031Y419804D01*
X502524Y420487D01*
X503034Y421156D01*
X503559Y421813D01*
X504101Y422457D01*
X504659Y423088D01*
X505232Y423704D01*
X505819Y424307D01*
X506422Y424894D01*
X507038Y425467D01*
X507669Y426025D01*
X508313Y426567D01*
X508970Y427092D01*
X509639Y427602D01*
X510322Y428095D01*
X511015Y428571D01*
X511721Y429030D01*
X512437Y429472D01*
X513165Y429895D01*
X513902Y430301D01*
X514649Y430689D01*
X515405Y431058D01*
X516170Y431408D01*
X516944Y431740D01*
X517725Y432052D01*
X518514Y432346D01*
X519310Y432619D01*
X520112Y432873D01*
X520920Y433108D01*
X521734Y433322D01*
X522553Y433517D01*
X523376Y433691D01*
X524204Y433845D01*
X525035Y433979D01*
X525869Y434092D01*
X526705Y434185D01*
X527543Y434257D01*
X528383Y434309D01*
X529224Y434340D01*
X530066Y434350D01*
X530908Y434340D01*
X531749Y434309D01*
X532589Y434257D01*
X533427Y434185D01*
X534263Y434092D01*
X535097Y433979D01*
X535928Y433845D01*
X536756Y433691D01*
X537579Y433517D01*
X538398Y433322D01*
X539212Y433108D01*
X540020Y432873D01*
X540822Y432619D01*
X541618Y432346D01*
X542407Y432052D01*
X543188Y431740D01*
X543962Y431408D01*
X544727Y431058D01*
X545483Y430689D01*
X546230Y430301D01*
X546967Y429895D01*
X547695Y429472D01*
X548411Y429030D01*
X549117Y428571D01*
X549810Y428095D01*
X550493Y427602D01*
X551162Y427092D01*
X551819Y426567D01*
X552463Y426025D01*
X553094Y425467D01*
X553710Y424894D01*
X554313Y424307D01*
X554900Y423704D01*
X555473Y423088D01*
X556031Y422457D01*
X556573Y421813D01*
X557098Y421156D01*
X557608Y420487D01*
X558101Y419804D01*
X558577Y419111D01*
X559036Y418405D01*
X559478Y417689D01*
X559901Y416961D01*
X560307Y416224D01*
X560695Y415477D01*
X561064Y414721D01*
X561414Y413956D01*
X561746Y413182D01*
X562058Y412401D01*
X562352Y411612D01*
X562625Y410816D01*
X562879Y410014D01*
X563114Y409206D01*
X563328Y408392D01*
X563523Y407573D01*
X563697Y406750D01*
X563851Y405922D01*
X563985Y405091D01*
X564098Y404257D01*
X564191Y403421D01*
X564263Y402583D01*
X564315Y401743D01*
X564346Y400902D01*
X564356Y400060D01*
X564346Y399218D01*
X564315Y398377D01*
X564263Y397537D01*
X564191Y396699D01*
X564098Y395863D01*
X563985Y395029D01*
X563851Y394198D01*
X563697Y393370D01*
X563523Y392547D01*
X563328Y391728D01*
X563114Y390914D01*
X562879Y390106D01*
X562625Y389304D01*
X562352Y388508D01*
X562058Y387719D01*
X561746Y386938D01*
X561414Y386164D01*
X561064Y385399D01*
X560695Y384643D01*
X560307Y383896D01*
X559901Y383159D01*
X559478Y382431D01*
X559036Y381715D01*
X558577Y381009D01*
X558101Y380316D01*
X557608Y379633D01*
X557098Y378964D01*
X556573Y378307D01*
X556031Y377663D01*
X555473Y377032D01*
X554900Y376416D01*
X554313Y375813D01*
X553710Y375226D01*
X553094Y374653D01*
X552463Y374095D01*
X551819Y373553D01*
X551162Y373028D01*
X550493Y372518D01*
X549810Y372025D01*
X549117Y371549D01*
X548411Y371090D01*
X547695Y370648D01*
X546967Y370225D01*
X546230Y369819D01*
X545483Y369431D01*
X544727Y369062D01*
X543962Y368712D01*
X543188Y368380D01*
X542407Y368068D01*
X541618Y367774D01*
X540822Y367501D01*
X540020Y367247D01*
X539212Y367012D01*
X538398Y366798D01*
X537579Y366603D01*
X536756Y366429D01*
X535928Y366275D01*
X535097Y366141D01*
X534263Y366028D01*
X533427Y365935D01*
X532589Y365863D01*
X531749Y365811D01*
X530908Y365780D01*
X530066Y365770D01*
X529224Y365780D01*
X528383Y365811D01*
X527543Y365863D01*
X526705Y365935D01*
X525869Y366028D01*
X525035Y366141D01*
X524204Y366275D01*
X523376Y366429D01*
X522553Y366603D01*
X521734Y366798D01*
X520920Y367012D01*
X520112Y367247D01*
X519310Y367501D01*
X518514Y367774D01*
X517725Y368068D01*
X516944Y368380D01*
X516170Y368712D01*
X515405Y369062D01*
X514649Y369431D01*
X513902Y369819D01*
X513165Y370225D01*
X512437Y370648D01*
X511721Y371090D01*
X511015Y371549D01*
X510322Y372025D01*
X509639Y372518D01*
X508970Y373028D01*
X508313Y373553D01*
X507669Y374095D01*
X507038Y374653D01*
X506422Y375226D01*
X505819Y375813D01*
X505232Y376416D01*
X504659Y377032D01*
X504101Y377663D01*
X503559Y378307D01*
X503034Y378964D01*
X502524Y379633D01*
X502031Y380316D01*
X501555Y381009D01*
X501096Y381715D01*
X500654Y382431D01*
X500231Y383159D01*
X499825Y383896D01*
X499437Y384643D01*
X499068Y385399D01*
X498718Y386164D01*
X498386Y386938D01*
X498074Y387719D01*
X497780Y388508D01*
X497507Y389304D01*
X497253Y390106D01*
X497018Y390914D01*
X496804Y391728D01*
X496609Y392547D01*
X496435Y393370D01*
X496281Y394198D01*
X496147Y395029D01*
X496034Y395863D01*
X495941Y396699D01*
X495869Y397537D01*
X495817Y398377D01*
X495786Y399218D01*
X495776Y400060D01*
D10*
X512566Y400060D02*
X512571Y400489D01*
X512587Y400919D01*
X512613Y401347D01*
X512650Y401775D01*
X512698Y402202D01*
X512755Y402628D01*
X512824Y403052D01*
X512902Y403474D01*
X512991Y403894D01*
X513090Y404312D01*
X513200Y404727D01*
X513320Y405140D01*
X513449Y405549D01*
X513589Y405956D01*
X513739Y406358D01*
X513898Y406757D01*
X514067Y407152D01*
X514246Y407542D01*
X514435Y407928D01*
X514632Y408309D01*
X514839Y408686D01*
X515056Y409057D01*
X515281Y409422D01*
X515515Y409782D01*
X515758Y410137D01*
X516010Y410485D01*
X516270Y410827D01*
X516538Y411162D01*
X516815Y411491D01*
X517099Y411812D01*
X517392Y412127D01*
X517692Y412434D01*
X517999Y412734D01*
X518314Y413027D01*
X518635Y413311D01*
X518964Y413588D01*
X519299Y413856D01*
X519641Y414116D01*
X519989Y414368D01*
X520344Y414611D01*
X520704Y414845D01*
X521069Y415070D01*
X521440Y415287D01*
X521817Y415494D01*
X522198Y415691D01*
X522584Y415880D01*
X522974Y416059D01*
X523369Y416228D01*
X523768Y416387D01*
X524170Y416537D01*
X524577Y416677D01*
X524986Y416806D01*
X525399Y416926D01*
X525814Y417036D01*
X526232Y417135D01*
X526652Y417224D01*
X527074Y417302D01*
X527498Y417371D01*
X527924Y417428D01*
X528351Y417476D01*
X528779Y417513D01*
X529207Y417539D01*
X529637Y417555D01*
X530066Y417560D01*
X530495Y417555D01*
X530925Y417539D01*
X531353Y417513D01*
X531781Y417476D01*
X532208Y417428D01*
X532634Y417371D01*
X533058Y417302D01*
X533480Y417224D01*
X533900Y417135D01*
X534318Y417036D01*
X534733Y416926D01*
X535146Y416806D01*
X535555Y416677D01*
X535962Y416537D01*
X536364Y416387D01*
X536763Y416228D01*
X537158Y416059D01*
X537548Y415880D01*
X537934Y415691D01*
X538315Y415494D01*
X538692Y415287D01*
X539063Y415070D01*
X539428Y414845D01*
X539788Y414611D01*
X540143Y414368D01*
X540491Y414116D01*
X540833Y413856D01*
X541168Y413588D01*
X541497Y413311D01*
X541818Y413027D01*
X542133Y412734D01*
X542440Y412434D01*
X542740Y412127D01*
X543033Y411812D01*
X543317Y411491D01*
X543594Y411162D01*
X543862Y410827D01*
X544122Y410485D01*
X544374Y410137D01*
X544617Y409782D01*
X544851Y409422D01*
X545076Y409057D01*
X545293Y408686D01*
X545500Y408309D01*
X545697Y407928D01*
X545886Y407542D01*
X546065Y407152D01*
X546234Y406757D01*
X546393Y406358D01*
X546543Y405956D01*
X546683Y405549D01*
X546812Y405140D01*
X546932Y404727D01*
X547042Y404312D01*
X547141Y403894D01*
X547230Y403474D01*
X547308Y403052D01*
X547377Y402628D01*
X547434Y402202D01*
X547482Y401775D01*
X547519Y401347D01*
X547545Y400919D01*
X547561Y400489D01*
X547566Y400060D01*
X547561Y399631D01*
X547545Y399201D01*
X547519Y398773D01*
X547482Y398345D01*
X547434Y397918D01*
X547377Y397492D01*
X547308Y397068D01*
X547230Y396646D01*
X547141Y396226D01*
X547042Y395808D01*
X546932Y395393D01*
X546812Y394980D01*
X546683Y394571D01*
X546543Y394164D01*
X546393Y393762D01*
X546234Y393363D01*
X546065Y392968D01*
X545886Y392578D01*
X545697Y392192D01*
X545500Y391811D01*
X545293Y391434D01*
X545076Y391063D01*
X544851Y390698D01*
X544617Y390338D01*
X544374Y389983D01*
X544122Y389635D01*
X543862Y389293D01*
X543594Y388958D01*
X543317Y388629D01*
X543033Y388308D01*
X542740Y387993D01*
X542440Y387686D01*
X542133Y387386D01*
X541818Y387093D01*
X541497Y386809D01*
X541168Y386532D01*
X540833Y386264D01*
X540491Y386004D01*
X540143Y385752D01*
X539788Y385509D01*
X539428Y385275D01*
X539063Y385050D01*
X538692Y384833D01*
X538315Y384626D01*
X537934Y384429D01*
X537548Y384240D01*
X537158Y384061D01*
X536763Y383892D01*
X536364Y383733D01*
X535962Y383583D01*
X535555Y383443D01*
X535146Y383314D01*
X534733Y383194D01*
X534318Y383084D01*
X533900Y382985D01*
X533480Y382896D01*
X533058Y382818D01*
X532634Y382749D01*
X532208Y382692D01*
X531781Y382644D01*
X531353Y382607D01*
X530925Y382581D01*
X530495Y382565D01*
X530066Y382560D01*
X529637Y382565D01*
X529207Y382581D01*
X528779Y382607D01*
X528351Y382644D01*
X527924Y382692D01*
X527498Y382749D01*
X527074Y382818D01*
X526652Y382896D01*
X526232Y382985D01*
X525814Y383084D01*
X525399Y383194D01*
X524986Y383314D01*
X524577Y383443D01*
X524170Y383583D01*
X523768Y383733D01*
X523369Y383892D01*
X522974Y384061D01*
X522584Y384240D01*
X522198Y384429D01*
X521817Y384626D01*
X521440Y384833D01*
X521069Y385050D01*
X520704Y385275D01*
X520344Y385509D01*
X519989Y385752D01*
X519641Y386004D01*
X519299Y386264D01*
X518964Y386532D01*
X518635Y386809D01*
X518314Y387093D01*
X517999Y387386D01*
X517692Y387686D01*
X517392Y387993D01*
X517099Y388308D01*
X516815Y388629D01*
X516538Y388958D01*
X516270Y389293D01*
X516010Y389635D01*
X515758Y389983D01*
X515515Y390338D01*
X515281Y390698D01*
X515056Y391063D01*
X514839Y391434D01*
X514632Y391811D01*
X514435Y392192D01*
X514246Y392578D01*
X514067Y392968D01*
X513898Y393363D01*
X513739Y393762D01*
X513589Y394164D01*
X513449Y394571D01*
X513320Y394980D01*
X513200Y395393D01*
X513090Y395808D01*
X512991Y396226D01*
X512902Y396646D01*
X512824Y397068D01*
X512755Y397492D01*
X512698Y397918D01*
X512650Y398345D01*
X512613Y398773D01*
X512587Y399201D01*
X512571Y399631D01*
X512566Y400060D01*
D14*
X225716Y399712D02*
X225726Y400554D01*
X225757Y401395D01*
X225809Y402235D01*
X225881Y403073D01*
X225974Y403909D01*
X226087Y404743D01*
X226221Y405574D01*
X226375Y406402D01*
X226549Y407225D01*
X226744Y408044D01*
X226958Y408858D01*
X227193Y409666D01*
X227447Y410468D01*
X227720Y411264D01*
X228014Y412053D01*
X228326Y412834D01*
X228658Y413608D01*
X229008Y414373D01*
X229377Y415129D01*
X229765Y415876D01*
X230171Y416613D01*
X230594Y417341D01*
X231036Y418057D01*
X231495Y418763D01*
X231971Y419456D01*
X232464Y420139D01*
X232974Y420808D01*
X233499Y421465D01*
X234041Y422109D01*
X234599Y422740D01*
X235172Y423356D01*
X235759Y423959D01*
X236362Y424546D01*
X236978Y425119D01*
X237609Y425677D01*
X238253Y426219D01*
X238910Y426744D01*
X239579Y427254D01*
X240262Y427747D01*
X240955Y428223D01*
X241661Y428682D01*
X242377Y429124D01*
X243105Y429547D01*
X243842Y429953D01*
X244589Y430341D01*
X245345Y430710D01*
X246110Y431060D01*
X246884Y431392D01*
X247665Y431704D01*
X248454Y431998D01*
X249250Y432271D01*
X250052Y432525D01*
X250860Y432760D01*
X251674Y432974D01*
X252493Y433169D01*
X253316Y433343D01*
X254144Y433497D01*
X254975Y433631D01*
X255809Y433744D01*
X256645Y433837D01*
X257483Y433909D01*
X258323Y433961D01*
X259164Y433992D01*
X260006Y434002D01*
X260848Y433992D01*
X261689Y433961D01*
X262529Y433909D01*
X263367Y433837D01*
X264203Y433744D01*
X265037Y433631D01*
X265868Y433497D01*
X266696Y433343D01*
X267519Y433169D01*
X268338Y432974D01*
X269152Y432760D01*
X269960Y432525D01*
X270762Y432271D01*
X271558Y431998D01*
X272347Y431704D01*
X273128Y431392D01*
X273902Y431060D01*
X274667Y430710D01*
X275423Y430341D01*
X276170Y429953D01*
X276907Y429547D01*
X277635Y429124D01*
X278351Y428682D01*
X279057Y428223D01*
X279750Y427747D01*
X280433Y427254D01*
X281102Y426744D01*
X281759Y426219D01*
X282403Y425677D01*
X283034Y425119D01*
X283650Y424546D01*
X284253Y423959D01*
X284840Y423356D01*
X285413Y422740D01*
X285971Y422109D01*
X286513Y421465D01*
X287038Y420808D01*
X287548Y420139D01*
X288041Y419456D01*
X288517Y418763D01*
X288976Y418057D01*
X289418Y417341D01*
X289841Y416613D01*
X290247Y415876D01*
X290635Y415129D01*
X291004Y414373D01*
X291354Y413608D01*
X291686Y412834D01*
X291998Y412053D01*
X292292Y411264D01*
X292565Y410468D01*
X292819Y409666D01*
X293054Y408858D01*
X293268Y408044D01*
X293463Y407225D01*
X293637Y406402D01*
X293791Y405574D01*
X293925Y404743D01*
X294038Y403909D01*
X294131Y403073D01*
X294203Y402235D01*
X294255Y401395D01*
X294286Y400554D01*
X294296Y399712D01*
X294286Y398870D01*
X294255Y398029D01*
X294203Y397189D01*
X294131Y396351D01*
X294038Y395515D01*
X293925Y394681D01*
X293791Y393850D01*
X293637Y393022D01*
X293463Y392199D01*
X293268Y391380D01*
X293054Y390566D01*
X292819Y389758D01*
X292565Y388956D01*
X292292Y388160D01*
X291998Y387371D01*
X291686Y386590D01*
X291354Y385816D01*
X291004Y385051D01*
X290635Y384295D01*
X290247Y383548D01*
X289841Y382811D01*
X289418Y382083D01*
X288976Y381367D01*
X288517Y380661D01*
X288041Y379968D01*
X287548Y379285D01*
X287038Y378616D01*
X286513Y377959D01*
X285971Y377315D01*
X285413Y376684D01*
X284840Y376068D01*
X284253Y375465D01*
X283650Y374878D01*
X283034Y374305D01*
X282403Y373747D01*
X281759Y373205D01*
X281102Y372680D01*
X280433Y372170D01*
X279750Y371677D01*
X279057Y371201D01*
X278351Y370742D01*
X277635Y370300D01*
X276907Y369877D01*
X276170Y369471D01*
X275423Y369083D01*
X274667Y368714D01*
X273902Y368364D01*
X273128Y368032D01*
X272347Y367720D01*
X271558Y367426D01*
X270762Y367153D01*
X269960Y366899D01*
X269152Y366664D01*
X268338Y366450D01*
X267519Y366255D01*
X266696Y366081D01*
X265868Y365927D01*
X265037Y365793D01*
X264203Y365680D01*
X263367Y365587D01*
X262529Y365515D01*
X261689Y365463D01*
X260848Y365432D01*
X260006Y365422D01*
X259164Y365432D01*
X258323Y365463D01*
X257483Y365515D01*
X256645Y365587D01*
X255809Y365680D01*
X254975Y365793D01*
X254144Y365927D01*
X253316Y366081D01*
X252493Y366255D01*
X251674Y366450D01*
X250860Y366664D01*
X250052Y366899D01*
X249250Y367153D01*
X248454Y367426D01*
X247665Y367720D01*
X246884Y368032D01*
X246110Y368364D01*
X245345Y368714D01*
X244589Y369083D01*
X243842Y369471D01*
X243105Y369877D01*
X242377Y370300D01*
X241661Y370742D01*
X240955Y371201D01*
X240262Y371677D01*
X239579Y372170D01*
X238910Y372680D01*
X238253Y373205D01*
X237609Y373747D01*
X236978Y374305D01*
X236362Y374878D01*
X235759Y375465D01*
X235172Y376068D01*
X234599Y376684D01*
X234041Y377315D01*
X233499Y377959D01*
X232974Y378616D01*
X232464Y379285D01*
X231971Y379968D01*
X231495Y380661D01*
X231036Y381367D01*
X230594Y382083D01*
X230171Y382811D01*
X229765Y383548D01*
X229377Y384295D01*
X229008Y385051D01*
X228658Y385816D01*
X228326Y386590D01*
X228014Y387371D01*
X227720Y388160D01*
X227447Y388956D01*
X227193Y389758D01*
X226958Y390566D01*
X226744Y391380D01*
X226549Y392199D01*
X226375Y393022D01*
X226221Y393850D01*
X226087Y394681D01*
X225974Y395515D01*
X225881Y396351D01*
X225809Y397189D01*
X225757Y398029D01*
X225726Y398870D01*
X225716Y399712D01*
D10*
X242506Y399712D02*
X242511Y400141D01*
X242527Y400571D01*
X242553Y400999D01*
X242590Y401427D01*
X242638Y401854D01*
X242695Y402280D01*
X242764Y402704D01*
X242842Y403126D01*
X242931Y403546D01*
X243030Y403964D01*
X243140Y404379D01*
X243260Y404792D01*
X243389Y405201D01*
X243529Y405608D01*
X243679Y406010D01*
X243838Y406409D01*
X244007Y406804D01*
X244186Y407194D01*
X244375Y407580D01*
X244572Y407961D01*
X244779Y408338D01*
X244996Y408709D01*
X245221Y409074D01*
X245455Y409434D01*
X245698Y409789D01*
X245950Y410137D01*
X246210Y410479D01*
X246478Y410814D01*
X246755Y411143D01*
X247039Y411464D01*
X247332Y411779D01*
X247632Y412086D01*
X247939Y412386D01*
X248254Y412679D01*
X248575Y412963D01*
X248904Y413240D01*
X249239Y413508D01*
X249581Y413768D01*
X249929Y414020D01*
X250284Y414263D01*
X250644Y414497D01*
X251009Y414722D01*
X251380Y414939D01*
X251757Y415146D01*
X252138Y415343D01*
X252524Y415532D01*
X252914Y415711D01*
X253309Y415880D01*
X253708Y416039D01*
X254110Y416189D01*
X254517Y416329D01*
X254926Y416458D01*
X255339Y416578D01*
X255754Y416688D01*
X256172Y416787D01*
X256592Y416876D01*
X257014Y416954D01*
X257438Y417023D01*
X257864Y417080D01*
X258291Y417128D01*
X258719Y417165D01*
X259147Y417191D01*
X259577Y417207D01*
X260006Y417212D01*
X260435Y417207D01*
X260865Y417191D01*
X261293Y417165D01*
X261721Y417128D01*
X262148Y417080D01*
X262574Y417023D01*
X262998Y416954D01*
X263420Y416876D01*
X263840Y416787D01*
X264258Y416688D01*
X264673Y416578D01*
X265086Y416458D01*
X265495Y416329D01*
X265902Y416189D01*
X266304Y416039D01*
X266703Y415880D01*
X267098Y415711D01*
X267488Y415532D01*
X267874Y415343D01*
X268255Y415146D01*
X268632Y414939D01*
X269003Y414722D01*
X269368Y414497D01*
X269728Y414263D01*
X270083Y414020D01*
X270431Y413768D01*
X270773Y413508D01*
X271108Y413240D01*
X271437Y412963D01*
X271758Y412679D01*
X272073Y412386D01*
X272380Y412086D01*
X272680Y411779D01*
X272973Y411464D01*
X273257Y411143D01*
X273534Y410814D01*
X273802Y410479D01*
X274062Y410137D01*
X274314Y409789D01*
X274557Y409434D01*
X274791Y409074D01*
X275016Y408709D01*
X275233Y408338D01*
X275440Y407961D01*
X275637Y407580D01*
X275826Y407194D01*
X276005Y406804D01*
X276174Y406409D01*
X276333Y406010D01*
X276483Y405608D01*
X276623Y405201D01*
X276752Y404792D01*
X276872Y404379D01*
X276982Y403964D01*
X277081Y403546D01*
X277170Y403126D01*
X277248Y402704D01*
X277317Y402280D01*
X277374Y401854D01*
X277422Y401427D01*
X277459Y400999D01*
X277485Y400571D01*
X277501Y400141D01*
X277506Y399712D01*
X277501Y399283D01*
X277485Y398853D01*
X277459Y398425D01*
X277422Y397997D01*
X277374Y397570D01*
X277317Y397144D01*
X277248Y396720D01*
X277170Y396298D01*
X277081Y395878D01*
X276982Y395460D01*
X276872Y395045D01*
X276752Y394632D01*
X276623Y394223D01*
X276483Y393816D01*
X276333Y393414D01*
X276174Y393015D01*
X276005Y392620D01*
X275826Y392230D01*
X275637Y391844D01*
X275440Y391463D01*
X275233Y391086D01*
X275016Y390715D01*
X274791Y390350D01*
X274557Y389990D01*
X274314Y389635D01*
X274062Y389287D01*
X273802Y388945D01*
X273534Y388610D01*
X273257Y388281D01*
X272973Y387960D01*
X272680Y387645D01*
X272380Y387338D01*
X272073Y387038D01*
X271758Y386745D01*
X271437Y386461D01*
X271108Y386184D01*
X270773Y385916D01*
X270431Y385656D01*
X270083Y385404D01*
X269728Y385161D01*
X269368Y384927D01*
X269003Y384702D01*
X268632Y384485D01*
X268255Y384278D01*
X267874Y384081D01*
X267488Y383892D01*
X267098Y383713D01*
X266703Y383544D01*
X266304Y383385D01*
X265902Y383235D01*
X265495Y383095D01*
X265086Y382966D01*
X264673Y382846D01*
X264258Y382736D01*
X263840Y382637D01*
X263420Y382548D01*
X262998Y382470D01*
X262574Y382401D01*
X262148Y382344D01*
X261721Y382296D01*
X261293Y382259D01*
X260865Y382233D01*
X260435Y382217D01*
X260006Y382212D01*
X259577Y382217D01*
X259147Y382233D01*
X258719Y382259D01*
X258291Y382296D01*
X257864Y382344D01*
X257438Y382401D01*
X257014Y382470D01*
X256592Y382548D01*
X256172Y382637D01*
X255754Y382736D01*
X255339Y382846D01*
X254926Y382966D01*
X254517Y383095D01*
X254110Y383235D01*
X253708Y383385D01*
X253309Y383544D01*
X252914Y383713D01*
X252524Y383892D01*
X252138Y384081D01*
X251757Y384278D01*
X251380Y384485D01*
X251009Y384702D01*
X250644Y384927D01*
X250284Y385161D01*
X249929Y385404D01*
X249581Y385656D01*
X249239Y385916D01*
X248904Y386184D01*
X248575Y386461D01*
X248254Y386745D01*
X247939Y387038D01*
X247632Y387338D01*
X247332Y387645D01*
X247039Y387960D01*
X246755Y388281D01*
X246478Y388610D01*
X246210Y388945D01*
X245950Y389287D01*
X245698Y389635D01*
X245455Y389990D01*
X245221Y390350D01*
X244996Y390715D01*
X244779Y391086D01*
X244572Y391463D01*
X244375Y391844D01*
X244186Y392230D01*
X244007Y392620D01*
X243838Y393015D01*
X243679Y393414D01*
X243529Y393816D01*
X243389Y394223D01*
X243260Y394632D01*
X243140Y395045D01*
X243030Y395460D01*
X242931Y395878D01*
X242842Y396298D01*
X242764Y396720D01*
X242695Y397144D01*
X242638Y397570D01*
X242590Y397997D01*
X242553Y398425D01*
X242527Y398853D01*
X242511Y399283D01*
X242506Y399712D01*
D14*
X495522Y70670D02*
X495532Y71512D01*
X495563Y72353D01*
X495615Y73193D01*
X495687Y74031D01*
X495780Y74867D01*
X495893Y75701D01*
X496027Y76532D01*
X496181Y77360D01*
X496355Y78183D01*
X496550Y79002D01*
X496764Y79816D01*
X496999Y80624D01*
X497253Y81426D01*
X497526Y82222D01*
X497820Y83011D01*
X498132Y83792D01*
X498464Y84566D01*
X498814Y85331D01*
X499183Y86087D01*
X499571Y86834D01*
X499977Y87571D01*
X500400Y88299D01*
X500842Y89015D01*
X501301Y89721D01*
X501777Y90414D01*
X502270Y91097D01*
X502780Y91766D01*
X503305Y92423D01*
X503847Y93067D01*
X504405Y93698D01*
X504978Y94314D01*
X505565Y94917D01*
X506168Y95504D01*
X506784Y96077D01*
X507415Y96635D01*
X508059Y97177D01*
X508716Y97702D01*
X509385Y98212D01*
X510068Y98705D01*
X510761Y99181D01*
X511467Y99640D01*
X512183Y100082D01*
X512911Y100505D01*
X513648Y100911D01*
X514395Y101299D01*
X515151Y101668D01*
X515916Y102018D01*
X516690Y102350D01*
X517471Y102662D01*
X518260Y102956D01*
X519056Y103229D01*
X519858Y103483D01*
X520666Y103718D01*
X521480Y103932D01*
X522299Y104127D01*
X523122Y104301D01*
X523950Y104455D01*
X524781Y104589D01*
X525615Y104702D01*
X526451Y104795D01*
X527289Y104867D01*
X528129Y104919D01*
X528970Y104950D01*
X529812Y104960D01*
X530654Y104950D01*
X531495Y104919D01*
X532335Y104867D01*
X533173Y104795D01*
X534009Y104702D01*
X534843Y104589D01*
X535674Y104455D01*
X536502Y104301D01*
X537325Y104127D01*
X538144Y103932D01*
X538958Y103718D01*
X539766Y103483D01*
X540568Y103229D01*
X541364Y102956D01*
X542153Y102662D01*
X542934Y102350D01*
X543708Y102018D01*
X544473Y101668D01*
X545229Y101299D01*
X545976Y100911D01*
X546713Y100505D01*
X547441Y100082D01*
X548157Y99640D01*
X548863Y99181D01*
X549556Y98705D01*
X550239Y98212D01*
X550908Y97702D01*
X551565Y97177D01*
X552209Y96635D01*
X552840Y96077D01*
X553456Y95504D01*
X554059Y94917D01*
X554646Y94314D01*
X555219Y93698D01*
X555777Y93067D01*
X556319Y92423D01*
X556844Y91766D01*
X557354Y91097D01*
X557847Y90414D01*
X558323Y89721D01*
X558782Y89015D01*
X559224Y88299D01*
X559647Y87571D01*
X560053Y86834D01*
X560441Y86087D01*
X560810Y85331D01*
X561160Y84566D01*
X561492Y83792D01*
X561804Y83011D01*
X562098Y82222D01*
X562371Y81426D01*
X562625Y80624D01*
X562860Y79816D01*
X563074Y79002D01*
X563269Y78183D01*
X563443Y77360D01*
X563597Y76532D01*
X563731Y75701D01*
X563844Y74867D01*
X563937Y74031D01*
X564009Y73193D01*
X564061Y72353D01*
X564092Y71512D01*
X564102Y70670D01*
X564092Y69828D01*
X564061Y68987D01*
X564009Y68147D01*
X563937Y67309D01*
X563844Y66473D01*
X563731Y65639D01*
X563597Y64808D01*
X563443Y63980D01*
X563269Y63157D01*
X563074Y62338D01*
X562860Y61524D01*
X562625Y60716D01*
X562371Y59914D01*
X562098Y59118D01*
X561804Y58329D01*
X561492Y57548D01*
X561160Y56774D01*
X560810Y56009D01*
X560441Y55253D01*
X560053Y54506D01*
X559647Y53769D01*
X559224Y53041D01*
X558782Y52325D01*
X558323Y51619D01*
X557847Y50926D01*
X557354Y50243D01*
X556844Y49574D01*
X556319Y48917D01*
X555777Y48273D01*
X555219Y47642D01*
X554646Y47026D01*
X554059Y46423D01*
X553456Y45836D01*
X552840Y45263D01*
X552209Y44705D01*
X551565Y44163D01*
X550908Y43638D01*
X550239Y43128D01*
X549556Y42635D01*
X548863Y42159D01*
X548157Y41700D01*
X547441Y41258D01*
X546713Y40835D01*
X545976Y40429D01*
X545229Y40041D01*
X544473Y39672D01*
X543708Y39322D01*
X542934Y38990D01*
X542153Y38678D01*
X541364Y38384D01*
X540568Y38111D01*
X539766Y37857D01*
X538958Y37622D01*
X538144Y37408D01*
X537325Y37213D01*
X536502Y37039D01*
X535674Y36885D01*
X534843Y36751D01*
X534009Y36638D01*
X533173Y36545D01*
X532335Y36473D01*
X531495Y36421D01*
X530654Y36390D01*
X529812Y36380D01*
X528970Y36390D01*
X528129Y36421D01*
X527289Y36473D01*
X526451Y36545D01*
X525615Y36638D01*
X524781Y36751D01*
X523950Y36885D01*
X523122Y37039D01*
X522299Y37213D01*
X521480Y37408D01*
X520666Y37622D01*
X519858Y37857D01*
X519056Y38111D01*
X518260Y38384D01*
X517471Y38678D01*
X516690Y38990D01*
X515916Y39322D01*
X515151Y39672D01*
X514395Y40041D01*
X513648Y40429D01*
X512911Y40835D01*
X512183Y41258D01*
X511467Y41700D01*
X510761Y42159D01*
X510068Y42635D01*
X509385Y43128D01*
X508716Y43638D01*
X508059Y44163D01*
X507415Y44705D01*
X506784Y45263D01*
X506168Y45836D01*
X505565Y46423D01*
X504978Y47026D01*
X504405Y47642D01*
X503847Y48273D01*
X503305Y48917D01*
X502780Y49574D01*
X502270Y50243D01*
X501777Y50926D01*
X501301Y51619D01*
X500842Y52325D01*
X500400Y53041D01*
X499977Y53769D01*
X499571Y54506D01*
X499183Y55253D01*
X498814Y56009D01*
X498464Y56774D01*
X498132Y57548D01*
X497820Y58329D01*
X497526Y59118D01*
X497253Y59914D01*
X496999Y60716D01*
X496764Y61524D01*
X496550Y62338D01*
X496355Y63157D01*
X496181Y63980D01*
X496027Y64808D01*
X495893Y65639D01*
X495780Y66473D01*
X495687Y67309D01*
X495615Y68147D01*
X495563Y68987D01*
X495532Y69828D01*
X495522Y70670D01*
D10*
X512312Y70670D02*
X512317Y71099D01*
X512333Y71529D01*
X512359Y71957D01*
X512396Y72385D01*
X512444Y72812D01*
X512501Y73238D01*
X512570Y73662D01*
X512648Y74084D01*
X512737Y74504D01*
X512836Y74922D01*
X512946Y75337D01*
X513066Y75750D01*
X513195Y76159D01*
X513335Y76566D01*
X513485Y76968D01*
X513644Y77367D01*
X513813Y77762D01*
X513992Y78152D01*
X514181Y78538D01*
X514378Y78919D01*
X514585Y79296D01*
X514802Y79667D01*
X515027Y80032D01*
X515261Y80392D01*
X515504Y80747D01*
X515756Y81095D01*
X516016Y81437D01*
X516284Y81772D01*
X516561Y82101D01*
X516845Y82422D01*
X517138Y82737D01*
X517438Y83044D01*
X517745Y83344D01*
X518060Y83637D01*
X518381Y83921D01*
X518710Y84198D01*
X519045Y84466D01*
X519387Y84726D01*
X519735Y84978D01*
X520090Y85221D01*
X520450Y85455D01*
X520815Y85680D01*
X521186Y85897D01*
X521563Y86104D01*
X521944Y86301D01*
X522330Y86490D01*
X522720Y86669D01*
X523115Y86838D01*
X523514Y86997D01*
X523916Y87147D01*
X524323Y87287D01*
X524732Y87416D01*
X525145Y87536D01*
X525560Y87646D01*
X525978Y87745D01*
X526398Y87834D01*
X526820Y87912D01*
X527244Y87981D01*
X527670Y88038D01*
X528097Y88086D01*
X528525Y88123D01*
X528953Y88149D01*
X529383Y88165D01*
X529812Y88170D01*
X530241Y88165D01*
X530671Y88149D01*
X531099Y88123D01*
X531527Y88086D01*
X531954Y88038D01*
X532380Y87981D01*
X532804Y87912D01*
X533226Y87834D01*
X533646Y87745D01*
X534064Y87646D01*
X534479Y87536D01*
X534892Y87416D01*
X535301Y87287D01*
X535708Y87147D01*
X536110Y86997D01*
X536509Y86838D01*
X536904Y86669D01*
X537294Y86490D01*
X537680Y86301D01*
X538061Y86104D01*
X538438Y85897D01*
X538809Y85680D01*
X539174Y85455D01*
X539534Y85221D01*
X539889Y84978D01*
X540237Y84726D01*
X540579Y84466D01*
X540914Y84198D01*
X541243Y83921D01*
X541564Y83637D01*
X541879Y83344D01*
X542186Y83044D01*
X542486Y82737D01*
X542779Y82422D01*
X543063Y82101D01*
X543340Y81772D01*
X543608Y81437D01*
X543868Y81095D01*
X544120Y80747D01*
X544363Y80392D01*
X544597Y80032D01*
X544822Y79667D01*
X545039Y79296D01*
X545246Y78919D01*
X545443Y78538D01*
X545632Y78152D01*
X545811Y77762D01*
X545980Y77367D01*
X546139Y76968D01*
X546289Y76566D01*
X546429Y76159D01*
X546558Y75750D01*
X546678Y75337D01*
X546788Y74922D01*
X546887Y74504D01*
X546976Y74084D01*
X547054Y73662D01*
X547123Y73238D01*
X547180Y72812D01*
X547228Y72385D01*
X547265Y71957D01*
X547291Y71529D01*
X547307Y71099D01*
X547312Y70670D01*
X547307Y70241D01*
X547291Y69811D01*
X547265Y69383D01*
X547228Y68955D01*
X547180Y68528D01*
X547123Y68102D01*
X547054Y67678D01*
X546976Y67256D01*
X546887Y66836D01*
X546788Y66418D01*
X546678Y66003D01*
X546558Y65590D01*
X546429Y65181D01*
X546289Y64774D01*
X546139Y64372D01*
X545980Y63973D01*
X545811Y63578D01*
X545632Y63188D01*
X545443Y62802D01*
X545246Y62421D01*
X545039Y62044D01*
X544822Y61673D01*
X544597Y61308D01*
X544363Y60948D01*
X544120Y60593D01*
X543868Y60245D01*
X543608Y59903D01*
X543340Y59568D01*
X543063Y59239D01*
X542779Y58918D01*
X542486Y58603D01*
X542186Y58296D01*
X541879Y57996D01*
X541564Y57703D01*
X541243Y57419D01*
X540914Y57142D01*
X540579Y56874D01*
X540237Y56614D01*
X539889Y56362D01*
X539534Y56119D01*
X539174Y55885D01*
X538809Y55660D01*
X538438Y55443D01*
X538061Y55236D01*
X537680Y55039D01*
X537294Y54850D01*
X536904Y54671D01*
X536509Y54502D01*
X536110Y54343D01*
X535708Y54193D01*
X535301Y54053D01*
X534892Y53924D01*
X534479Y53804D01*
X534064Y53694D01*
X533646Y53595D01*
X533226Y53506D01*
X532804Y53428D01*
X532380Y53359D01*
X531954Y53302D01*
X531527Y53254D01*
X531099Y53217D01*
X530671Y53191D01*
X530241Y53175D01*
X529812Y53170D01*
X529383Y53175D01*
X528953Y53191D01*
X528525Y53217D01*
X528097Y53254D01*
X527670Y53302D01*
X527244Y53359D01*
X526820Y53428D01*
X526398Y53506D01*
X525978Y53595D01*
X525560Y53694D01*
X525145Y53804D01*
X524732Y53924D01*
X524323Y54053D01*
X523916Y54193D01*
X523514Y54343D01*
X523115Y54502D01*
X522720Y54671D01*
X522330Y54850D01*
X521944Y55039D01*
X521563Y55236D01*
X521186Y55443D01*
X520815Y55660D01*
X520450Y55885D01*
X520090Y56119D01*
X519735Y56362D01*
X519387Y56614D01*
X519045Y56874D01*
X518710Y57142D01*
X518381Y57419D01*
X518060Y57703D01*
X517745Y57996D01*
X517438Y58296D01*
X517138Y58603D01*
X516845Y58918D01*
X516561Y59239D01*
X516284Y59568D01*
X516016Y59903D01*
X515756Y60245D01*
X515504Y60593D01*
X515261Y60948D01*
X515027Y61308D01*
X514802Y61673D01*
X514585Y62044D01*
X514378Y62421D01*
X514181Y62802D01*
X513992Y63188D01*
X513813Y63578D01*
X513644Y63973D01*
X513485Y64372D01*
X513335Y64774D01*
X513195Y65181D01*
X513066Y65590D01*
X512946Y66003D01*
X512836Y66418D01*
X512737Y66836D01*
X512648Y67256D01*
X512570Y67678D01*
X512501Y68102D01*
X512444Y68528D01*
X512396Y68955D01*
X512359Y69383D01*
X512333Y69811D01*
X512317Y70241D01*
X512312Y70670D01*
D14*
X225710Y70000D02*
X225720Y70842D01*
X225751Y71683D01*
X225803Y72523D01*
X225875Y73361D01*
X225968Y74197D01*
X226081Y75031D01*
X226215Y75862D01*
X226369Y76690D01*
X226543Y77513D01*
X226738Y78332D01*
X226952Y79146D01*
X227187Y79954D01*
X227441Y80756D01*
X227714Y81552D01*
X228008Y82341D01*
X228320Y83122D01*
X228652Y83896D01*
X229002Y84661D01*
X229371Y85417D01*
X229759Y86164D01*
X230165Y86901D01*
X230588Y87629D01*
X231030Y88345D01*
X231489Y89051D01*
X231965Y89744D01*
X232458Y90427D01*
X232968Y91096D01*
X233493Y91753D01*
X234035Y92397D01*
X234593Y93028D01*
X235166Y93644D01*
X235753Y94247D01*
X236356Y94834D01*
X236972Y95407D01*
X237603Y95965D01*
X238247Y96507D01*
X238904Y97032D01*
X239573Y97542D01*
X240256Y98035D01*
X240949Y98511D01*
X241655Y98970D01*
X242371Y99412D01*
X243099Y99835D01*
X243836Y100241D01*
X244583Y100629D01*
X245339Y100998D01*
X246104Y101348D01*
X246878Y101680D01*
X247659Y101992D01*
X248448Y102286D01*
X249244Y102559D01*
X250046Y102813D01*
X250854Y103048D01*
X251668Y103262D01*
X252487Y103457D01*
X253310Y103631D01*
X254138Y103785D01*
X254969Y103919D01*
X255803Y104032D01*
X256639Y104125D01*
X257477Y104197D01*
X258317Y104249D01*
X259158Y104280D01*
X260000Y104290D01*
X260842Y104280D01*
X261683Y104249D01*
X262523Y104197D01*
X263361Y104125D01*
X264197Y104032D01*
X265031Y103919D01*
X265862Y103785D01*
X266690Y103631D01*
X267513Y103457D01*
X268332Y103262D01*
X269146Y103048D01*
X269954Y102813D01*
X270756Y102559D01*
X271552Y102286D01*
X272341Y101992D01*
X273122Y101680D01*
X273896Y101348D01*
X274661Y100998D01*
X275417Y100629D01*
X276164Y100241D01*
X276901Y99835D01*
X277629Y99412D01*
X278345Y98970D01*
X279051Y98511D01*
X279744Y98035D01*
X280427Y97542D01*
X281096Y97032D01*
X281753Y96507D01*
X282397Y95965D01*
X283028Y95407D01*
X283644Y94834D01*
X284247Y94247D01*
X284834Y93644D01*
X285407Y93028D01*
X285965Y92397D01*
X286507Y91753D01*
X287032Y91096D01*
X287542Y90427D01*
X288035Y89744D01*
X288511Y89051D01*
X288970Y88345D01*
X289412Y87629D01*
X289835Y86901D01*
X290241Y86164D01*
X290629Y85417D01*
X290998Y84661D01*
X291348Y83896D01*
X291680Y83122D01*
X291992Y82341D01*
X292286Y81552D01*
X292559Y80756D01*
X292813Y79954D01*
X293048Y79146D01*
X293262Y78332D01*
X293457Y77513D01*
X293631Y76690D01*
X293785Y75862D01*
X293919Y75031D01*
X294032Y74197D01*
X294125Y73361D01*
X294197Y72523D01*
X294249Y71683D01*
X294280Y70842D01*
X294290Y70000D01*
X294280Y69158D01*
X294249Y68317D01*
X294197Y67477D01*
X294125Y66639D01*
X294032Y65803D01*
X293919Y64969D01*
X293785Y64138D01*
X293631Y63310D01*
X293457Y62487D01*
X293262Y61668D01*
X293048Y60854D01*
X292813Y60046D01*
X292559Y59244D01*
X292286Y58448D01*
X291992Y57659D01*
X291680Y56878D01*
X291348Y56104D01*
X290998Y55339D01*
X290629Y54583D01*
X290241Y53836D01*
X289835Y53099D01*
X289412Y52371D01*
X288970Y51655D01*
X288511Y50949D01*
X288035Y50256D01*
X287542Y49573D01*
X287032Y48904D01*
X286507Y48247D01*
X285965Y47603D01*
X285407Y46972D01*
X284834Y46356D01*
X284247Y45753D01*
X283644Y45166D01*
X283028Y44593D01*
X282397Y44035D01*
X281753Y43493D01*
X281096Y42968D01*
X280427Y42458D01*
X279744Y41965D01*
X279051Y41489D01*
X278345Y41030D01*
X277629Y40588D01*
X276901Y40165D01*
X276164Y39759D01*
X275417Y39371D01*
X274661Y39002D01*
X273896Y38652D01*
X273122Y38320D01*
X272341Y38008D01*
X271552Y37714D01*
X270756Y37441D01*
X269954Y37187D01*
X269146Y36952D01*
X268332Y36738D01*
X267513Y36543D01*
X266690Y36369D01*
X265862Y36215D01*
X265031Y36081D01*
X264197Y35968D01*
X263361Y35875D01*
X262523Y35803D01*
X261683Y35751D01*
X260842Y35720D01*
X260000Y35710D01*
X259158Y35720D01*
X258317Y35751D01*
X257477Y35803D01*
X256639Y35875D01*
X255803Y35968D01*
X254969Y36081D01*
X254138Y36215D01*
X253310Y36369D01*
X252487Y36543D01*
X251668Y36738D01*
X250854Y36952D01*
X250046Y37187D01*
X249244Y37441D01*
X248448Y37714D01*
X247659Y38008D01*
X246878Y38320D01*
X246104Y38652D01*
X245339Y39002D01*
X244583Y39371D01*
X243836Y39759D01*
X243099Y40165D01*
X242371Y40588D01*
X241655Y41030D01*
X240949Y41489D01*
X240256Y41965D01*
X239573Y42458D01*
X238904Y42968D01*
X238247Y43493D01*
X237603Y44035D01*
X236972Y44593D01*
X236356Y45166D01*
X235753Y45753D01*
X235166Y46356D01*
X234593Y46972D01*
X234035Y47603D01*
X233493Y48247D01*
X232968Y48904D01*
X232458Y49573D01*
X231965Y50256D01*
X231489Y50949D01*
X231030Y51655D01*
X230588Y52371D01*
X230165Y53099D01*
X229759Y53836D01*
X229371Y54583D01*
X229002Y55339D01*
X228652Y56104D01*
X228320Y56878D01*
X228008Y57659D01*
X227714Y58448D01*
X227441Y59244D01*
X227187Y60046D01*
X226952Y60854D01*
X226738Y61668D01*
X226543Y62487D01*
X226369Y63310D01*
X226215Y64138D01*
X226081Y64969D01*
X225968Y65803D01*
X225875Y66639D01*
X225803Y67477D01*
X225751Y68317D01*
X225720Y69158D01*
X225710Y70000D01*
D10*
X242500Y70000D02*
X242505Y70429D01*
X242521Y70859D01*
X242547Y71287D01*
X242584Y71715D01*
X242632Y72142D01*
X242689Y72568D01*
X242758Y72992D01*
X242836Y73414D01*
X242925Y73834D01*
X243024Y74252D01*
X243134Y74667D01*
X243254Y75080D01*
X243383Y75489D01*
X243523Y75896D01*
X243673Y76298D01*
X243832Y76697D01*
X244001Y77092D01*
X244180Y77482D01*
X244369Y77868D01*
X244566Y78249D01*
X244773Y78626D01*
X244990Y78997D01*
X245215Y79362D01*
X245449Y79722D01*
X245692Y80077D01*
X245944Y80425D01*
X246204Y80767D01*
X246472Y81102D01*
X246749Y81431D01*
X247033Y81752D01*
X247326Y82067D01*
X247626Y82374D01*
X247933Y82674D01*
X248248Y82967D01*
X248569Y83251D01*
X248898Y83528D01*
X249233Y83796D01*
X249575Y84056D01*
X249923Y84308D01*
X250278Y84551D01*
X250638Y84785D01*
X251003Y85010D01*
X251374Y85227D01*
X251751Y85434D01*
X252132Y85631D01*
X252518Y85820D01*
X252908Y85999D01*
X253303Y86168D01*
X253702Y86327D01*
X254104Y86477D01*
X254511Y86617D01*
X254920Y86746D01*
X255333Y86866D01*
X255748Y86976D01*
X256166Y87075D01*
X256586Y87164D01*
X257008Y87242D01*
X257432Y87311D01*
X257858Y87368D01*
X258285Y87416D01*
X258713Y87453D01*
X259141Y87479D01*
X259571Y87495D01*
X260000Y87500D01*
X260429Y87495D01*
X260859Y87479D01*
X261287Y87453D01*
X261715Y87416D01*
X262142Y87368D01*
X262568Y87311D01*
X262992Y87242D01*
X263414Y87164D01*
X263834Y87075D01*
X264252Y86976D01*
X264667Y86866D01*
X265080Y86746D01*
X265489Y86617D01*
X265896Y86477D01*
X266298Y86327D01*
X266697Y86168D01*
X267092Y85999D01*
X267482Y85820D01*
X267868Y85631D01*
X268249Y85434D01*
X268626Y85227D01*
X268997Y85010D01*
X269362Y84785D01*
X269722Y84551D01*
X270077Y84308D01*
X270425Y84056D01*
X270767Y83796D01*
X271102Y83528D01*
X271431Y83251D01*
X271752Y82967D01*
X272067Y82674D01*
X272374Y82374D01*
X272674Y82067D01*
X272967Y81752D01*
X273251Y81431D01*
X273528Y81102D01*
X273796Y80767D01*
X274056Y80425D01*
X274308Y80077D01*
X274551Y79722D01*
X274785Y79362D01*
X275010Y78997D01*
X275227Y78626D01*
X275434Y78249D01*
X275631Y77868D01*
X275820Y77482D01*
X275999Y77092D01*
X276168Y76697D01*
X276327Y76298D01*
X276477Y75896D01*
X276617Y75489D01*
X276746Y75080D01*
X276866Y74667D01*
X276976Y74252D01*
X277075Y73834D01*
X277164Y73414D01*
X277242Y72992D01*
X277311Y72568D01*
X277368Y72142D01*
X277416Y71715D01*
X277453Y71287D01*
X277479Y70859D01*
X277495Y70429D01*
X277500Y70000D01*
X277495Y69571D01*
X277479Y69141D01*
X277453Y68713D01*
X277416Y68285D01*
X277368Y67858D01*
X277311Y67432D01*
X277242Y67008D01*
X277164Y66586D01*
X277075Y66166D01*
X276976Y65748D01*
X276866Y65333D01*
X276746Y64920D01*
X276617Y64511D01*
X276477Y64104D01*
X276327Y63702D01*
X276168Y63303D01*
X275999Y62908D01*
X275820Y62518D01*
X275631Y62132D01*
X275434Y61751D01*
X275227Y61374D01*
X275010Y61003D01*
X274785Y60638D01*
X274551Y60278D01*
X274308Y59923D01*
X274056Y59575D01*
X273796Y59233D01*
X273528Y58898D01*
X273251Y58569D01*
X272967Y58248D01*
X272674Y57933D01*
X272374Y57626D01*
X272067Y57326D01*
X271752Y57033D01*
X271431Y56749D01*
X271102Y56472D01*
X270767Y56204D01*
X270425Y55944D01*
X270077Y55692D01*
X269722Y55449D01*
X269362Y55215D01*
X268997Y54990D01*
X268626Y54773D01*
X268249Y54566D01*
X267868Y54369D01*
X267482Y54180D01*
X267092Y54001D01*
X266697Y53832D01*
X266298Y53673D01*
X265896Y53523D01*
X265489Y53383D01*
X265080Y53254D01*
X264667Y53134D01*
X264252Y53024D01*
X263834Y52925D01*
X263414Y52836D01*
X262992Y52758D01*
X262568Y52689D01*
X262142Y52632D01*
X261715Y52584D01*
X261287Y52547D01*
X260859Y52521D01*
X260429Y52505D01*
X260000Y52500D01*
X259571Y52505D01*
X259141Y52521D01*
X258713Y52547D01*
X258285Y52584D01*
X257858Y52632D01*
X257432Y52689D01*
X257008Y52758D01*
X256586Y52836D01*
X256166Y52925D01*
X255748Y53024D01*
X255333Y53134D01*
X254920Y53254D01*
X254511Y53383D01*
X254104Y53523D01*
X253702Y53673D01*
X253303Y53832D01*
X252908Y54001D01*
X252518Y54180D01*
X252132Y54369D01*
X251751Y54566D01*
X251374Y54773D01*
X251003Y54990D01*
X250638Y55215D01*
X250278Y55449D01*
X249923Y55692D01*
X249575Y55944D01*
X249233Y56204D01*
X248898Y56472D01*
X248569Y56749D01*
X248248Y57033D01*
X247933Y57326D01*
X247626Y57626D01*
X247326Y57933D01*
X247033Y58248D01*
X246749Y58569D01*
X246472Y58898D01*
X246204Y59233D01*
X245944Y59575D01*
X245692Y59923D01*
X245449Y60278D01*
X245215Y60638D01*
X244990Y61003D01*
X244773Y61374D01*
X244566Y61751D01*
X244369Y62132D01*
X244180Y62518D01*
X244001Y62908D01*
X243832Y63303D01*
X243673Y63702D01*
X243523Y64104D01*
X243383Y64511D01*
X243254Y64920D01*
X243134Y65333D01*
X243024Y65748D01*
X242925Y66166D01*
X242836Y66586D01*
X242758Y67008D01*
X242689Y67432D01*
X242632Y67858D01*
X242584Y68285D01*
X242547Y68713D01*
X242521Y69141D01*
X242505Y69571D01*
X242500Y70000D01*
M02*
