  0
SECTION
  2
HEADER
  9
$ACADVER
  1
AC1009
  9
$EXTMIN
 10
0.0
 20
0.0
 30
0.0
  9
$EXTMAX
 10
1000.0
 20
1000.0
 30
0.0
  9
$FILLMODE
 70
 0
  9
$SPLFRAME
 70
 1
  0
ENDSEC
  0
SECTION
  2
TABLES
  0
TABLE
  2
LAYER
 70
1
  0
LAYER
  2
0
 70
     0
 62
     7
  6
CONTINUOUS
  0
ENDTAB
  0
ENDSEC
  0
SECTION
  2
ENTITIES
  0
POLYLINE
  8
0
 62
     0
 66
     1
 10
0
 20
0
 30
0.0
 70
     1
 40
0.72
 41
0.72
  0
VERTEX
  8
0
 10
0.375976
 20
10.0925
 30
0.0
 40
0.01
 41
0.01
  0
VERTEX
  8
0
 10
0.643718
 20
10.0925
 30
0.0
 40
0.01
 41
0.01
  0
VERTEX
  8
0
 10
0.643718
 20
9.96653
 30
0.0
 40
0.01
 41
0.01
  0
VERTEX
  8
0
 10
0.779514
 20
9.96653
 30
0.0
 40
0.01
 41
0.01
  0
VERTEX
  8
0
 10
0.779514
 20
9.30117
 30
0.0
 40
0.01
 41
0.01
  0
VERTEX
  8
0
 10
0.730306
 20
9.30117
 30
0.0
 40
0.01
 41
0.01
  0
VERTEX
  8
0
 10
0.730306
 20
9.20275
 30
0.0
 40
0.01
 41
0.01
  0
VERTEX
  8
0
 10
0.779514
 20
9.20275
 30
0.0
 40
0.01
 41
0.01
  0
VERTEX
  8
0
 10
0.779514
 20
9.10433
 30
0.0
 40
0.01
 41
0.01
  0
VERTEX
  8
0
 10
0.901585
 20
9.10433
 30
0.0
 40
0.01
 41
0.01
  0
VERTEX
  8
0
 10
0.901585
 20
9.20275
 30
0.0
 40
0.01
 41
0.01
  0
VERTEX
  8
0
 10
0.950792
 20
9.20275
 30
0.0
 40
0.01
 41
0.01
  0
VERTEX
  8
0
 10
0.950792
 20
9.30117
 30
0.0
 40
0.01
 41
0.01
  0
VERTEX
  8
0
 10
0.901585
 20
9.30117
 30
0.0
 40
0.01
 41
0.01
  0
VERTEX
  8
0
 10
0.901585
 20
9.96653
 30
0.0
 40
0.01
 41
0.01
  0
VERTEX
  8
0
 10
1.03738
 20
9.96653
 30
0.0
 40
0.01
 41
0.01
  0
VERTEX
  8
0
 10
1.03738
 20
10.0925
 30
0.0
 40
0.01
 41
0.01
  0
VERTEX
  8
0
 10
1.35238
 20
10.0925
 30
0.0
 40
0.01
 41
0.01
  0
VERTEX
  8
0
 10
1.35238
 20
9.96653
 30
0.0
 40
0.01
 41
0.01
  0
VERTEX
  8
0
 10
1.66732
 20
9.96653
 30
0.0
 40
0.01
 41
0.01
  0
VERTEX
  8
0
 10
1.66732
 20
10.0925
 30
0.0
 40
0.01
 41
0.01
  0
VERTEX
  8
0
 10
1.98226
 20
10.0925
 30
0.0
 40
0.01
 41
0.01
  0
VERTEX
  8
0
 10
1.98226
 20
9.96653
 30
0.0
 40
0.01
 41
0.01
  0
VERTEX
  8
0
 10
2.29725
 20
9.96653
 30
0.0
 40
0.01
 41
0.01
  0
VERTEX
  8
0
 10
2.29725
 20
10.0925
 30
0.0
 40
0.01
 41
0.01
  0
VERTEX
  8
0
 10
2.61219
 20
10.0925
 30
0.0
 40
0.01
 41
0.01
  0
VERTEX
  8
0
 10
2.61219
 20
9.96653
 30
0.0
 40
0.01
 41
0.01
  0
VERTEX
  8
0
 10
2.92719
 20
9.96653
 30
0.0
 40
0.01
 41
0.01
  0
VERTEX
  8
0
 10
2.92719
 20
10.0925
 30
0.0
 40
0.01
 41
0.01
  0
VERTEX
  8
0
 10
3.24214
 20
10.0925
 30
0.0
 40
0.01
 41
0.01
  0
VERTEX
  8
0
 10
3.24214
 20
9.96653
 30
0.0
 40
0.01
 41
0.01
  0
VERTEX
  8
0
 10
3.55707
 20
9.96653
 30
0.0
 40
0.01
 41
0.01
  0
VERTEX
  8
0
 10
3.55707
 20
10.0925
 30
0.0
 40
0.01
 41
0.01
  0
VERTEX
  8
0
 10
3.87207
 20
10.0925
 30
0.0
 40
0.01
 41
0.01
  0
VERTEX
  8
0
 10
3.87207
 20
9.96653
 30
0.0
 40
0.01
 41
0.01
  0
VERTEX
  8
0
 10
4.18701
 20
9.96653
 30
0.0
 40
0.01
 41
0.01
  0
VERTEX
  8
0
 10
4.18701
 20
10.0925
 30
0.0
 40
0.01
 41
0.01
  0
VERTEX
  8
0
 10
4.50196
 20
10.0925
 30
0.0
 40
0.01
 41
0.01
  0
VERTEX
  8
0
 10
4.50196
 20
9.96653
 30
0.0
 40
0.01
 41
0.01
  0
VERTEX
  8
0
 10
4.81694
 20
9.96653
 30
0.0
 40
0.01
 41
0.01
  0
VERTEX
  8
0
 10
4.81694
 20
10.0925
 30
0.0
 40
0.01
 41
0.01
  0
VERTEX
  8
0
 10
5.13189
 20
10.0925
 30
0.0
 40
0.01
 41
0.01
  0
VERTEX
  8
0
 10
5.13189
 20
9.96653
 30
0.0
 40
0.01
 41
0.01
  0
VERTEX
  8
0
 10
5.44683
 20
9.96653
 30
0.0
 40
0.01
 41
0.01
  0
VERTEX
  8
0
 10
5.44683
 20
10.0925
 30
0.0
 40
0.01
 41
0.01
  0
VERTEX
  8
0
 10
5.76183
 20
10.0925
 30
0.0
 40
0.01
 41
0.01
  0
VERTEX
  8
0
 10
5.76183
 20
9.96653
 30
0.0
 40
0.01
 41
0.01
  0
VERTEX
  8
0
 10
6.07676
 20
9.96653
 30
0.0
 40
0.01
 41
0.01
  0
VERTEX
  8
0
 10
6.07676
 20
10.0925
 30
0.0
 40
0.01
 41
0.01
  0
VERTEX
  8
0
 10
6.39171
 20
10.0925
 30
0.0
 40
0.01
 41
0.01
  0
VERTEX
  8
0
 10
6.39171
 20
9.96653
 30
0.0
 40
0.01
 41
0.01
  0
VERTEX
  8
0
 10
6.70671
 20
9.96653
 30
0.0
 40
0.01
 41
0.01
  0
VERTEX
  8
0
 10
6.70671
 20
10.0925
 30
0.0
 40
0.01
 41
0.01
  0
VERTEX
  8
0
 10
7.02165
 20
10.0925
 30
0.0
 40
0.01
 41
0.01
  0
VERTEX
  8
0
 10
7.02165
 20
9.96653
 30
0.0
 40
0.01
 41
0.01
  0
VERTEX
  8
0
 10
7.33658
 20
9.96653
 30
0.0
 40
0.01
 41
0.01
  0
VERTEX
  8
0
 10
7.33658
 20
10.0925
 30
0.0
 40
0.01
 41
0.01
  0
VERTEX
  8
0
 10
7.65158
 20
10.0925
 30
0.0
 40
0.01
 41
0.01
  0
VERTEX
  8
0
 10
7.65158
 20
9.96653
 30
0.0
 40
0.01
 41
0.01
  0
VERTEX
  8
0
 10
7.96653
 20
9.96653
 30
0.0
 40
0.01
 41
0.01
  0
VERTEX
  8
0
 10
7.96653
 20
10.0925
 30
0.0
 40
0.01
 41
0.01
  0
VERTEX
  8
0
 10
8.28153
 20
10.0925
 30
0.0
 40
0.01
 41
0.01
  0
VERTEX
  8
0
 10
8.28153
 20
9.96653
 30
0.0
 40
0.01
 41
0.01
  0
VERTEX
  8
0
 10
8.59646
 20
9.96653
 30
0.0
 40
0.01
 41
0.01
  0
VERTEX
  8
0
 10
8.59646
 20
10.0925
 30
0.0
 40
0.01
 41
0.01
  0
VERTEX
  8
0
 10
8.9114
 20
10.0925
 30
0.0
 40
0.01
 41
0.01
  0
VERTEX
  8
0
 10
8.9114
 20
9.96653
 30
0.0
 40
0.01
 41
0.01
  0
VERTEX
  8
0
 10
9.2264
 20
9.96653
 30
0.0
 40
0.01
 41
0.01
  0
VERTEX
  8
0
 10
9.2264
 20
10.0925
 30
0.0
 40
0.01
 41
0.01
  0
VERTEX
  8
0
 10
9.54135
 20
10.0925
 30
0.0
 40
0.01
 41
0.01
  0
VERTEX
  8
0
 10
9.54135
 20
9.96653
 30
0.0
 40
0.01
 41
0.01
  0
VERTEX
  8
0
 10
9.85628
 20
9.96653
 30
0.0
 40
0.01
 41
0.01
  0
VERTEX
  8
0
 10
9.85628
 20
10.0925
 30
0.0
 40
0.01
 41
0.01
  0
VERTEX
  8
0
 10
10.1713
 20
10.0925
 30
0.0
 40
0.01
 41
0.01
  0
VERTEX
  8
0
 10
10.1713
 20
9.96653
 30
0.0
 40
0.01
 41
0.01
  0
VERTEX
  8
0
 10
10.4862
 20
9.96653
 30
0.0
 40
0.01
 41
0.01
  0
VERTEX
  8
0
 10
10.4862
 20
10.0925
 30
0.0
 40
0.01
 41
0.01
  0
VERTEX
  8
0
 10
10.8012
 20
10.0925
 30
0.0
 40
0.01
 41
0.01
  0
VERTEX
  8
0
 10
10.8012
 20
9.96653
 30
0.0
 40
0.01
 41
0.01
  0
VERTEX
  8
0
 10
11.1162
 20
9.96653
 30
0.0
 40
0.01
 41
0.01
  0
VERTEX
  8
0
 10
11.1162
 20
10.0925
 30
0.0
 40
0.01
 41
0.01
  0
VERTEX
  8
0
 10
11.4311
 20
10.0925
 30
0.0
 40
0.01
 41
0.01
  0
VERTEX
  8
0
 10
11.4311
 20
9.96653
 30
0.0
 40
0.01
 41
0.01
  0
VERTEX
  8
0
 10
11.746
 20
9.96653
 30
0.0
 40
0.01
 41
0.01
  0
VERTEX
  8
0
 10
11.746
 20
10.0925
 30
0.0
 40
0.01
 41
0.01
  0
VERTEX
  8
0
 10
12.061
 20
10.0925
 30
0.0
 40
0.01
 41
0.01
  0
VERTEX
  8
0
 10
12.061
 20
9.96653
 30
0.0
 40
0.01
 41
0.01
  0
VERTEX
  8
0
 10
12.376
 20
9.96653
 30
0.0
 40
0.01
 41
0.01
  0
VERTEX
  8
0
 10
12.376
 20
10.0925
 30
0.0
 40
0.01
 41
0.01
  0
VERTEX
  8
0
 10
12.691
 20
10.0925
 30
0.0
 40
0.01
 41
0.01
  0
VERTEX
  8
0
 10
12.691
 20
9.96653
 30
0.0
 40
0.01
 41
0.01
  0
VERTEX
  8
0
 10
13.0059
 20
9.96653
 30
0.0
 40
0.01
 41
0.01
  0
VERTEX
  8
0
 10
13.0059
 20
10.0925
 30
0.0
 40
0.01
 41
0.01
  0
VERTEX
  8
0
 10
13.3209
 20
10.0925
 30
0.0
 40
0.01
 41
0.01
  0
VERTEX
  8
0
 10
13.3209
 20
9.96653
 30
0.0
 40
0.01
 41
0.01
  0
VERTEX
  8
0
 10
13.6358
 20
9.96653
 30
0.0
 40
0.01
 41
0.01
  0
VERTEX
  8
0
 10
13.6358
 20
10.0925
 30
0.0
 40
0.01
 41
0.01
  0
VERTEX
  8
0
 10
13.9508
 20
10.0925
 30
0.0
 40
0.01
 41
0.01
  0
VERTEX
  8
0
 10
13.9508
 20
9.96653
 30
0.0
 40
0.01
 41
0.01
  0
VERTEX
  8
0
 10
14.2657
 20
9.96653
 30
0.0
 40
0.01
 41
0.01
  0
VERTEX
  8
0
 10
14.2657
 20
10.0925
 30
0.0
 40
0.01
 41
0.01
  0
VERTEX
  8
0
 10
14.5807
 20
10.0925
 30
0.0
 40
0.01
 41
0.01
  0
VERTEX
  8
0
 10
14.5807
 20
9.96653
 30
0.0
 40
0.01
 41
0.01
  0
VERTEX
  8
0
 10
14.8957
 20
9.96653
 30
0.0
 40
0.01
 41
0.01
  0
VERTEX
  8
0
 10
14.8957
 20
10.0925
 30
0.0
 40
0.01
 41
0.01
  0
VERTEX
  8
0
 10
15.2106
 20
10.0925
 30
0.0
 40
0.01
 41
0.01
  0
VERTEX
  8
0
 10
15.2106
 20
9.96653
 30
0.0
 40
0.01
 41
0.01
  0
VERTEX
  8
0
 10
15.3465
 20
9.96653
 30
0.0
 40
0.01
 41
0.01
  0
VERTEX
  8
0
 10
15.3465
 20
9.30117
 30
0.0
 40
0.01
 41
0.01
  0
VERTEX
  8
0
 10
15.2972
 20
9.30117
 30
0.0
 40
0.01
 41
0.01
  0
VERTEX
  8
0
 10
15.2972
 20
9.20275
 30
0.0
 40
0.01
 41
0.01
  0
VERTEX
  8
0
 10
15.3465
 20
9.20275
 30
0.0
 40
0.01
 41
0.01
  0
VERTEX
  8
0
 10
15.3465
 20
9.10433
 30
0.0
 40
0.01
 41
0.01
  0
VERTEX
  8
0
 10
15.4685
 20
9.10433
 30
0.0
 40
0.01
 41
0.01
  0
VERTEX
  8
0
 10
15.4685
 20
9.20275
 30
0.0
 40
0.01
 41
0.01
  0
VERTEX
  8
0
 10
15.5178
 20
9.20275
 30
0.0
 40
0.01
 41
0.01
  0
VERTEX
  8
0
 10
15.5178
 20
9.30117
 30
0.0
 40
0.01
 41
0.01
  0
VERTEX
  8
0
 10
15.4685
 20
9.30117
 30
0.0
 40
0.01
 41
0.01
  0
VERTEX
  8
0
 10
15.4685
 20
9.96653
 30
0.0
 40
0.01
 41
0.01
  0
VERTEX
  8
0
 10
15.6043
 20
9.96653
 30
0.0
 40
0.01
 41
0.01
  0
VERTEX
  8
0
 10
15.6043
 20
10.0925
 30
0.0
 40
0.01
 41
0.01
  0
VERTEX
  8
0
 10
15.8721
 20
10.0925
 30
0.0
 40
0.01
 41
0.01
  0
VERTEX
  8
0
 10
15.8721
 20
9.65944
 30
0.0
 40
0.01
 41
0.01
  0
VERTEX
  8
0
 10
15.9981
 20
9.65944
 30
0.0
 40
0.01
 41
0.01
  0
VERTEX
  8
0
 10
15.9981
 20
9.51574
 30
0.0
 40
0.01
 41
0.01
  0
VERTEX
  8
0
 10
15.8524
 20
9.51574
 30
0.0
 40
0.01
 41
0.01
  0
VERTEX
  8
0
 10
15.8524
 20
9.37007
 30
0.0
 40
0.01
 41
0.01
  0
VERTEX
  8
0
 10
15.9981
 20
9.37007
 30
0.0
 40
0.01
 41
0.01
  0
VERTEX
  8
0
 10
15.9981
 20
9.22635
 30
0.0
 40
0.01
 41
0.01
  0
VERTEX
  8
0
 10
15.8721
 20
9.22635
 30
0.0
 40
0.01
 41
0.01
  0
VERTEX
  8
0
 10
15.8721
 20
8.9114
 30
0.0
 40
0.01
 41
0.01
  0
VERTEX
  8
0
 10
15.9981
 20
8.9114
 30
0.0
 40
0.01
 41
0.01
  0
VERTEX
  8
0
 10
15.9981
 20
8.59646
 30
0.0
 40
0.01
 41
0.01
  0
VERTEX
  8
0
 10
15.8721
 20
8.59646
 30
0.0
 40
0.01
 41
0.01
  0
VERTEX
  8
0
 10
15.8721
 20
8.28147
 30
0.0
 40
0.01
 41
0.01
  0
VERTEX
  8
0
 10
15.9981
 20
8.28147
 30
0.0
 40
0.01
 41
0.01
  0
VERTEX
  8
0
 10
15.9981
 20
7.96653
 30
0.0
 40
0.01
 41
0.01
  0
VERTEX
  8
0
 10
15.8721
 20
7.96653
 30
0.0
 40
0.01
 41
0.01
  0
VERTEX
  8
0
 10
15.8721
 20
7.65158
 30
0.0
 40
0.01
 41
0.01
  0
VERTEX
  8
0
 10
15.9981
 20
7.65158
 30
0.0
 40
0.01
 41
0.01
  0
VERTEX
  8
0
 10
15.9981
 20
7.33658
 30
0.0
 40
0.01
 41
0.01
  0
VERTEX
  8
0
 10
15.8721
 20
7.33658
 30
0.0
 40
0.01
 41
0.01
  0
VERTEX
  8
0
 10
15.8721
 20
7.02165
 30
0.0
 40
0.01
 41
0.01
  0
VERTEX
  8
0
 10
15.9981
 20
7.02165
 30
0.0
 40
0.01
 41
0.01
  0
VERTEX
  8
0
 10
15.9981
 20
6.87793
 30
0.0
 40
0.01
 41
0.01
  0
VERTEX
  8
0
 10
15.8524
 20
6.87793
 30
0.0
 40
0.01
 41
0.01
  0
VERTEX
  8
0
 10
15.8524
 20
6.73226
 30
0.0
 40
0.01
 41
0.01
  0
VERTEX
  8
0
 10
15.9981
 20
6.73226
 30
0.0
 40
0.01
 41
0.01
  0
VERTEX
  8
0
 10
15.9981
 20
6.58854
 30
0.0
 40
0.01
 41
0.01
  0
VERTEX
  8
0
 10
15.8721
 20
6.58854
 30
0.0
 40
0.01
 41
0.01
  0
VERTEX
  8
0
 10
15.8721
 20
6.15549
 30
0.0
 40
0.01
 41
0.01
  0
VERTEX
  8
0
 10
15.6043
 20
6.15549
 30
0.0
 40
0.01
 41
0.01
  0
VERTEX
  8
0
 10
15.6043
 20
6.28147
 30
0.0
 40
0.01
 41
0.01
  0
VERTEX
  8
0
 10
15.4685
 20
6.28147
 30
0.0
 40
0.01
 41
0.01
  0
VERTEX
  8
0
 10
15.4685
 20
6.94683
 30
0.0
 40
0.01
 41
0.01
  0
VERTEX
  8
0
 10
15.5178
 20
6.94683
 30
0.0
 40
0.01
 41
0.01
  0
VERTEX
  8
0
 10
15.5178
 20
7.04525
 30
0.0
 40
0.01
 41
0.01
  0
VERTEX
  8
0
 10
15.4685
 20
7.04525
 30
0.0
 40
0.01
 41
0.01
  0
VERTEX
  8
0
 10
15.4685
 20
7.14367
 30
0.0
 40
0.01
 41
0.01
  0
VERTEX
  8
0
 10
15.3465
 20
7.14367
 30
0.0
 40
0.01
 41
0.01
  0
VERTEX
  8
0
 10
15.3465
 20
7.04525
 30
0.0
 40
0.01
 41
0.01
  0
VERTEX
  8
0
 10
15.2972
 20
7.04525
 30
0.0
 40
0.01
 41
0.01
  0
VERTEX
  8
0
 10
15.2972
 20
6.94683
 30
0.0
 40
0.01
 41
0.01
  0
VERTEX
  8
0
 10
15.3465
 20
6.94683
 30
0.0
 40
0.01
 41
0.01
  0
VERTEX
  8
0
 10
15.3465
 20
6.28147
 30
0.0
 40
0.01
 41
0.01
  0
VERTEX
  8
0
 10
15.2106
 20
6.28147
 30
0.0
 40
0.01
 41
0.01
  0
VERTEX
  8
0
 10
15.2106
 20
6.15549
 30
0.0
 40
0.01
 41
0.01
  0
VERTEX
  8
0
 10
14.8957
 20
6.15549
 30
0.0
 40
0.01
 41
0.01
  0
VERTEX
  8
0
 10
14.8957
 20
6.28147
 30
0.0
 40
0.01
 41
0.01
  0
VERTEX
  8
0
 10
14.5807
 20
6.28147
 30
0.0
 40
0.01
 41
0.01
  0
VERTEX
  8
0
 10
14.5807
 20
6.15549
 30
0.0
 40
0.01
 41
0.01
  0
VERTEX
  8
0
 10
14.2657
 20
6.15549
 30
0.0
 40
0.01
 41
0.01
  0
VERTEX
  8
0
 10
14.2657
 20
6.28147
 30
0.0
 40
0.01
 41
0.01
  0
VERTEX
  8
0
 10
13.9508
 20
6.28147
 30
0.0
 40
0.01
 41
0.01
  0
VERTEX
  8
0
 10
13.9508
 20
6.15549
 30
0.0
 40
0.01
 41
0.01
  0
VERTEX
  8
0
 10
13.6358
 20
6.15549
 30
0.0
 40
0.01
 41
0.01
  0
VERTEX
  8
0
 10
13.6358
 20
6.28147
 30
0.0
 40
0.01
 41
0.01
  0
VERTEX
  8
0
 10
13.3209
 20
6.28147
 30
0.0
 40
0.01
 41
0.01
  0
VERTEX
  8
0
 10
13.3209
 20
6.15549
 30
0.0
 40
0.01
 41
0.01
  0
VERTEX
  8
0
 10
13.0059
 20
6.15549
 30
0.0
 40
0.01
 41
0.01
  0
VERTEX
  8
0
 10
13.0059
 20
6.28147
 30
0.0
 40
0.01
 41
0.01
  0
VERTEX
  8
0
 10
12.691
 20
6.28147
 30
0.0
 40
0.01
 41
0.01
  0
VERTEX
  8
0
 10
12.691
 20
6.15549
 30
0.0
 40
0.01
 41
0.01
  0
VERTEX
  8
0
 10
12.376
 20
6.15549
 30
0.0
 40
0.01
 41
0.01
  0
VERTEX
  8
0
 10
12.376
 20
6.28147
 30
0.0
 40
0.01
 41
0.01
  0
VERTEX
  8
0
 10
12.061
 20
6.28147
 30
0.0
 40
0.01
 41
0.01
  0
VERTEX
  8
0
 10
12.061
 20
6.15549
 30
0.0
 40
0.01
 41
0.01
  0
VERTEX
  8
0
 10
11.746
 20
6.15549
 30
0.0
 40
0.01
 41
0.01
  0
VERTEX
  8
0
 10
11.746
 20
6.28147
 30
0.0
 40
0.01
 41
0.01
  0
VERTEX
  8
0
 10
11.4311
 20
6.28147
 30
0.0
 40
0.01
 41
0.01
  0
VERTEX
  8
0
 10
11.4311
 20
6.15549
 30
0.0
 40
0.01
 41
0.01
  0
VERTEX
  8
0
 10
11.1162
 20
6.15549
 30
0.0
 40
0.01
 41
0.01
  0
VERTEX
  8
0
 10
11.1162
 20
6.28147
 30
0.0
 40
0.01
 41
0.01
  0
VERTEX
  8
0
 10
10.8012
 20
6.28147
 30
0.0
 40
0.01
 41
0.01
  0
VERTEX
  8
0
 10
10.8012
 20
6.15549
 30
0.0
 40
0.01
 41
0.01
  0
VERTEX
  8
0
 10
10.4862
 20
6.15549
 30
0.0
 40
0.01
 41
0.01
  0
VERTEX
  8
0
 10
10.4862
 20
6.28147
 30
0.0
 40
0.01
 41
0.01
  0
VERTEX
  8
0
 10
10.1713
 20
6.28147
 30
0.0
 40
0.01
 41
0.01
  0
VERTEX
  8
0
 10
10.1713
 20
6.15549
 30
0.0
 40
0.01
 41
0.01
  0
VERTEX
  8
0
 10
9.85628
 20
6.15549
 30
0.0
 40
0.01
 41
0.01
  0
VERTEX
  8
0
 10
9.85628
 20
6.28147
 30
0.0
 40
0.01
 41
0.01
  0
VERTEX
  8
0
 10
9.54135
 20
6.28147
 30
0.0
 40
0.01
 41
0.01
  0
VERTEX
  8
0
 10
9.54135
 20
6.15549
 30
0.0
 40
0.01
 41
0.01
  0
VERTEX
  8
0
 10
9.2264
 20
6.15549
 30
0.0
 40
0.01
 41
0.01
  0
VERTEX
  8
0
 10
9.2264
 20
6.28147
 30
0.0
 40
0.01
 41
0.01
  0
VERTEX
  8
0
 10
8.9114
 20
6.28147
 30
0.0
 40
0.01
 41
0.01
  0
VERTEX
  8
0
 10
8.9114
 20
6.15549
 30
0.0
 40
0.01
 41
0.01
  0
VERTEX
  8
0
 10
8.59646
 20
6.15549
 30
0.0
 40
0.01
 41
0.01
  0
VERTEX
  8
0
 10
8.59646
 20
6.28147
 30
0.0
 40
0.01
 41
0.01
  0
VERTEX
  8
0
 10
8.28153
 20
6.28147
 30
0.0
 40
0.01
 41
0.01
  0
VERTEX
  8
0
 10
8.28153
 20
6.15549
 30
0.0
 40
0.01
 41
0.01
  0
VERTEX
  8
0
 10
7.96653
 20
6.15549
 30
0.0
 40
0.01
 41
0.01
  0
VERTEX
  8
0
 10
7.96653
 20
6.28147
 30
0.0
 40
0.01
 41
0.01
  0
VERTEX
  8
0
 10
7.65158
 20
6.28147
 30
0.0
 40
0.01
 41
0.01
  0
VERTEX
  8
0
 10
7.65158
 20
6.15549
 30
0.0
 40
0.01
 41
0.01
  0
VERTEX
  8
0
 10
7.33658
 20
6.15549
 30
0.0
 40
0.01
 41
0.01
  0
VERTEX
  8
0
 10
7.33658
 20
6.28147
 30
0.0
 40
0.01
 41
0.01
  0
VERTEX
  8
0
 10
7.02165
 20
6.28147
 30
0.0
 40
0.01
 41
0.01
  0
VERTEX
  8
0
 10
7.02165
 20
6.15549
 30
0.0
 40
0.01
 41
0.01
  0
VERTEX
  8
0
 10
6.70671
 20
6.15549
 30
0.0
 40
0.01
 41
0.01
  0
VERTEX
  8
0
 10
6.70671
 20
6.28147
 30
0.0
 40
0.01
 41
0.01
  0
VERTEX
  8
0
 10
6.39171
 20
6.28147
 30
0.0
 40
0.01
 41
0.01
  0
VERTEX
  8
0
 10
6.39171
 20
6.15549
 30
0.0
 40
0.01
 41
0.01
  0
VERTEX
  8
0
 10
6.07676
 20
6.15549
 30
0.0
 40
0.01
 41
0.01
  0
VERTEX
  8
0
 10
6.07676
 20
6.28147
 30
0.0
 40
0.01
 41
0.01
  0
VERTEX
  8
0
 10
5.76183
 20
6.28147
 30
0.0
 40
0.01
 41
0.01
  0
VERTEX
  8
0
 10
5.76183
 20
6.15549
 30
0.0
 40
0.01
 41
0.01
  0
VERTEX
  8
0
 10
5.44683
 20
6.15549
 30
0.0
 40
0.01
 41
0.01
  0
VERTEX
  8
0
 10
5.44683
 20
6.28147
 30
0.0
 40
0.01
 41
0.01
  0
VERTEX
  8
0
 10
5.13189
 20
6.28147
 30
0.0
 40
0.01
 41
0.01
  0
VERTEX
  8
0
 10
5.13189
 20
6.15549
 30
0.0
 40
0.01
 41
0.01
  0
VERTEX
  8
0
 10
4.81694
 20
6.15549
 30
0.0
 40
0.01
 41
0.01
  0
VERTEX
  8
0
 10
4.81694
 20
6.28147
 30
0.0
 40
0.01
 41
0.01
  0
VERTEX
  8
0
 10
4.50196
 20
6.28147
 30
0.0
 40
0.01
 41
0.01
  0
VERTEX
  8
0
 10
4.50196
 20
6.15549
 30
0.0
 40
0.01
 41
0.01
  0
VERTEX
  8
0
 10
4.18701
 20
6.15549
 30
0.0
 40
0.01
 41
0.01
  0
VERTEX
  8
0
 10
4.18701
 20
6.28147
 30
0.0
 40
0.01
 41
0.01
  0
VERTEX
  8
0
 10
3.87207
 20
6.28147
 30
0.0
 40
0.01
 41
0.01
  0
VERTEX
  8
0
 10
3.87207
 20
6.15549
 30
0.0
 40
0.01
 41
0.01
  0
VERTEX
  8
0
 10
3.55707
 20
6.15549
 30
0.0
 40
0.01
 41
0.01
  0
VERTEX
  8
0
 10
3.55707
 20
6.28147
 30
0.0
 40
0.01
 41
0.01
  0
VERTEX
  8
0
 10
3.24214
 20
6.28147
 30
0.0
 40
0.01
 41
0.01
  0
VERTEX
  8
0
 10
3.24214
 20
6.15549
 30
0.0
 40
0.01
 41
0.01
  0
VERTEX
  8
0
 10
2.92719
 20
6.15549
 30
0.0
 40
0.01
 41
0.01
  0
VERTEX
  8
0
 10
2.92719
 20
6.28147
 30
0.0
 40
0.01
 41
0.01
  0
VERTEX
  8
0
 10
2.61219
 20
6.28147
 30
0.0
 40
0.01
 41
0.01
  0
VERTEX
  8
0
 10
2.61219
 20
6.15549
 30
0.0
 40
0.01
 41
0.01
  0
VERTEX
  8
0
 10
2.29725
 20
6.15549
 30
0.0
 40
0.01
 41
0.01
  0
VERTEX
  8
0
 10
2.29725
 20
6.28147
 30
0.0
 40
0.01
 41
0.01
  0
VERTEX
  8
0
 10
1.98226
 20
6.28147
 30
0.0
 40
0.01
 41
0.01
  0
VERTEX
  8
0
 10
1.98226
 20
6.15549
 30
0.0
 40
0.01
 41
0.01
  0
VERTEX
  8
0
 10
1.66732
 20
6.15549
 30
0.0
 40
0.01
 41
0.01
  0
VERTEX
  8
0
 10
1.66732
 20
6.28147
 30
0.0
 40
0.01
 41
0.01
  0
VERTEX
  8
0
 10
1.35238
 20
6.28147
 30
0.0
 40
0.01
 41
0.01
  0
VERTEX
  8
0
 10
1.35238
 20
6.15549
 30
0.0
 40
0.01
 41
0.01
  0
VERTEX
  8
0
 10
1.03738
 20
6.15549
 30
0.0
 40
0.01
 41
0.01
  0
VERTEX
  8
0
 10
1.03738
 20
6.28147
 30
0.0
 40
0.01
 41
0.01
  0
VERTEX
  8
0
 10
0.901585
 20
6.28147
 30
0.0
 40
0.01
 41
0.01
  0
VERTEX
  8
0
 10
0.901585
 20
6.94683
 30
0.0
 40
0.01
 41
0.01
  0
VERTEX
  8
0
 10
0.950792
 20
6.94683
 30
0.0
 40
0.01
 41
0.01
  0
VERTEX
  8
0
 10
0.950792
 20
7.04525
 30
0.0
 40
0.01
 41
0.01
  0
VERTEX
  8
0
 10
0.901585
 20
7.04525
 30
0.0
 40
0.01
 41
0.01
  0
VERTEX
  8
0
 10
0.901585
 20
7.14367
 30
0.0
 40
0.01
 41
0.01
  0
VERTEX
  8
0
 10
0.779514
 20
7.14367
 30
0.0
 40
0.01
 41
0.01
  0
VERTEX
  8
0
 10
0.779514
 20
7.04525
 30
0.0
 40
0.01
 41
0.01
  0
VERTEX
  8
0
 10
0.730306
 20
7.04525
 30
0.0
 40
0.01
 41
0.01
  0
VERTEX
  8
0
 10
0.730306
 20
6.94683
 30
0.0
 40
0.01
 41
0.01
  0
VERTEX
  8
0
 10
0.779514
 20
6.94683
 30
0.0
 40
0.01
 41
0.01
  0
VERTEX
  8
0
 10
0.779514
 20
6.28147
 30
0.0
 40
0.01
 41
0.01
  0
VERTEX
  8
0
 10
0.643718
 20
6.28147
 30
0.0
 40
0.01
 41
0.01
  0
VERTEX
  8
0
 10
0.643718
 20
6.15549
 30
0.0
 40
0.01
 41
0.01
  0
VERTEX
  8
0
 10
0.375976
 20
6.15549
 30
0.0
 40
0.01
 41
0.01
  0
VERTEX
  8
0
 10
0.375976
 20
6.58854
 30
0.0
 40
0.01
 41
0.01
  0
VERTEX
  8
0
 10
0.25
 20
6.58854
 30
0.0
 40
0.01
 41
0.01
  0
VERTEX
  8
0
 10
0.25
 20
6.73226
 30
0.0
 40
0.01
 41
0.01
  0
VERTEX
  8
0
 10
0.395671
 20
6.73226
 30
0.0
 40
0.01
 41
0.01
  0
VERTEX
  8
0
 10
0.395671
 20
6.87793
 30
0.0
 40
0.01
 41
0.01
  0
VERTEX
  8
0
 10
0.25
 20
6.87793
 30
0.0
 40
0.01
 41
0.01
  0
VERTEX
  8
0
 10
0.25
 20
7.02165
 30
0.0
 40
0.01
 41
0.01
  0
VERTEX
  8
0
 10
0.375976
 20
7.02165
 30
0.0
 40
0.01
 41
0.01
  0
VERTEX
  8
0
 10
0.375976
 20
7.33658
 30
0.0
 40
0.01
 41
0.01
  0
VERTEX
  8
0
 10
0.25
 20
7.33658
 30
0.0
 40
0.01
 41
0.01
  0
VERTEX
  8
0
 10
0.25
 20
7.65158
 30
0.0
 40
0.01
 41
0.01
  0
VERTEX
  8
0
 10
0.375976
 20
7.65158
 30
0.0
 40
0.01
 41
0.01
  0
VERTEX
  8
0
 10
0.375976
 20
7.96653
 30
0.0
 40
0.01
 41
0.01
  0
VERTEX
  8
0
 10
0.25
 20
7.96653
 30
0.0
 40
0.01
 41
0.01
  0
VERTEX
  8
0
 10
0.25
 20
8.28147
 30
0.0
 40
0.01
 41
0.01
  0
VERTEX
  8
0
 10
0.375976
 20
8.28147
 30
0.0
 40
0.01
 41
0.01
  0
VERTEX
  8
0
 10
0.375976
 20
8.59646
 30
0.0
 40
0.01
 41
0.01
  0
VERTEX
  8
0
 10
0.25
 20
8.59646
 30
0.0
 40
0.01
 41
0.01
  0
VERTEX
  8
0
 10
0.25
 20
8.9114
 30
0.0
 40
0.01
 41
0.01
  0
VERTEX
  8
0
 10
0.375976
 20
8.9114
 30
0.0
 40
0.01
 41
0.01
  0
VERTEX
  8
0
 10
0.375976
 20
9.22635
 30
0.0
 40
0.01
 41
0.01
  0
VERTEX
  8
0
 10
0.25
 20
9.22635
 30
0.0
 40
0.01
 41
0.01
  0
VERTEX
  8
0
 10
0.25
 20
9.37007
 30
0.0
 40
0.01
 41
0.01
  0
VERTEX
  8
0
 10
0.395671
 20
9.37007
 30
0.0
 40
0.01
 41
0.01
  0
VERTEX
  8
0
 10
0.395671
 20
9.51574
 30
0.0
 40
0.01
 41
0.01
  0
VERTEX
  8
0
 10
0.25
 20
9.51574
 30
0.0
 40
0.01
 41
0.01
  0
VERTEX
  8
0
 10
0.25
 20
9.65944
 30
0.0
 40
0.01
 41
0.01
  0
VERTEX
  8
0
 10
0.375976
 20
9.65944
 30
0.0
 40
0.01
 41
0.01
  0
VERTEX
  8
0
 10
0.375976
 20
10.0925
 30
0.0
 40
0.01
 41
0.01
  0
SEQEND
 8
0
  0
POLYLINE
  8
0
 62
     0
 66
     1
 10
0
 20
0
 30
0.0
 70
     1
 40
0.72
 41
0.72
  0
VERTEX
  8
0
 10
16.124
 20
10.0925
 30
0.0
 40
0.01
 41
0.01
  0
VERTEX
  8
0
 10
16.3917
 20
10.0925
 30
0.0
 40
0.01
 41
0.01
  0
VERTEX
  8
0
 10
16.3917
 20
9.96653
 30
0.0
 40
0.01
 41
0.01
  0
VERTEX
  8
0
 10
16.5275
 20
9.96653
 30
0.0
 40
0.01
 41
0.01
  0
VERTEX
  8
0
 10
16.5275
 20
9.30117
 30
0.0
 40
0.01
 41
0.01
  0
VERTEX
  8
0
 10
16.4783
 20
9.30117
 30
0.0
 40
0.01
 41
0.01
  0
VERTEX
  8
0
 10
16.4783
 20
9.20275
 30
0.0
 40
0.01
 41
0.01
  0
VERTEX
  8
0
 10
16.5275
 20
9.20275
 30
0.0
 40
0.01
 41
0.01
  0
VERTEX
  8
0
 10
16.5275
 20
9.10433
 30
0.0
 40
0.01
 41
0.01
  0
VERTEX
  8
0
 10
16.6496
 20
9.10433
 30
0.0
 40
0.01
 41
0.01
  0
VERTEX
  8
0
 10
16.6496
 20
9.20275
 30
0.0
 40
0.01
 41
0.01
  0
VERTEX
  8
0
 10
16.6989
 20
9.20275
 30
0.0
 40
0.01
 41
0.01
  0
VERTEX
  8
0
 10
16.6989
 20
9.30117
 30
0.0
 40
0.01
 41
0.01
  0
VERTEX
  8
0
 10
16.6496
 20
9.30117
 30
0.0
 40
0.01
 41
0.01
  0
VERTEX
  8
0
 10
16.6496
 20
9.96653
 30
0.0
 40
0.01
 41
0.01
  0
VERTEX
  8
0
 10
16.7854
 20
9.96653
 30
0.0
 40
0.01
 41
0.01
  0
VERTEX
  8
0
 10
16.7854
 20
10.0925
 30
0.0
 40
0.01
 41
0.01
  0
VERTEX
  8
0
 10
17.1004
 20
10.0925
 30
0.0
 40
0.01
 41
0.01
  0
VERTEX
  8
0
 10
17.1004
 20
9.96653
 30
0.0
 40
0.01
 41
0.01
  0
VERTEX
  8
0
 10
17.4154
 20
9.96653
 30
0.0
 40
0.01
 41
0.01
  0
VERTEX
  8
0
 10
17.4154
 20
10.0925
 30
0.0
 40
0.01
 41
0.01
  0
VERTEX
  8
0
 10
17.7303
 20
10.0925
 30
0.0
 40
0.01
 41
0.01
  0
VERTEX
  8
0
 10
17.7303
 20
9.96653
 30
0.0
 40
0.01
 41
0.01
  0
VERTEX
  8
0
 10
18.0453
 20
9.96653
 30
0.0
 40
0.01
 41
0.01
  0
VERTEX
  8
0
 10
18.0453
 20
10.0925
 30
0.0
 40
0.01
 41
0.01
  0
VERTEX
  8
0
 10
18.3603
 20
10.0925
 30
0.0
 40
0.01
 41
0.01
  0
VERTEX
  8
0
 10
18.3603
 20
9.96653
 30
0.0
 40
0.01
 41
0.01
  0
VERTEX
  8
0
 10
18.6751
 20
9.96653
 30
0.0
 40
0.01
 41
0.01
  0
VERTEX
  8
0
 10
18.6751
 20
10.0925
 30
0.0
 40
0.01
 41
0.01
  0
VERTEX
  8
0
 10
18.9901
 20
10.0925
 30
0.0
 40
0.01
 41
0.01
  0
VERTEX
  8
0
 10
18.9901
 20
9.96653
 30
0.0
 40
0.01
 41
0.01
  0
VERTEX
  8
0
 10
19.3051
 20
9.96653
 30
0.0
 40
0.01
 41
0.01
  0
VERTEX
  8
0
 10
19.3051
 20
10.0925
 30
0.0
 40
0.01
 41
0.01
  0
VERTEX
  8
0
 10
19.62
 20
10.0925
 30
0.0
 40
0.01
 41
0.01
  0
VERTEX
  8
0
 10
19.62
 20
9.96653
 30
0.0
 40
0.01
 41
0.01
  0
VERTEX
  8
0
 10
19.935
 20
9.96653
 30
0.0
 40
0.01
 41
0.01
  0
VERTEX
  8
0
 10
19.935
 20
10.0925
 30
0.0
 40
0.01
 41
0.01
  0
VERTEX
  8
0
 10
20.25
 20
10.0925
 30
0.0
 40
0.01
 41
0.01
  0
VERTEX
  8
0
 10
20.25
 20
9.96653
 30
0.0
 40
0.01
 41
0.01
  0
VERTEX
  8
0
 10
20.565
 20
9.96653
 30
0.0
 40
0.01
 41
0.01
  0
VERTEX
  8
0
 10
20.565
 20
10.0925
 30
0.0
 40
0.01
 41
0.01
  0
VERTEX
  8
0
 10
20.88
 20
10.0925
 30
0.0
 40
0.01
 41
0.01
  0
VERTEX
  8
0
 10
20.88
 20
9.96653
 30
0.0
 40
0.01
 41
0.01
  0
VERTEX
  8
0
 10
21.1949
 20
9.96653
 30
0.0
 40
0.01
 41
0.01
  0
VERTEX
  8
0
 10
21.1949
 20
10.0925
 30
0.0
 40
0.01
 41
0.01
  0
VERTEX
  8
0
 10
21.5099
 20
10.0925
 30
0.0
 40
0.01
 41
0.01
  0
VERTEX
  8
0
 10
21.5099
 20
9.96653
 30
0.0
 40
0.01
 41
0.01
  0
VERTEX
  8
0
 10
21.8249
 20
9.96653
 30
0.0
 40
0.01
 41
0.01
  0
VERTEX
  8
0
 10
21.8249
 20
10.0925
 30
0.0
 40
0.01
 41
0.01
  0
VERTEX
  8
0
 10
22.1397
 20
10.0925
 30
0.0
 40
0.01
 41
0.01
  0
VERTEX
  8
0
 10
22.1397
 20
9.96653
 30
0.0
 40
0.01
 41
0.01
  0
VERTEX
  8
0
 10
22.4547
 20
9.96653
 30
0.0
 40
0.01
 41
0.01
  0
VERTEX
  8
0
 10
22.4547
 20
10.0925
 30
0.0
 40
0.01
 41
0.01
  0
VERTEX
  8
0
 10
22.7697
 20
10.0925
 30
0.0
 40
0.01
 41
0.01
  0
VERTEX
  8
0
 10
22.7697
 20
9.96653
 30
0.0
 40
0.01
 41
0.01
  0
VERTEX
  8
0
 10
23.0846
 20
9.96653
 30
0.0
 40
0.01
 41
0.01
  0
VERTEX
  8
0
 10
23.0846
 20
10.0925
 30
0.0
 40
0.01
 41
0.01
  0
VERTEX
  8
0
 10
23.3996
 20
10.0925
 30
0.0
 40
0.01
 41
0.01
  0
VERTEX
  8
0
 10
23.3996
 20
9.96653
 30
0.0
 40
0.01
 41
0.01
  0
VERTEX
  8
0
 10
23.7146
 20
9.96653
 30
0.0
 40
0.01
 41
0.01
  0
VERTEX
  8
0
 10
23.7146
 20
10.0925
 30
0.0
 40
0.01
 41
0.01
  0
VERTEX
  8
0
 10
24.0296
 20
10.0925
 30
0.0
 40
0.01
 41
0.01
  0
VERTEX
  8
0
 10
24.0296
 20
9.96653
 30
0.0
 40
0.01
 41
0.01
  0
VERTEX
  8
0
 10
24.3444
 20
9.96653
 30
0.0
 40
0.01
 41
0.01
  0
VERTEX
  8
0
 10
24.3444
 20
10.0925
 30
0.0
 40
0.01
 41
0.01
  0
VERTEX
  8
0
 10
24.6594
 20
10.0925
 30
0.0
 40
0.01
 41
0.01
  0
VERTEX
  8
0
 10
24.6594
 20
9.96653
 30
0.0
 40
0.01
 41
0.01
  0
VERTEX
  8
0
 10
24.9744
 20
9.96653
 30
0.0
 40
0.01
 41
0.01
  0
VERTEX
  8
0
 10
24.9744
 20
10.0925
 30
0.0
 40
0.01
 41
0.01
  0
VERTEX
  8
0
 10
25.2894
 20
10.0925
 30
0.0
 40
0.01
 41
0.01
  0
VERTEX
  8
0
 10
25.2894
 20
9.96653
 30
0.0
 40
0.01
 41
0.01
  0
VERTEX
  8
0
 10
25.6043
 20
9.96653
 30
0.0
 40
0.01
 41
0.01
  0
VERTEX
  8
0
 10
25.6043
 20
10.0925
 30
0.0
 40
0.01
 41
0.01
  0
VERTEX
  8
0
 10
25.9193
 20
10.0925
 30
0.0
 40
0.01
 41
0.01
  0
VERTEX
  8
0
 10
25.9193
 20
9.96653
 30
0.0
 40
0.01
 41
0.01
  0
VERTEX
  8
0
 10
26.2343
 20
9.96653
 30
0.0
 40
0.01
 41
0.01
  0
VERTEX
  8
0
 10
26.2343
 20
10.0925
 30
0.0
 40
0.01
 41
0.01
  0
VERTEX
  8
0
 10
26.5492
 20
10.0925
 30
0.0
 40
0.01
 41
0.01
  0
VERTEX
  8
0
 10
26.5492
 20
9.96653
 30
0.0
 40
0.01
 41
0.01
  0
VERTEX
  8
0
 10
26.8642
 20
9.96653
 30
0.0
 40
0.01
 41
0.01
  0
VERTEX
  8
0
 10
26.8642
 20
10.0925
 30
0.0
 40
0.01
 41
0.01
  0
VERTEX
  8
0
 10
27.1792
 20
10.0925
 30
0.0
 40
0.01
 41
0.01
  0
VERTEX
  8
0
 10
27.1792
 20
9.96653
 30
0.0
 40
0.01
 41
0.01
  0
VERTEX
  8
0
 10
27.494
 20
9.96653
 30
0.0
 40
0.01
 41
0.01
  0
VERTEX
  8
0
 10
27.494
 20
10.0925
 30
0.0
 40
0.01
 41
0.01
  0
VERTEX
  8
0
 10
27.809
 20
10.0925
 30
0.0
 40
0.01
 41
0.01
  0
VERTEX
  8
0
 10
27.809
 20
9.96653
 30
0.0
 40
0.01
 41
0.01
  0
VERTEX
  8
0
 10
28.124
 20
9.96653
 30
0.0
 40
0.01
 41
0.01
  0
VERTEX
  8
0
 10
28.124
 20
10.0925
 30
0.0
 40
0.01
 41
0.01
  0
VERTEX
  8
0
 10
28.439
 20
10.0925
 30
0.0
 40
0.01
 41
0.01
  0
VERTEX
  8
0
 10
28.439
 20
9.96653
 30
0.0
 40
0.01
 41
0.01
  0
VERTEX
  8
0
 10
28.754
 20
9.96653
 30
0.0
 40
0.01
 41
0.01
  0
VERTEX
  8
0
 10
28.754
 20
10.0925
 30
0.0
 40
0.01
 41
0.01
  0
VERTEX
  8
0
 10
29.0689
 20
10.0925
 30
0.0
 40
0.01
 41
0.01
  0
VERTEX
  8
0
 10
29.0689
 20
9.96653
 30
0.0
 40
0.01
 41
0.01
  0
VERTEX
  8
0
 10
29.3839
 20
9.96653
 30
0.0
 40
0.01
 41
0.01
  0
VERTEX
  8
0
 10
29.3839
 20
10.0925
 30
0.0
 40
0.01
 41
0.01
  0
VERTEX
  8
0
 10
29.6989
 20
10.0925
 30
0.0
 40
0.01
 41
0.01
  0
VERTEX
  8
0
 10
29.6989
 20
9.96653
 30
0.0
 40
0.01
 41
0.01
  0
VERTEX
  8
0
 10
30.0138
 20
9.96653
 30
0.0
 40
0.01
 41
0.01
  0
VERTEX
  8
0
 10
30.0138
 20
10.0925
 30
0.0
 40
0.01
 41
0.01
  0
VERTEX
  8
0
 10
30.3287
 20
10.0925
 30
0.0
 40
0.01
 41
0.01
  0
VERTEX
  8
0
 10
30.3287
 20
9.96653
 30
0.0
 40
0.01
 41
0.01
  0
VERTEX
  8
0
 10
30.6438
 20
9.96653
 30
0.0
 40
0.01
 41
0.01
  0
VERTEX
  8
0
 10
30.6438
 20
10.0925
 30
0.0
 40
0.01
 41
0.01
  0
VERTEX
  8
0
 10
30.9586
 20
10.0925
 30
0.0
 40
0.01
 41
0.01
  0
VERTEX
  8
0
 10
30.9586
 20
9.96653
 30
0.0
 40
0.01
 41
0.01
  0
VERTEX
  8
0
 10
31.0944
 20
9.96653
 30
0.0
 40
0.01
 41
0.01
  0
VERTEX
  8
0
 10
31.0944
 20
9.30117
 30
0.0
 40
0.01
 41
0.01
  0
VERTEX
  8
0
 10
31.0453
 20
9.30117
 30
0.0
 40
0.01
 41
0.01
  0
VERTEX
  8
0
 10
31.0453
 20
9.20275
 30
0.0
 40
0.01
 41
0.01
  0
VERTEX
  8
0
 10
31.0944
 20
9.20275
 30
0.0
 40
0.01
 41
0.01
  0
VERTEX
  8
0
 10
31.0944
 20
9.10433
 30
0.0
 40
0.01
 41
0.01
  0
VERTEX
  8
0
 10
31.2165
 20
9.10433
 30
0.0
 40
0.01
 41
0.01
  0
VERTEX
  8
0
 10
31.2165
 20
9.20275
 30
0.0
 40
0.01
 41
0.01
  0
VERTEX
  8
0
 10
31.2657
 20
9.20275
 30
0.0
 40
0.01
 41
0.01
  0
VERTEX
  8
0
 10
31.2657
 20
9.30117
 30
0.0
 40
0.01
 41
0.01
  0
VERTEX
  8
0
 10
31.2165
 20
9.30117
 30
0.0
 40
0.01
 41
0.01
  0
VERTEX
  8
0
 10
31.2165
 20
9.96653
 30
0.0
 40
0.01
 41
0.01
  0
VERTEX
  8
0
 10
31.3524
 20
9.96653
 30
0.0
 40
0.01
 41
0.01
  0
VERTEX
  8
0
 10
31.3524
 20
10.0925
 30
0.0
 40
0.01
 41
0.01
  0
VERTEX
  8
0
 10
31.62
 20
10.0925
 30
0.0
 40
0.01
 41
0.01
  0
VERTEX
  8
0
 10
31.62
 20
9.65944
 30
0.0
 40
0.01
 41
0.01
  0
VERTEX
  8
0
 10
31.746
 20
9.65944
 30
0.0
 40
0.01
 41
0.01
  0
VERTEX
  8
0
 10
31.746
 20
9.51574
 30
0.0
 40
0.01
 41
0.01
  0
VERTEX
  8
0
 10
31.6004
 20
9.51574
 30
0.0
 40
0.01
 41
0.01
  0
VERTEX
  8
0
 10
31.6004
 20
9.37007
 30
0.0
 40
0.01
 41
0.01
  0
VERTEX
  8
0
 10
31.746
 20
9.37007
 30
0.0
 40
0.01
 41
0.01
  0
VERTEX
  8
0
 10
31.746
 20
9.22635
 30
0.0
 40
0.01
 41
0.01
  0
VERTEX
  8
0
 10
31.62
 20
9.22635
 30
0.0
 40
0.01
 41
0.01
  0
VERTEX
  8
0
 10
31.62
 20
8.9114
 30
0.0
 40
0.01
 41
0.01
  0
VERTEX
  8
0
 10
31.746
 20
8.9114
 30
0.0
 40
0.01
 41
0.01
  0
VERTEX
  8
0
 10
31.746
 20
8.59646
 30
0.0
 40
0.01
 41
0.01
  0
VERTEX
  8
0
 10
31.62
 20
8.59646
 30
0.0
 40
0.01
 41
0.01
  0
VERTEX
  8
0
 10
31.62
 20
8.28147
 30
0.0
 40
0.01
 41
0.01
  0
VERTEX
  8
0
 10
31.746
 20
8.28147
 30
0.0
 40
0.01
 41
0.01
  0
VERTEX
  8
0
 10
31.746
 20
7.96653
 30
0.0
 40
0.01
 41
0.01
  0
VERTEX
  8
0
 10
31.62
 20
7.96653
 30
0.0
 40
0.01
 41
0.01
  0
VERTEX
  8
0
 10
31.62
 20
7.65158
 30
0.0
 40
0.01
 41
0.01
  0
VERTEX
  8
0
 10
31.746
 20
7.65158
 30
0.0
 40
0.01
 41
0.01
  0
VERTEX
  8
0
 10
31.746
 20
7.33658
 30
0.0
 40
0.01
 41
0.01
  0
VERTEX
  8
0
 10
31.62
 20
7.33658
 30
0.0
 40
0.01
 41
0.01
  0
VERTEX
  8
0
 10
31.62
 20
7.02165
 30
0.0
 40
0.01
 41
0.01
  0
VERTEX
  8
0
 10
31.746
 20
7.02165
 30
0.0
 40
0.01
 41
0.01
  0
VERTEX
  8
0
 10
31.746
 20
6.87793
 30
0.0
 40
0.01
 41
0.01
  0
VERTEX
  8
0
 10
31.6004
 20
6.87793
 30
0.0
 40
0.01
 41
0.01
  0
VERTEX
  8
0
 10
31.6004
 20
6.73226
 30
0.0
 40
0.01
 41
0.01
  0
VERTEX
  8
0
 10
31.746
 20
6.73226
 30
0.0
 40
0.01
 41
0.01
  0
VERTEX
  8
0
 10
31.746
 20
6.58854
 30
0.0
 40
0.01
 41
0.01
  0
VERTEX
  8
0
 10
31.62
 20
6.58854
 30
0.0
 40
0.01
 41
0.01
  0
VERTEX
  8
0
 10
31.62
 20
6.15549
 30
0.0
 40
0.01
 41
0.01
  0
VERTEX
  8
0
 10
31.3524
 20
6.15549
 30
0.0
 40
0.01
 41
0.01
  0
VERTEX
  8
0
 10
31.3524
 20
6.28147
 30
0.0
 40
0.01
 41
0.01
  0
VERTEX
  8
0
 10
31.2165
 20
6.28147
 30
0.0
 40
0.01
 41
0.01
  0
VERTEX
  8
0
 10
31.2165
 20
6.94683
 30
0.0
 40
0.01
 41
0.01
  0
VERTEX
  8
0
 10
31.2657
 20
6.94683
 30
0.0
 40
0.01
 41
0.01
  0
VERTEX
  8
0
 10
31.2657
 20
7.04525
 30
0.0
 40
0.01
 41
0.01
  0
VERTEX
  8
0
 10
31.2165
 20
7.04525
 30
0.0
 40
0.01
 41
0.01
  0
VERTEX
  8
0
 10
31.2165
 20
7.14367
 30
0.0
 40
0.01
 41
0.01
  0
VERTEX
  8
0
 10
31.0944
 20
7.14367
 30
0.0
 40
0.01
 41
0.01
  0
VERTEX
  8
0
 10
31.0944
 20
7.04525
 30
0.0
 40
0.01
 41
0.01
  0
VERTEX
  8
0
 10
31.0453
 20
7.04525
 30
0.0
 40
0.01
 41
0.01
  0
VERTEX
  8
0
 10
31.0453
 20
6.94683
 30
0.0
 40
0.01
 41
0.01
  0
VERTEX
  8
0
 10
31.0944
 20
6.94683
 30
0.0
 40
0.01
 41
0.01
  0
VERTEX
  8
0
 10
31.0944
 20
6.28147
 30
0.0
 40
0.01
 41
0.01
  0
VERTEX
  8
0
 10
30.9586
 20
6.28147
 30
0.0
 40
0.01
 41
0.01
  0
VERTEX
  8
0
 10
30.9586
 20
6.15549
 30
0.0
 40
0.01
 41
0.01
  0
VERTEX
  8
0
 10
30.6438
 20
6.15549
 30
0.0
 40
0.01
 41
0.01
  0
VERTEX
  8
0
 10
30.6438
 20
6.28147
 30
0.0
 40
0.01
 41
0.01
  0
VERTEX
  8
0
 10
30.3287
 20
6.28147
 30
0.0
 40
0.01
 41
0.01
  0
VERTEX
  8
0
 10
30.3287
 20
6.15549
 30
0.0
 40
0.01
 41
0.01
  0
VERTEX
  8
0
 10
30.0138
 20
6.15549
 30
0.0
 40
0.01
 41
0.01
  0
VERTEX
  8
0
 10
30.0138
 20
6.28147
 30
0.0
 40
0.01
 41
0.01
  0
VERTEX
  8
0
 10
29.6989
 20
6.28147
 30
0.0
 40
0.01
 41
0.01
  0
VERTEX
  8
0
 10
29.6989
 20
6.15549
 30
0.0
 40
0.01
 41
0.01
  0
VERTEX
  8
0
 10
29.3839
 20
6.15549
 30
0.0
 40
0.01
 41
0.01
  0
VERTEX
  8
0
 10
29.3839
 20
6.28147
 30
0.0
 40
0.01
 41
0.01
  0
VERTEX
  8
0
 10
29.0689
 20
6.28147
 30
0.0
 40
0.01
 41
0.01
  0
VERTEX
  8
0
 10
29.0689
 20
6.15549
 30
0.0
 40
0.01
 41
0.01
  0
VERTEX
  8
0
 10
28.754
 20
6.15549
 30
0.0
 40
0.01
 41
0.01
  0
VERTEX
  8
0
 10
28.754
 20
6.28147
 30
0.0
 40
0.01
 41
0.01
  0
VERTEX
  8
0
 10
28.439
 20
6.28147
 30
0.0
 40
0.01
 41
0.01
  0
VERTEX
  8
0
 10
28.439
 20
6.15549
 30
0.0
 40
0.01
 41
0.01
  0
VERTEX
  8
0
 10
28.124
 20
6.15549
 30
0.0
 40
0.01
 41
0.01
  0
VERTEX
  8
0
 10
28.124
 20
6.28147
 30
0.0
 40
0.01
 41
0.01
  0
VERTEX
  8
0
 10
27.809
 20
6.28147
 30
0.0
 40
0.01
 41
0.01
  0
VERTEX
  8
0
 10
27.809
 20
6.15549
 30
0.0
 40
0.01
 41
0.01
  0
VERTEX
  8
0
 10
27.494
 20
6.15549
 30
0.0
 40
0.01
 41
0.01
  0
VERTEX
  8
0
 10
27.494
 20
6.28147
 30
0.0
 40
0.01
 41
0.01
  0
VERTEX
  8
0
 10
27.1792
 20
6.28147
 30
0.0
 40
0.01
 41
0.01
  0
VERTEX
  8
0
 10
27.1792
 20
6.15549
 30
0.0
 40
0.01
 41
0.01
  0
VERTEX
  8
0
 10
26.8642
 20
6.15549
 30
0.0
 40
0.01
 41
0.01
  0
VERTEX
  8
0
 10
26.8642
 20
6.28147
 30
0.0
 40
0.01
 41
0.01
  0
VERTEX
  8
0
 10
26.5492
 20
6.28147
 30
0.0
 40
0.01
 41
0.01
  0
VERTEX
  8
0
 10
26.5492
 20
6.15549
 30
0.0
 40
0.01
 41
0.01
  0
VERTEX
  8
0
 10
26.2343
 20
6.15549
 30
0.0
 40
0.01
 41
0.01
  0
VERTEX
  8
0
 10
26.2343
 20
6.28147
 30
0.0
 40
0.01
 41
0.01
  0
VERTEX
  8
0
 10
25.9193
 20
6.28147
 30
0.0
 40
0.01
 41
0.01
  0
VERTEX
  8
0
 10
25.9193
 20
6.15549
 30
0.0
 40
0.01
 41
0.01
  0
VERTEX
  8
0
 10
25.6043
 20
6.15549
 30
0.0
 40
0.01
 41
0.01
  0
VERTEX
  8
0
 10
25.6043
 20
6.28147
 30
0.0
 40
0.01
 41
0.01
  0
VERTEX
  8
0
 10
25.2894
 20
6.28147
 30
0.0
 40
0.01
 41
0.01
  0
VERTEX
  8
0
 10
25.2894
 20
6.15549
 30
0.0
 40
0.01
 41
0.01
  0
VERTEX
  8
0
 10
24.9744
 20
6.15549
 30
0.0
 40
0.01
 41
0.01
  0
VERTEX
  8
0
 10
24.9744
 20
6.28147
 30
0.0
 40
0.01
 41
0.01
  0
VERTEX
  8
0
 10
24.6594
 20
6.28147
 30
0.0
 40
0.01
 41
0.01
  0
VERTEX
  8
0
 10
24.6594
 20
6.15549
 30
0.0
 40
0.01
 41
0.01
  0
VERTEX
  8
0
 10
24.3444
 20
6.15549
 30
0.0
 40
0.01
 41
0.01
  0
VERTEX
  8
0
 10
24.3444
 20
6.28147
 30
0.0
 40
0.01
 41
0.01
  0
VERTEX
  8
0
 10
24.0296
 20
6.28147
 30
0.0
 40
0.01
 41
0.01
  0
VERTEX
  8
0
 10
24.0296
 20
6.15549
 30
0.0
 40
0.01
 41
0.01
  0
VERTEX
  8
0
 10
23.7146
 20
6.15549
 30
0.0
 40
0.01
 41
0.01
  0
VERTEX
  8
0
 10
23.7146
 20
6.28147
 30
0.0
 40
0.01
 41
0.01
  0
VERTEX
  8
0
 10
23.3996
 20
6.28147
 30
0.0
 40
0.01
 41
0.01
  0
VERTEX
  8
0
 10
23.3996
 20
6.15549
 30
0.0
 40
0.01
 41
0.01
  0
VERTEX
  8
0
 10
23.0846
 20
6.15549
 30
0.0
 40
0.01
 41
0.01
  0
VERTEX
  8
0
 10
23.0846
 20
6.28147
 30
0.0
 40
0.01
 41
0.01
  0
VERTEX
  8
0
 10
22.7697
 20
6.28147
 30
0.0
 40
0.01
 41
0.01
  0
VERTEX
  8
0
 10
22.7697
 20
6.15549
 30
0.0
 40
0.01
 41
0.01
  0
VERTEX
  8
0
 10
22.4547
 20
6.15549
 30
0.0
 40
0.01
 41
0.01
  0
VERTEX
  8
0
 10
22.4547
 20
6.28147
 30
0.0
 40
0.01
 41
0.01
  0
VERTEX
  8
0
 10
22.1397
 20
6.28147
 30
0.0
 40
0.01
 41
0.01
  0
VERTEX
  8
0
 10
22.1397
 20
6.15549
 30
0.0
 40
0.01
 41
0.01
  0
VERTEX
  8
0
 10
21.8249
 20
6.15549
 30
0.0
 40
0.01
 41
0.01
  0
VERTEX
  8
0
 10
21.8249
 20
6.28147
 30
0.0
 40
0.01
 41
0.01
  0
VERTEX
  8
0
 10
21.5099
 20
6.28147
 30
0.0
 40
0.01
 41
0.01
  0
VERTEX
  8
0
 10
21.5099
 20
6.15549
 30
0.0
 40
0.01
 41
0.01
  0
VERTEX
  8
0
 10
21.1949
 20
6.15549
 30
0.0
 40
0.01
 41
0.01
  0
VERTEX
  8
0
 10
21.1949
 20
6.28147
 30
0.0
 40
0.01
 41
0.01
  0
VERTEX
  8
0
 10
20.88
 20
6.28147
 30
0.0
 40
0.01
 41
0.01
  0
VERTEX
  8
0
 10
20.88
 20
6.15549
 30
0.0
 40
0.01
 41
0.01
  0
VERTEX
  8
0
 10
20.565
 20
6.15549
 30
0.0
 40
0.01
 41
0.01
  0
VERTEX
  8
0
 10
20.565
 20
6.28147
 30
0.0
 40
0.01
 41
0.01
  0
VERTEX
  8
0
 10
20.25
 20
6.28147
 30
0.0
 40
0.01
 41
0.01
  0
VERTEX
  8
0
 10
20.25
 20
6.15549
 30
0.0
 40
0.01
 41
0.01
  0
VERTEX
  8
0
 10
19.935
 20
6.15549
 30
0.0
 40
0.01
 41
0.01
  0
VERTEX
  8
0
 10
19.935
 20
6.28147
 30
0.0
 40
0.01
 41
0.01
  0
VERTEX
  8
0
 10
19.62
 20
6.28147
 30
0.0
 40
0.01
 41
0.01
  0
VERTEX
  8
0
 10
19.62
 20
6.15549
 30
0.0
 40
0.01
 41
0.01
  0
VERTEX
  8
0
 10
19.3051
 20
6.15549
 30
0.0
 40
0.01
 41
0.01
  0
VERTEX
  8
0
 10
19.3051
 20
6.28147
 30
0.0
 40
0.01
 41
0.01
  0
VERTEX
  8
0
 10
18.9901
 20
6.28147
 30
0.0
 40
0.01
 41
0.01
  0
VERTEX
  8
0
 10
18.9901
 20
6.15549
 30
0.0
 40
0.01
 41
0.01
  0
VERTEX
  8
0
 10
18.6751
 20
6.15549
 30
0.0
 40
0.01
 41
0.01
  0
VERTEX
  8
0
 10
18.6751
 20
6.28147
 30
0.0
 40
0.01
 41
0.01
  0
VERTEX
  8
0
 10
18.3603
 20
6.28147
 30
0.0
 40
0.01
 41
0.01
  0
VERTEX
  8
0
 10
18.3603
 20
6.15549
 30
0.0
 40
0.01
 41
0.01
  0
VERTEX
  8
0
 10
18.0453
 20
6.15549
 30
0.0
 40
0.01
 41
0.01
  0
VERTEX
  8
0
 10
18.0453
 20
6.28147
 30
0.0
 40
0.01
 41
0.01
  0
VERTEX
  8
0
 10
17.7303
 20
6.28147
 30
0.0
 40
0.01
 41
0.01
  0
VERTEX
  8
0
 10
17.7303
 20
6.15549
 30
0.0
 40
0.01
 41
0.01
  0
VERTEX
  8
0
 10
17.4154
 20
6.15549
 30
0.0
 40
0.01
 41
0.01
  0
VERTEX
  8
0
 10
17.4154
 20
6.28147
 30
0.0
 40
0.01
 41
0.01
  0
VERTEX
  8
0
 10
17.1004
 20
6.28147
 30
0.0
 40
0.01
 41
0.01
  0
VERTEX
  8
0
 10
17.1004
 20
6.15549
 30
0.0
 40
0.01
 41
0.01
  0
VERTEX
  8
0
 10
16.7854
 20
6.15549
 30
0.0
 40
0.01
 41
0.01
  0
VERTEX
  8
0
 10
16.7854
 20
6.28147
 30
0.0
 40
0.01
 41
0.01
  0
VERTEX
  8
0
 10
16.6496
 20
6.28147
 30
0.0
 40
0.01
 41
0.01
  0
VERTEX
  8
0
 10
16.6496
 20
6.94683
 30
0.0
 40
0.01
 41
0.01
  0
VERTEX
  8
0
 10
16.6989
 20
6.94683
 30
0.0
 40
0.01
 41
0.01
  0
VERTEX
  8
0
 10
16.6989
 20
7.04525
 30
0.0
 40
0.01
 41
0.01
  0
VERTEX
  8
0
 10
16.6496
 20
7.04525
 30
0.0
 40
0.01
 41
0.01
  0
VERTEX
  8
0
 10
16.6496
 20
7.14367
 30
0.0
 40
0.01
 41
0.01
  0
VERTEX
  8
0
 10
16.5275
 20
7.14367
 30
0.0
 40
0.01
 41
0.01
  0
VERTEX
  8
0
 10
16.5275
 20
7.04525
 30
0.0
 40
0.01
 41
0.01
  0
VERTEX
  8
0
 10
16.4783
 20
7.04525
 30
0.0
 40
0.01
 41
0.01
  0
VERTEX
  8
0
 10
16.4783
 20
6.94683
 30
0.0
 40
0.01
 41
0.01
  0
VERTEX
  8
0
 10
16.5275
 20
6.94683
 30
0.0
 40
0.01
 41
0.01
  0
VERTEX
  8
0
 10
16.5275
 20
6.28147
 30
0.0
 40
0.01
 41
0.01
  0
VERTEX
  8
0
 10
16.3917
 20
6.28147
 30
0.0
 40
0.01
 41
0.01
  0
VERTEX
  8
0
 10
16.3917
 20
6.15549
 30
0.0
 40
0.01
 41
0.01
  0
VERTEX
  8
0
 10
16.124
 20
6.15549
 30
0.0
 40
0.01
 41
0.01
  0
VERTEX
  8
0
 10
16.124
 20
6.58854
 30
0.0
 40
0.01
 41
0.01
  0
VERTEX
  8
0
 10
15.9981
 20
6.58854
 30
0.0
 40
0.01
 41
0.01
  0
VERTEX
  8
0
 10
15.9981
 20
6.73226
 30
0.0
 40
0.01
 41
0.01
  0
VERTEX
  8
0
 10
16.1437
 20
6.73226
 30
0.0
 40
0.01
 41
0.01
  0
VERTEX
  8
0
 10
16.1437
 20
6.87793
 30
0.0
 40
0.01
 41
0.01
  0
VERTEX
  8
0
 10
15.9981
 20
6.87793
 30
0.0
 40
0.01
 41
0.01
  0
VERTEX
  8
0
 10
15.9981
 20
7.02165
 30
0.0
 40
0.01
 41
0.01
  0
VERTEX
  8
0
 10
16.124
 20
7.02165
 30
0.0
 40
0.01
 41
0.01
  0
VERTEX
  8
0
 10
16.124
 20
7.33658
 30
0.0
 40
0.01
 41
0.01
  0
VERTEX
  8
0
 10
15.9981
 20
7.33658
 30
0.0
 40
0.01
 41
0.01
  0
VERTEX
  8
0
 10
15.9981
 20
7.65158
 30
0.0
 40
0.01
 41
0.01
  0
VERTEX
  8
0
 10
16.124
 20
7.65158
 30
0.0
 40
0.01
 41
0.01
  0
VERTEX
  8
0
 10
16.124
 20
7.96653
 30
0.0
 40
0.01
 41
0.01
  0
VERTEX
  8
0
 10
15.9981
 20
7.96653
 30
0.0
 40
0.01
 41
0.01
  0
VERTEX
  8
0
 10
15.9981
 20
8.28147
 30
0.0
 40
0.01
 41
0.01
  0
VERTEX
  8
0
 10
16.124
 20
8.28147
 30
0.0
 40
0.01
 41
0.01
  0
VERTEX
  8
0
 10
16.124
 20
8.59646
 30
0.0
 40
0.01
 41
0.01
  0
VERTEX
  8
0
 10
15.9981
 20
8.59646
 30
0.0
 40
0.01
 41
0.01
  0
VERTEX
  8
0
 10
15.9981
 20
8.9114
 30
0.0
 40
0.01
 41
0.01
  0
VERTEX
  8
0
 10
16.124
 20
8.9114
 30
0.0
 40
0.01
 41
0.01
  0
VERTEX
  8
0
 10
16.124
 20
9.22635
 30
0.0
 40
0.01
 41
0.01
  0
VERTEX
  8
0
 10
15.9981
 20
9.22635
 30
0.0
 40
0.01
 41
0.01
  0
VERTEX
  8
0
 10
15.9981
 20
9.37007
 30
0.0
 40
0.01
 41
0.01
  0
VERTEX
  8
0
 10
16.1437
 20
9.37007
 30
0.0
 40
0.01
 41
0.01
  0
VERTEX
  8
0
 10
16.1437
 20
9.51574
 30
0.0
 40
0.01
 41
0.01
  0
VERTEX
  8
0
 10
15.9981
 20
9.51574
 30
0.0
 40
0.01
 41
0.01
  0
VERTEX
  8
0
 10
15.9981
 20
9.65944
 30
0.0
 40
0.01
 41
0.01
  0
VERTEX
  8
0
 10
16.124
 20
9.65944
 30
0.0
 40
0.01
 41
0.01
  0
VERTEX
  8
0
 10
16.124
 20
10.0925
 30
0.0
 40
0.01
 41
0.01
  0
SEQEND
 8
0
  0
POLYLINE
  8
0
 62
     0
 66
     1
 10
0
 20
0
 30
0.0
 70
     1
 40
0.72
 41
0.72
  0
VERTEX
  8
0
 10
31.746
 20
9.96653
 30
0.0
 40
0.01
 41
0.01
  0
VERTEX
  8
0
 10
32.1989
 20
9.96653
 30
0.0
 40
0.01
 41
0.01
  0
VERTEX
  8
0
 10
32.1989
 20
10.0925
 30
0.0
 40
0.01
 41
0.01
  0
VERTEX
  8
0
 10
32.3524
 20
10.0925
 30
0.0
 40
0.01
 41
0.01
  0
VERTEX
  8
0
 10
32.3524
 20
9.94683
 30
0.0
 40
0.01
 41
0.01
  0
VERTEX
  8
0
 10
32.4981
 20
9.94683
 30
0.0
 40
0.01
 41
0.01
  0
VERTEX
  8
0
 10
32.4981
 20
10.0925
 30
0.0
 40
0.01
 41
0.01
  0
VERTEX
  8
0
 10
32.6515
 20
10.0925
 30
0.0
 40
0.01
 41
0.01
  0
VERTEX
  8
0
 10
32.6515
 20
9.96653
 30
0.0
 40
0.01
 41
0.01
  0
VERTEX
  8
0
 10
32.9665
 20
9.96653
 30
0.0
 40
0.01
 41
0.01
  0
VERTEX
  8
0
 10
32.9665
 20
10.0925
 30
0.0
 40
0.01
 41
0.01
  0
VERTEX
  8
0
 10
33.2815
 20
10.0925
 30
0.0
 40
0.01
 41
0.01
  0
VERTEX
  8
0
 10
33.2815
 20
9.96653
 30
0.0
 40
0.01
 41
0.01
  0
VERTEX
  8
0
 10
33.5965
 20
9.96653
 30
0.0
 40
0.01
 41
0.01
  0
VERTEX
  8
0
 10
33.5965
 20
10.0925
 30
0.0
 40
0.01
 41
0.01
  0
VERTEX
  8
0
 10
33.9114
 20
10.0925
 30
0.0
 40
0.01
 41
0.01
  0
VERTEX
  8
0
 10
33.9114
 20
9.96653
 30
0.0
 40
0.01
 41
0.01
  0
VERTEX
  8
0
 10
34.2264
 20
9.96653
 30
0.0
 40
0.01
 41
0.01
  0
VERTEX
  8
0
 10
34.2264
 20
10.0925
 30
0.0
 40
0.01
 41
0.01
  0
VERTEX
  8
0
 10
34.5414
 20
10.0925
 30
0.0
 40
0.01
 41
0.01
  0
VERTEX
  8
0
 10
34.5414
 20
9.96653
 30
0.0
 40
0.01
 41
0.01
  0
VERTEX
  8
0
 10
34.8562
 20
9.96653
 30
0.0
 40
0.01
 41
0.01
  0
VERTEX
  8
0
 10
34.8562
 20
10.0925
 30
0.0
 40
0.01
 41
0.01
  0
VERTEX
  8
0
 10
35.1713
 20
10.0925
 30
0.0
 40
0.01
 41
0.01
  0
VERTEX
  8
0
 10
35.1713
 20
9.96653
 30
0.0
 40
0.01
 41
0.01
  0
VERTEX
  8
0
 10
35.4863
 20
9.96653
 30
0.0
 40
0.01
 41
0.01
  0
VERTEX
  8
0
 10
35.4863
 20
10.0925
 30
0.0
 40
0.01
 41
0.01
  0
VERTEX
  8
0
 10
35.8011
 20
10.0925
 30
0.0
 40
0.01
 41
0.01
  0
VERTEX
  8
0
 10
35.8011
 20
9.96653
 30
0.0
 40
0.01
 41
0.01
  0
VERTEX
  8
0
 10
36.1161
 20
9.96653
 30
0.0
 40
0.01
 41
0.01
  0
VERTEX
  8
0
 10
36.1161
 20
10.0925
 30
0.0
 40
0.01
 41
0.01
  0
VERTEX
  8
0
 10
36.4311
 20
10.0925
 30
0.0
 40
0.01
 41
0.01
  0
VERTEX
  8
0
 10
36.4311
 20
9.96653
 30
0.0
 40
0.01
 41
0.01
  0
VERTEX
  8
0
 10
36.746
 20
9.96653
 30
0.0
 40
0.01
 41
0.01
  0
VERTEX
  8
0
 10
36.746
 20
10.0925
 30
0.0
 40
0.01
 41
0.01
  0
VERTEX
  8
0
 10
36.8996
 20
10.0925
 30
0.0
 40
0.01
 41
0.01
  0
VERTEX
  8
0
 10
36.8996
 20
9.94683
 30
0.0
 40
0.01
 41
0.01
  0
VERTEX
  8
0
 10
37.0453
 20
9.94683
 30
0.0
 40
0.01
 41
0.01
  0
VERTEX
  8
0
 10
37.0453
 20
10.0925
 30
0.0
 40
0.01
 41
0.01
  0
VERTEX
  8
0
 10
37.1989
 20
10.0925
 30
0.0
 40
0.01
 41
0.01
  0
VERTEX
  8
0
 10
37.1989
 20
9.96653
 30
0.0
 40
0.01
 41
0.01
  0
VERTEX
  8
0
 10
37.6515
 20
9.96653
 30
0.0
 40
0.01
 41
0.01
  0
VERTEX
  8
0
 10
37.6515
 20
9.65944
 30
0.0
 40
0.01
 41
0.01
  0
VERTEX
  8
0
 10
37.5256
 20
9.65944
 30
0.0
 40
0.01
 41
0.01
  0
VERTEX
  8
0
 10
37.5256
 20
9.5039
 30
0.0
 40
0.01
 41
0.01
  0
VERTEX
  8
0
 10
36.8603
 20
9.5039
 30
0.0
 40
0.01
 41
0.01
  0
VERTEX
  8
0
 10
36.8603
 20
9.55311
 30
0.0
 40
0.01
 41
0.01
  0
VERTEX
  8
0
 10
36.7618
 20
9.55311
 30
0.0
 40
0.01
 41
0.01
  0
VERTEX
  8
0
 10
36.7618
 20
9.5039
 30
0.0
 40
0.01
 41
0.01
  0
VERTEX
  8
0
 10
36.6635
 20
9.5039
 30
0.0
 40
0.01
 41
0.01
  0
VERTEX
  8
0
 10
36.6635
 20
9.38189
 30
0.0
 40
0.01
 41
0.01
  0
VERTEX
  8
0
 10
36.7618
 20
9.38189
 30
0.0
 40
0.01
 41
0.01
  0
VERTEX
  8
0
 10
36.7618
 20
9.33268
 30
0.0
 40
0.01
 41
0.01
  0
VERTEX
  8
0
 10
36.8603
 20
9.33268
 30
0.0
 40
0.01
 41
0.01
  0
VERTEX
  8
0
 10
36.8603
 20
9.38189
 30
0.0
 40
0.01
 41
0.01
  0
VERTEX
  8
0
 10
37.5256
 20
9.38189
 30
0.0
 40
0.01
 41
0.01
  0
VERTEX
  8
0
 10
37.5256
 20
9.22635
 30
0.0
 40
0.01
 41
0.01
  0
VERTEX
  8
0
 10
37.6515
 20
9.22635
 30
0.0
 40
0.01
 41
0.01
  0
VERTEX
  8
0
 10
37.6515
 20
8.9114
 30
0.0
 40
0.01
 41
0.01
  0
VERTEX
  8
0
 10
37.5256
 20
8.9114
 30
0.0
 40
0.01
 41
0.01
  0
VERTEX
  8
0
 10
37.5256
 20
8.59646
 30
0.0
 40
0.01
 41
0.01
  0
VERTEX
  8
0
 10
37.6515
 20
8.59646
 30
0.0
 40
0.01
 41
0.01
  0
VERTEX
  8
0
 10
37.6515
 20
8.28147
 30
0.0
 40
0.01
 41
0.01
  0
VERTEX
  8
0
 10
37.5256
 20
8.28147
 30
0.0
 40
0.01
 41
0.01
  0
VERTEX
  8
0
 10
37.5256
 20
7.96653
 30
0.0
 40
0.01
 41
0.01
  0
VERTEX
  8
0
 10
37.6515
 20
7.96653
 30
0.0
 40
0.01
 41
0.01
  0
VERTEX
  8
0
 10
37.6515
 20
7.65158
 30
0.0
 40
0.01
 41
0.01
  0
VERTEX
  8
0
 10
37.5256
 20
7.65158
 30
0.0
 40
0.01
 41
0.01
  0
VERTEX
  8
0
 10
37.5256
 20
7.33658
 30
0.0
 40
0.01
 41
0.01
  0
VERTEX
  8
0
 10
37.6515
 20
7.33658
 30
0.0
 40
0.01
 41
0.01
  0
VERTEX
  8
0
 10
37.6515
 20
7.02165
 30
0.0
 40
0.01
 41
0.01
  0
VERTEX
  8
0
 10
37.5256
 20
7.02165
 30
0.0
 40
0.01
 41
0.01
  0
VERTEX
  8
0
 10
37.5256
 20
6.8661
 30
0.0
 40
0.01
 41
0.01
  0
VERTEX
  8
0
 10
36.8603
 20
6.8661
 30
0.0
 40
0.01
 41
0.01
  0
VERTEX
  8
0
 10
36.8603
 20
6.91531
 30
0.0
 40
0.01
 41
0.01
  0
VERTEX
  8
0
 10
36.7618
 20
6.91531
 30
0.0
 40
0.01
 41
0.01
  0
VERTEX
  8
0
 10
36.7618
 20
6.8661
 30
0.0
 40
0.01
 41
0.01
  0
VERTEX
  8
0
 10
36.6635
 20
6.8661
 30
0.0
 40
0.01
 41
0.01
  0
VERTEX
  8
0
 10
36.6635
 20
6.74408
 30
0.0
 40
0.01
 41
0.01
  0
VERTEX
  8
0
 10
36.7618
 20
6.74408
 30
0.0
 40
0.01
 41
0.01
  0
VERTEX
  8
0
 10
36.7618
 20
6.69488
 30
0.0
 40
0.01
 41
0.01
  0
VERTEX
  8
0
 10
36.8603
 20
6.69488
 30
0.0
 40
0.01
 41
0.01
  0
VERTEX
  8
0
 10
36.8603
 20
6.74408
 30
0.0
 40
0.01
 41
0.01
  0
VERTEX
  8
0
 10
37.5256
 20
6.74408
 30
0.0
 40
0.01
 41
0.01
  0
VERTEX
  8
0
 10
37.5256
 20
6.58854
 30
0.0
 40
0.01
 41
0.01
  0
VERTEX
  8
0
 10
37.6515
 20
6.58854
 30
0.0
 40
0.01
 41
0.01
  0
VERTEX
  8
0
 10
37.6515
 20
6.28147
 30
0.0
 40
0.01
 41
0.01
  0
VERTEX
  8
0
 10
37.1989
 20
6.28147
 30
0.0
 40
0.01
 41
0.01
  0
VERTEX
  8
0
 10
37.1989
 20
6.15549
 30
0.0
 40
0.01
 41
0.01
  0
VERTEX
  8
0
 10
37.0453
 20
6.15549
 30
0.0
 40
0.01
 41
0.01
  0
VERTEX
  8
0
 10
37.0453
 20
6.30117
 30
0.0
 40
0.01
 41
0.01
  0
VERTEX
  8
0
 10
36.8996
 20
6.30117
 30
0.0
 40
0.01
 41
0.01
  0
VERTEX
  8
0
 10
36.8996
 20
6.15549
 30
0.0
 40
0.01
 41
0.01
  0
VERTEX
  8
0
 10
36.746
 20
6.15549
 30
0.0
 40
0.01
 41
0.01
  0
VERTEX
  8
0
 10
36.746
 20
6.28147
 30
0.0
 40
0.01
 41
0.01
  0
VERTEX
  8
0
 10
36.4311
 20
6.28147
 30
0.0
 40
0.01
 41
0.01
  0
VERTEX
  8
0
 10
36.4311
 20
6.15549
 30
0.0
 40
0.01
 41
0.01
  0
VERTEX
  8
0
 10
36.1161
 20
6.15549
 30
0.0
 40
0.01
 41
0.01
  0
VERTEX
  8
0
 10
36.1161
 20
6.28147
 30
0.0
 40
0.01
 41
0.01
  0
VERTEX
  8
0
 10
35.8011
 20
6.28147
 30
0.0
 40
0.01
 41
0.01
  0
VERTEX
  8
0
 10
35.8011
 20
6.15549
 30
0.0
 40
0.01
 41
0.01
  0
VERTEX
  8
0
 10
35.4863
 20
6.15549
 30
0.0
 40
0.01
 41
0.01
  0
VERTEX
  8
0
 10
35.4863
 20
6.28147
 30
0.0
 40
0.01
 41
0.01
  0
VERTEX
  8
0
 10
35.1713
 20
6.28147
 30
0.0
 40
0.01
 41
0.01
  0
VERTEX
  8
0
 10
35.1713
 20
6.15549
 30
0.0
 40
0.01
 41
0.01
  0
VERTEX
  8
0
 10
34.8562
 20
6.15549
 30
0.0
 40
0.01
 41
0.01
  0
VERTEX
  8
0
 10
34.8562
 20
6.28147
 30
0.0
 40
0.01
 41
0.01
  0
VERTEX
  8
0
 10
34.5414
 20
6.28147
 30
0.0
 40
0.01
 41
0.01
  0
VERTEX
  8
0
 10
34.5414
 20
6.15549
 30
0.0
 40
0.01
 41
0.01
  0
VERTEX
  8
0
 10
34.2264
 20
6.15549
 30
0.0
 40
0.01
 41
0.01
  0
VERTEX
  8
0
 10
34.2264
 20
6.28147
 30
0.0
 40
0.01
 41
0.01
  0
VERTEX
  8
0
 10
33.9114
 20
6.28147
 30
0.0
 40
0.01
 41
0.01
  0
VERTEX
  8
0
 10
33.9114
 20
6.15549
 30
0.0
 40
0.01
 41
0.01
  0
VERTEX
  8
0
 10
33.5965
 20
6.15549
 30
0.0
 40
0.01
 41
0.01
  0
VERTEX
  8
0
 10
33.5965
 20
6.28147
 30
0.0
 40
0.01
 41
0.01
  0
VERTEX
  8
0
 10
33.2815
 20
6.28147
 30
0.0
 40
0.01
 41
0.01
  0
VERTEX
  8
0
 10
33.2815
 20
6.15549
 30
0.0
 40
0.01
 41
0.01
  0
VERTEX
  8
0
 10
32.9665
 20
6.15549
 30
0.0
 40
0.01
 41
0.01
  0
VERTEX
  8
0
 10
32.9665
 20
6.28147
 30
0.0
 40
0.01
 41
0.01
  0
VERTEX
  8
0
 10
32.6515
 20
6.28147
 30
0.0
 40
0.01
 41
0.01
  0
VERTEX
  8
0
 10
32.6515
 20
6.15549
 30
0.0
 40
0.01
 41
0.01
  0
VERTEX
  8
0
 10
32.4981
 20
6.15549
 30
0.0
 40
0.01
 41
0.01
  0
VERTEX
  8
0
 10
32.4981
 20
6.30117
 30
0.0
 40
0.01
 41
0.01
  0
VERTEX
  8
0
 10
32.3524
 20
6.30117
 30
0.0
 40
0.01
 41
0.01
  0
VERTEX
  8
0
 10
32.3524
 20
6.15549
 30
0.0
 40
0.01
 41
0.01
  0
VERTEX
  8
0
 10
32.1989
 20
6.15549
 30
0.0
 40
0.01
 41
0.01
  0
VERTEX
  8
0
 10
32.1989
 20
6.28147
 30
0.0
 40
0.01
 41
0.01
  0
VERTEX
  8
0
 10
31.746
 20
6.28147
 30
0.0
 40
0.01
 41
0.01
  0
VERTEX
  8
0
 10
31.746
 20
6.58854
 30
0.0
 40
0.01
 41
0.01
  0
VERTEX
  8
0
 10
31.8721
 20
6.58854
 30
0.0
 40
0.01
 41
0.01
  0
VERTEX
  8
0
 10
31.8721
 20
6.74408
 30
0.0
 40
0.01
 41
0.01
  0
VERTEX
  8
0
 10
32.5374
 20
6.74408
 30
0.0
 40
0.01
 41
0.01
  0
VERTEX
  8
0
 10
32.5374
 20
6.69488
 30
0.0
 40
0.01
 41
0.01
  0
VERTEX
  8
0
 10
32.6358
 20
6.69488
 30
0.0
 40
0.01
 41
0.01
  0
VERTEX
  8
0
 10
32.6358
 20
6.74408
 30
0.0
 40
0.01
 41
0.01
  0
VERTEX
  8
0
 10
32.7343
 20
6.74408
 30
0.0
 40
0.01
 41
0.01
  0
VERTEX
  8
0
 10
32.7343
 20
6.8661
 30
0.0
 40
0.01
 41
0.01
  0
VERTEX
  8
0
 10
32.6358
 20
6.8661
 30
0.0
 40
0.01
 41
0.01
  0
VERTEX
  8
0
 10
32.6358
 20
6.91531
 30
0.0
 40
0.01
 41
0.01
  0
VERTEX
  8
0
 10
32.5374
 20
6.91531
 30
0.0
 40
0.01
 41
0.01
  0
VERTEX
  8
0
 10
32.5374
 20
6.8661
 30
0.0
 40
0.01
 41
0.01
  0
VERTEX
  8
0
 10
31.8721
 20
6.8661
 30
0.0
 40
0.01
 41
0.01
  0
VERTEX
  8
0
 10
31.8721
 20
7.02165
 30
0.0
 40
0.01
 41
0.01
  0
VERTEX
  8
0
 10
31.746
 20
7.02165
 30
0.0
 40
0.01
 41
0.01
  0
VERTEX
  8
0
 10
31.746
 20
7.33658
 30
0.0
 40
0.01
 41
0.01
  0
VERTEX
  8
0
 10
31.8721
 20
7.33658
 30
0.0
 40
0.01
 41
0.01
  0
VERTEX
  8
0
 10
31.8721
 20
7.65158
 30
0.0
 40
0.01
 41
0.01
  0
VERTEX
  8
0
 10
31.746
 20
7.65158
 30
0.0
 40
0.01
 41
0.01
  0
VERTEX
  8
0
 10
31.746
 20
7.96653
 30
0.0
 40
0.01
 41
0.01
  0
VERTEX
  8
0
 10
31.8721
 20
7.96653
 30
0.0
 40
0.01
 41
0.01
  0
VERTEX
  8
0
 10
31.8721
 20
8.28147
 30
0.0
 40
0.01
 41
0.01
  0
VERTEX
  8
0
 10
31.746
 20
8.28147
 30
0.0
 40
0.01
 41
0.01
  0
VERTEX
  8
0
 10
31.746
 20
8.59646
 30
0.0
 40
0.01
 41
0.01
  0
VERTEX
  8
0
 10
31.8721
 20
8.59646
 30
0.0
 40
0.01
 41
0.01
  0
VERTEX
  8
0
 10
31.8721
 20
8.9114
 30
0.0
 40
0.01
 41
0.01
  0
VERTEX
  8
0
 10
31.746
 20
8.9114
 30
0.0
 40
0.01
 41
0.01
  0
VERTEX
  8
0
 10
31.746
 20
9.22635
 30
0.0
 40
0.01
 41
0.01
  0
VERTEX
  8
0
 10
31.8721
 20
9.22635
 30
0.0
 40
0.01
 41
0.01
  0
VERTEX
  8
0
 10
31.8721
 20
9.38189
 30
0.0
 40
0.01
 41
0.01
  0
VERTEX
  8
0
 10
32.5374
 20
9.38189
 30
0.0
 40
0.01
 41
0.01
  0
VERTEX
  8
0
 10
32.5374
 20
9.33268
 30
0.0
 40
0.01
 41
0.01
  0
VERTEX
  8
0
 10
32.6358
 20
9.33268
 30
0.0
 40
0.01
 41
0.01
  0
VERTEX
  8
0
 10
32.6358
 20
9.38189
 30
0.0
 40
0.01
 41
0.01
  0
VERTEX
  8
0
 10
32.7343
 20
9.38189
 30
0.0
 40
0.01
 41
0.01
  0
VERTEX
  8
0
 10
32.7343
 20
9.5039
 30
0.0
 40
0.01
 41
0.01
  0
VERTEX
  8
0
 10
32.6358
 20
9.5039
 30
0.0
 40
0.01
 41
0.01
  0
VERTEX
  8
0
 10
32.6358
 20
9.55311
 30
0.0
 40
0.01
 41
0.01
  0
VERTEX
  8
0
 10
32.5374
 20
9.55311
 30
0.0
 40
0.01
 41
0.01
  0
VERTEX
  8
0
 10
32.5374
 20
9.5039
 30
0.0
 40
0.01
 41
0.01
  0
VERTEX
  8
0
 10
31.8721
 20
9.5039
 30
0.0
 40
0.01
 41
0.01
  0
VERTEX
  8
0
 10
31.8721
 20
9.65944
 30
0.0
 40
0.01
 41
0.01
  0
VERTEX
  8
0
 10
31.746
 20
9.65944
 30
0.0
 40
0.01
 41
0.01
  0
VERTEX
  8
0
 10
31.746
 20
9.96653
 30
0.0
 40
0.01
 41
0.01
  0
SEQEND
 8
0
  0
POLYLINE
  8
0
 62
     0
 66
     1
 10
0
 20
0
 30
0.0
 70
     1
 40
0.72
 41
0.72
  0
VERTEX
  8
0
 10
31.746
 20
6.02951
 30
0.0
 40
0.01
 41
0.01
  0
VERTEX
  8
0
 10
32.1989
 20
6.02951
 30
0.0
 40
0.01
 41
0.01
  0
VERTEX
  8
0
 10
32.1989
 20
6.15549
 30
0.0
 40
0.01
 41
0.01
  0
VERTEX
  8
0
 10
32.3524
 20
6.15549
 30
0.0
 40
0.01
 41
0.01
  0
VERTEX
  8
0
 10
32.3524
 20
6.00982
 30
0.0
 40
0.01
 41
0.01
  0
VERTEX
  8
0
 10
32.4981
 20
6.00982
 30
0.0
 40
0.01
 41
0.01
  0
VERTEX
  8
0
 10
32.4981
 20
6.15549
 30
0.0
 40
0.01
 41
0.01
  0
VERTEX
  8
0
 10
32.6515
 20
6.15549
 30
0.0
 40
0.01
 41
0.01
  0
VERTEX
  8
0
 10
32.6515
 20
6.02951
 30
0.0
 40
0.01
 41
0.01
  0
VERTEX
  8
0
 10
32.9665
 20
6.02951
 30
0.0
 40
0.01
 41
0.01
  0
VERTEX
  8
0
 10
32.9665
 20
6.15549
 30
0.0
 40
0.01
 41
0.01
  0
VERTEX
  8
0
 10
33.2815
 20
6.15549
 30
0.0
 40
0.01
 41
0.01
  0
VERTEX
  8
0
 10
33.2815
 20
6.02951
 30
0.0
 40
0.01
 41
0.01
  0
VERTEX
  8
0
 10
33.5965
 20
6.02951
 30
0.0
 40
0.01
 41
0.01
  0
VERTEX
  8
0
 10
33.5965
 20
6.15549
 30
0.0
 40
0.01
 41
0.01
  0
VERTEX
  8
0
 10
33.9114
 20
6.15549
 30
0.0
 40
0.01
 41
0.01
  0
VERTEX
  8
0
 10
33.9114
 20
6.02951
 30
0.0
 40
0.01
 41
0.01
  0
VERTEX
  8
0
 10
34.2264
 20
6.02951
 30
0.0
 40
0.01
 41
0.01
  0
VERTEX
  8
0
 10
34.2264
 20
6.15549
 30
0.0
 40
0.01
 41
0.01
  0
VERTEX
  8
0
 10
34.5414
 20
6.15549
 30
0.0
 40
0.01
 41
0.01
  0
VERTEX
  8
0
 10
34.5414
 20
6.02951
 30
0.0
 40
0.01
 41
0.01
  0
VERTEX
  8
0
 10
34.8562
 20
6.02951
 30
0.0
 40
0.01
 41
0.01
  0
VERTEX
  8
0
 10
34.8562
 20
6.15549
 30
0.0
 40
0.01
 41
0.01
  0
VERTEX
  8
0
 10
35.1713
 20
6.15549
 30
0.0
 40
0.01
 41
0.01
  0
VERTEX
  8
0
 10
35.1713
 20
6.02951
 30
0.0
 40
0.01
 41
0.01
  0
VERTEX
  8
0
 10
35.4863
 20
6.02951
 30
0.0
 40
0.01
 41
0.01
  0
VERTEX
  8
0
 10
35.4863
 20
6.15549
 30
0.0
 40
0.01
 41
0.01
  0
VERTEX
  8
0
 10
35.8011
 20
6.15549
 30
0.0
 40
0.01
 41
0.01
  0
VERTEX
  8
0
 10
35.8011
 20
6.02951
 30
0.0
 40
0.01
 41
0.01
  0
VERTEX
  8
0
 10
36.1161
 20
6.02951
 30
0.0
 40
0.01
 41
0.01
  0
VERTEX
  8
0
 10
36.1161
 20
6.15549
 30
0.0
 40
0.01
 41
0.01
  0
VERTEX
  8
0
 10
36.4311
 20
6.15549
 30
0.0
 40
0.01
 41
0.01
  0
VERTEX
  8
0
 10
36.4311
 20
6.02951
 30
0.0
 40
0.01
 41
0.01
  0
VERTEX
  8
0
 10
36.746
 20
6.02951
 30
0.0
 40
0.01
 41
0.01
  0
VERTEX
  8
0
 10
36.746
 20
6.15549
 30
0.0
 40
0.01
 41
0.01
  0
VERTEX
  8
0
 10
36.8996
 20
6.15549
 30
0.0
 40
0.01
 41
0.01
  0
VERTEX
  8
0
 10
36.8996
 20
6.00982
 30
0.0
 40
0.01
 41
0.01
  0
VERTEX
  8
0
 10
37.0453
 20
6.00982
 30
0.0
 40
0.01
 41
0.01
  0
VERTEX
  8
0
 10
37.0453
 20
6.15549
 30
0.0
 40
0.01
 41
0.01
  0
VERTEX
  8
0
 10
37.1989
 20
6.15549
 30
0.0
 40
0.01
 41
0.01
  0
VERTEX
  8
0
 10
37.1989
 20
6.02951
 30
0.0
 40
0.01
 41
0.01
  0
VERTEX
  8
0
 10
37.6515
 20
6.02951
 30
0.0
 40
0.01
 41
0.01
  0
VERTEX
  8
0
 10
37.6515
 20
5.72244
 30
0.0
 40
0.01
 41
0.01
  0
VERTEX
  8
0
 10
37.5256
 20
5.72244
 30
0.0
 40
0.01
 41
0.01
  0
VERTEX
  8
0
 10
37.5256
 20
5.56689
 30
0.0
 40
0.01
 41
0.01
  0
VERTEX
  8
0
 10
36.8603
 20
5.56689
 30
0.0
 40
0.01
 41
0.01
  0
VERTEX
  8
0
 10
36.8603
 20
5.6161
 30
0.0
 40
0.01
 41
0.01
  0
VERTEX
  8
0
 10
36.7618
 20
5.6161
 30
0.0
 40
0.01
 41
0.01
  0
VERTEX
  8
0
 10
36.7618
 20
5.56689
 30
0.0
 40
0.01
 41
0.01
  0
VERTEX
  8
0
 10
36.6635
 20
5.56689
 30
0.0
 40
0.01
 41
0.01
  0
VERTEX
  8
0
 10
36.6635
 20
5.44488
 30
0.0
 40
0.01
 41
0.01
  0
VERTEX
  8
0
 10
36.7618
 20
5.44488
 30
0.0
 40
0.01
 41
0.01
  0
VERTEX
  8
0
 10
36.7618
 20
5.39567
 30
0.0
 40
0.01
 41
0.01
  0
VERTEX
  8
0
 10
36.8603
 20
5.39567
 30
0.0
 40
0.01
 41
0.01
  0
VERTEX
  8
0
 10
36.8603
 20
5.44488
 30
0.0
 40
0.01
 41
0.01
  0
VERTEX
  8
0
 10
37.5256
 20
5.44488
 30
0.0
 40
0.01
 41
0.01
  0
VERTEX
  8
0
 10
37.5256
 20
5.28933
 30
0.0
 40
0.01
 41
0.01
  0
VERTEX
  8
0
 10
37.6515
 20
5.28933
 30
0.0
 40
0.01
 41
0.01
  0
VERTEX
  8
0
 10
37.6515
 20
4.97439
 30
0.0
 40
0.01
 41
0.01
  0
VERTEX
  8
0
 10
37.5256
 20
4.97439
 30
0.0
 40
0.01
 41
0.01
  0
VERTEX
  8
0
 10
37.5256
 20
4.65944
 30
0.0
 40
0.01
 41
0.01
  0
VERTEX
  8
0
 10
37.6515
 20
4.65944
 30
0.0
 40
0.01
 41
0.01
  0
VERTEX
  8
0
 10
37.6515
 20
4.34446
 30
0.0
 40
0.01
 41
0.01
  0
VERTEX
  8
0
 10
37.5256
 20
4.34446
 30
0.0
 40
0.01
 41
0.01
  0
VERTEX
  8
0
 10
37.5256
 20
4.02951
 30
0.0
 40
0.01
 41
0.01
  0
VERTEX
  8
0
 10
37.6515
 20
4.02951
 30
0.0
 40
0.01
 41
0.01
  0
VERTEX
  8
0
 10
37.6515
 20
3.71457
 30
0.0
 40
0.01
 41
0.01
  0
VERTEX
  8
0
 10
37.5256
 20
3.71457
 30
0.0
 40
0.01
 41
0.01
  0
VERTEX
  8
0
 10
37.5256
 20
3.39958
 30
0.0
 40
0.01
 41
0.01
  0
VERTEX
  8
0
 10
37.6515
 20
3.39958
 30
0.0
 40
0.01
 41
0.01
  0
VERTEX
  8
0
 10
37.6515
 20
3.08464
 30
0.0
 40
0.01
 41
0.01
  0
VERTEX
  8
0
 10
37.5256
 20
3.08464
 30
0.0
 40
0.01
 41
0.01
  0
VERTEX
  8
0
 10
37.5256
 20
2.9291
 30
0.0
 40
0.01
 41
0.01
  0
VERTEX
  8
0
 10
36.8603
 20
2.9291
 30
0.0
 40
0.01
 41
0.01
  0
VERTEX
  8
0
 10
36.8603
 20
2.97835
 30
0.0
 40
0.01
 41
0.01
  0
VERTEX
  8
0
 10
36.7618
 20
2.97835
 30
0.0
 40
0.01
 41
0.01
  0
VERTEX
  8
0
 10
36.7618
 20
2.9291
 30
0.0
 40
0.01
 41
0.01
  0
VERTEX
  8
0
 10
36.6635
 20
2.9291
 30
0.0
 40
0.01
 41
0.01
  0
VERTEX
  8
0
 10
36.6635
 20
2.80707
 30
0.0
 40
0.01
 41
0.01
  0
VERTEX
  8
0
 10
36.7618
 20
2.80707
 30
0.0
 40
0.01
 41
0.01
  0
VERTEX
  8
0
 10
36.7618
 20
2.75786
 30
0.0
 40
0.01
 41
0.01
  0
VERTEX
  8
0
 10
36.8603
 20
2.75786
 30
0.0
 40
0.01
 41
0.01
  0
VERTEX
  8
0
 10
36.8603
 20
2.80707
 30
0.0
 40
0.01
 41
0.01
  0
VERTEX
  8
0
 10
37.5256
 20
2.80707
 30
0.0
 40
0.01
 41
0.01
  0
VERTEX
  8
0
 10
37.5256
 20
2.65153
 30
0.0
 40
0.01
 41
0.01
  0
VERTEX
  8
0
 10
37.6515
 20
2.65153
 30
0.0
 40
0.01
 41
0.01
  0
VERTEX
  8
0
 10
37.6515
 20
2.34446
 30
0.0
 40
0.01
 41
0.01
  0
VERTEX
  8
0
 10
37.1989
 20
2.34446
 30
0.0
 40
0.01
 41
0.01
  0
VERTEX
  8
0
 10
37.1989
 20
2.21847
 30
0.0
 40
0.01
 41
0.01
  0
VERTEX
  8
0
 10
37.0453
 20
2.21847
 30
0.0
 40
0.01
 41
0.01
  0
VERTEX
  8
0
 10
37.0453
 20
2.36415
 30
0.0
 40
0.01
 41
0.01
  0
VERTEX
  8
0
 10
36.8996
 20
2.36415
 30
0.0
 40
0.01
 41
0.01
  0
VERTEX
  8
0
 10
36.8996
 20
2.21847
 30
0.0
 40
0.01
 41
0.01
  0
VERTEX
  8
0
 10
36.746
 20
2.21847
 30
0.0
 40
0.01
 41
0.01
  0
VERTEX
  8
0
 10
36.746
 20
2.34446
 30
0.0
 40
0.01
 41
0.01
  0
VERTEX
  8
0
 10
36.4311
 20
2.34446
 30
0.0
 40
0.01
 41
0.01
  0
VERTEX
  8
0
 10
36.4311
 20
2.21847
 30
0.0
 40
0.01
 41
0.01
  0
VERTEX
  8
0
 10
36.1161
 20
2.21847
 30
0.0
 40
0.01
 41
0.01
  0
VERTEX
  8
0
 10
36.1161
 20
2.34446
 30
0.0
 40
0.01
 41
0.01
  0
VERTEX
  8
0
 10
35.8011
 20
2.34446
 30
0.0
 40
0.01
 41
0.01
  0
VERTEX
  8
0
 10
35.8011
 20
2.21847
 30
0.0
 40
0.01
 41
0.01
  0
VERTEX
  8
0
 10
35.4863
 20
2.21847
 30
0.0
 40
0.01
 41
0.01
  0
VERTEX
  8
0
 10
35.4863
 20
2.34446
 30
0.0
 40
0.01
 41
0.01
  0
VERTEX
  8
0
 10
35.1713
 20
2.34446
 30
0.0
 40
0.01
 41
0.01
  0
VERTEX
  8
0
 10
35.1713
 20
2.21847
 30
0.0
 40
0.01
 41
0.01
  0
VERTEX
  8
0
 10
34.8562
 20
2.21847
 30
0.0
 40
0.01
 41
0.01
  0
VERTEX
  8
0
 10
34.8562
 20
2.34446
 30
0.0
 40
0.01
 41
0.01
  0
VERTEX
  8
0
 10
34.5414
 20
2.34446
 30
0.0
 40
0.01
 41
0.01
  0
VERTEX
  8
0
 10
34.5414
 20
2.21847
 30
0.0
 40
0.01
 41
0.01
  0
VERTEX
  8
0
 10
34.2264
 20
2.21847
 30
0.0
 40
0.01
 41
0.01
  0
VERTEX
  8
0
 10
34.2264
 20
2.34446
 30
0.0
 40
0.01
 41
0.01
  0
VERTEX
  8
0
 10
33.9114
 20
2.34446
 30
0.0
 40
0.01
 41
0.01
  0
VERTEX
  8
0
 10
33.9114
 20
2.21847
 30
0.0
 40
0.01
 41
0.01
  0
VERTEX
  8
0
 10
33.5965
 20
2.21847
 30
0.0
 40
0.01
 41
0.01
  0
VERTEX
  8
0
 10
33.5965
 20
2.34446
 30
0.0
 40
0.01
 41
0.01
  0
VERTEX
  8
0
 10
33.2815
 20
2.34446
 30
0.0
 40
0.01
 41
0.01
  0
VERTEX
  8
0
 10
33.2815
 20
2.21847
 30
0.0
 40
0.01
 41
0.01
  0
VERTEX
  8
0
 10
32.9665
 20
2.21847
 30
0.0
 40
0.01
 41
0.01
  0
VERTEX
  8
0
 10
32.9665
 20
2.34446
 30
0.0
 40
0.01
 41
0.01
  0
VERTEX
  8
0
 10
32.6515
 20
2.34446
 30
0.0
 40
0.01
 41
0.01
  0
VERTEX
  8
0
 10
32.6515
 20
2.21847
 30
0.0
 40
0.01
 41
0.01
  0
VERTEX
  8
0
 10
32.4981
 20
2.21847
 30
0.0
 40
0.01
 41
0.01
  0
VERTEX
  8
0
 10
32.4981
 20
2.36415
 30
0.0
 40
0.01
 41
0.01
  0
VERTEX
  8
0
 10
32.3524
 20
2.36415
 30
0.0
 40
0.01
 41
0.01
  0
VERTEX
  8
0
 10
32.3524
 20
2.21847
 30
0.0
 40
0.01
 41
0.01
  0
VERTEX
  8
0
 10
32.1989
 20
2.21847
 30
0.0
 40
0.01
 41
0.01
  0
VERTEX
  8
0
 10
32.1989
 20
2.34446
 30
0.0
 40
0.01
 41
0.01
  0
VERTEX
  8
0
 10
31.746
 20
2.34446
 30
0.0
 40
0.01
 41
0.01
  0
VERTEX
  8
0
 10
31.746
 20
2.65153
 30
0.0
 40
0.01
 41
0.01
  0
VERTEX
  8
0
 10
31.8721
 20
2.65153
 30
0.0
 40
0.01
 41
0.01
  0
VERTEX
  8
0
 10
31.8721
 20
2.80707
 30
0.0
 40
0.01
 41
0.01
  0
VERTEX
  8
0
 10
32.5374
 20
2.80707
 30
0.0
 40
0.01
 41
0.01
  0
VERTEX
  8
0
 10
32.5374
 20
2.75786
 30
0.0
 40
0.01
 41
0.01
  0
VERTEX
  8
0
 10
32.6358
 20
2.75786
 30
0.0
 40
0.01
 41
0.01
  0
VERTEX
  8
0
 10
32.6358
 20
2.80707
 30
0.0
 40
0.01
 41
0.01
  0
VERTEX
  8
0
 10
32.7343
 20
2.80707
 30
0.0
 40
0.01
 41
0.01
  0
VERTEX
  8
0
 10
32.7343
 20
2.9291
 30
0.0
 40
0.01
 41
0.01
  0
VERTEX
  8
0
 10
32.6358
 20
2.9291
 30
0.0
 40
0.01
 41
0.01
  0
VERTEX
  8
0
 10
32.6358
 20
2.97835
 30
0.0
 40
0.01
 41
0.01
  0
VERTEX
  8
0
 10
32.5374
 20
2.97835
 30
0.0
 40
0.01
 41
0.01
  0
VERTEX
  8
0
 10
32.5374
 20
2.9291
 30
0.0
 40
0.01
 41
0.01
  0
VERTEX
  8
0
 10
31.8721
 20
2.9291
 30
0.0
 40
0.01
 41
0.01
  0
VERTEX
  8
0
 10
31.8721
 20
3.08464
 30
0.0
 40
0.01
 41
0.01
  0
VERTEX
  8
0
 10
31.746
 20
3.08464
 30
0.0
 40
0.01
 41
0.01
  0
VERTEX
  8
0
 10
31.746
 20
3.39958
 30
0.0
 40
0.01
 41
0.01
  0
VERTEX
  8
0
 10
31.8721
 20
3.39958
 30
0.0
 40
0.01
 41
0.01
  0
VERTEX
  8
0
 10
31.8721
 20
3.71457
 30
0.0
 40
0.01
 41
0.01
  0
VERTEX
  8
0
 10
31.746
 20
3.71457
 30
0.0
 40
0.01
 41
0.01
  0
VERTEX
  8
0
 10
31.746
 20
4.02951
 30
0.0
 40
0.01
 41
0.01
  0
VERTEX
  8
0
 10
31.8721
 20
4.02951
 30
0.0
 40
0.01
 41
0.01
  0
VERTEX
  8
0
 10
31.8721
 20
4.34446
 30
0.0
 40
0.01
 41
0.01
  0
VERTEX
  8
0
 10
31.746
 20
4.34446
 30
0.0
 40
0.01
 41
0.01
  0
VERTEX
  8
0
 10
31.746
 20
4.65944
 30
0.0
 40
0.01
 41
0.01
  0
VERTEX
  8
0
 10
31.8721
 20
4.65944
 30
0.0
 40
0.01
 41
0.01
  0
VERTEX
  8
0
 10
31.8721
 20
4.97439
 30
0.0
 40
0.01
 41
0.01
  0
VERTEX
  8
0
 10
31.746
 20
4.97439
 30
0.0
 40
0.01
 41
0.01
  0
VERTEX
  8
0
 10
31.746
 20
5.28933
 30
0.0
 40
0.01
 41
0.01
  0
VERTEX
  8
0
 10
31.8721
 20
5.28933
 30
0.0
 40
0.01
 41
0.01
  0
VERTEX
  8
0
 10
31.8721
 20
5.44488
 30
0.0
 40
0.01
 41
0.01
  0
VERTEX
  8
0
 10
32.5374
 20
5.44488
 30
0.0
 40
0.01
 41
0.01
  0
VERTEX
  8
0
 10
32.5374
 20
5.39567
 30
0.0
 40
0.01
 41
0.01
  0
VERTEX
  8
0
 10
32.6358
 20
5.39567
 30
0.0
 40
0.01
 41
0.01
  0
VERTEX
  8
0
 10
32.6358
 20
5.44488
 30
0.0
 40
0.01
 41
0.01
  0
VERTEX
  8
0
 10
32.7343
 20
5.44488
 30
0.0
 40
0.01
 41
0.01
  0
VERTEX
  8
0
 10
32.7343
 20
5.56689
 30
0.0
 40
0.01
 41
0.01
  0
VERTEX
  8
0
 10
32.6358
 20
5.56689
 30
0.0
 40
0.01
 41
0.01
  0
VERTEX
  8
0
 10
32.6358
 20
5.6161
 30
0.0
 40
0.01
 41
0.01
  0
VERTEX
  8
0
 10
32.5374
 20
5.6161
 30
0.0
 40
0.01
 41
0.01
  0
VERTEX
  8
0
 10
32.5374
 20
5.56689
 30
0.0
 40
0.01
 41
0.01
  0
VERTEX
  8
0
 10
31.8721
 20
5.56689
 30
0.0
 40
0.01
 41
0.01
  0
VERTEX
  8
0
 10
31.8721
 20
5.72244
 30
0.0
 40
0.01
 41
0.01
  0
VERTEX
  8
0
 10
31.746
 20
5.72244
 30
0.0
 40
0.01
 41
0.01
  0
VERTEX
  8
0
 10
31.746
 20
6.02951
 30
0.0
 40
0.01
 41
0.01
  0
SEQEND
 8
0
  0
POLYLINE
  8
0
 62
     0
 66
     1
 10
0
 20
0
 30
0.0
 70
     1
 40
0.72
 41
0.72
  0
VERTEX
  8
0
 10
0.25
 20
6.02951
 30
0.0
 40
0.01
 41
0.01
  0
VERTEX
  8
0
 10
0.643718
 20
6.02951
 30
0.0
 40
0.01
 41
0.01
  0
VERTEX
  8
0
 10
0.643718
 20
6.15549
 30
0.0
 40
0.01
 41
0.01
  0
VERTEX
  8
0
 10
0.76774
 20
6.15549
 30
0.0
 40
0.01
 41
0.01
  0
VERTEX
  8
0
 10
0.76774
 20
6.00982
 30
0.0
 40
0.01
 41
0.01
  0
VERTEX
  8
0
 10
0.913411
 20
6.00982
 30
0.0
 40
0.01
 41
0.01
  0
VERTEX
  8
0
 10
0.913411
 20
6.15549
 30
0.0
 40
0.01
 41
0.01
  0
VERTEX
  8
0
 10
1.03738
 20
6.15549
 30
0.0
 40
0.01
 41
0.01
  0
VERTEX
  8
0
 10
1.03738
 20
6.02951
 30
0.0
 40
0.01
 41
0.01
  0
VERTEX
  8
0
 10
1.35238
 20
6.02951
 30
0.0
 40
0.01
 41
0.01
  0
VERTEX
  8
0
 10
1.35238
 20
6.15549
 30
0.0
 40
0.01
 41
0.01
  0
VERTEX
  8
0
 10
1.66732
 20
6.15549
 30
0.0
 40
0.01
 41
0.01
  0
VERTEX
  8
0
 10
1.66732
 20
6.02951
 30
0.0
 40
0.01
 41
0.01
  0
VERTEX
  8
0
 10
1.98226
 20
6.02951
 30
0.0
 40
0.01
 41
0.01
  0
VERTEX
  8
0
 10
1.98226
 20
6.15549
 30
0.0
 40
0.01
 41
0.01
  0
VERTEX
  8
0
 10
2.29725
 20
6.15549
 30
0.0
 40
0.01
 41
0.01
  0
VERTEX
  8
0
 10
2.29725
 20
6.02951
 30
0.0
 40
0.01
 41
0.01
  0
VERTEX
  8
0
 10
2.61219
 20
6.02951
 30
0.0
 40
0.01
 41
0.01
  0
VERTEX
  8
0
 10
2.61219
 20
6.15549
 30
0.0
 40
0.01
 41
0.01
  0
VERTEX
  8
0
 10
2.92719
 20
6.15549
 30
0.0
 40
0.01
 41
0.01
  0
VERTEX
  8
0
 10
2.92719
 20
6.02951
 30
0.0
 40
0.01
 41
0.01
  0
VERTEX
  8
0
 10
3.24214
 20
6.02951
 30
0.0
 40
0.01
 41
0.01
  0
VERTEX
  8
0
 10
3.24214
 20
6.15549
 30
0.0
 40
0.01
 41
0.01
  0
VERTEX
  8
0
 10
3.55707
 20
6.15549
 30
0.0
 40
0.01
 41
0.01
  0
VERTEX
  8
0
 10
3.55707
 20
6.02951
 30
0.0
 40
0.01
 41
0.01
  0
VERTEX
  8
0
 10
3.87207
 20
6.02951
 30
0.0
 40
0.01
 41
0.01
  0
VERTEX
  8
0
 10
3.87207
 20
6.15549
 30
0.0
 40
0.01
 41
0.01
  0
VERTEX
  8
0
 10
4.18701
 20
6.15549
 30
0.0
 40
0.01
 41
0.01
  0
VERTEX
  8
0
 10
4.18701
 20
6.02951
 30
0.0
 40
0.01
 41
0.01
  0
VERTEX
  8
0
 10
4.50196
 20
6.02951
 30
0.0
 40
0.01
 41
0.01
  0
VERTEX
  8
0
 10
4.50196
 20
6.15549
 30
0.0
 40
0.01
 41
0.01
  0
VERTEX
  8
0
 10
4.81694
 20
6.15549
 30
0.0
 40
0.01
 41
0.01
  0
VERTEX
  8
0
 10
4.81694
 20
6.02951
 30
0.0
 40
0.01
 41
0.01
  0
VERTEX
  8
0
 10
5.13189
 20
6.02951
 30
0.0
 40
0.01
 41
0.01
  0
VERTEX
  8
0
 10
5.13189
 20
6.15549
 30
0.0
 40
0.01
 41
0.01
  0
VERTEX
  8
0
 10
5.44683
 20
6.15549
 30
0.0
 40
0.01
 41
0.01
  0
VERTEX
  8
0
 10
5.44683
 20
6.02951
 30
0.0
 40
0.01
 41
0.01
  0
VERTEX
  8
0
 10
5.76183
 20
6.02951
 30
0.0
 40
0.01
 41
0.01
  0
VERTEX
  8
0
 10
5.76183
 20
6.15549
 30
0.0
 40
0.01
 41
0.01
  0
VERTEX
  8
0
 10
6.07676
 20
6.15549
 30
0.0
 40
0.01
 41
0.01
  0
VERTEX
  8
0
 10
6.07676
 20
6.02951
 30
0.0
 40
0.01
 41
0.01
  0
VERTEX
  8
0
 10
6.39171
 20
6.02951
 30
0.0
 40
0.01
 41
0.01
  0
VERTEX
  8
0
 10
6.39171
 20
6.15549
 30
0.0
 40
0.01
 41
0.01
  0
VERTEX
  8
0
 10
6.70671
 20
6.15549
 30
0.0
 40
0.01
 41
0.01
  0
VERTEX
  8
0
 10
6.70671
 20
6.02951
 30
0.0
 40
0.01
 41
0.01
  0
VERTEX
  8
0
 10
7.02165
 20
6.02951
 30
0.0
 40
0.01
 41
0.01
  0
VERTEX
  8
0
 10
7.02165
 20
6.15549
 30
0.0
 40
0.01
 41
0.01
  0
VERTEX
  8
0
 10
7.33658
 20
6.15549
 30
0.0
 40
0.01
 41
0.01
  0
VERTEX
  8
0
 10
7.33658
 20
6.02951
 30
0.0
 40
0.01
 41
0.01
  0
VERTEX
  8
0
 10
7.65158
 20
6.02951
 30
0.0
 40
0.01
 41
0.01
  0
VERTEX
  8
0
 10
7.65158
 20
6.15549
 30
0.0
 40
0.01
 41
0.01
  0
VERTEX
  8
0
 10
7.96653
 20
6.15549
 30
0.0
 40
0.01
 41
0.01
  0
VERTEX
  8
0
 10
7.96653
 20
6.02951
 30
0.0
 40
0.01
 41
0.01
  0
VERTEX
  8
0
 10
8.28153
 20
6.02951
 30
0.0
 40
0.01
 41
0.01
  0
VERTEX
  8
0
 10
8.28153
 20
6.15549
 30
0.0
 40
0.01
 41
0.01
  0
VERTEX
  8
0
 10
8.59646
 20
6.15549
 30
0.0
 40
0.01
 41
0.01
  0
VERTEX
  8
0
 10
8.59646
 20
6.02951
 30
0.0
 40
0.01
 41
0.01
  0
VERTEX
  8
0
 10
8.9114
 20
6.02951
 30
0.0
 40
0.01
 41
0.01
  0
VERTEX
  8
0
 10
8.9114
 20
6.15549
 30
0.0
 40
0.01
 41
0.01
  0
VERTEX
  8
0
 10
9.2264
 20
6.15549
 30
0.0
 40
0.01
 41
0.01
  0
VERTEX
  8
0
 10
9.2264
 20
6.02951
 30
0.0
 40
0.01
 41
0.01
  0
VERTEX
  8
0
 10
9.54135
 20
6.02951
 30
0.0
 40
0.01
 41
0.01
  0
VERTEX
  8
0
 10
9.54135
 20
6.15549
 30
0.0
 40
0.01
 41
0.01
  0
VERTEX
  8
0
 10
9.85628
 20
6.15549
 30
0.0
 40
0.01
 41
0.01
  0
VERTEX
  8
0
 10
9.85628
 20
6.02951
 30
0.0
 40
0.01
 41
0.01
  0
VERTEX
  8
0
 10
10.1713
 20
6.02951
 30
0.0
 40
0.01
 41
0.01
  0
VERTEX
  8
0
 10
10.1713
 20
6.15549
 30
0.0
 40
0.01
 41
0.01
  0
VERTEX
  8
0
 10
10.4862
 20
6.15549
 30
0.0
 40
0.01
 41
0.01
  0
VERTEX
  8
0
 10
10.4862
 20
6.02951
 30
0.0
 40
0.01
 41
0.01
  0
VERTEX
  8
0
 10
10.8012
 20
6.02951
 30
0.0
 40
0.01
 41
0.01
  0
VERTEX
  8
0
 10
10.8012
 20
6.15549
 30
0.0
 40
0.01
 41
0.01
  0
VERTEX
  8
0
 10
11.1162
 20
6.15549
 30
0.0
 40
0.01
 41
0.01
  0
VERTEX
  8
0
 10
11.1162
 20
6.02951
 30
0.0
 40
0.01
 41
0.01
  0
VERTEX
  8
0
 10
11.4311
 20
6.02951
 30
0.0
 40
0.01
 41
0.01
  0
VERTEX
  8
0
 10
11.4311
 20
6.15549
 30
0.0
 40
0.01
 41
0.01
  0
VERTEX
  8
0
 10
11.746
 20
6.15549
 30
0.0
 40
0.01
 41
0.01
  0
VERTEX
  8
0
 10
11.746
 20
6.02951
 30
0.0
 40
0.01
 41
0.01
  0
VERTEX
  8
0
 10
12.061
 20
6.02951
 30
0.0
 40
0.01
 41
0.01
  0
VERTEX
  8
0
 10
12.061
 20
6.15549
 30
0.0
 40
0.01
 41
0.01
  0
VERTEX
  8
0
 10
12.376
 20
6.15549
 30
0.0
 40
0.01
 41
0.01
  0
VERTEX
  8
0
 10
12.376
 20
6.02951
 30
0.0
 40
0.01
 41
0.01
  0
VERTEX
  8
0
 10
12.691
 20
6.02951
 30
0.0
 40
0.01
 41
0.01
  0
VERTEX
  8
0
 10
12.691
 20
6.15549
 30
0.0
 40
0.01
 41
0.01
  0
VERTEX
  8
0
 10
13.0059
 20
6.15549
 30
0.0
 40
0.01
 41
0.01
  0
VERTEX
  8
0
 10
13.0059
 20
6.02951
 30
0.0
 40
0.01
 41
0.01
  0
VERTEX
  8
0
 10
13.3209
 20
6.02951
 30
0.0
 40
0.01
 41
0.01
  0
VERTEX
  8
0
 10
13.3209
 20
6.15549
 30
0.0
 40
0.01
 41
0.01
  0
VERTEX
  8
0
 10
13.6358
 20
6.15549
 30
0.0
 40
0.01
 41
0.01
  0
VERTEX
  8
0
 10
13.6358
 20
6.02951
 30
0.0
 40
0.01
 41
0.01
  0
VERTEX
  8
0
 10
13.9508
 20
6.02951
 30
0.0
 40
0.01
 41
0.01
  0
VERTEX
  8
0
 10
13.9508
 20
6.15549
 30
0.0
 40
0.01
 41
0.01
  0
VERTEX
  8
0
 10
14.2657
 20
6.15549
 30
0.0
 40
0.01
 41
0.01
  0
VERTEX
  8
0
 10
14.2657
 20
6.02951
 30
0.0
 40
0.01
 41
0.01
  0
VERTEX
  8
0
 10
14.5807
 20
6.02951
 30
0.0
 40
0.01
 41
0.01
  0
VERTEX
  8
0
 10
14.5807
 20
6.15549
 30
0.0
 40
0.01
 41
0.01
  0
VERTEX
  8
0
 10
14.8957
 20
6.15549
 30
0.0
 40
0.01
 41
0.01
  0
VERTEX
  8
0
 10
14.8957
 20
6.02951
 30
0.0
 40
0.01
 41
0.01
  0
VERTEX
  8
0
 10
15.2106
 20
6.02951
 30
0.0
 40
0.01
 41
0.01
  0
VERTEX
  8
0
 10
15.2106
 20
6.15549
 30
0.0
 40
0.01
 41
0.01
  0
VERTEX
  8
0
 10
15.3346
 20
6.15549
 30
0.0
 40
0.01
 41
0.01
  0
VERTEX
  8
0
 10
15.3346
 20
6.00982
 30
0.0
 40
0.01
 41
0.01
  0
VERTEX
  8
0
 10
15.4803
 20
6.00982
 30
0.0
 40
0.01
 41
0.01
  0
VERTEX
  8
0
 10
15.4803
 20
6.15549
 30
0.0
 40
0.01
 41
0.01
  0
VERTEX
  8
0
 10
15.6043
 20
6.15549
 30
0.0
 40
0.01
 41
0.01
  0
VERTEX
  8
0
 10
15.6043
 20
6.02951
 30
0.0
 40
0.01
 41
0.01
  0
VERTEX
  8
0
 10
15.9981
 20
6.02951
 30
0.0
 40
0.01
 41
0.01
  0
VERTEX
  8
0
 10
15.9981
 20
5.70275
 30
0.0
 40
0.01
 41
0.01
  0
VERTEX
  8
0
 10
15.8721
 20
5.70275
 30
0.0
 40
0.01
 41
0.01
  0
VERTEX
  8
0
 10
15.8721
 20
5.53738
 30
0.0
 40
0.01
 41
0.01
  0
VERTEX
  8
0
 10
15.2067
 20
5.53738
 30
0.0
 40
0.01
 41
0.01
  0
VERTEX
  8
0
 10
15.2067
 20
5.58658
 30
0.0
 40
0.01
 41
0.01
  0
VERTEX
  8
0
 10
15.1083
 20
5.58658
 30
0.0
 40
0.01
 41
0.01
  0
VERTEX
  8
0
 10
15.1083
 20
5.53738
 30
0.0
 40
0.01
 41
0.01
  0
VERTEX
  8
0
 10
15.0099
 20
5.53738
 30
0.0
 40
0.01
 41
0.01
  0
VERTEX
  8
0
 10
15.0099
 20
5.41531
 30
0.0
 40
0.01
 41
0.01
  0
VERTEX
  8
0
 10
15.1083
 20
5.41531
 30
0.0
 40
0.01
 41
0.01
  0
VERTEX
  8
0
 10
15.1083
 20
5.3661
 30
0.0
 40
0.01
 41
0.01
  0
VERTEX
  8
0
 10
15.2067
 20
5.3661
 30
0.0
 40
0.01
 41
0.01
  0
VERTEX
  8
0
 10
15.2067
 20
5.41531
 30
0.0
 40
0.01
 41
0.01
  0
VERTEX
  8
0
 10
15.8721
 20
5.41531
 30
0.0
 40
0.01
 41
0.01
  0
VERTEX
  8
0
 10
15.8721
 20
5.25
 30
0.0
 40
0.01
 41
0.01
  0
VERTEX
  8
0
 10
15.9981
 20
5.25
 30
0.0
 40
0.01
 41
0.01
  0
VERTEX
  8
0
 10
15.9981
 20
4.935
 30
0.0
 40
0.01
 41
0.01
  0
VERTEX
  8
0
 10
15.8721
 20
4.935
 30
0.0
 40
0.01
 41
0.01
  0
VERTEX
  8
0
 10
15.8721
 20
4.62007
 30
0.0
 40
0.01
 41
0.01
  0
VERTEX
  8
0
 10
15.9981
 20
4.62007
 30
0.0
 40
0.01
 41
0.01
  0
VERTEX
  8
0
 10
15.9981
 20
4.30512
 30
0.0
 40
0.01
 41
0.01
  0
VERTEX
  8
0
 10
15.8721
 20
4.30512
 30
0.0
 40
0.01
 41
0.01
  0
VERTEX
  8
0
 10
15.8721
 20
3.99013
 30
0.0
 40
0.01
 41
0.01
  0
VERTEX
  8
0
 10
15.9981
 20
3.99013
 30
0.0
 40
0.01
 41
0.01
  0
VERTEX
  8
0
 10
15.9981
 20
3.67518
 30
0.0
 40
0.01
 41
0.01
  0
VERTEX
  8
0
 10
15.8721
 20
3.67518
 30
0.0
 40
0.01
 41
0.01
  0
VERTEX
  8
0
 10
15.8721
 20
3.36025
 30
0.0
 40
0.01
 41
0.01
  0
VERTEX
  8
0
 10
15.9981
 20
3.36025
 30
0.0
 40
0.01
 41
0.01
  0
VERTEX
  8
0
 10
15.9981
 20
3.04525
 30
0.0
 40
0.01
 41
0.01
  0
VERTEX
  8
0
 10
15.8721
 20
3.04525
 30
0.0
 40
0.01
 41
0.01
  0
VERTEX
  8
0
 10
15.8721
 20
2.73031
 30
0.0
 40
0.01
 41
0.01
  0
VERTEX
  8
0
 10
15.9981
 20
2.73031
 30
0.0
 40
0.01
 41
0.01
  0
VERTEX
  8
0
 10
15.9981
 20
2.41531
 30
0.0
 40
0.01
 41
0.01
  0
VERTEX
  8
0
 10
15.8721
 20
2.41531
 30
0.0
 40
0.01
 41
0.01
  0
VERTEX
  8
0
 10
15.8721
 20
2.10038
 30
0.0
 40
0.01
 41
0.01
  0
VERTEX
  8
0
 10
15.9981
 20
2.10038
 30
0.0
 40
0.01
 41
0.01
  0
VERTEX
  8
0
 10
15.9981
 20
1.78543
 30
0.0
 40
0.01
 41
0.01
  0
VERTEX
  8
0
 10
15.8721
 20
1.78543
 30
0.0
 40
0.01
 41
0.01
  0
VERTEX
  8
0
 10
15.8721
 20
1.47043
 30
0.0
 40
0.01
 41
0.01
  0
VERTEX
  8
0
 10
15.9981
 20
1.47043
 30
0.0
 40
0.01
 41
0.01
  0
VERTEX
  8
0
 10
15.9981
 20
1.15549
 30
0.0
 40
0.01
 41
0.01
  0
VERTEX
  8
0
 10
15.8721
 20
1.15549
 30
0.0
 40
0.01
 41
0.01
  0
VERTEX
  8
0
 10
15.8721
 20
0.990126
 30
0.0
 40
0.01
 41
0.01
  0
VERTEX
  8
0
 10
15.2067
 20
0.990126
 30
0.0
 40
0.01
 41
0.01
  0
VERTEX
  8
0
 10
15.2067
 20
1.03933
 30
0.0
 40
0.01
 41
0.01
  0
VERTEX
  8
0
 10
15.1083
 20
1.03933
 30
0.0
 40
0.01
 41
0.01
  0
VERTEX
  8
0
 10
15.1083
 20
0.990126
 30
0.0
 40
0.01
 41
0.01
  0
VERTEX
  8
0
 10
15.0099
 20
0.990126
 30
0.0
 40
0.01
 41
0.01
  0
VERTEX
  8
0
 10
15.0099
 20
0.86811
 30
0.0
 40
0.01
 41
0.01
  0
VERTEX
  8
0
 10
15.1083
 20
0.86811
 30
0.0
 40
0.01
 41
0.01
  0
VERTEX
  8
0
 10
15.1083
 20
0.818901
 30
0.0
 40
0.01
 41
0.01
  0
VERTEX
  8
0
 10
15.2067
 20
0.818901
 30
0.0
 40
0.01
 41
0.01
  0
VERTEX
  8
0
 10
15.2067
 20
0.86811
 30
0.0
 40
0.01
 41
0.01
  0
VERTEX
  8
0
 10
15.8721
 20
0.86811
 30
0.0
 40
0.01
 41
0.01
  0
VERTEX
  8
0
 10
15.8721
 20
0.702746
 30
0.0
 40
0.01
 41
0.01
  0
VERTEX
  8
0
 10
15.9981
 20
0.702746
 30
0.0
 40
0.01
 41
0.01
  0
VERTEX
  8
0
 10
15.9981
 20
0.375976
 30
0.0
 40
0.01
 41
0.01
  0
VERTEX
  8
0
 10
15.6043
 20
0.375976
 30
0.0
 40
0.01
 41
0.01
  0
VERTEX
  8
0
 10
15.6043
 20
0.25
 30
0.0
 40
0.01
 41
0.01
  0
VERTEX
  8
0
 10
15.4803
 20
0.25
 30
0.0
 40
0.01
 41
0.01
  0
VERTEX
  8
0
 10
15.4803
 20
0.395671
 30
0.0
 40
0.01
 41
0.01
  0
VERTEX
  8
0
 10
15.3346
 20
0.395671
 30
0.0
 40
0.01
 41
0.01
  0
VERTEX
  8
0
 10
15.3346
 20
0.25
 30
0.0
 40
0.01
 41
0.01
  0
VERTEX
  8
0
 10
15.2106
 20
0.25
 30
0.0
 40
0.01
 41
0.01
  0
VERTEX
  8
0
 10
15.2106
 20
0.375976
 30
0.0
 40
0.01
 41
0.01
  0
VERTEX
  8
0
 10
14.8957
 20
0.375976
 30
0.0
 40
0.01
 41
0.01
  0
VERTEX
  8
0
 10
14.8957
 20
0.25
 30
0.0
 40
0.01
 41
0.01
  0
VERTEX
  8
0
 10
14.5807
 20
0.25
 30
0.0
 40
0.01
 41
0.01
  0
VERTEX
  8
0
 10
14.5807
 20
0.375976
 30
0.0
 40
0.01
 41
0.01
  0
VERTEX
  8
0
 10
14.2657
 20
0.375976
 30
0.0
 40
0.01
 41
0.01
  0
VERTEX
  8
0
 10
14.2657
 20
0.25
 30
0.0
 40
0.01
 41
0.01
  0
VERTEX
  8
0
 10
13.9508
 20
0.25
 30
0.0
 40
0.01
 41
0.01
  0
VERTEX
  8
0
 10
13.9508
 20
0.375976
 30
0.0
 40
0.01
 41
0.01
  0
VERTEX
  8
0
 10
13.6358
 20
0.375976
 30
0.0
 40
0.01
 41
0.01
  0
VERTEX
  8
0
 10
13.6358
 20
0.25
 30
0.0
 40
0.01
 41
0.01
  0
VERTEX
  8
0
 10
13.3209
 20
0.25
 30
0.0
 40
0.01
 41
0.01
  0
VERTEX
  8
0
 10
13.3209
 20
0.375976
 30
0.0
 40
0.01
 41
0.01
  0
VERTEX
  8
0
 10
13.0059
 20
0.375976
 30
0.0
 40
0.01
 41
0.01
  0
VERTEX
  8
0
 10
13.0059
 20
0.25
 30
0.0
 40
0.01
 41
0.01
  0
VERTEX
  8
0
 10
12.691
 20
0.25
 30
0.0
 40
0.01
 41
0.01
  0
VERTEX
  8
0
 10
12.691
 20
0.375976
 30
0.0
 40
0.01
 41
0.01
  0
VERTEX
  8
0
 10
12.376
 20
0.375976
 30
0.0
 40
0.01
 41
0.01
  0
VERTEX
  8
0
 10
12.376
 20
0.25
 30
0.0
 40
0.01
 41
0.01
  0
VERTEX
  8
0
 10
12.061
 20
0.25
 30
0.0
 40
0.01
 41
0.01
  0
VERTEX
  8
0
 10
12.061
 20
0.375976
 30
0.0
 40
0.01
 41
0.01
  0
VERTEX
  8
0
 10
11.746
 20
0.375976
 30
0.0
 40
0.01
 41
0.01
  0
VERTEX
  8
0
 10
11.746
 20
0.25
 30
0.0
 40
0.01
 41
0.01
  0
VERTEX
  8
0
 10
11.4311
 20
0.25
 30
0.0
 40
0.01
 41
0.01
  0
VERTEX
  8
0
 10
11.4311
 20
0.375976
 30
0.0
 40
0.01
 41
0.01
  0
VERTEX
  8
0
 10
11.1162
 20
0.375976
 30
0.0
 40
0.01
 41
0.01
  0
VERTEX
  8
0
 10
11.1162
 20
0.25
 30
0.0
 40
0.01
 41
0.01
  0
VERTEX
  8
0
 10
10.8012
 20
0.25
 30
0.0
 40
0.01
 41
0.01
  0
VERTEX
  8
0
 10
10.8012
 20
0.375976
 30
0.0
 40
0.01
 41
0.01
  0
VERTEX
  8
0
 10
10.4862
 20
0.375976
 30
0.0
 40
0.01
 41
0.01
  0
VERTEX
  8
0
 10
10.4862
 20
0.25
 30
0.0
 40
0.01
 41
0.01
  0
VERTEX
  8
0
 10
10.1713
 20
0.25
 30
0.0
 40
0.01
 41
0.01
  0
VERTEX
  8
0
 10
10.1713
 20
0.375976
 30
0.0
 40
0.01
 41
0.01
  0
VERTEX
  8
0
 10
9.85628
 20
0.375976
 30
0.0
 40
0.01
 41
0.01
  0
VERTEX
  8
0
 10
9.85628
 20
0.25
 30
0.0
 40
0.01
 41
0.01
  0
VERTEX
  8
0
 10
9.54135
 20
0.25
 30
0.0
 40
0.01
 41
0.01
  0
VERTEX
  8
0
 10
9.54135
 20
0.375976
 30
0.0
 40
0.01
 41
0.01
  0
VERTEX
  8
0
 10
9.2264
 20
0.375976
 30
0.0
 40
0.01
 41
0.01
  0
VERTEX
  8
0
 10
9.2264
 20
0.25
 30
0.0
 40
0.01
 41
0.01
  0
VERTEX
  8
0
 10
8.9114
 20
0.25
 30
0.0
 40
0.01
 41
0.01
  0
VERTEX
  8
0
 10
8.9114
 20
0.375976
 30
0.0
 40
0.01
 41
0.01
  0
VERTEX
  8
0
 10
8.59646
 20
0.375976
 30
0.0
 40
0.01
 41
0.01
  0
VERTEX
  8
0
 10
8.59646
 20
0.25
 30
0.0
 40
0.01
 41
0.01
  0
VERTEX
  8
0
 10
8.28153
 20
0.25
 30
0.0
 40
0.01
 41
0.01
  0
VERTEX
  8
0
 10
8.28153
 20
0.375976
 30
0.0
 40
0.01
 41
0.01
  0
VERTEX
  8
0
 10
7.96653
 20
0.375976
 30
0.0
 40
0.01
 41
0.01
  0
VERTEX
  8
0
 10
7.96653
 20
0.25
 30
0.0
 40
0.01
 41
0.01
  0
VERTEX
  8
0
 10
7.65158
 20
0.25
 30
0.0
 40
0.01
 41
0.01
  0
VERTEX
  8
0
 10
7.65158
 20
0.375976
 30
0.0
 40
0.01
 41
0.01
  0
VERTEX
  8
0
 10
7.33658
 20
0.375976
 30
0.0
 40
0.01
 41
0.01
  0
VERTEX
  8
0
 10
7.33658
 20
0.25
 30
0.0
 40
0.01
 41
0.01
  0
VERTEX
  8
0
 10
7.02165
 20
0.25
 30
0.0
 40
0.01
 41
0.01
  0
VERTEX
  8
0
 10
7.02165
 20
0.375976
 30
0.0
 40
0.01
 41
0.01
  0
VERTEX
  8
0
 10
6.70671
 20
0.375976
 30
0.0
 40
0.01
 41
0.01
  0
VERTEX
  8
0
 10
6.70671
 20
0.25
 30
0.0
 40
0.01
 41
0.01
  0
VERTEX
  8
0
 10
6.39171
 20
0.25
 30
0.0
 40
0.01
 41
0.01
  0
VERTEX
  8
0
 10
6.39171
 20
0.375976
 30
0.0
 40
0.01
 41
0.01
  0
VERTEX
  8
0
 10
6.07676
 20
0.375976
 30
0.0
 40
0.01
 41
0.01
  0
VERTEX
  8
0
 10
6.07676
 20
0.25
 30
0.0
 40
0.01
 41
0.01
  0
VERTEX
  8
0
 10
5.76183
 20
0.25
 30
0.0
 40
0.01
 41
0.01
  0
VERTEX
  8
0
 10
5.76183
 20
0.375976
 30
0.0
 40
0.01
 41
0.01
  0
VERTEX
  8
0
 10
5.44683
 20
0.375976
 30
0.0
 40
0.01
 41
0.01
  0
VERTEX
  8
0
 10
5.44683
 20
0.25
 30
0.0
 40
0.01
 41
0.01
  0
VERTEX
  8
0
 10
5.13189
 20
0.25
 30
0.0
 40
0.01
 41
0.01
  0
VERTEX
  8
0
 10
5.13189
 20
0.375976
 30
0.0
 40
0.01
 41
0.01
  0
VERTEX
  8
0
 10
4.81694
 20
0.375976
 30
0.0
 40
0.01
 41
0.01
  0
VERTEX
  8
0
 10
4.81694
 20
0.25
 30
0.0
 40
0.01
 41
0.01
  0
VERTEX
  8
0
 10
4.50196
 20
0.25
 30
0.0
 40
0.01
 41
0.01
  0
VERTEX
  8
0
 10
4.50196
 20
0.375976
 30
0.0
 40
0.01
 41
0.01
  0
VERTEX
  8
0
 10
4.18701
 20
0.375976
 30
0.0
 40
0.01
 41
0.01
  0
VERTEX
  8
0
 10
4.18701
 20
0.25
 30
0.0
 40
0.01
 41
0.01
  0
VERTEX
  8
0
 10
3.87207
 20
0.25
 30
0.0
 40
0.01
 41
0.01
  0
VERTEX
  8
0
 10
3.87207
 20
0.375976
 30
0.0
 40
0.01
 41
0.01
  0
VERTEX
  8
0
 10
3.55707
 20
0.375976
 30
0.0
 40
0.01
 41
0.01
  0
VERTEX
  8
0
 10
3.55707
 20
0.25
 30
0.0
 40
0.01
 41
0.01
  0
VERTEX
  8
0
 10
3.24214
 20
0.25
 30
0.0
 40
0.01
 41
0.01
  0
VERTEX
  8
0
 10
3.24214
 20
0.375976
 30
0.0
 40
0.01
 41
0.01
  0
VERTEX
  8
0
 10
2.92719
 20
0.375976
 30
0.0
 40
0.01
 41
0.01
  0
VERTEX
  8
0
 10
2.92719
 20
0.25
 30
0.0
 40
0.01
 41
0.01
  0
VERTEX
  8
0
 10
2.61219
 20
0.25
 30
0.0
 40
0.01
 41
0.01
  0
VERTEX
  8
0
 10
2.61219
 20
0.375976
 30
0.0
 40
0.01
 41
0.01
  0
VERTEX
  8
0
 10
2.29725
 20
0.375976
 30
0.0
 40
0.01
 41
0.01
  0
VERTEX
  8
0
 10
2.29725
 20
0.25
 30
0.0
 40
0.01
 41
0.01
  0
VERTEX
  8
0
 10
1.98226
 20
0.25
 30
0.0
 40
0.01
 41
0.01
  0
VERTEX
  8
0
 10
1.98226
 20
0.375976
 30
0.0
 40
0.01
 41
0.01
  0
VERTEX
  8
0
 10
1.66732
 20
0.375976
 30
0.0
 40
0.01
 41
0.01
  0
VERTEX
  8
0
 10
1.66732
 20
0.25
 30
0.0
 40
0.01
 41
0.01
  0
VERTEX
  8
0
 10
1.35238
 20
0.25
 30
0.0
 40
0.01
 41
0.01
  0
VERTEX
  8
0
 10
1.35238
 20
0.375976
 30
0.0
 40
0.01
 41
0.01
  0
VERTEX
  8
0
 10
1.03738
 20
0.375976
 30
0.0
 40
0.01
 41
0.01
  0
VERTEX
  8
0
 10
1.03738
 20
0.25
 30
0.0
 40
0.01
 41
0.01
  0
VERTEX
  8
0
 10
0.913411
 20
0.25
 30
0.0
 40
0.01
 41
0.01
  0
VERTEX
  8
0
 10
0.913411
 20
0.395671
 30
0.0
 40
0.01
 41
0.01
  0
VERTEX
  8
0
 10
0.76774
 20
0.395671
 30
0.0
 40
0.01
 41
0.01
  0
VERTEX
  8
0
 10
0.76774
 20
0.25
 30
0.0
 40
0.01
 41
0.01
  0
VERTEX
  8
0
 10
0.643718
 20
0.25
 30
0.0
 40
0.01
 41
0.01
  0
VERTEX
  8
0
 10
0.643718
 20
0.375976
 30
0.0
 40
0.01
 41
0.01
  0
VERTEX
  8
0
 10
0.25
 20
0.375976
 30
0.0
 40
0.01
 41
0.01
  0
VERTEX
  8
0
 10
0.25
 20
0.702746
 30
0.0
 40
0.01
 41
0.01
  0
VERTEX
  8
0
 10
0.375976
 20
0.702746
 30
0.0
 40
0.01
 41
0.01
  0
VERTEX
  8
0
 10
0.375976
 20
0.86811
 30
0.0
 40
0.01
 41
0.01
  0
VERTEX
  8
0
 10
1.04134
 20
0.86811
 30
0.0
 40
0.01
 41
0.01
  0
VERTEX
  8
0
 10
1.04134
 20
0.818901
 30
0.0
 40
0.01
 41
0.01
  0
VERTEX
  8
0
 10
1.13976
 20
0.818901
 30
0.0
 40
0.01
 41
0.01
  0
VERTEX
  8
0
 10
1.13976
 20
0.86811
 30
0.0
 40
0.01
 41
0.01
  0
VERTEX
  8
0
 10
1.23817
 20
0.86811
 30
0.0
 40
0.01
 41
0.01
  0
VERTEX
  8
0
 10
1.23817
 20
0.990126
 30
0.0
 40
0.01
 41
0.01
  0
VERTEX
  8
0
 10
1.13976
 20
0.990126
 30
0.0
 40
0.01
 41
0.01
  0
VERTEX
  8
0
 10
1.13976
 20
1.03933
 30
0.0
 40
0.01
 41
0.01
  0
VERTEX
  8
0
 10
1.04134
 20
1.03933
 30
0.0
 40
0.01
 41
0.01
  0
VERTEX
  8
0
 10
1.04134
 20
0.990126
 30
0.0
 40
0.01
 41
0.01
  0
VERTEX
  8
0
 10
0.375976
 20
0.990126
 30
0.0
 40
0.01
 41
0.01
  0
VERTEX
  8
0
 10
0.375976
 20
1.15549
 30
0.0
 40
0.01
 41
0.01
  0
VERTEX
  8
0
 10
0.25
 20
1.15549
 30
0.0
 40
0.01
 41
0.01
  0
VERTEX
  8
0
 10
0.25
 20
1.47043
 30
0.0
 40
0.01
 41
0.01
  0
VERTEX
  8
0
 10
0.375976
 20
1.47043
 30
0.0
 40
0.01
 41
0.01
  0
VERTEX
  8
0
 10
0.375976
 20
1.78543
 30
0.0
 40
0.01
 41
0.01
  0
VERTEX
  8
0
 10
0.25
 20
1.78543
 30
0.0
 40
0.01
 41
0.01
  0
VERTEX
  8
0
 10
0.25
 20
2.10038
 30
0.0
 40
0.01
 41
0.01
  0
VERTEX
  8
0
 10
0.375976
 20
2.10038
 30
0.0
 40
0.01
 41
0.01
  0
VERTEX
  8
0
 10
0.375976
 20
2.41531
 30
0.0
 40
0.01
 41
0.01
  0
VERTEX
  8
0
 10
0.25
 20
2.41531
 30
0.0
 40
0.01
 41
0.01
  0
VERTEX
  8
0
 10
0.25
 20
2.73031
 30
0.0
 40
0.01
 41
0.01
  0
VERTEX
  8
0
 10
0.375976
 20
2.73031
 30
0.0
 40
0.01
 41
0.01
  0
VERTEX
  8
0
 10
0.375976
 20
3.04525
 30
0.0
 40
0.01
 41
0.01
  0
VERTEX
  8
0
 10
0.25
 20
3.04525
 30
0.0
 40
0.01
 41
0.01
  0
VERTEX
  8
0
 10
0.25
 20
3.36025
 30
0.0
 40
0.01
 41
0.01
  0
VERTEX
  8
0
 10
0.375976
 20
3.36025
 30
0.0
 40
0.01
 41
0.01
  0
VERTEX
  8
0
 10
0.375976
 20
3.67518
 30
0.0
 40
0.01
 41
0.01
  0
VERTEX
  8
0
 10
0.25
 20
3.67518
 30
0.0
 40
0.01
 41
0.01
  0
VERTEX
  8
0
 10
0.25
 20
3.99013
 30
0.0
 40
0.01
 41
0.01
  0
VERTEX
  8
0
 10
0.375976
 20
3.99013
 30
0.0
 40
0.01
 41
0.01
  0
VERTEX
  8
0
 10
0.375976
 20
4.30512
 30
0.0
 40
0.01
 41
0.01
  0
VERTEX
  8
0
 10
0.25
 20
4.30512
 30
0.0
 40
0.01
 41
0.01
  0
VERTEX
  8
0
 10
0.25
 20
4.62007
 30
0.0
 40
0.01
 41
0.01
  0
VERTEX
  8
0
 10
0.375976
 20
4.62007
 30
0.0
 40
0.01
 41
0.01
  0
VERTEX
  8
0
 10
0.375976
 20
4.935
 30
0.0
 40
0.01
 41
0.01
  0
VERTEX
  8
0
 10
0.25
 20
4.935
 30
0.0
 40
0.01
 41
0.01
  0
VERTEX
  8
0
 10
0.25
 20
5.25
 30
0.0
 40
0.01
 41
0.01
  0
VERTEX
  8
0
 10
0.375976
 20
5.25
 30
0.0
 40
0.01
 41
0.01
  0
VERTEX
  8
0
 10
0.375976
 20
5.41531
 30
0.0
 40
0.01
 41
0.01
  0
VERTEX
  8
0
 10
1.04134
 20
5.41531
 30
0.0
 40
0.01
 41
0.01
  0
VERTEX
  8
0
 10
1.04134
 20
5.3661
 30
0.0
 40
0.01
 41
0.01
  0
VERTEX
  8
0
 10
1.13976
 20
5.3661
 30
0.0
 40
0.01
 41
0.01
  0
VERTEX
  8
0
 10
1.13976
 20
5.41531
 30
0.0
 40
0.01
 41
0.01
  0
VERTEX
  8
0
 10
1.23817
 20
5.41531
 30
0.0
 40
0.01
 41
0.01
  0
VERTEX
  8
0
 10
1.23817
 20
5.53738
 30
0.0
 40
0.01
 41
0.01
  0
VERTEX
  8
0
 10
1.13976
 20
5.53738
 30
0.0
 40
0.01
 41
0.01
  0
VERTEX
  8
0
 10
1.13976
 20
5.58658
 30
0.0
 40
0.01
 41
0.01
  0
VERTEX
  8
0
 10
1.04134
 20
5.58658
 30
0.0
 40
0.01
 41
0.01
  0
VERTEX
  8
0
 10
1.04134
 20
5.53738
 30
0.0
 40
0.01
 41
0.01
  0
VERTEX
  8
0
 10
0.375976
 20
5.53738
 30
0.0
 40
0.01
 41
0.01
  0
VERTEX
  8
0
 10
0.375976
 20
5.70275
 30
0.0
 40
0.01
 41
0.01
  0
VERTEX
  8
0
 10
0.25
 20
5.70275
 30
0.0
 40
0.01
 41
0.01
  0
VERTEX
  8
0
 10
0.25
 20
6.02951
 30
0.0
 40
0.01
 41
0.01
  0
SEQEND
 8
0
  0
POLYLINE
  8
0
 62
     0
 66
     1
 10
0
 20
0
 30
0.0
 70
     1
 40
0.72
 41
0.72
  0
VERTEX
  8
0
 10
15.9981
 20
6.02951
 30
0.0
 40
0.01
 41
0.01
  0
VERTEX
  8
0
 10
16.3917
 20
6.02951
 30
0.0
 40
0.01
 41
0.01
  0
VERTEX
  8
0
 10
16.3917
 20
6.15549
 30
0.0
 40
0.01
 41
0.01
  0
VERTEX
  8
0
 10
16.5157
 20
6.15549
 30
0.0
 40
0.01
 41
0.01
  0
VERTEX
  8
0
 10
16.5157
 20
6.00982
 30
0.0
 40
0.01
 41
0.01
  0
VERTEX
  8
0
 10
16.6614
 20
6.00982
 30
0.0
 40
0.01
 41
0.01
  0
VERTEX
  8
0
 10
16.6614
 20
6.15549
 30
0.0
 40
0.01
 41
0.01
  0
VERTEX
  8
0
 10
16.7854
 20
6.15549
 30
0.0
 40
0.01
 41
0.01
  0
VERTEX
  8
0
 10
16.7854
 20
6.02951
 30
0.0
 40
0.01
 41
0.01
  0
VERTEX
  8
0
 10
17.1004
 20
6.02951
 30
0.0
 40
0.01
 41
0.01
  0
VERTEX
  8
0
 10
17.1004
 20
6.15549
 30
0.0
 40
0.01
 41
0.01
  0
VERTEX
  8
0
 10
17.4154
 20
6.15549
 30
0.0
 40
0.01
 41
0.01
  0
VERTEX
  8
0
 10
17.4154
 20
6.02951
 30
0.0
 40
0.01
 41
0.01
  0
VERTEX
  8
0
 10
17.7303
 20
6.02951
 30
0.0
 40
0.01
 41
0.01
  0
VERTEX
  8
0
 10
17.7303
 20
6.15549
 30
0.0
 40
0.01
 41
0.01
  0
VERTEX
  8
0
 10
18.0453
 20
6.15549
 30
0.0
 40
0.01
 41
0.01
  0
VERTEX
  8
0
 10
18.0453
 20
6.02951
 30
0.0
 40
0.01
 41
0.01
  0
VERTEX
  8
0
 10
18.3603
 20
6.02951
 30
0.0
 40
0.01
 41
0.01
  0
VERTEX
  8
0
 10
18.3603
 20
6.15549
 30
0.0
 40
0.01
 41
0.01
  0
VERTEX
  8
0
 10
18.6751
 20
6.15549
 30
0.0
 40
0.01
 41
0.01
  0
VERTEX
  8
0
 10
18.6751
 20
6.02951
 30
0.0
 40
0.01
 41
0.01
  0
VERTEX
  8
0
 10
18.9901
 20
6.02951
 30
0.0
 40
0.01
 41
0.01
  0
VERTEX
  8
0
 10
18.9901
 20
6.15549
 30
0.0
 40
0.01
 41
0.01
  0
VERTEX
  8
0
 10
19.3051
 20
6.15549
 30
0.0
 40
0.01
 41
0.01
  0
VERTEX
  8
0
 10
19.3051
 20
6.02951
 30
0.0
 40
0.01
 41
0.01
  0
VERTEX
  8
0
 10
19.62
 20
6.02951
 30
0.0
 40
0.01
 41
0.01
  0
VERTEX
  8
0
 10
19.62
 20
6.15549
 30
0.0
 40
0.01
 41
0.01
  0
VERTEX
  8
0
 10
19.935
 20
6.15549
 30
0.0
 40
0.01
 41
0.01
  0
VERTEX
  8
0
 10
19.935
 20
6.02951
 30
0.0
 40
0.01
 41
0.01
  0
VERTEX
  8
0
 10
20.25
 20
6.02951
 30
0.0
 40
0.01
 41
0.01
  0
VERTEX
  8
0
 10
20.25
 20
6.15549
 30
0.0
 40
0.01
 41
0.01
  0
VERTEX
  8
0
 10
20.565
 20
6.15549
 30
0.0
 40
0.01
 41
0.01
  0
VERTEX
  8
0
 10
20.565
 20
6.02951
 30
0.0
 40
0.01
 41
0.01
  0
VERTEX
  8
0
 10
20.88
 20
6.02951
 30
0.0
 40
0.01
 41
0.01
  0
VERTEX
  8
0
 10
20.88
 20
6.15549
 30
0.0
 40
0.01
 41
0.01
  0
VERTEX
  8
0
 10
21.1949
 20
6.15549
 30
0.0
 40
0.01
 41
0.01
  0
VERTEX
  8
0
 10
21.1949
 20
6.02951
 30
0.0
 40
0.01
 41
0.01
  0
VERTEX
  8
0
 10
21.5099
 20
6.02951
 30
0.0
 40
0.01
 41
0.01
  0
VERTEX
  8
0
 10
21.5099
 20
6.15549
 30
0.0
 40
0.01
 41
0.01
  0
VERTEX
  8
0
 10
21.8249
 20
6.15549
 30
0.0
 40
0.01
 41
0.01
  0
VERTEX
  8
0
 10
21.8249
 20
6.02951
 30
0.0
 40
0.01
 41
0.01
  0
VERTEX
  8
0
 10
22.1397
 20
6.02951
 30
0.0
 40
0.01
 41
0.01
  0
VERTEX
  8
0
 10
22.1397
 20
6.15549
 30
0.0
 40
0.01
 41
0.01
  0
VERTEX
  8
0
 10
22.4547
 20
6.15549
 30
0.0
 40
0.01
 41
0.01
  0
VERTEX
  8
0
 10
22.4547
 20
6.02951
 30
0.0
 40
0.01
 41
0.01
  0
VERTEX
  8
0
 10
22.7697
 20
6.02951
 30
0.0
 40
0.01
 41
0.01
  0
VERTEX
  8
0
 10
22.7697
 20
6.15549
 30
0.0
 40
0.01
 41
0.01
  0
VERTEX
  8
0
 10
23.0846
 20
6.15549
 30
0.0
 40
0.01
 41
0.01
  0
VERTEX
  8
0
 10
23.0846
 20
6.02951
 30
0.0
 40
0.01
 41
0.01
  0
VERTEX
  8
0
 10
23.3996
 20
6.02951
 30
0.0
 40
0.01
 41
0.01
  0
VERTEX
  8
0
 10
23.3996
 20
6.15549
 30
0.0
 40
0.01
 41
0.01
  0
VERTEX
  8
0
 10
23.7146
 20
6.15549
 30
0.0
 40
0.01
 41
0.01
  0
VERTEX
  8
0
 10
23.7146
 20
6.02951
 30
0.0
 40
0.01
 41
0.01
  0
VERTEX
  8
0
 10
24.0296
 20
6.02951
 30
0.0
 40
0.01
 41
0.01
  0
VERTEX
  8
0
 10
24.0296
 20
6.15549
 30
0.0
 40
0.01
 41
0.01
  0
VERTEX
  8
0
 10
24.3444
 20
6.15549
 30
0.0
 40
0.01
 41
0.01
  0
VERTEX
  8
0
 10
24.3444
 20
6.02951
 30
0.0
 40
0.01
 41
0.01
  0
VERTEX
  8
0
 10
24.6594
 20
6.02951
 30
0.0
 40
0.01
 41
0.01
  0
VERTEX
  8
0
 10
24.6594
 20
6.15549
 30
0.0
 40
0.01
 41
0.01
  0
VERTEX
  8
0
 10
24.9744
 20
6.15549
 30
0.0
 40
0.01
 41
0.01
  0
VERTEX
  8
0
 10
24.9744
 20
6.02951
 30
0.0
 40
0.01
 41
0.01
  0
VERTEX
  8
0
 10
25.2894
 20
6.02951
 30
0.0
 40
0.01
 41
0.01
  0
VERTEX
  8
0
 10
25.2894
 20
6.15549
 30
0.0
 40
0.01
 41
0.01
  0
VERTEX
  8
0
 10
25.6043
 20
6.15549
 30
0.0
 40
0.01
 41
0.01
  0
VERTEX
  8
0
 10
25.6043
 20
6.02951
 30
0.0
 40
0.01
 41
0.01
  0
VERTEX
  8
0
 10
25.9193
 20
6.02951
 30
0.0
 40
0.01
 41
0.01
  0
VERTEX
  8
0
 10
25.9193
 20
6.15549
 30
0.0
 40
0.01
 41
0.01
  0
VERTEX
  8
0
 10
26.2343
 20
6.15549
 30
0.0
 40
0.01
 41
0.01
  0
VERTEX
  8
0
 10
26.2343
 20
6.02951
 30
0.0
 40
0.01
 41
0.01
  0
VERTEX
  8
0
 10
26.5492
 20
6.02951
 30
0.0
 40
0.01
 41
0.01
  0
VERTEX
  8
0
 10
26.5492
 20
6.15549
 30
0.0
 40
0.01
 41
0.01
  0
VERTEX
  8
0
 10
26.8642
 20
6.15549
 30
0.0
 40
0.01
 41
0.01
  0
VERTEX
  8
0
 10
26.8642
 20
6.02951
 30
0.0
 40
0.01
 41
0.01
  0
VERTEX
  8
0
 10
27.1792
 20
6.02951
 30
0.0
 40
0.01
 41
0.01
  0
VERTEX
  8
0
 10
27.1792
 20
6.15549
 30
0.0
 40
0.01
 41
0.01
  0
VERTEX
  8
0
 10
27.494
 20
6.15549
 30
0.0
 40
0.01
 41
0.01
  0
VERTEX
  8
0
 10
27.494
 20
6.02951
 30
0.0
 40
0.01
 41
0.01
  0
VERTEX
  8
0
 10
27.809
 20
6.02951
 30
0.0
 40
0.01
 41
0.01
  0
VERTEX
  8
0
 10
27.809
 20
6.15549
 30
0.0
 40
0.01
 41
0.01
  0
VERTEX
  8
0
 10
28.124
 20
6.15549
 30
0.0
 40
0.01
 41
0.01
  0
VERTEX
  8
0
 10
28.124
 20
6.02951
 30
0.0
 40
0.01
 41
0.01
  0
VERTEX
  8
0
 10
28.439
 20
6.02951
 30
0.0
 40
0.01
 41
0.01
  0
VERTEX
  8
0
 10
28.439
 20
6.15549
 30
0.0
 40
0.01
 41
0.01
  0
VERTEX
  8
0
 10
28.754
 20
6.15549
 30
0.0
 40
0.01
 41
0.01
  0
VERTEX
  8
0
 10
28.754
 20
6.02951
 30
0.0
 40
0.01
 41
0.01
  0
VERTEX
  8
0
 10
29.0689
 20
6.02951
 30
0.0
 40
0.01
 41
0.01
  0
VERTEX
  8
0
 10
29.0689
 20
6.15549
 30
0.0
 40
0.01
 41
0.01
  0
VERTEX
  8
0
 10
29.3839
 20
6.15549
 30
0.0
 40
0.01
 41
0.01
  0
VERTEX
  8
0
 10
29.3839
 20
6.02951
 30
0.0
 40
0.01
 41
0.01
  0
VERTEX
  8
0
 10
29.6989
 20
6.02951
 30
0.0
 40
0.01
 41
0.01
  0
VERTEX
  8
0
 10
29.6989
 20
6.15549
 30
0.0
 40
0.01
 41
0.01
  0
VERTEX
  8
0
 10
30.0138
 20
6.15549
 30
0.0
 40
0.01
 41
0.01
  0
VERTEX
  8
0
 10
30.0138
 20
6.02951
 30
0.0
 40
0.01
 41
0.01
  0
VERTEX
  8
0
 10
30.3287
 20
6.02951
 30
0.0
 40
0.01
 41
0.01
  0
VERTEX
  8
0
 10
30.3287
 20
6.15549
 30
0.0
 40
0.01
 41
0.01
  0
VERTEX
  8
0
 10
30.6438
 20
6.15549
 30
0.0
 40
0.01
 41
0.01
  0
VERTEX
  8
0
 10
30.6438
 20
6.02951
 30
0.0
 40
0.01
 41
0.01
  0
VERTEX
  8
0
 10
30.9586
 20
6.02951
 30
0.0
 40
0.01
 41
0.01
  0
VERTEX
  8
0
 10
30.9586
 20
6.15549
 30
0.0
 40
0.01
 41
0.01
  0
VERTEX
  8
0
 10
31.0826
 20
6.15549
 30
0.0
 40
0.01
 41
0.01
  0
VERTEX
  8
0
 10
31.0826
 20
6.00982
 30
0.0
 40
0.01
 41
0.01
  0
VERTEX
  8
0
 10
31.2283
 20
6.00982
 30
0.0
 40
0.01
 41
0.01
  0
VERTEX
  8
0
 10
31.2283
 20
6.15549
 30
0.0
 40
0.01
 41
0.01
  0
VERTEX
  8
0
 10
31.3524
 20
6.15549
 30
0.0
 40
0.01
 41
0.01
  0
VERTEX
  8
0
 10
31.3524
 20
6.02951
 30
0.0
 40
0.01
 41
0.01
  0
VERTEX
  8
0
 10
31.746
 20
6.02951
 30
0.0
 40
0.01
 41
0.01
  0
VERTEX
  8
0
 10
31.746
 20
5.70275
 30
0.0
 40
0.01
 41
0.01
  0
VERTEX
  8
0
 10
31.62
 20
5.70275
 30
0.0
 40
0.01
 41
0.01
  0
VERTEX
  8
0
 10
31.62
 20
5.53738
 30
0.0
 40
0.01
 41
0.01
  0
VERTEX
  8
0
 10
30.9547
 20
5.53738
 30
0.0
 40
0.01
 41
0.01
  0
VERTEX
  8
0
 10
30.9547
 20
5.58658
 30
0.0
 40
0.01
 41
0.01
  0
VERTEX
  8
0
 10
30.8562
 20
5.58658
 30
0.0
 40
0.01
 41
0.01
  0
VERTEX
  8
0
 10
30.8562
 20
5.53738
 30
0.0
 40
0.01
 41
0.01
  0
VERTEX
  8
0
 10
30.7579
 20
5.53738
 30
0.0
 40
0.01
 41
0.01
  0
VERTEX
  8
0
 10
30.7579
 20
5.41531
 30
0.0
 40
0.01
 41
0.01
  0
VERTEX
  8
0
 10
30.8562
 20
5.41531
 30
0.0
 40
0.01
 41
0.01
  0
VERTEX
  8
0
 10
30.8562
 20
5.3661
 30
0.0
 40
0.01
 41
0.01
  0
VERTEX
  8
0
 10
30.9547
 20
5.3661
 30
0.0
 40
0.01
 41
0.01
  0
VERTEX
  8
0
 10
30.9547
 20
5.41531
 30
0.0
 40
0.01
 41
0.01
  0
VERTEX
  8
0
 10
31.62
 20
5.41531
 30
0.0
 40
0.01
 41
0.01
  0
VERTEX
  8
0
 10
31.62
 20
5.25
 30
0.0
 40
0.01
 41
0.01
  0
VERTEX
  8
0
 10
31.746
 20
5.25
 30
0.0
 40
0.01
 41
0.01
  0
VERTEX
  8
0
 10
31.746
 20
4.935
 30
0.0
 40
0.01
 41
0.01
  0
VERTEX
  8
0
 10
31.62
 20
4.935
 30
0.0
 40
0.01
 41
0.01
  0
VERTEX
  8
0
 10
31.62
 20
4.62007
 30
0.0
 40
0.01
 41
0.01
  0
VERTEX
  8
0
 10
31.746
 20
4.62007
 30
0.0
 40
0.01
 41
0.01
  0
VERTEX
  8
0
 10
31.746
 20
4.30512
 30
0.0
 40
0.01
 41
0.01
  0
VERTEX
  8
0
 10
31.62
 20
4.30512
 30
0.0
 40
0.01
 41
0.01
  0
VERTEX
  8
0
 10
31.62
 20
3.99013
 30
0.0
 40
0.01
 41
0.01
  0
VERTEX
  8
0
 10
31.746
 20
3.99013
 30
0.0
 40
0.01
 41
0.01
  0
VERTEX
  8
0
 10
31.746
 20
3.67518
 30
0.0
 40
0.01
 41
0.01
  0
VERTEX
  8
0
 10
31.62
 20
3.67518
 30
0.0
 40
0.01
 41
0.01
  0
VERTEX
  8
0
 10
31.62
 20
3.36025
 30
0.0
 40
0.01
 41
0.01
  0
VERTEX
  8
0
 10
31.746
 20
3.36025
 30
0.0
 40
0.01
 41
0.01
  0
VERTEX
  8
0
 10
31.746
 20
3.04525
 30
0.0
 40
0.01
 41
0.01
  0
VERTEX
  8
0
 10
31.62
 20
3.04525
 30
0.0
 40
0.01
 41
0.01
  0
VERTEX
  8
0
 10
31.62
 20
2.73031
 30
0.0
 40
0.01
 41
0.01
  0
VERTEX
  8
0
 10
31.746
 20
2.73031
 30
0.0
 40
0.01
 41
0.01
  0
VERTEX
  8
0
 10
31.746
 20
2.41531
 30
0.0
 40
0.01
 41
0.01
  0
VERTEX
  8
0
 10
31.62
 20
2.41531
 30
0.0
 40
0.01
 41
0.01
  0
VERTEX
  8
0
 10
31.62
 20
2.10038
 30
0.0
 40
0.01
 41
0.01
  0
VERTEX
  8
0
 10
31.746
 20
2.10038
 30
0.0
 40
0.01
 41
0.01
  0
VERTEX
  8
0
 10
31.746
 20
1.78543
 30
0.0
 40
0.01
 41
0.01
  0
VERTEX
  8
0
 10
31.62
 20
1.78543
 30
0.0
 40
0.01
 41
0.01
  0
VERTEX
  8
0
 10
31.62
 20
1.47043
 30
0.0
 40
0.01
 41
0.01
  0
VERTEX
  8
0
 10
31.746
 20
1.47043
 30
0.0
 40
0.01
 41
0.01
  0
VERTEX
  8
0
 10
31.746
 20
1.15549
 30
0.0
 40
0.01
 41
0.01
  0
VERTEX
  8
0
 10
31.62
 20
1.15549
 30
0.0
 40
0.01
 41
0.01
  0
VERTEX
  8
0
 10
31.62
 20
0.990126
 30
0.0
 40
0.01
 41
0.01
  0
VERTEX
  8
0
 10
30.9547
 20
0.990126
 30
0.0
 40
0.01
 41
0.01
  0
VERTEX
  8
0
 10
30.9547
 20
1.03933
 30
0.0
 40
0.01
 41
0.01
  0
VERTEX
  8
0
 10
30.8562
 20
1.03933
 30
0.0
 40
0.01
 41
0.01
  0
VERTEX
  8
0
 10
30.8562
 20
0.990126
 30
0.0
 40
0.01
 41
0.01
  0
VERTEX
  8
0
 10
30.7579
 20
0.990126
 30
0.0
 40
0.01
 41
0.01
  0
VERTEX
  8
0
 10
30.7579
 20
0.86811
 30
0.0
 40
0.01
 41
0.01
  0
VERTEX
  8
0
 10
30.8562
 20
0.86811
 30
0.0
 40
0.01
 41
0.01
  0
VERTEX
  8
0
 10
30.8562
 20
0.818901
 30
0.0
 40
0.01
 41
0.01
  0
VERTEX
  8
0
 10
30.9547
 20
0.818901
 30
0.0
 40
0.01
 41
0.01
  0
VERTEX
  8
0
 10
30.9547
 20
0.86811
 30
0.0
 40
0.01
 41
0.01
  0
VERTEX
  8
0
 10
31.62
 20
0.86811
 30
0.0
 40
0.01
 41
0.01
  0
VERTEX
  8
0
 10
31.62
 20
0.702746
 30
0.0
 40
0.01
 41
0.01
  0
VERTEX
  8
0
 10
31.746
 20
0.702746
 30
0.0
 40
0.01
 41
0.01
  0
VERTEX
  8
0
 10
31.746
 20
0.375976
 30
0.0
 40
0.01
 41
0.01
  0
VERTEX
  8
0
 10
31.3524
 20
0.375976
 30
0.0
 40
0.01
 41
0.01
  0
VERTEX
  8
0
 10
31.3524
 20
0.25
 30
0.0
 40
0.01
 41
0.01
  0
VERTEX
  8
0
 10
31.2283
 20
0.25
 30
0.0
 40
0.01
 41
0.01
  0
VERTEX
  8
0
 10
31.2283
 20
0.395671
 30
0.0
 40
0.01
 41
0.01
  0
VERTEX
  8
0
 10
31.0826
 20
0.395671
 30
0.0
 40
0.01
 41
0.01
  0
VERTEX
  8
0
 10
31.0826
 20
0.25
 30
0.0
 40
0.01
 41
0.01
  0
VERTEX
  8
0
 10
30.9586
 20
0.25
 30
0.0
 40
0.01
 41
0.01
  0
VERTEX
  8
0
 10
30.9586
 20
0.375976
 30
0.0
 40
0.01
 41
0.01
  0
VERTEX
  8
0
 10
30.6438
 20
0.375976
 30
0.0
 40
0.01
 41
0.01
  0
VERTEX
  8
0
 10
30.6438
 20
0.25
 30
0.0
 40
0.01
 41
0.01
  0
VERTEX
  8
0
 10
30.3287
 20
0.25
 30
0.0
 40
0.01
 41
0.01
  0
VERTEX
  8
0
 10
30.3287
 20
0.375976
 30
0.0
 40
0.01
 41
0.01
  0
VERTEX
  8
0
 10
30.0138
 20
0.375976
 30
0.0
 40
0.01
 41
0.01
  0
VERTEX
  8
0
 10
30.0138
 20
0.25
 30
0.0
 40
0.01
 41
0.01
  0
VERTEX
  8
0
 10
29.6989
 20
0.25
 30
0.0
 40
0.01
 41
0.01
  0
VERTEX
  8
0
 10
29.6989
 20
0.375976
 30
0.0
 40
0.01
 41
0.01
  0
VERTEX
  8
0
 10
29.3839
 20
0.375976
 30
0.0
 40
0.01
 41
0.01
  0
VERTEX
  8
0
 10
29.3839
 20
0.25
 30
0.0
 40
0.01
 41
0.01
  0
VERTEX
  8
0
 10
29.0689
 20
0.25
 30
0.0
 40
0.01
 41
0.01
  0
VERTEX
  8
0
 10
29.0689
 20
0.375976
 30
0.0
 40
0.01
 41
0.01
  0
VERTEX
  8
0
 10
28.754
 20
0.375976
 30
0.0
 40
0.01
 41
0.01
  0
VERTEX
  8
0
 10
28.754
 20
0.25
 30
0.0
 40
0.01
 41
0.01
  0
VERTEX
  8
0
 10
28.439
 20
0.25
 30
0.0
 40
0.01
 41
0.01
  0
VERTEX
  8
0
 10
28.439
 20
0.375976
 30
0.0
 40
0.01
 41
0.01
  0
VERTEX
  8
0
 10
28.124
 20
0.375976
 30
0.0
 40
0.01
 41
0.01
  0
VERTEX
  8
0
 10
28.124
 20
0.25
 30
0.0
 40
0.01
 41
0.01
  0
VERTEX
  8
0
 10
27.809
 20
0.25
 30
0.0
 40
0.01
 41
0.01
  0
VERTEX
  8
0
 10
27.809
 20
0.375976
 30
0.0
 40
0.01
 41
0.01
  0
VERTEX
  8
0
 10
27.494
 20
0.375976
 30
0.0
 40
0.01
 41
0.01
  0
VERTEX
  8
0
 10
27.494
 20
0.25
 30
0.0
 40
0.01
 41
0.01
  0
VERTEX
  8
0
 10
27.1792
 20
0.25
 30
0.0
 40
0.01
 41
0.01
  0
VERTEX
  8
0
 10
27.1792
 20
0.375976
 30
0.0
 40
0.01
 41
0.01
  0
VERTEX
  8
0
 10
26.8642
 20
0.375976
 30
0.0
 40
0.01
 41
0.01
  0
VERTEX
  8
0
 10
26.8642
 20
0.25
 30
0.0
 40
0.01
 41
0.01
  0
VERTEX
  8
0
 10
26.5492
 20
0.25
 30
0.0
 40
0.01
 41
0.01
  0
VERTEX
  8
0
 10
26.5492
 20
0.375976
 30
0.0
 40
0.01
 41
0.01
  0
VERTEX
  8
0
 10
26.2343
 20
0.375976
 30
0.0
 40
0.01
 41
0.01
  0
VERTEX
  8
0
 10
26.2343
 20
0.25
 30
0.0
 40
0.01
 41
0.01
  0
VERTEX
  8
0
 10
25.9193
 20
0.25
 30
0.0
 40
0.01
 41
0.01
  0
VERTEX
  8
0
 10
25.9193
 20
0.375976
 30
0.0
 40
0.01
 41
0.01
  0
VERTEX
  8
0
 10
25.6043
 20
0.375976
 30
0.0
 40
0.01
 41
0.01
  0
VERTEX
  8
0
 10
25.6043
 20
0.25
 30
0.0
 40
0.01
 41
0.01
  0
VERTEX
  8
0
 10
25.2894
 20
0.25
 30
0.0
 40
0.01
 41
0.01
  0
VERTEX
  8
0
 10
25.2894
 20
0.375976
 30
0.0
 40
0.01
 41
0.01
  0
VERTEX
  8
0
 10
24.9744
 20
0.375976
 30
0.0
 40
0.01
 41
0.01
  0
VERTEX
  8
0
 10
24.9744
 20
0.25
 30
0.0
 40
0.01
 41
0.01
  0
VERTEX
  8
0
 10
24.6594
 20
0.25
 30
0.0
 40
0.01
 41
0.01
  0
VERTEX
  8
0
 10
24.6594
 20
0.375976
 30
0.0
 40
0.01
 41
0.01
  0
VERTEX
  8
0
 10
24.3444
 20
0.375976
 30
0.0
 40
0.01
 41
0.01
  0
VERTEX
  8
0
 10
24.3444
 20
0.25
 30
0.0
 40
0.01
 41
0.01
  0
VERTEX
  8
0
 10
24.0296
 20
0.25
 30
0.0
 40
0.01
 41
0.01
  0
VERTEX
  8
0
 10
24.0296
 20
0.375976
 30
0.0
 40
0.01
 41
0.01
  0
VERTEX
  8
0
 10
23.7146
 20
0.375976
 30
0.0
 40
0.01
 41
0.01
  0
VERTEX
  8
0
 10
23.7146
 20
0.25
 30
0.0
 40
0.01
 41
0.01
  0
VERTEX
  8
0
 10
23.3996
 20
0.25
 30
0.0
 40
0.01
 41
0.01
  0
VERTEX
  8
0
 10
23.3996
 20
0.375976
 30
0.0
 40
0.01
 41
0.01
  0
VERTEX
  8
0
 10
23.0846
 20
0.375976
 30
0.0
 40
0.01
 41
0.01
  0
VERTEX
  8
0
 10
23.0846
 20
0.25
 30
0.0
 40
0.01
 41
0.01
  0
VERTEX
  8
0
 10
22.7697
 20
0.25
 30
0.0
 40
0.01
 41
0.01
  0
VERTEX
  8
0
 10
22.7697
 20
0.375976
 30
0.0
 40
0.01
 41
0.01
  0
VERTEX
  8
0
 10
22.4547
 20
0.375976
 30
0.0
 40
0.01
 41
0.01
  0
VERTEX
  8
0
 10
22.4547
 20
0.25
 30
0.0
 40
0.01
 41
0.01
  0
VERTEX
  8
0
 10
22.1397
 20
0.25
 30
0.0
 40
0.01
 41
0.01
  0
VERTEX
  8
0
 10
22.1397
 20
0.375976
 30
0.0
 40
0.01
 41
0.01
  0
VERTEX
  8
0
 10
21.8249
 20
0.375976
 30
0.0
 40
0.01
 41
0.01
  0
VERTEX
  8
0
 10
21.8249
 20
0.25
 30
0.0
 40
0.01
 41
0.01
  0
VERTEX
  8
0
 10
21.5099
 20
0.25
 30
0.0
 40
0.01
 41
0.01
  0
VERTEX
  8
0
 10
21.5099
 20
0.375976
 30
0.0
 40
0.01
 41
0.01
  0
VERTEX
  8
0
 10
21.1949
 20
0.375976
 30
0.0
 40
0.01
 41
0.01
  0
VERTEX
  8
0
 10
21.1949
 20
0.25
 30
0.0
 40
0.01
 41
0.01
  0
VERTEX
  8
0
 10
20.88
 20
0.25
 30
0.0
 40
0.01
 41
0.01
  0
VERTEX
  8
0
 10
20.88
 20
0.375976
 30
0.0
 40
0.01
 41
0.01
  0
VERTEX
  8
0
 10
20.565
 20
0.375976
 30
0.0
 40
0.01
 41
0.01
  0
VERTEX
  8
0
 10
20.565
 20
0.25
 30
0.0
 40
0.01
 41
0.01
  0
VERTEX
  8
0
 10
20.25
 20
0.25
 30
0.0
 40
0.01
 41
0.01
  0
VERTEX
  8
0
 10
20.25
 20
0.375976
 30
0.0
 40
0.01
 41
0.01
  0
VERTEX
  8
0
 10
19.935
 20
0.375976
 30
0.0
 40
0.01
 41
0.01
  0
VERTEX
  8
0
 10
19.935
 20
0.25
 30
0.0
 40
0.01
 41
0.01
  0
VERTEX
  8
0
 10
19.62
 20
0.25
 30
0.0
 40
0.01
 41
0.01
  0
VERTEX
  8
0
 10
19.62
 20
0.375976
 30
0.0
 40
0.01
 41
0.01
  0
VERTEX
  8
0
 10
19.3051
 20
0.375976
 30
0.0
 40
0.01
 41
0.01
  0
VERTEX
  8
0
 10
19.3051
 20
0.25
 30
0.0
 40
0.01
 41
0.01
  0
VERTEX
  8
0
 10
18.9901
 20
0.25
 30
0.0
 40
0.01
 41
0.01
  0
VERTEX
  8
0
 10
18.9901
 20
0.375976
 30
0.0
 40
0.01
 41
0.01
  0
VERTEX
  8
0
 10
18.6751
 20
0.375976
 30
0.0
 40
0.01
 41
0.01
  0
VERTEX
  8
0
 10
18.6751
 20
0.25
 30
0.0
 40
0.01
 41
0.01
  0
VERTEX
  8
0
 10
18.3603
 20
0.25
 30
0.0
 40
0.01
 41
0.01
  0
VERTEX
  8
0
 10
18.3603
 20
0.375976
 30
0.0
 40
0.01
 41
0.01
  0
VERTEX
  8
0
 10
18.0453
 20
0.375976
 30
0.0
 40
0.01
 41
0.01
  0
VERTEX
  8
0
 10
18.0453
 20
0.25
 30
0.0
 40
0.01
 41
0.01
  0
VERTEX
  8
0
 10
17.7303
 20
0.25
 30
0.0
 40
0.01
 41
0.01
  0
VERTEX
  8
0
 10
17.7303
 20
0.375976
 30
0.0
 40
0.01
 41
0.01
  0
VERTEX
  8
0
 10
17.4154
 20
0.375976
 30
0.0
 40
0.01
 41
0.01
  0
VERTEX
  8
0
 10
17.4154
 20
0.25
 30
0.0
 40
0.01
 41
0.01
  0
VERTEX
  8
0
 10
17.1004
 20
0.25
 30
0.0
 40
0.01
 41
0.01
  0
VERTEX
  8
0
 10
17.1004
 20
0.375976
 30
0.0
 40
0.01
 41
0.01
  0
VERTEX
  8
0
 10
16.7854
 20
0.375976
 30
0.0
 40
0.01
 41
0.01
  0
VERTEX
  8
0
 10
16.7854
 20
0.25
 30
0.0
 40
0.01
 41
0.01
  0
VERTEX
  8
0
 10
16.6614
 20
0.25
 30
0.0
 40
0.01
 41
0.01
  0
VERTEX
  8
0
 10
16.6614
 20
0.395671
 30
0.0
 40
0.01
 41
0.01
  0
VERTEX
  8
0
 10
16.5157
 20
0.395671
 30
0.0
 40
0.01
 41
0.01
  0
VERTEX
  8
0
 10
16.5157
 20
0.25
 30
0.0
 40
0.01
 41
0.01
  0
VERTEX
  8
0
 10
16.3917
 20
0.25
 30
0.0
 40
0.01
 41
0.01
  0
VERTEX
  8
0
 10
16.3917
 20
0.375976
 30
0.0
 40
0.01
 41
0.01
  0
VERTEX
  8
0
 10
15.9981
 20
0.375976
 30
0.0
 40
0.01
 41
0.01
  0
VERTEX
  8
0
 10
15.9981
 20
0.702746
 30
0.0
 40
0.01
 41
0.01
  0
VERTEX
  8
0
 10
16.124
 20
0.702746
 30
0.0
 40
0.01
 41
0.01
  0
VERTEX
  8
0
 10
16.124
 20
0.86811
 30
0.0
 40
0.01
 41
0.01
  0
VERTEX
  8
0
 10
16.7894
 20
0.86811
 30
0.0
 40
0.01
 41
0.01
  0
VERTEX
  8
0
 10
16.7894
 20
0.818901
 30
0.0
 40
0.01
 41
0.01
  0
VERTEX
  8
0
 10
16.8878
 20
0.818901
 30
0.0
 40
0.01
 41
0.01
  0
VERTEX
  8
0
 10
16.8878
 20
0.86811
 30
0.0
 40
0.01
 41
0.01
  0
VERTEX
  8
0
 10
16.9863
 20
0.86811
 30
0.0
 40
0.01
 41
0.01
  0
VERTEX
  8
0
 10
16.9863
 20
0.990126
 30
0.0
 40
0.01
 41
0.01
  0
VERTEX
  8
0
 10
16.8878
 20
0.990126
 30
0.0
 40
0.01
 41
0.01
  0
VERTEX
  8
0
 10
16.8878
 20
1.03933
 30
0.0
 40
0.01
 41
0.01
  0
VERTEX
  8
0
 10
16.7894
 20
1.03933
 30
0.0
 40
0.01
 41
0.01
  0
VERTEX
  8
0
 10
16.7894
 20
0.990126
 30
0.0
 40
0.01
 41
0.01
  0
VERTEX
  8
0
 10
16.124
 20
0.990126
 30
0.0
 40
0.01
 41
0.01
  0
VERTEX
  8
0
 10
16.124
 20
1.15549
 30
0.0
 40
0.01
 41
0.01
  0
VERTEX
  8
0
 10
15.9981
 20
1.15549
 30
0.0
 40
0.01
 41
0.01
  0
VERTEX
  8
0
 10
15.9981
 20
1.47043
 30
0.0
 40
0.01
 41
0.01
  0
VERTEX
  8
0
 10
16.124
 20
1.47043
 30
0.0
 40
0.01
 41
0.01
  0
VERTEX
  8
0
 10
16.124
 20
1.78543
 30
0.0
 40
0.01
 41
0.01
  0
VERTEX
  8
0
 10
15.9981
 20
1.78543
 30
0.0
 40
0.01
 41
0.01
  0
VERTEX
  8
0
 10
15.9981
 20
2.10038
 30
0.0
 40
0.01
 41
0.01
  0
VERTEX
  8
0
 10
16.124
 20
2.10038
 30
0.0
 40
0.01
 41
0.01
  0
VERTEX
  8
0
 10
16.124
 20
2.41531
 30
0.0
 40
0.01
 41
0.01
  0
VERTEX
  8
0
 10
15.9981
 20
2.41531
 30
0.0
 40
0.01
 41
0.01
  0
VERTEX
  8
0
 10
15.9981
 20
2.73031
 30
0.0
 40
0.01
 41
0.01
  0
VERTEX
  8
0
 10
16.124
 20
2.73031
 30
0.0
 40
0.01
 41
0.01
  0
VERTEX
  8
0
 10
16.124
 20
3.04525
 30
0.0
 40
0.01
 41
0.01
  0
VERTEX
  8
0
 10
15.9981
 20
3.04525
 30
0.0
 40
0.01
 41
0.01
  0
VERTEX
  8
0
 10
15.9981
 20
3.36025
 30
0.0
 40
0.01
 41
0.01
  0
VERTEX
  8
0
 10
16.124
 20
3.36025
 30
0.0
 40
0.01
 41
0.01
  0
VERTEX
  8
0
 10
16.124
 20
3.67518
 30
0.0
 40
0.01
 41
0.01
  0
VERTEX
  8
0
 10
15.9981
 20
3.67518
 30
0.0
 40
0.01
 41
0.01
  0
VERTEX
  8
0
 10
15.9981
 20
3.99013
 30
0.0
 40
0.01
 41
0.01
  0
VERTEX
  8
0
 10
16.124
 20
3.99013
 30
0.0
 40
0.01
 41
0.01
  0
VERTEX
  8
0
 10
16.124
 20
4.30512
 30
0.0
 40
0.01
 41
0.01
  0
VERTEX
  8
0
 10
15.9981
 20
4.30512
 30
0.0
 40
0.01
 41
0.01
  0
VERTEX
  8
0
 10
15.9981
 20
4.62007
 30
0.0
 40
0.01
 41
0.01
  0
VERTEX
  8
0
 10
16.124
 20
4.62007
 30
0.0
 40
0.01
 41
0.01
  0
VERTEX
  8
0
 10
16.124
 20
4.935
 30
0.0
 40
0.01
 41
0.01
  0
VERTEX
  8
0
 10
15.9981
 20
4.935
 30
0.0
 40
0.01
 41
0.01
  0
VERTEX
  8
0
 10
15.9981
 20
5.25
 30
0.0
 40
0.01
 41
0.01
  0
VERTEX
  8
0
 10
16.124
 20
5.25
 30
0.0
 40
0.01
 41
0.01
  0
VERTEX
  8
0
 10
16.124
 20
5.41531
 30
0.0
 40
0.01
 41
0.01
  0
VERTEX
  8
0
 10
16.7894
 20
5.41531
 30
0.0
 40
0.01
 41
0.01
  0
VERTEX
  8
0
 10
16.7894
 20
5.3661
 30
0.0
 40
0.01
 41
0.01
  0
VERTEX
  8
0
 10
16.8878
 20
5.3661
 30
0.0
 40
0.01
 41
0.01
  0
VERTEX
  8
0
 10
16.8878
 20
5.41531
 30
0.0
 40
0.01
 41
0.01
  0
VERTEX
  8
0
 10
16.9863
 20
5.41531
 30
0.0
 40
0.01
 41
0.01
  0
VERTEX
  8
0
 10
16.9863
 20
5.53738
 30
0.0
 40
0.01
 41
0.01
  0
VERTEX
  8
0
 10
16.8878
 20
5.53738
 30
0.0
 40
0.01
 41
0.01
  0
VERTEX
  8
0
 10
16.8878
 20
5.58658
 30
0.0
 40
0.01
 41
0.01
  0
VERTEX
  8
0
 10
16.7894
 20
5.58658
 30
0.0
 40
0.01
 41
0.01
  0
VERTEX
  8
0
 10
16.7894
 20
5.53738
 30
0.0
 40
0.01
 41
0.01
  0
VERTEX
  8
0
 10
16.124
 20
5.53738
 30
0.0
 40
0.01
 41
0.01
  0
VERTEX
  8
0
 10
16.124
 20
5.70275
 30
0.0
 40
0.01
 41
0.01
  0
VERTEX
  8
0
 10
15.9981
 20
5.70275
 30
0.0
 40
0.01
 41
0.01
  0
VERTEX
  8
0
 10
15.9981
 20
6.02951
 30
0.0
 40
0.01
 41
0.01
  0
SEQEND
 8
0
  0
ENDSEC
  0
EOF
