M48
;GenerationSoftware,Autodesk,EAGLE,8.7.0*%
;CreationDate,2018-04-05T03:10:36Z*%
FMAT,2
ICI,OFF
METRIC,TZ,000.000
T5C0.500
T4C0.900
T3C1.600
T2C2.550
T1C3.300
%
G90
M71
T1
X56737Y49133
X19874Y48971
X57092Y6559
X20000Y6000
T2
X31660Y12700
X46540Y12700
T3
X30975Y7860
X47225Y7860
T4
X35530Y10400
X36550Y7860
X37570Y10400
X38590Y7860
X39610Y10400
X40630Y7860
X41650Y10400
X42670Y7860
T5
X40829Y43472
X39579Y43472
X38329Y43472
X37079Y43472
X35829Y43472
M30