G04 EAGLE Gerber X2 export*
G75*
%MOMM*%
%FSLAX34Y34*%
%LPD*%
%AMOC8*
5,1,8,0,0,1.08239X$1,22.5*%
G01*
%ADD10C,0.203200*%
%ADD11C,0.050800*%
%ADD12C,0.101600*%
%ADD13R,7.750000X0.375000*%
%ADD14C,0.152400*%


D10*
X344286Y415220D02*
X422286Y415220D01*
X422286Y445220D01*
X344286Y445220D01*
X344286Y415220D01*
D11*
X344536Y427720D02*
X348286Y427720D01*
X348286Y417720D01*
X418286Y427720D02*
X422036Y427720D01*
X418286Y427720D02*
X418286Y417720D01*
X348286Y433970D02*
X344536Y433970D01*
X418286Y433970D02*
X422036Y433970D01*
X348286Y433970D02*
X348286Y441470D01*
X418286Y441470D01*
X418286Y433970D01*
X418286Y441470D02*
X420786Y443970D01*
X348286Y441470D02*
X345786Y443970D01*
D12*
X346294Y448228D02*
X351487Y448228D01*
X346294Y448228D02*
X346294Y459912D01*
X351487Y459912D01*
X350189Y454719D02*
X346294Y454719D01*
X356177Y459912D02*
X356177Y448228D01*
X362669Y448228D02*
X356177Y459912D01*
X362669Y459912D02*
X362669Y448228D01*
X370552Y448228D02*
X373148Y448228D01*
X370552Y448228D02*
X370453Y448230D01*
X370353Y448236D01*
X370254Y448245D01*
X370156Y448258D01*
X370058Y448275D01*
X369960Y448296D01*
X369864Y448321D01*
X369769Y448349D01*
X369675Y448381D01*
X369582Y448416D01*
X369490Y448455D01*
X369400Y448498D01*
X369312Y448543D01*
X369225Y448593D01*
X369141Y448645D01*
X369058Y448701D01*
X368978Y448759D01*
X368900Y448821D01*
X368825Y448886D01*
X368752Y448954D01*
X368682Y449024D01*
X368614Y449097D01*
X368549Y449172D01*
X368487Y449250D01*
X368429Y449330D01*
X368373Y449413D01*
X368321Y449497D01*
X368271Y449584D01*
X368226Y449672D01*
X368183Y449762D01*
X368144Y449854D01*
X368109Y449947D01*
X368077Y450041D01*
X368049Y450136D01*
X368024Y450232D01*
X368003Y450330D01*
X367986Y450428D01*
X367973Y450526D01*
X367964Y450625D01*
X367958Y450725D01*
X367956Y450824D01*
X367955Y450824D02*
X367955Y457316D01*
X367956Y457316D02*
X367958Y457415D01*
X367964Y457515D01*
X367973Y457614D01*
X367986Y457712D01*
X368003Y457810D01*
X368024Y457908D01*
X368049Y458004D01*
X368077Y458099D01*
X368109Y458193D01*
X368144Y458286D01*
X368183Y458378D01*
X368226Y458468D01*
X368271Y458556D01*
X368321Y458643D01*
X368373Y458727D01*
X368429Y458810D01*
X368487Y458890D01*
X368549Y458968D01*
X368614Y459043D01*
X368682Y459116D01*
X368752Y459186D01*
X368825Y459254D01*
X368900Y459319D01*
X368978Y459381D01*
X369058Y459439D01*
X369141Y459495D01*
X369225Y459547D01*
X369312Y459597D01*
X369400Y459642D01*
X369490Y459685D01*
X369582Y459724D01*
X369674Y459759D01*
X369769Y459791D01*
X369864Y459819D01*
X369960Y459844D01*
X370058Y459865D01*
X370156Y459882D01*
X370254Y459895D01*
X370353Y459904D01*
X370453Y459910D01*
X370552Y459912D01*
X373148Y459912D01*
X377513Y456666D02*
X377513Y451474D01*
X377513Y456666D02*
X377515Y456779D01*
X377521Y456892D01*
X377531Y457005D01*
X377545Y457118D01*
X377562Y457230D01*
X377584Y457341D01*
X377609Y457451D01*
X377639Y457561D01*
X377672Y457669D01*
X377709Y457776D01*
X377749Y457882D01*
X377794Y457986D01*
X377842Y458089D01*
X377893Y458190D01*
X377948Y458289D01*
X378006Y458386D01*
X378068Y458481D01*
X378133Y458574D01*
X378201Y458664D01*
X378272Y458752D01*
X378347Y458838D01*
X378424Y458921D01*
X378504Y459001D01*
X378587Y459078D01*
X378673Y459153D01*
X378761Y459224D01*
X378851Y459292D01*
X378944Y459357D01*
X379039Y459419D01*
X379136Y459477D01*
X379235Y459532D01*
X379336Y459583D01*
X379439Y459631D01*
X379543Y459676D01*
X379649Y459716D01*
X379756Y459753D01*
X379864Y459786D01*
X379974Y459816D01*
X380084Y459841D01*
X380195Y459863D01*
X380307Y459880D01*
X380420Y459894D01*
X380533Y459904D01*
X380646Y459910D01*
X380759Y459912D01*
X380872Y459910D01*
X380985Y459904D01*
X381098Y459894D01*
X381211Y459880D01*
X381323Y459863D01*
X381434Y459841D01*
X381544Y459816D01*
X381654Y459786D01*
X381762Y459753D01*
X381869Y459716D01*
X381975Y459676D01*
X382079Y459631D01*
X382182Y459583D01*
X382283Y459532D01*
X382382Y459477D01*
X382479Y459419D01*
X382574Y459357D01*
X382667Y459292D01*
X382757Y459224D01*
X382845Y459153D01*
X382931Y459078D01*
X383014Y459001D01*
X383094Y458921D01*
X383171Y458838D01*
X383246Y458752D01*
X383317Y458664D01*
X383385Y458574D01*
X383450Y458481D01*
X383512Y458386D01*
X383570Y458289D01*
X383625Y458190D01*
X383676Y458089D01*
X383724Y457986D01*
X383769Y457882D01*
X383809Y457776D01*
X383846Y457669D01*
X383879Y457561D01*
X383909Y457451D01*
X383934Y457341D01*
X383956Y457230D01*
X383973Y457118D01*
X383987Y457005D01*
X383997Y456892D01*
X384003Y456779D01*
X384005Y456666D01*
X384004Y456666D02*
X384004Y451474D01*
X384005Y451474D02*
X384003Y451361D01*
X383997Y451248D01*
X383987Y451135D01*
X383973Y451022D01*
X383956Y450910D01*
X383934Y450799D01*
X383909Y450689D01*
X383879Y450579D01*
X383846Y450471D01*
X383809Y450364D01*
X383769Y450258D01*
X383724Y450154D01*
X383676Y450051D01*
X383625Y449950D01*
X383570Y449851D01*
X383512Y449754D01*
X383450Y449659D01*
X383385Y449566D01*
X383317Y449476D01*
X383246Y449388D01*
X383171Y449302D01*
X383094Y449219D01*
X383014Y449139D01*
X382931Y449062D01*
X382845Y448987D01*
X382757Y448916D01*
X382667Y448848D01*
X382574Y448783D01*
X382479Y448721D01*
X382382Y448663D01*
X382283Y448608D01*
X382182Y448557D01*
X382079Y448509D01*
X381975Y448464D01*
X381869Y448424D01*
X381762Y448387D01*
X381654Y448354D01*
X381544Y448324D01*
X381434Y448299D01*
X381323Y448277D01*
X381211Y448260D01*
X381098Y448246D01*
X380985Y448236D01*
X380872Y448230D01*
X380759Y448228D01*
X380646Y448230D01*
X380533Y448236D01*
X380420Y448246D01*
X380307Y448260D01*
X380195Y448277D01*
X380084Y448299D01*
X379974Y448324D01*
X379864Y448354D01*
X379756Y448387D01*
X379649Y448424D01*
X379543Y448464D01*
X379439Y448509D01*
X379336Y448557D01*
X379235Y448608D01*
X379136Y448663D01*
X379039Y448721D01*
X378944Y448783D01*
X378851Y448848D01*
X378761Y448916D01*
X378673Y448987D01*
X378587Y449062D01*
X378504Y449139D01*
X378424Y449219D01*
X378347Y449302D01*
X378272Y449388D01*
X378201Y449476D01*
X378133Y449566D01*
X378068Y449659D01*
X378006Y449754D01*
X377948Y449851D01*
X377893Y449950D01*
X377842Y450051D01*
X377794Y450154D01*
X377749Y450258D01*
X377709Y450364D01*
X377672Y450471D01*
X377639Y450579D01*
X377609Y450689D01*
X377584Y450799D01*
X377562Y450910D01*
X377545Y451022D01*
X377531Y451135D01*
X377521Y451248D01*
X377515Y451361D01*
X377513Y451474D01*
X389324Y448228D02*
X389324Y459912D01*
X392570Y459912D01*
X392683Y459910D01*
X392796Y459904D01*
X392909Y459894D01*
X393022Y459880D01*
X393134Y459863D01*
X393245Y459841D01*
X393355Y459816D01*
X393465Y459786D01*
X393573Y459753D01*
X393680Y459716D01*
X393786Y459676D01*
X393890Y459631D01*
X393993Y459583D01*
X394094Y459532D01*
X394193Y459477D01*
X394290Y459419D01*
X394385Y459357D01*
X394478Y459292D01*
X394568Y459224D01*
X394656Y459153D01*
X394742Y459078D01*
X394825Y459001D01*
X394905Y458921D01*
X394982Y458838D01*
X395057Y458752D01*
X395128Y458664D01*
X395196Y458574D01*
X395261Y458481D01*
X395323Y458386D01*
X395381Y458289D01*
X395436Y458190D01*
X395487Y458089D01*
X395535Y457986D01*
X395580Y457882D01*
X395620Y457776D01*
X395657Y457669D01*
X395690Y457561D01*
X395720Y457451D01*
X395745Y457341D01*
X395767Y457230D01*
X395784Y457118D01*
X395798Y457005D01*
X395808Y456892D01*
X395814Y456779D01*
X395816Y456666D01*
X395815Y456666D02*
X395815Y451474D01*
X395816Y451474D02*
X395814Y451361D01*
X395808Y451248D01*
X395798Y451135D01*
X395784Y451022D01*
X395767Y450910D01*
X395745Y450799D01*
X395720Y450689D01*
X395690Y450579D01*
X395657Y450471D01*
X395620Y450364D01*
X395580Y450258D01*
X395535Y450154D01*
X395487Y450051D01*
X395436Y449950D01*
X395381Y449851D01*
X395323Y449754D01*
X395261Y449659D01*
X395196Y449566D01*
X395128Y449476D01*
X395057Y449388D01*
X394982Y449302D01*
X394905Y449219D01*
X394825Y449139D01*
X394742Y449062D01*
X394656Y448987D01*
X394568Y448916D01*
X394478Y448848D01*
X394385Y448783D01*
X394290Y448721D01*
X394193Y448663D01*
X394094Y448608D01*
X393993Y448557D01*
X393890Y448509D01*
X393786Y448464D01*
X393680Y448424D01*
X393573Y448387D01*
X393465Y448354D01*
X393355Y448324D01*
X393245Y448299D01*
X393134Y448277D01*
X393022Y448260D01*
X392909Y448246D01*
X392796Y448236D01*
X392683Y448230D01*
X392570Y448228D01*
X389324Y448228D01*
X401539Y448228D02*
X406732Y448228D01*
X401539Y448228D02*
X401539Y459912D01*
X406732Y459912D01*
X405434Y454719D02*
X401539Y454719D01*
X411496Y459912D02*
X411496Y448228D01*
X411496Y459912D02*
X414741Y459912D01*
X414854Y459910D01*
X414967Y459904D01*
X415080Y459894D01*
X415193Y459880D01*
X415305Y459863D01*
X415416Y459841D01*
X415526Y459816D01*
X415636Y459786D01*
X415744Y459753D01*
X415851Y459716D01*
X415957Y459676D01*
X416061Y459631D01*
X416164Y459583D01*
X416265Y459532D01*
X416364Y459477D01*
X416461Y459419D01*
X416556Y459357D01*
X416649Y459292D01*
X416739Y459224D01*
X416827Y459153D01*
X416913Y459078D01*
X416996Y459001D01*
X417076Y458921D01*
X417153Y458838D01*
X417228Y458752D01*
X417299Y458664D01*
X417367Y458574D01*
X417432Y458481D01*
X417494Y458386D01*
X417552Y458289D01*
X417607Y458190D01*
X417658Y458089D01*
X417706Y457986D01*
X417751Y457882D01*
X417791Y457776D01*
X417828Y457669D01*
X417861Y457561D01*
X417891Y457451D01*
X417916Y457341D01*
X417938Y457230D01*
X417955Y457118D01*
X417969Y457005D01*
X417979Y456892D01*
X417985Y456779D01*
X417987Y456666D01*
X417985Y456553D01*
X417979Y456440D01*
X417969Y456327D01*
X417955Y456214D01*
X417938Y456102D01*
X417916Y455991D01*
X417891Y455881D01*
X417861Y455771D01*
X417828Y455663D01*
X417791Y455556D01*
X417751Y455450D01*
X417706Y455346D01*
X417658Y455243D01*
X417607Y455142D01*
X417552Y455043D01*
X417494Y454946D01*
X417432Y454851D01*
X417367Y454758D01*
X417299Y454668D01*
X417228Y454580D01*
X417153Y454494D01*
X417076Y454411D01*
X416996Y454331D01*
X416913Y454254D01*
X416827Y454179D01*
X416739Y454108D01*
X416649Y454040D01*
X416556Y453975D01*
X416461Y453913D01*
X416364Y453855D01*
X416265Y453800D01*
X416164Y453749D01*
X416061Y453701D01*
X415957Y453656D01*
X415851Y453616D01*
X415744Y453579D01*
X415636Y453546D01*
X415526Y453516D01*
X415416Y453491D01*
X415305Y453469D01*
X415193Y453452D01*
X415080Y453438D01*
X414967Y453428D01*
X414854Y453422D01*
X414741Y453420D01*
X414741Y453421D02*
X411496Y453421D01*
X415391Y453421D02*
X417987Y448228D01*
D13*
X383286Y417095D03*
D12*
X318017Y42672D02*
X310228Y30988D01*
X318017Y30988D02*
X310228Y42672D01*
X325877Y42672D02*
X325984Y42670D01*
X326090Y42664D01*
X326196Y42654D01*
X326302Y42641D01*
X326408Y42623D01*
X326512Y42602D01*
X326616Y42577D01*
X326719Y42548D01*
X326820Y42516D01*
X326920Y42479D01*
X327019Y42439D01*
X327117Y42396D01*
X327213Y42349D01*
X327307Y42298D01*
X327399Y42244D01*
X327489Y42187D01*
X327577Y42127D01*
X327662Y42063D01*
X327745Y41996D01*
X327826Y41926D01*
X327904Y41854D01*
X327980Y41778D01*
X328052Y41700D01*
X328122Y41619D01*
X328189Y41536D01*
X328253Y41451D01*
X328313Y41363D01*
X328370Y41273D01*
X328424Y41181D01*
X328475Y41087D01*
X328522Y40991D01*
X328565Y40893D01*
X328605Y40794D01*
X328642Y40694D01*
X328674Y40593D01*
X328703Y40490D01*
X328728Y40386D01*
X328749Y40282D01*
X328767Y40176D01*
X328780Y40070D01*
X328790Y39964D01*
X328796Y39858D01*
X328798Y39751D01*
X325877Y42672D02*
X325756Y42670D01*
X325635Y42664D01*
X325515Y42654D01*
X325394Y42641D01*
X325275Y42623D01*
X325155Y42602D01*
X325037Y42577D01*
X324920Y42548D01*
X324803Y42515D01*
X324688Y42479D01*
X324574Y42438D01*
X324461Y42395D01*
X324349Y42347D01*
X324240Y42296D01*
X324132Y42241D01*
X324025Y42183D01*
X323921Y42122D01*
X323819Y42057D01*
X323719Y41989D01*
X323621Y41918D01*
X323525Y41844D01*
X323432Y41767D01*
X323342Y41686D01*
X323254Y41603D01*
X323169Y41517D01*
X323086Y41428D01*
X323007Y41337D01*
X322930Y41243D01*
X322857Y41147D01*
X322787Y41049D01*
X322720Y40948D01*
X322656Y40845D01*
X322596Y40740D01*
X322539Y40633D01*
X322485Y40525D01*
X322435Y40415D01*
X322389Y40303D01*
X322346Y40190D01*
X322307Y40075D01*
X327825Y37479D02*
X327904Y37556D01*
X327980Y37637D01*
X328053Y37720D01*
X328123Y37805D01*
X328190Y37893D01*
X328254Y37983D01*
X328314Y38075D01*
X328371Y38170D01*
X328425Y38266D01*
X328476Y38364D01*
X328523Y38464D01*
X328567Y38566D01*
X328607Y38669D01*
X328643Y38773D01*
X328675Y38879D01*
X328704Y38985D01*
X328729Y39093D01*
X328751Y39201D01*
X328768Y39311D01*
X328782Y39420D01*
X328791Y39530D01*
X328797Y39641D01*
X328799Y39751D01*
X327825Y37479D02*
X322307Y30988D01*
X328798Y30988D01*
D14*
X533076Y491330D02*
X533086Y492172D01*
X533117Y493013D01*
X533169Y493853D01*
X533241Y494691D01*
X533334Y495527D01*
X533447Y496361D01*
X533581Y497192D01*
X533735Y498020D01*
X533909Y498843D01*
X534104Y499662D01*
X534318Y500476D01*
X534553Y501284D01*
X534807Y502086D01*
X535080Y502882D01*
X535374Y503671D01*
X535686Y504452D01*
X536018Y505226D01*
X536368Y505991D01*
X536737Y506747D01*
X537125Y507494D01*
X537531Y508231D01*
X537954Y508959D01*
X538396Y509675D01*
X538855Y510381D01*
X539331Y511074D01*
X539824Y511757D01*
X540334Y512426D01*
X540859Y513083D01*
X541401Y513727D01*
X541959Y514358D01*
X542532Y514974D01*
X543119Y515577D01*
X543722Y516164D01*
X544338Y516737D01*
X544969Y517295D01*
X545613Y517837D01*
X546270Y518362D01*
X546939Y518872D01*
X547622Y519365D01*
X548315Y519841D01*
X549021Y520300D01*
X549737Y520742D01*
X550465Y521165D01*
X551202Y521571D01*
X551949Y521959D01*
X552705Y522328D01*
X553470Y522678D01*
X554244Y523010D01*
X555025Y523322D01*
X555814Y523616D01*
X556610Y523889D01*
X557412Y524143D01*
X558220Y524378D01*
X559034Y524592D01*
X559853Y524787D01*
X560676Y524961D01*
X561504Y525115D01*
X562335Y525249D01*
X563169Y525362D01*
X564005Y525455D01*
X564843Y525527D01*
X565683Y525579D01*
X566524Y525610D01*
X567366Y525620D01*
X568208Y525610D01*
X569049Y525579D01*
X569889Y525527D01*
X570727Y525455D01*
X571563Y525362D01*
X572397Y525249D01*
X573228Y525115D01*
X574056Y524961D01*
X574879Y524787D01*
X575698Y524592D01*
X576512Y524378D01*
X577320Y524143D01*
X578122Y523889D01*
X578918Y523616D01*
X579707Y523322D01*
X580488Y523010D01*
X581262Y522678D01*
X582027Y522328D01*
X582783Y521959D01*
X583530Y521571D01*
X584267Y521165D01*
X584995Y520742D01*
X585711Y520300D01*
X586417Y519841D01*
X587110Y519365D01*
X587793Y518872D01*
X588462Y518362D01*
X589119Y517837D01*
X589763Y517295D01*
X590394Y516737D01*
X591010Y516164D01*
X591613Y515577D01*
X592200Y514974D01*
X592773Y514358D01*
X593331Y513727D01*
X593873Y513083D01*
X594398Y512426D01*
X594908Y511757D01*
X595401Y511074D01*
X595877Y510381D01*
X596336Y509675D01*
X596778Y508959D01*
X597201Y508231D01*
X597607Y507494D01*
X597995Y506747D01*
X598364Y505991D01*
X598714Y505226D01*
X599046Y504452D01*
X599358Y503671D01*
X599652Y502882D01*
X599925Y502086D01*
X600179Y501284D01*
X600414Y500476D01*
X600628Y499662D01*
X600823Y498843D01*
X600997Y498020D01*
X601151Y497192D01*
X601285Y496361D01*
X601398Y495527D01*
X601491Y494691D01*
X601563Y493853D01*
X601615Y493013D01*
X601646Y492172D01*
X601656Y491330D01*
X601646Y490488D01*
X601615Y489647D01*
X601563Y488807D01*
X601491Y487969D01*
X601398Y487133D01*
X601285Y486299D01*
X601151Y485468D01*
X600997Y484640D01*
X600823Y483817D01*
X600628Y482998D01*
X600414Y482184D01*
X600179Y481376D01*
X599925Y480574D01*
X599652Y479778D01*
X599358Y478989D01*
X599046Y478208D01*
X598714Y477434D01*
X598364Y476669D01*
X597995Y475913D01*
X597607Y475166D01*
X597201Y474429D01*
X596778Y473701D01*
X596336Y472985D01*
X595877Y472279D01*
X595401Y471586D01*
X594908Y470903D01*
X594398Y470234D01*
X593873Y469577D01*
X593331Y468933D01*
X592773Y468302D01*
X592200Y467686D01*
X591613Y467083D01*
X591010Y466496D01*
X590394Y465923D01*
X589763Y465365D01*
X589119Y464823D01*
X588462Y464298D01*
X587793Y463788D01*
X587110Y463295D01*
X586417Y462819D01*
X585711Y462360D01*
X584995Y461918D01*
X584267Y461495D01*
X583530Y461089D01*
X582783Y460701D01*
X582027Y460332D01*
X581262Y459982D01*
X580488Y459650D01*
X579707Y459338D01*
X578918Y459044D01*
X578122Y458771D01*
X577320Y458517D01*
X576512Y458282D01*
X575698Y458068D01*
X574879Y457873D01*
X574056Y457699D01*
X573228Y457545D01*
X572397Y457411D01*
X571563Y457298D01*
X570727Y457205D01*
X569889Y457133D01*
X569049Y457081D01*
X568208Y457050D01*
X567366Y457040D01*
X566524Y457050D01*
X565683Y457081D01*
X564843Y457133D01*
X564005Y457205D01*
X563169Y457298D01*
X562335Y457411D01*
X561504Y457545D01*
X560676Y457699D01*
X559853Y457873D01*
X559034Y458068D01*
X558220Y458282D01*
X557412Y458517D01*
X556610Y458771D01*
X555814Y459044D01*
X555025Y459338D01*
X554244Y459650D01*
X553470Y459982D01*
X552705Y460332D01*
X551949Y460701D01*
X551202Y461089D01*
X550465Y461495D01*
X549737Y461918D01*
X549021Y462360D01*
X548315Y462819D01*
X547622Y463295D01*
X546939Y463788D01*
X546270Y464298D01*
X545613Y464823D01*
X544969Y465365D01*
X544338Y465923D01*
X543722Y466496D01*
X543119Y467083D01*
X542532Y467686D01*
X541959Y468302D01*
X541401Y468933D01*
X540859Y469577D01*
X540334Y470234D01*
X539824Y470903D01*
X539331Y471586D01*
X538855Y472279D01*
X538396Y472985D01*
X537954Y473701D01*
X537531Y474429D01*
X537125Y475166D01*
X536737Y475913D01*
X536368Y476669D01*
X536018Y477434D01*
X535686Y478208D01*
X535374Y478989D01*
X535080Y479778D01*
X534807Y480574D01*
X534553Y481376D01*
X534318Y482184D01*
X534104Y482998D01*
X533909Y483817D01*
X533735Y484640D01*
X533581Y485468D01*
X533447Y486299D01*
X533334Y487133D01*
X533241Y487969D01*
X533169Y488807D01*
X533117Y489647D01*
X533086Y490488D01*
X533076Y491330D01*
D10*
X549866Y491330D02*
X549871Y491759D01*
X549887Y492189D01*
X549913Y492617D01*
X549950Y493045D01*
X549998Y493472D01*
X550055Y493898D01*
X550124Y494322D01*
X550202Y494744D01*
X550291Y495164D01*
X550390Y495582D01*
X550500Y495997D01*
X550620Y496410D01*
X550749Y496819D01*
X550889Y497226D01*
X551039Y497628D01*
X551198Y498027D01*
X551367Y498422D01*
X551546Y498812D01*
X551735Y499198D01*
X551932Y499579D01*
X552139Y499956D01*
X552356Y500327D01*
X552581Y500692D01*
X552815Y501052D01*
X553058Y501407D01*
X553310Y501755D01*
X553570Y502097D01*
X553838Y502432D01*
X554115Y502761D01*
X554399Y503082D01*
X554692Y503397D01*
X554992Y503704D01*
X555299Y504004D01*
X555614Y504297D01*
X555935Y504581D01*
X556264Y504858D01*
X556599Y505126D01*
X556941Y505386D01*
X557289Y505638D01*
X557644Y505881D01*
X558004Y506115D01*
X558369Y506340D01*
X558740Y506557D01*
X559117Y506764D01*
X559498Y506961D01*
X559884Y507150D01*
X560274Y507329D01*
X560669Y507498D01*
X561068Y507657D01*
X561470Y507807D01*
X561877Y507947D01*
X562286Y508076D01*
X562699Y508196D01*
X563114Y508306D01*
X563532Y508405D01*
X563952Y508494D01*
X564374Y508572D01*
X564798Y508641D01*
X565224Y508698D01*
X565651Y508746D01*
X566079Y508783D01*
X566507Y508809D01*
X566937Y508825D01*
X567366Y508830D01*
X567795Y508825D01*
X568225Y508809D01*
X568653Y508783D01*
X569081Y508746D01*
X569508Y508698D01*
X569934Y508641D01*
X570358Y508572D01*
X570780Y508494D01*
X571200Y508405D01*
X571618Y508306D01*
X572033Y508196D01*
X572446Y508076D01*
X572855Y507947D01*
X573262Y507807D01*
X573664Y507657D01*
X574063Y507498D01*
X574458Y507329D01*
X574848Y507150D01*
X575234Y506961D01*
X575615Y506764D01*
X575992Y506557D01*
X576363Y506340D01*
X576728Y506115D01*
X577088Y505881D01*
X577443Y505638D01*
X577791Y505386D01*
X578133Y505126D01*
X578468Y504858D01*
X578797Y504581D01*
X579118Y504297D01*
X579433Y504004D01*
X579740Y503704D01*
X580040Y503397D01*
X580333Y503082D01*
X580617Y502761D01*
X580894Y502432D01*
X581162Y502097D01*
X581422Y501755D01*
X581674Y501407D01*
X581917Y501052D01*
X582151Y500692D01*
X582376Y500327D01*
X582593Y499956D01*
X582800Y499579D01*
X582997Y499198D01*
X583186Y498812D01*
X583365Y498422D01*
X583534Y498027D01*
X583693Y497628D01*
X583843Y497226D01*
X583983Y496819D01*
X584112Y496410D01*
X584232Y495997D01*
X584342Y495582D01*
X584441Y495164D01*
X584530Y494744D01*
X584608Y494322D01*
X584677Y493898D01*
X584734Y493472D01*
X584782Y493045D01*
X584819Y492617D01*
X584845Y492189D01*
X584861Y491759D01*
X584866Y491330D01*
X584861Y490901D01*
X584845Y490471D01*
X584819Y490043D01*
X584782Y489615D01*
X584734Y489188D01*
X584677Y488762D01*
X584608Y488338D01*
X584530Y487916D01*
X584441Y487496D01*
X584342Y487078D01*
X584232Y486663D01*
X584112Y486250D01*
X583983Y485841D01*
X583843Y485434D01*
X583693Y485032D01*
X583534Y484633D01*
X583365Y484238D01*
X583186Y483848D01*
X582997Y483462D01*
X582800Y483081D01*
X582593Y482704D01*
X582376Y482333D01*
X582151Y481968D01*
X581917Y481608D01*
X581674Y481253D01*
X581422Y480905D01*
X581162Y480563D01*
X580894Y480228D01*
X580617Y479899D01*
X580333Y479578D01*
X580040Y479263D01*
X579740Y478956D01*
X579433Y478656D01*
X579118Y478363D01*
X578797Y478079D01*
X578468Y477802D01*
X578133Y477534D01*
X577791Y477274D01*
X577443Y477022D01*
X577088Y476779D01*
X576728Y476545D01*
X576363Y476320D01*
X575992Y476103D01*
X575615Y475896D01*
X575234Y475699D01*
X574848Y475510D01*
X574458Y475331D01*
X574063Y475162D01*
X573664Y475003D01*
X573262Y474853D01*
X572855Y474713D01*
X572446Y474584D01*
X572033Y474464D01*
X571618Y474354D01*
X571200Y474255D01*
X570780Y474166D01*
X570358Y474088D01*
X569934Y474019D01*
X569508Y473962D01*
X569081Y473914D01*
X568653Y473877D01*
X568225Y473851D01*
X567795Y473835D01*
X567366Y473830D01*
X566937Y473835D01*
X566507Y473851D01*
X566079Y473877D01*
X565651Y473914D01*
X565224Y473962D01*
X564798Y474019D01*
X564374Y474088D01*
X563952Y474166D01*
X563532Y474255D01*
X563114Y474354D01*
X562699Y474464D01*
X562286Y474584D01*
X561877Y474713D01*
X561470Y474853D01*
X561068Y475003D01*
X560669Y475162D01*
X560274Y475331D01*
X559884Y475510D01*
X559498Y475699D01*
X559117Y475896D01*
X558740Y476103D01*
X558369Y476320D01*
X558004Y476545D01*
X557644Y476779D01*
X557289Y477022D01*
X556941Y477274D01*
X556599Y477534D01*
X556264Y477802D01*
X555935Y478079D01*
X555614Y478363D01*
X555299Y478656D01*
X554992Y478956D01*
X554692Y479263D01*
X554399Y479578D01*
X554115Y479899D01*
X553838Y480228D01*
X553570Y480563D01*
X553310Y480905D01*
X553058Y481253D01*
X552815Y481608D01*
X552581Y481968D01*
X552356Y482333D01*
X552139Y482704D01*
X551932Y483081D01*
X551735Y483462D01*
X551546Y483848D01*
X551367Y484238D01*
X551198Y484633D01*
X551039Y485032D01*
X550889Y485434D01*
X550749Y485841D01*
X550620Y486250D01*
X550500Y486663D01*
X550390Y487078D01*
X550291Y487496D01*
X550202Y487916D01*
X550124Y488338D01*
X550055Y488762D01*
X549998Y489188D01*
X549950Y489615D01*
X549913Y490043D01*
X549887Y490471D01*
X549871Y490901D01*
X549866Y491330D01*
D14*
X164446Y489712D02*
X164456Y490554D01*
X164487Y491395D01*
X164539Y492235D01*
X164611Y493073D01*
X164704Y493909D01*
X164817Y494743D01*
X164951Y495574D01*
X165105Y496402D01*
X165279Y497225D01*
X165474Y498044D01*
X165688Y498858D01*
X165923Y499666D01*
X166177Y500468D01*
X166450Y501264D01*
X166744Y502053D01*
X167056Y502834D01*
X167388Y503608D01*
X167738Y504373D01*
X168107Y505129D01*
X168495Y505876D01*
X168901Y506613D01*
X169324Y507341D01*
X169766Y508057D01*
X170225Y508763D01*
X170701Y509456D01*
X171194Y510139D01*
X171704Y510808D01*
X172229Y511465D01*
X172771Y512109D01*
X173329Y512740D01*
X173902Y513356D01*
X174489Y513959D01*
X175092Y514546D01*
X175708Y515119D01*
X176339Y515677D01*
X176983Y516219D01*
X177640Y516744D01*
X178309Y517254D01*
X178992Y517747D01*
X179685Y518223D01*
X180391Y518682D01*
X181107Y519124D01*
X181835Y519547D01*
X182572Y519953D01*
X183319Y520341D01*
X184075Y520710D01*
X184840Y521060D01*
X185614Y521392D01*
X186395Y521704D01*
X187184Y521998D01*
X187980Y522271D01*
X188782Y522525D01*
X189590Y522760D01*
X190404Y522974D01*
X191223Y523169D01*
X192046Y523343D01*
X192874Y523497D01*
X193705Y523631D01*
X194539Y523744D01*
X195375Y523837D01*
X196213Y523909D01*
X197053Y523961D01*
X197894Y523992D01*
X198736Y524002D01*
X199578Y523992D01*
X200419Y523961D01*
X201259Y523909D01*
X202097Y523837D01*
X202933Y523744D01*
X203767Y523631D01*
X204598Y523497D01*
X205426Y523343D01*
X206249Y523169D01*
X207068Y522974D01*
X207882Y522760D01*
X208690Y522525D01*
X209492Y522271D01*
X210288Y521998D01*
X211077Y521704D01*
X211858Y521392D01*
X212632Y521060D01*
X213397Y520710D01*
X214153Y520341D01*
X214900Y519953D01*
X215637Y519547D01*
X216365Y519124D01*
X217081Y518682D01*
X217787Y518223D01*
X218480Y517747D01*
X219163Y517254D01*
X219832Y516744D01*
X220489Y516219D01*
X221133Y515677D01*
X221764Y515119D01*
X222380Y514546D01*
X222983Y513959D01*
X223570Y513356D01*
X224143Y512740D01*
X224701Y512109D01*
X225243Y511465D01*
X225768Y510808D01*
X226278Y510139D01*
X226771Y509456D01*
X227247Y508763D01*
X227706Y508057D01*
X228148Y507341D01*
X228571Y506613D01*
X228977Y505876D01*
X229365Y505129D01*
X229734Y504373D01*
X230084Y503608D01*
X230416Y502834D01*
X230728Y502053D01*
X231022Y501264D01*
X231295Y500468D01*
X231549Y499666D01*
X231784Y498858D01*
X231998Y498044D01*
X232193Y497225D01*
X232367Y496402D01*
X232521Y495574D01*
X232655Y494743D01*
X232768Y493909D01*
X232861Y493073D01*
X232933Y492235D01*
X232985Y491395D01*
X233016Y490554D01*
X233026Y489712D01*
X233016Y488870D01*
X232985Y488029D01*
X232933Y487189D01*
X232861Y486351D01*
X232768Y485515D01*
X232655Y484681D01*
X232521Y483850D01*
X232367Y483022D01*
X232193Y482199D01*
X231998Y481380D01*
X231784Y480566D01*
X231549Y479758D01*
X231295Y478956D01*
X231022Y478160D01*
X230728Y477371D01*
X230416Y476590D01*
X230084Y475816D01*
X229734Y475051D01*
X229365Y474295D01*
X228977Y473548D01*
X228571Y472811D01*
X228148Y472083D01*
X227706Y471367D01*
X227247Y470661D01*
X226771Y469968D01*
X226278Y469285D01*
X225768Y468616D01*
X225243Y467959D01*
X224701Y467315D01*
X224143Y466684D01*
X223570Y466068D01*
X222983Y465465D01*
X222380Y464878D01*
X221764Y464305D01*
X221133Y463747D01*
X220489Y463205D01*
X219832Y462680D01*
X219163Y462170D01*
X218480Y461677D01*
X217787Y461201D01*
X217081Y460742D01*
X216365Y460300D01*
X215637Y459877D01*
X214900Y459471D01*
X214153Y459083D01*
X213397Y458714D01*
X212632Y458364D01*
X211858Y458032D01*
X211077Y457720D01*
X210288Y457426D01*
X209492Y457153D01*
X208690Y456899D01*
X207882Y456664D01*
X207068Y456450D01*
X206249Y456255D01*
X205426Y456081D01*
X204598Y455927D01*
X203767Y455793D01*
X202933Y455680D01*
X202097Y455587D01*
X201259Y455515D01*
X200419Y455463D01*
X199578Y455432D01*
X198736Y455422D01*
X197894Y455432D01*
X197053Y455463D01*
X196213Y455515D01*
X195375Y455587D01*
X194539Y455680D01*
X193705Y455793D01*
X192874Y455927D01*
X192046Y456081D01*
X191223Y456255D01*
X190404Y456450D01*
X189590Y456664D01*
X188782Y456899D01*
X187980Y457153D01*
X187184Y457426D01*
X186395Y457720D01*
X185614Y458032D01*
X184840Y458364D01*
X184075Y458714D01*
X183319Y459083D01*
X182572Y459471D01*
X181835Y459877D01*
X181107Y460300D01*
X180391Y460742D01*
X179685Y461201D01*
X178992Y461677D01*
X178309Y462170D01*
X177640Y462680D01*
X176983Y463205D01*
X176339Y463747D01*
X175708Y464305D01*
X175092Y464878D01*
X174489Y465465D01*
X173902Y466068D01*
X173329Y466684D01*
X172771Y467315D01*
X172229Y467959D01*
X171704Y468616D01*
X171194Y469285D01*
X170701Y469968D01*
X170225Y470661D01*
X169766Y471367D01*
X169324Y472083D01*
X168901Y472811D01*
X168495Y473548D01*
X168107Y474295D01*
X167738Y475051D01*
X167388Y475816D01*
X167056Y476590D01*
X166744Y477371D01*
X166450Y478160D01*
X166177Y478956D01*
X165923Y479758D01*
X165688Y480566D01*
X165474Y481380D01*
X165279Y482199D01*
X165105Y483022D01*
X164951Y483850D01*
X164817Y484681D01*
X164704Y485515D01*
X164611Y486351D01*
X164539Y487189D01*
X164487Y488029D01*
X164456Y488870D01*
X164446Y489712D01*
D10*
X181236Y489712D02*
X181241Y490141D01*
X181257Y490571D01*
X181283Y490999D01*
X181320Y491427D01*
X181368Y491854D01*
X181425Y492280D01*
X181494Y492704D01*
X181572Y493126D01*
X181661Y493546D01*
X181760Y493964D01*
X181870Y494379D01*
X181990Y494792D01*
X182119Y495201D01*
X182259Y495608D01*
X182409Y496010D01*
X182568Y496409D01*
X182737Y496804D01*
X182916Y497194D01*
X183105Y497580D01*
X183302Y497961D01*
X183509Y498338D01*
X183726Y498709D01*
X183951Y499074D01*
X184185Y499434D01*
X184428Y499789D01*
X184680Y500137D01*
X184940Y500479D01*
X185208Y500814D01*
X185485Y501143D01*
X185769Y501464D01*
X186062Y501779D01*
X186362Y502086D01*
X186669Y502386D01*
X186984Y502679D01*
X187305Y502963D01*
X187634Y503240D01*
X187969Y503508D01*
X188311Y503768D01*
X188659Y504020D01*
X189014Y504263D01*
X189374Y504497D01*
X189739Y504722D01*
X190110Y504939D01*
X190487Y505146D01*
X190868Y505343D01*
X191254Y505532D01*
X191644Y505711D01*
X192039Y505880D01*
X192438Y506039D01*
X192840Y506189D01*
X193247Y506329D01*
X193656Y506458D01*
X194069Y506578D01*
X194484Y506688D01*
X194902Y506787D01*
X195322Y506876D01*
X195744Y506954D01*
X196168Y507023D01*
X196594Y507080D01*
X197021Y507128D01*
X197449Y507165D01*
X197877Y507191D01*
X198307Y507207D01*
X198736Y507212D01*
X199165Y507207D01*
X199595Y507191D01*
X200023Y507165D01*
X200451Y507128D01*
X200878Y507080D01*
X201304Y507023D01*
X201728Y506954D01*
X202150Y506876D01*
X202570Y506787D01*
X202988Y506688D01*
X203403Y506578D01*
X203816Y506458D01*
X204225Y506329D01*
X204632Y506189D01*
X205034Y506039D01*
X205433Y505880D01*
X205828Y505711D01*
X206218Y505532D01*
X206604Y505343D01*
X206985Y505146D01*
X207362Y504939D01*
X207733Y504722D01*
X208098Y504497D01*
X208458Y504263D01*
X208813Y504020D01*
X209161Y503768D01*
X209503Y503508D01*
X209838Y503240D01*
X210167Y502963D01*
X210488Y502679D01*
X210803Y502386D01*
X211110Y502086D01*
X211410Y501779D01*
X211703Y501464D01*
X211987Y501143D01*
X212264Y500814D01*
X212532Y500479D01*
X212792Y500137D01*
X213044Y499789D01*
X213287Y499434D01*
X213521Y499074D01*
X213746Y498709D01*
X213963Y498338D01*
X214170Y497961D01*
X214367Y497580D01*
X214556Y497194D01*
X214735Y496804D01*
X214904Y496409D01*
X215063Y496010D01*
X215213Y495608D01*
X215353Y495201D01*
X215482Y494792D01*
X215602Y494379D01*
X215712Y493964D01*
X215811Y493546D01*
X215900Y493126D01*
X215978Y492704D01*
X216047Y492280D01*
X216104Y491854D01*
X216152Y491427D01*
X216189Y490999D01*
X216215Y490571D01*
X216231Y490141D01*
X216236Y489712D01*
X216231Y489283D01*
X216215Y488853D01*
X216189Y488425D01*
X216152Y487997D01*
X216104Y487570D01*
X216047Y487144D01*
X215978Y486720D01*
X215900Y486298D01*
X215811Y485878D01*
X215712Y485460D01*
X215602Y485045D01*
X215482Y484632D01*
X215353Y484223D01*
X215213Y483816D01*
X215063Y483414D01*
X214904Y483015D01*
X214735Y482620D01*
X214556Y482230D01*
X214367Y481844D01*
X214170Y481463D01*
X213963Y481086D01*
X213746Y480715D01*
X213521Y480350D01*
X213287Y479990D01*
X213044Y479635D01*
X212792Y479287D01*
X212532Y478945D01*
X212264Y478610D01*
X211987Y478281D01*
X211703Y477960D01*
X211410Y477645D01*
X211110Y477338D01*
X210803Y477038D01*
X210488Y476745D01*
X210167Y476461D01*
X209838Y476184D01*
X209503Y475916D01*
X209161Y475656D01*
X208813Y475404D01*
X208458Y475161D01*
X208098Y474927D01*
X207733Y474702D01*
X207362Y474485D01*
X206985Y474278D01*
X206604Y474081D01*
X206218Y473892D01*
X205828Y473713D01*
X205433Y473544D01*
X205034Y473385D01*
X204632Y473235D01*
X204225Y473095D01*
X203816Y472966D01*
X203403Y472846D01*
X202988Y472736D01*
X202570Y472637D01*
X202150Y472548D01*
X201728Y472470D01*
X201304Y472401D01*
X200878Y472344D01*
X200451Y472296D01*
X200023Y472259D01*
X199595Y472233D01*
X199165Y472217D01*
X198736Y472212D01*
X198307Y472217D01*
X197877Y472233D01*
X197449Y472259D01*
X197021Y472296D01*
X196594Y472344D01*
X196168Y472401D01*
X195744Y472470D01*
X195322Y472548D01*
X194902Y472637D01*
X194484Y472736D01*
X194069Y472846D01*
X193656Y472966D01*
X193247Y473095D01*
X192840Y473235D01*
X192438Y473385D01*
X192039Y473544D01*
X191644Y473713D01*
X191254Y473892D01*
X190868Y474081D01*
X190487Y474278D01*
X190110Y474485D01*
X189739Y474702D01*
X189374Y474927D01*
X189014Y475161D01*
X188659Y475404D01*
X188311Y475656D01*
X187969Y475916D01*
X187634Y476184D01*
X187305Y476461D01*
X186984Y476745D01*
X186669Y477038D01*
X186362Y477338D01*
X186062Y477645D01*
X185769Y477960D01*
X185485Y478281D01*
X185208Y478610D01*
X184940Y478945D01*
X184680Y479287D01*
X184428Y479635D01*
X184185Y479990D01*
X183951Y480350D01*
X183726Y480715D01*
X183509Y481086D01*
X183302Y481463D01*
X183105Y481844D01*
X182916Y482230D01*
X182737Y482620D01*
X182568Y483015D01*
X182409Y483414D01*
X182259Y483816D01*
X182119Y484223D01*
X181990Y484632D01*
X181870Y485045D01*
X181760Y485460D01*
X181661Y485878D01*
X181572Y486298D01*
X181494Y486720D01*
X181425Y487144D01*
X181368Y487570D01*
X181320Y487997D01*
X181283Y488425D01*
X181257Y488853D01*
X181241Y489283D01*
X181236Y489712D01*
D14*
X536632Y65590D02*
X536642Y66432D01*
X536673Y67273D01*
X536725Y68113D01*
X536797Y68951D01*
X536890Y69787D01*
X537003Y70621D01*
X537137Y71452D01*
X537291Y72280D01*
X537465Y73103D01*
X537660Y73922D01*
X537874Y74736D01*
X538109Y75544D01*
X538363Y76346D01*
X538636Y77142D01*
X538930Y77931D01*
X539242Y78712D01*
X539574Y79486D01*
X539924Y80251D01*
X540293Y81007D01*
X540681Y81754D01*
X541087Y82491D01*
X541510Y83219D01*
X541952Y83935D01*
X542411Y84641D01*
X542887Y85334D01*
X543380Y86017D01*
X543890Y86686D01*
X544415Y87343D01*
X544957Y87987D01*
X545515Y88618D01*
X546088Y89234D01*
X546675Y89837D01*
X547278Y90424D01*
X547894Y90997D01*
X548525Y91555D01*
X549169Y92097D01*
X549826Y92622D01*
X550495Y93132D01*
X551178Y93625D01*
X551871Y94101D01*
X552577Y94560D01*
X553293Y95002D01*
X554021Y95425D01*
X554758Y95831D01*
X555505Y96219D01*
X556261Y96588D01*
X557026Y96938D01*
X557800Y97270D01*
X558581Y97582D01*
X559370Y97876D01*
X560166Y98149D01*
X560968Y98403D01*
X561776Y98638D01*
X562590Y98852D01*
X563409Y99047D01*
X564232Y99221D01*
X565060Y99375D01*
X565891Y99509D01*
X566725Y99622D01*
X567561Y99715D01*
X568399Y99787D01*
X569239Y99839D01*
X570080Y99870D01*
X570922Y99880D01*
X571764Y99870D01*
X572605Y99839D01*
X573445Y99787D01*
X574283Y99715D01*
X575119Y99622D01*
X575953Y99509D01*
X576784Y99375D01*
X577612Y99221D01*
X578435Y99047D01*
X579254Y98852D01*
X580068Y98638D01*
X580876Y98403D01*
X581678Y98149D01*
X582474Y97876D01*
X583263Y97582D01*
X584044Y97270D01*
X584818Y96938D01*
X585583Y96588D01*
X586339Y96219D01*
X587086Y95831D01*
X587823Y95425D01*
X588551Y95002D01*
X589267Y94560D01*
X589973Y94101D01*
X590666Y93625D01*
X591349Y93132D01*
X592018Y92622D01*
X592675Y92097D01*
X593319Y91555D01*
X593950Y90997D01*
X594566Y90424D01*
X595169Y89837D01*
X595756Y89234D01*
X596329Y88618D01*
X596887Y87987D01*
X597429Y87343D01*
X597954Y86686D01*
X598464Y86017D01*
X598957Y85334D01*
X599433Y84641D01*
X599892Y83935D01*
X600334Y83219D01*
X600757Y82491D01*
X601163Y81754D01*
X601551Y81007D01*
X601920Y80251D01*
X602270Y79486D01*
X602602Y78712D01*
X602914Y77931D01*
X603208Y77142D01*
X603481Y76346D01*
X603735Y75544D01*
X603970Y74736D01*
X604184Y73922D01*
X604379Y73103D01*
X604553Y72280D01*
X604707Y71452D01*
X604841Y70621D01*
X604954Y69787D01*
X605047Y68951D01*
X605119Y68113D01*
X605171Y67273D01*
X605202Y66432D01*
X605212Y65590D01*
X605202Y64748D01*
X605171Y63907D01*
X605119Y63067D01*
X605047Y62229D01*
X604954Y61393D01*
X604841Y60559D01*
X604707Y59728D01*
X604553Y58900D01*
X604379Y58077D01*
X604184Y57258D01*
X603970Y56444D01*
X603735Y55636D01*
X603481Y54834D01*
X603208Y54038D01*
X602914Y53249D01*
X602602Y52468D01*
X602270Y51694D01*
X601920Y50929D01*
X601551Y50173D01*
X601163Y49426D01*
X600757Y48689D01*
X600334Y47961D01*
X599892Y47245D01*
X599433Y46539D01*
X598957Y45846D01*
X598464Y45163D01*
X597954Y44494D01*
X597429Y43837D01*
X596887Y43193D01*
X596329Y42562D01*
X595756Y41946D01*
X595169Y41343D01*
X594566Y40756D01*
X593950Y40183D01*
X593319Y39625D01*
X592675Y39083D01*
X592018Y38558D01*
X591349Y38048D01*
X590666Y37555D01*
X589973Y37079D01*
X589267Y36620D01*
X588551Y36178D01*
X587823Y35755D01*
X587086Y35349D01*
X586339Y34961D01*
X585583Y34592D01*
X584818Y34242D01*
X584044Y33910D01*
X583263Y33598D01*
X582474Y33304D01*
X581678Y33031D01*
X580876Y32777D01*
X580068Y32542D01*
X579254Y32328D01*
X578435Y32133D01*
X577612Y31959D01*
X576784Y31805D01*
X575953Y31671D01*
X575119Y31558D01*
X574283Y31465D01*
X573445Y31393D01*
X572605Y31341D01*
X571764Y31310D01*
X570922Y31300D01*
X570080Y31310D01*
X569239Y31341D01*
X568399Y31393D01*
X567561Y31465D01*
X566725Y31558D01*
X565891Y31671D01*
X565060Y31805D01*
X564232Y31959D01*
X563409Y32133D01*
X562590Y32328D01*
X561776Y32542D01*
X560968Y32777D01*
X560166Y33031D01*
X559370Y33304D01*
X558581Y33598D01*
X557800Y33910D01*
X557026Y34242D01*
X556261Y34592D01*
X555505Y34961D01*
X554758Y35349D01*
X554021Y35755D01*
X553293Y36178D01*
X552577Y36620D01*
X551871Y37079D01*
X551178Y37555D01*
X550495Y38048D01*
X549826Y38558D01*
X549169Y39083D01*
X548525Y39625D01*
X547894Y40183D01*
X547278Y40756D01*
X546675Y41343D01*
X546088Y41946D01*
X545515Y42562D01*
X544957Y43193D01*
X544415Y43837D01*
X543890Y44494D01*
X543380Y45163D01*
X542887Y45846D01*
X542411Y46539D01*
X541952Y47245D01*
X541510Y47961D01*
X541087Y48689D01*
X540681Y49426D01*
X540293Y50173D01*
X539924Y50929D01*
X539574Y51694D01*
X539242Y52468D01*
X538930Y53249D01*
X538636Y54038D01*
X538363Y54834D01*
X538109Y55636D01*
X537874Y56444D01*
X537660Y57258D01*
X537465Y58077D01*
X537291Y58900D01*
X537137Y59728D01*
X537003Y60559D01*
X536890Y61393D01*
X536797Y62229D01*
X536725Y63067D01*
X536673Y63907D01*
X536642Y64748D01*
X536632Y65590D01*
D10*
X553422Y65590D02*
X553427Y66019D01*
X553443Y66449D01*
X553469Y66877D01*
X553506Y67305D01*
X553554Y67732D01*
X553611Y68158D01*
X553680Y68582D01*
X553758Y69004D01*
X553847Y69424D01*
X553946Y69842D01*
X554056Y70257D01*
X554176Y70670D01*
X554305Y71079D01*
X554445Y71486D01*
X554595Y71888D01*
X554754Y72287D01*
X554923Y72682D01*
X555102Y73072D01*
X555291Y73458D01*
X555488Y73839D01*
X555695Y74216D01*
X555912Y74587D01*
X556137Y74952D01*
X556371Y75312D01*
X556614Y75667D01*
X556866Y76015D01*
X557126Y76357D01*
X557394Y76692D01*
X557671Y77021D01*
X557955Y77342D01*
X558248Y77657D01*
X558548Y77964D01*
X558855Y78264D01*
X559170Y78557D01*
X559491Y78841D01*
X559820Y79118D01*
X560155Y79386D01*
X560497Y79646D01*
X560845Y79898D01*
X561200Y80141D01*
X561560Y80375D01*
X561925Y80600D01*
X562296Y80817D01*
X562673Y81024D01*
X563054Y81221D01*
X563440Y81410D01*
X563830Y81589D01*
X564225Y81758D01*
X564624Y81917D01*
X565026Y82067D01*
X565433Y82207D01*
X565842Y82336D01*
X566255Y82456D01*
X566670Y82566D01*
X567088Y82665D01*
X567508Y82754D01*
X567930Y82832D01*
X568354Y82901D01*
X568780Y82958D01*
X569207Y83006D01*
X569635Y83043D01*
X570063Y83069D01*
X570493Y83085D01*
X570922Y83090D01*
X571351Y83085D01*
X571781Y83069D01*
X572209Y83043D01*
X572637Y83006D01*
X573064Y82958D01*
X573490Y82901D01*
X573914Y82832D01*
X574336Y82754D01*
X574756Y82665D01*
X575174Y82566D01*
X575589Y82456D01*
X576002Y82336D01*
X576411Y82207D01*
X576818Y82067D01*
X577220Y81917D01*
X577619Y81758D01*
X578014Y81589D01*
X578404Y81410D01*
X578790Y81221D01*
X579171Y81024D01*
X579548Y80817D01*
X579919Y80600D01*
X580284Y80375D01*
X580644Y80141D01*
X580999Y79898D01*
X581347Y79646D01*
X581689Y79386D01*
X582024Y79118D01*
X582353Y78841D01*
X582674Y78557D01*
X582989Y78264D01*
X583296Y77964D01*
X583596Y77657D01*
X583889Y77342D01*
X584173Y77021D01*
X584450Y76692D01*
X584718Y76357D01*
X584978Y76015D01*
X585230Y75667D01*
X585473Y75312D01*
X585707Y74952D01*
X585932Y74587D01*
X586149Y74216D01*
X586356Y73839D01*
X586553Y73458D01*
X586742Y73072D01*
X586921Y72682D01*
X587090Y72287D01*
X587249Y71888D01*
X587399Y71486D01*
X587539Y71079D01*
X587668Y70670D01*
X587788Y70257D01*
X587898Y69842D01*
X587997Y69424D01*
X588086Y69004D01*
X588164Y68582D01*
X588233Y68158D01*
X588290Y67732D01*
X588338Y67305D01*
X588375Y66877D01*
X588401Y66449D01*
X588417Y66019D01*
X588422Y65590D01*
X588417Y65161D01*
X588401Y64731D01*
X588375Y64303D01*
X588338Y63875D01*
X588290Y63448D01*
X588233Y63022D01*
X588164Y62598D01*
X588086Y62176D01*
X587997Y61756D01*
X587898Y61338D01*
X587788Y60923D01*
X587668Y60510D01*
X587539Y60101D01*
X587399Y59694D01*
X587249Y59292D01*
X587090Y58893D01*
X586921Y58498D01*
X586742Y58108D01*
X586553Y57722D01*
X586356Y57341D01*
X586149Y56964D01*
X585932Y56593D01*
X585707Y56228D01*
X585473Y55868D01*
X585230Y55513D01*
X584978Y55165D01*
X584718Y54823D01*
X584450Y54488D01*
X584173Y54159D01*
X583889Y53838D01*
X583596Y53523D01*
X583296Y53216D01*
X582989Y52916D01*
X582674Y52623D01*
X582353Y52339D01*
X582024Y52062D01*
X581689Y51794D01*
X581347Y51534D01*
X580999Y51282D01*
X580644Y51039D01*
X580284Y50805D01*
X579919Y50580D01*
X579548Y50363D01*
X579171Y50156D01*
X578790Y49959D01*
X578404Y49770D01*
X578014Y49591D01*
X577619Y49422D01*
X577220Y49263D01*
X576818Y49113D01*
X576411Y48973D01*
X576002Y48844D01*
X575589Y48724D01*
X575174Y48614D01*
X574756Y48515D01*
X574336Y48426D01*
X573914Y48348D01*
X573490Y48279D01*
X573064Y48222D01*
X572637Y48174D01*
X572209Y48137D01*
X571781Y48111D01*
X571351Y48095D01*
X570922Y48090D01*
X570493Y48095D01*
X570063Y48111D01*
X569635Y48137D01*
X569207Y48174D01*
X568780Y48222D01*
X568354Y48279D01*
X567930Y48348D01*
X567508Y48426D01*
X567088Y48515D01*
X566670Y48614D01*
X566255Y48724D01*
X565842Y48844D01*
X565433Y48973D01*
X565026Y49113D01*
X564624Y49263D01*
X564225Y49422D01*
X563830Y49591D01*
X563440Y49770D01*
X563054Y49959D01*
X562673Y50156D01*
X562296Y50363D01*
X561925Y50580D01*
X561560Y50805D01*
X561200Y51039D01*
X560845Y51282D01*
X560497Y51534D01*
X560155Y51794D01*
X559820Y52062D01*
X559491Y52339D01*
X559170Y52623D01*
X558855Y52916D01*
X558548Y53216D01*
X558248Y53523D01*
X557955Y53838D01*
X557671Y54159D01*
X557394Y54488D01*
X557126Y54823D01*
X556866Y55165D01*
X556614Y55513D01*
X556371Y55868D01*
X556137Y56228D01*
X555912Y56593D01*
X555695Y56964D01*
X555488Y57341D01*
X555291Y57722D01*
X555102Y58108D01*
X554923Y58498D01*
X554754Y58893D01*
X554595Y59292D01*
X554445Y59694D01*
X554305Y60101D01*
X554176Y60510D01*
X554056Y60923D01*
X553946Y61338D01*
X553847Y61756D01*
X553758Y62176D01*
X553680Y62598D01*
X553611Y63022D01*
X553554Y63448D01*
X553506Y63875D01*
X553469Y64303D01*
X553443Y64731D01*
X553427Y65161D01*
X553422Y65590D01*
D14*
X165710Y60000D02*
X165720Y60842D01*
X165751Y61683D01*
X165803Y62523D01*
X165875Y63361D01*
X165968Y64197D01*
X166081Y65031D01*
X166215Y65862D01*
X166369Y66690D01*
X166543Y67513D01*
X166738Y68332D01*
X166952Y69146D01*
X167187Y69954D01*
X167441Y70756D01*
X167714Y71552D01*
X168008Y72341D01*
X168320Y73122D01*
X168652Y73896D01*
X169002Y74661D01*
X169371Y75417D01*
X169759Y76164D01*
X170165Y76901D01*
X170588Y77629D01*
X171030Y78345D01*
X171489Y79051D01*
X171965Y79744D01*
X172458Y80427D01*
X172968Y81096D01*
X173493Y81753D01*
X174035Y82397D01*
X174593Y83028D01*
X175166Y83644D01*
X175753Y84247D01*
X176356Y84834D01*
X176972Y85407D01*
X177603Y85965D01*
X178247Y86507D01*
X178904Y87032D01*
X179573Y87542D01*
X180256Y88035D01*
X180949Y88511D01*
X181655Y88970D01*
X182371Y89412D01*
X183099Y89835D01*
X183836Y90241D01*
X184583Y90629D01*
X185339Y90998D01*
X186104Y91348D01*
X186878Y91680D01*
X187659Y91992D01*
X188448Y92286D01*
X189244Y92559D01*
X190046Y92813D01*
X190854Y93048D01*
X191668Y93262D01*
X192487Y93457D01*
X193310Y93631D01*
X194138Y93785D01*
X194969Y93919D01*
X195803Y94032D01*
X196639Y94125D01*
X197477Y94197D01*
X198317Y94249D01*
X199158Y94280D01*
X200000Y94290D01*
X200842Y94280D01*
X201683Y94249D01*
X202523Y94197D01*
X203361Y94125D01*
X204197Y94032D01*
X205031Y93919D01*
X205862Y93785D01*
X206690Y93631D01*
X207513Y93457D01*
X208332Y93262D01*
X209146Y93048D01*
X209954Y92813D01*
X210756Y92559D01*
X211552Y92286D01*
X212341Y91992D01*
X213122Y91680D01*
X213896Y91348D01*
X214661Y90998D01*
X215417Y90629D01*
X216164Y90241D01*
X216901Y89835D01*
X217629Y89412D01*
X218345Y88970D01*
X219051Y88511D01*
X219744Y88035D01*
X220427Y87542D01*
X221096Y87032D01*
X221753Y86507D01*
X222397Y85965D01*
X223028Y85407D01*
X223644Y84834D01*
X224247Y84247D01*
X224834Y83644D01*
X225407Y83028D01*
X225965Y82397D01*
X226507Y81753D01*
X227032Y81096D01*
X227542Y80427D01*
X228035Y79744D01*
X228511Y79051D01*
X228970Y78345D01*
X229412Y77629D01*
X229835Y76901D01*
X230241Y76164D01*
X230629Y75417D01*
X230998Y74661D01*
X231348Y73896D01*
X231680Y73122D01*
X231992Y72341D01*
X232286Y71552D01*
X232559Y70756D01*
X232813Y69954D01*
X233048Y69146D01*
X233262Y68332D01*
X233457Y67513D01*
X233631Y66690D01*
X233785Y65862D01*
X233919Y65031D01*
X234032Y64197D01*
X234125Y63361D01*
X234197Y62523D01*
X234249Y61683D01*
X234280Y60842D01*
X234290Y60000D01*
X234280Y59158D01*
X234249Y58317D01*
X234197Y57477D01*
X234125Y56639D01*
X234032Y55803D01*
X233919Y54969D01*
X233785Y54138D01*
X233631Y53310D01*
X233457Y52487D01*
X233262Y51668D01*
X233048Y50854D01*
X232813Y50046D01*
X232559Y49244D01*
X232286Y48448D01*
X231992Y47659D01*
X231680Y46878D01*
X231348Y46104D01*
X230998Y45339D01*
X230629Y44583D01*
X230241Y43836D01*
X229835Y43099D01*
X229412Y42371D01*
X228970Y41655D01*
X228511Y40949D01*
X228035Y40256D01*
X227542Y39573D01*
X227032Y38904D01*
X226507Y38247D01*
X225965Y37603D01*
X225407Y36972D01*
X224834Y36356D01*
X224247Y35753D01*
X223644Y35166D01*
X223028Y34593D01*
X222397Y34035D01*
X221753Y33493D01*
X221096Y32968D01*
X220427Y32458D01*
X219744Y31965D01*
X219051Y31489D01*
X218345Y31030D01*
X217629Y30588D01*
X216901Y30165D01*
X216164Y29759D01*
X215417Y29371D01*
X214661Y29002D01*
X213896Y28652D01*
X213122Y28320D01*
X212341Y28008D01*
X211552Y27714D01*
X210756Y27441D01*
X209954Y27187D01*
X209146Y26952D01*
X208332Y26738D01*
X207513Y26543D01*
X206690Y26369D01*
X205862Y26215D01*
X205031Y26081D01*
X204197Y25968D01*
X203361Y25875D01*
X202523Y25803D01*
X201683Y25751D01*
X200842Y25720D01*
X200000Y25710D01*
X199158Y25720D01*
X198317Y25751D01*
X197477Y25803D01*
X196639Y25875D01*
X195803Y25968D01*
X194969Y26081D01*
X194138Y26215D01*
X193310Y26369D01*
X192487Y26543D01*
X191668Y26738D01*
X190854Y26952D01*
X190046Y27187D01*
X189244Y27441D01*
X188448Y27714D01*
X187659Y28008D01*
X186878Y28320D01*
X186104Y28652D01*
X185339Y29002D01*
X184583Y29371D01*
X183836Y29759D01*
X183099Y30165D01*
X182371Y30588D01*
X181655Y31030D01*
X180949Y31489D01*
X180256Y31965D01*
X179573Y32458D01*
X178904Y32968D01*
X178247Y33493D01*
X177603Y34035D01*
X176972Y34593D01*
X176356Y35166D01*
X175753Y35753D01*
X175166Y36356D01*
X174593Y36972D01*
X174035Y37603D01*
X173493Y38247D01*
X172968Y38904D01*
X172458Y39573D01*
X171965Y40256D01*
X171489Y40949D01*
X171030Y41655D01*
X170588Y42371D01*
X170165Y43099D01*
X169759Y43836D01*
X169371Y44583D01*
X169002Y45339D01*
X168652Y46104D01*
X168320Y46878D01*
X168008Y47659D01*
X167714Y48448D01*
X167441Y49244D01*
X167187Y50046D01*
X166952Y50854D01*
X166738Y51668D01*
X166543Y52487D01*
X166369Y53310D01*
X166215Y54138D01*
X166081Y54969D01*
X165968Y55803D01*
X165875Y56639D01*
X165803Y57477D01*
X165751Y58317D01*
X165720Y59158D01*
X165710Y60000D01*
D10*
X182500Y60000D02*
X182505Y60429D01*
X182521Y60859D01*
X182547Y61287D01*
X182584Y61715D01*
X182632Y62142D01*
X182689Y62568D01*
X182758Y62992D01*
X182836Y63414D01*
X182925Y63834D01*
X183024Y64252D01*
X183134Y64667D01*
X183254Y65080D01*
X183383Y65489D01*
X183523Y65896D01*
X183673Y66298D01*
X183832Y66697D01*
X184001Y67092D01*
X184180Y67482D01*
X184369Y67868D01*
X184566Y68249D01*
X184773Y68626D01*
X184990Y68997D01*
X185215Y69362D01*
X185449Y69722D01*
X185692Y70077D01*
X185944Y70425D01*
X186204Y70767D01*
X186472Y71102D01*
X186749Y71431D01*
X187033Y71752D01*
X187326Y72067D01*
X187626Y72374D01*
X187933Y72674D01*
X188248Y72967D01*
X188569Y73251D01*
X188898Y73528D01*
X189233Y73796D01*
X189575Y74056D01*
X189923Y74308D01*
X190278Y74551D01*
X190638Y74785D01*
X191003Y75010D01*
X191374Y75227D01*
X191751Y75434D01*
X192132Y75631D01*
X192518Y75820D01*
X192908Y75999D01*
X193303Y76168D01*
X193702Y76327D01*
X194104Y76477D01*
X194511Y76617D01*
X194920Y76746D01*
X195333Y76866D01*
X195748Y76976D01*
X196166Y77075D01*
X196586Y77164D01*
X197008Y77242D01*
X197432Y77311D01*
X197858Y77368D01*
X198285Y77416D01*
X198713Y77453D01*
X199141Y77479D01*
X199571Y77495D01*
X200000Y77500D01*
X200429Y77495D01*
X200859Y77479D01*
X201287Y77453D01*
X201715Y77416D01*
X202142Y77368D01*
X202568Y77311D01*
X202992Y77242D01*
X203414Y77164D01*
X203834Y77075D01*
X204252Y76976D01*
X204667Y76866D01*
X205080Y76746D01*
X205489Y76617D01*
X205896Y76477D01*
X206298Y76327D01*
X206697Y76168D01*
X207092Y75999D01*
X207482Y75820D01*
X207868Y75631D01*
X208249Y75434D01*
X208626Y75227D01*
X208997Y75010D01*
X209362Y74785D01*
X209722Y74551D01*
X210077Y74308D01*
X210425Y74056D01*
X210767Y73796D01*
X211102Y73528D01*
X211431Y73251D01*
X211752Y72967D01*
X212067Y72674D01*
X212374Y72374D01*
X212674Y72067D01*
X212967Y71752D01*
X213251Y71431D01*
X213528Y71102D01*
X213796Y70767D01*
X214056Y70425D01*
X214308Y70077D01*
X214551Y69722D01*
X214785Y69362D01*
X215010Y68997D01*
X215227Y68626D01*
X215434Y68249D01*
X215631Y67868D01*
X215820Y67482D01*
X215999Y67092D01*
X216168Y66697D01*
X216327Y66298D01*
X216477Y65896D01*
X216617Y65489D01*
X216746Y65080D01*
X216866Y64667D01*
X216976Y64252D01*
X217075Y63834D01*
X217164Y63414D01*
X217242Y62992D01*
X217311Y62568D01*
X217368Y62142D01*
X217416Y61715D01*
X217453Y61287D01*
X217479Y60859D01*
X217495Y60429D01*
X217500Y60000D01*
X217495Y59571D01*
X217479Y59141D01*
X217453Y58713D01*
X217416Y58285D01*
X217368Y57858D01*
X217311Y57432D01*
X217242Y57008D01*
X217164Y56586D01*
X217075Y56166D01*
X216976Y55748D01*
X216866Y55333D01*
X216746Y54920D01*
X216617Y54511D01*
X216477Y54104D01*
X216327Y53702D01*
X216168Y53303D01*
X215999Y52908D01*
X215820Y52518D01*
X215631Y52132D01*
X215434Y51751D01*
X215227Y51374D01*
X215010Y51003D01*
X214785Y50638D01*
X214551Y50278D01*
X214308Y49923D01*
X214056Y49575D01*
X213796Y49233D01*
X213528Y48898D01*
X213251Y48569D01*
X212967Y48248D01*
X212674Y47933D01*
X212374Y47626D01*
X212067Y47326D01*
X211752Y47033D01*
X211431Y46749D01*
X211102Y46472D01*
X210767Y46204D01*
X210425Y45944D01*
X210077Y45692D01*
X209722Y45449D01*
X209362Y45215D01*
X208997Y44990D01*
X208626Y44773D01*
X208249Y44566D01*
X207868Y44369D01*
X207482Y44180D01*
X207092Y44001D01*
X206697Y43832D01*
X206298Y43673D01*
X205896Y43523D01*
X205489Y43383D01*
X205080Y43254D01*
X204667Y43134D01*
X204252Y43024D01*
X203834Y42925D01*
X203414Y42836D01*
X202992Y42758D01*
X202568Y42689D01*
X202142Y42632D01*
X201715Y42584D01*
X201287Y42547D01*
X200859Y42521D01*
X200429Y42505D01*
X200000Y42500D01*
X199571Y42505D01*
X199141Y42521D01*
X198713Y42547D01*
X198285Y42584D01*
X197858Y42632D01*
X197432Y42689D01*
X197008Y42758D01*
X196586Y42836D01*
X196166Y42925D01*
X195748Y43024D01*
X195333Y43134D01*
X194920Y43254D01*
X194511Y43383D01*
X194104Y43523D01*
X193702Y43673D01*
X193303Y43832D01*
X192908Y44001D01*
X192518Y44180D01*
X192132Y44369D01*
X191751Y44566D01*
X191374Y44773D01*
X191003Y44990D01*
X190638Y45215D01*
X190278Y45449D01*
X189923Y45692D01*
X189575Y45944D01*
X189233Y46204D01*
X188898Y46472D01*
X188569Y46749D01*
X188248Y47033D01*
X187933Y47326D01*
X187626Y47626D01*
X187326Y47933D01*
X187033Y48248D01*
X186749Y48569D01*
X186472Y48898D01*
X186204Y49233D01*
X185944Y49575D01*
X185692Y49923D01*
X185449Y50278D01*
X185215Y50638D01*
X184990Y51003D01*
X184773Y51374D01*
X184566Y51751D01*
X184369Y52132D01*
X184180Y52518D01*
X184001Y52908D01*
X183832Y53303D01*
X183673Y53702D01*
X183523Y54104D01*
X183383Y54511D01*
X183254Y54920D01*
X183134Y55333D01*
X183024Y55748D01*
X182925Y56166D01*
X182836Y56586D01*
X182758Y57008D01*
X182689Y57432D01*
X182632Y57858D01*
X182584Y58285D01*
X182547Y58713D01*
X182521Y59141D01*
X182505Y59571D01*
X182500Y60000D01*
M02*
